<?xml version="1.0" encoding="UTF-8"?>
<svg id="Logo_Principal" data-name="Logo Principal" xmlns="http://www.w3.org/2000/svg" viewBox="0 0 500 144.79">
  <defs>
    <style>
      .cls-1 {
        fill: #fff;
      }
    </style>
  </defs>
  <path class="cls-1" d="M287.65,87.95c-1.37-2.91-1.92-6.28-1.61-9.96l.07-.91c-.03-.91-.07-1.82,0-2.77l3.4-40.74c.13-1.6.42-3.11.83-4.51-8.69-12.26-22.98-20.25-39.15-20.25-18.3,0-34.21,10.25-42.3,25.31,1.37,1.84,2.57,3.82,3.62,5.93,2.22,4.51,3.48,9.39,3.75,14.52.07,1.02.04,2.03.01,3.05.03.22.05.42.07.63.28,5.15-.46,10.16-2.19,14.88-1.08,2.95-2.48,5.69-4.17,8.21,8.37,14.02,23.69,23.41,41.21,23.41,14.58,0,27.66-6.51,36.46-16.8ZM268.41,80.61v2.61c0,5.73-11.46,6.34-16.4,6.34s-16.4-.61-16.4-6.34v-2.61c-10.18-5.37-16.48-15.31-16.48-26.13,0-.54.01-1.06.05-1.51-.01-3.04,2.78-5.49,8.29-7.28.28-3.28,2.38-6.16,5.41-7.43.13-3.46,2.23-6.47,5.38-7.82.66-3.36,3.23-6.08,6.58-6.93,1.67-2.19,4.26-3.48,7.04-3.48s5.29,1.25,6.97,3.39c3.47.74,6.23,3.55,6.91,7.02,3.15,1.35,5.25,4.36,5.38,7.82,3.03,1.26,5.13,4.13,5.41,7.43,5.53,1.79,8.25,4.18,8.29,7.22.04.52.05,1.04.05,1.56,0,10.82-6.3,20.76-16.48,26.13Z"/>
  <path class="cls-1" d="M278,50.88s-.01-.03-.02-.04c-1.05-1.46-2.75-2.42-4.68-2.48.05-.16.11-.33.15-.5.12-.45.19-.92.19-1.4,0-3.23-2.57-5.84-5.77-5.94.2-.6.34-1.24.34-1.91,0-3.06-2.32-5.55-5.29-5.89.02-.2.05-.38.05-.59,0-3.24-2.6-5.88-5.84-5.95-1-1.89-2.96-3.2-5.25-3.2s-4.28,1.31-5.27,3.23c-3.1.21-5.55,2.77-5.55,5.92,0,.21.03.39.05.59-2.97.34-5.29,2.84-5.29,5.89,0,.67.14,1.3.34,1.91-3.2.1-5.77,2.71-5.77,5.94,0,.48.07.95.19,1.4.04.18.1.34.15.5-1.93.05-3.63,1.02-4.68,2.48,0,.01-.01.03-.02.04-1.38.71-2.14,1.49-2.36,2.3-.03.13-.18.25-.18.39,0,.03.03.06.04.09.05.7.65,1.37,1.59,2.01,0,.03,0,.06.01.09.1.07.26.13.37.19.23.14.5.27.77.4.46.23.97.44,1.54.65.33.12.64.24,1,.36.73.24,1.54.46,2.4.67.27.07.5.14.78.2,1.16.26,2.42.5,3.77.72.05,0,.1.01.14.02.37.06.78.11,1.16.16,1,.14,2.02.27,3.1.39.54.06,1.09.11,1.64.16,1.1.1,2.23.18,3.38.24.41.02.81.05,1.23.07.12,0,.23.01.36.02,1.7.07,3.44.12,5.24.12s3.54-.05,5.24-.12c.11,0,.21-.01.31-.02.43-.02.85-.05,1.28-.07,1.16-.07,2.28-.15,3.38-.24.42-.04.83-.08,1.25-.12.13-.01.27-.03.4-.04,1.08-.11,2.11-.25,3.11-.39.14-.02.29-.04.43-.06.29-.04.59-.08.86-.12,1.34-.22,2.61-.45,3.76-.72.16-.04.28-.08.44-.11.11-.03.22-.06.34-.09.86-.21,1.67-.43,2.41-.67.36-.12.68-.24,1-.36.56-.21,1.08-.43,1.54-.65.4-.2.83-.39,1.15-.6,0-.03,0-.06.01-.09.93-.63,1.52-1.3,1.58-1.99,0-.04.04-.07.04-.1,0-.14-.15-.27-.19-.41-.23-.81-.98-1.58-2.35-2.28ZM244.9,45.94c-.15.54-.69.86-1.25.71-1.45-.4-2.96-.21-4.28.53-1.3.74-2.24,1.95-2.64,3.4-.13.45-.53.75-.98.75-.09,0-.18-.01-.27-.04-.54-.15-.86-.71-.71-1.25.54-1.97,1.82-3.62,3.6-4.63,1.78-1.01,3.85-1.26,5.82-.72.54.15.86.71.71,1.25ZM247.31,37.15c-.09,0-.18-.01-.27-.04-.54-.15-.86-.71-.71-1.25.54-1.97,1.82-3.62,3.6-4.63,1.78-1.02,3.85-1.27,5.82-.73.54.15.86.71.71,1.25-.15.54-.69.86-1.25.71-1.44-.4-2.96-.21-4.28.53-1.3.74-2.24,1.95-2.64,3.4-.13.45-.53.75-.98.75ZM258.54,52.87c-.15.54-.7.87-1.25.71-1.44-.39-2.96-.21-4.28.53-1.3.74-2.24,1.95-2.64,3.4-.13.45-.53.75-.98.75-.09,0-.18-.01-.27-.04-.54-.15-.86-.71-.71-1.25.54-1.97,1.82-3.62,3.6-4.63,1.77-1.01,3.85-1.27,5.82-.73.54.15.86.71.71,1.25ZM265.26,41.05c-.15.54-.68.86-1.25.71-2.98-.82-6.1.94-6.92,3.93-.13.45-.54.75-.98.75-.09,0-.18-.01-.27-.04-.54-.15-.86-.71-.71-1.25,1.13-4.07,5.36-6.47,9.43-5.35.54.15.86.71.71,1.25Z"/>
  <path class="cls-1" d="M189.95,51.27c-.74-1.48-1.69-2.75-2.85-3.79-1.16-1.04-2.52-1.85-4.08-2.43-1.56-.57-3.2-.82-4.93-.72-1.73.09-3.32.51-4.78,1.24-1.46.74-2.72,1.69-3.79,2.85-1.07,1.16-1.88,2.52-2.43,4.08-.54,1.55-.77,3.2-.68,4.92.09,1.73.49,3.32,1.2,4.78.71,1.46,1.65,2.72,2.85,3.79,1.19,1.07,2.55,1.88,4.08,2.43,1.52.55,3.15.77,4.88.68,1.73-.09,3.34-.49,4.82-1.2,1.49-.71,2.75-1.66,3.79-2.85,1.04-1.19,1.85-2.55,2.43-4.08.58-1.52.82-3.15.72-4.88-.09-1.73-.51-3.34-1.24-4.82Z"/>
  <path class="cls-1" d="M209.65,67.79c1.51-4.11,2.14-8.47,1.91-12.96-.24-4.49-1.34-8.75-3.28-12.68-1.92-3.88-4.47-7.26-7.58-10.07h0c-3.13-2.81-6.76-4.98-10.82-6.47-4.1-1.5-8.44-2.14-12.96-1.91-4.49.24-8.76,1.35-12.68,3.28-3.89,1.92-7.27,4.48-10.05,7.61-1.43,1.61-2.67,3.37-3.77,5.24,0-.37.02-.73-.03-1.1-.19-1.71-.75-3.37-1.67-4.94-.9-1.51-2.05-2.79-3.45-3.82-1.27-.93-2.7-1.65-4.27-2.15-1.51-.48-3.12-.68-4.71-.56-2.29.18-4.31.86-6.03,2.04-1.33.91-2.57,2.12-3.66,3.58l-2.59,4.6c-1.07-2.44-2.68-3.98-4.07-4.93-2.67-1.81-5.79-2.57-9.04-2.23-3.31.37-6.22,1.8-8.42,4.16-.87.93-1.79,2.25-2.4,3.99-.7-.97-1.5-1.87-2.47-2.64-1.94-1.53-5.27-3.17-10.12-2.34l-24.71,4.27c-3.91.67-6.84,2.37-8.71,5.05-.94,1.35-1.55,2.87-1.84,4.56-.47-.35-.88-.76-1.38-1.08-2.61-1.63-5.65-2.71-9.05-3.19-3.37-.49-7.06-.21-11.02.82l-15.21,3.95c-7.76,2.02-11.31,8.19-9.25,16.12l10.15,39.1c.99,3.82,2.92,6.64,5.73,8.39,1.83,1.14,3.91,1.7,6.22,1.7,1.34,0,2.75-.19,4.24-.57,3.99-1.04,6.86-3.05,8.54-5.99,1.66-2.89,1.97-6.39.93-10.38l-1.74-6.72c.89-.08,1.82-.25,2.77-.5l2.43-.63c3.37-.87,6.28-2.37,8.63-4.45,1.09-.96,2.07-2.02,2.93-3.14l1.74,10.05c.67,3.92,2.35,6.85,4.99,8.74,1.96,1.4,4.29,2.11,6.95,2.11.94,0,1.92-.09,2.95-.27l24.71-4.27c4.86-.83,7.44-3.51,8.75-5.6.1-.17.17-.35.26-.52.45.42.91.81,1.33,1.1,2.24,1.53,4.81,2.31,7.53,2.31.53,0,1.06-.03,1.6-.09,3.25-.36,6.14-1.79,8.34-4.15,1.17-1.26,2.45-3.18,2.94-5.92l3.26,3.62c2.95,2.91,6.58,4.21,10.48,3.77,1.73-.18,3.41-.75,4.95-1.66,1.38-.81,2.59-1.81,3.63-2.99,1.08-1.24,1.92-2.66,2.51-4.23.46-1.26.63-2.57.65-3.9.66.71,1.24,1.5,1.96,2.14,3.08,2.77,6.71,4.94,10.78,6.43,3.55,1.3,7.28,1.96,11.13,1.96.61,0,1.22-.02,1.83-.05,4.48-.24,8.75-1.34,12.68-3.28,3.87-1.91,7.25-4.44,10.05-7.52,2.82-3.1,5-6.73,6.5-10.8ZM56.22,68.35c-.16,2.23-.71,4.32-1.66,6.27-.94,1.95-2.27,3.68-3.97,5.18-1.7,1.5-3.82,2.58-6.35,3.24l-2.44.63c-4.53,1.18-7.31-.26-8.36-4.3-.38-1.45-.39-2.62-.04-3.51.35-.89.89-1.65,1.64-2.26.74-.61,1.58-1.12,2.5-1.52.93-.4,1.78-.85,2.55-1.34.77-.49,1.39-1.09,1.85-1.79.46-.7.57-1.63.34-2.79-.7-2.71-2.63-3.67-5.76-2.85l-5.83,1.51c-1.23.32-1.97,1.58-1.65,2.8l7.78,29.99c1.33,5.13-.51,8.34-5.52,9.64-2.53.66-4.59.5-6.16-.48-1.57-.98-2.67-2.67-3.3-5.08l-10.15-39.1c-1.3-5.01.46-8.14,5.29-9.39l15.2-3.95c3.26-.84,6.21-1.08,8.85-.7,2.64.38,4.94,1.18,6.9,2.41,1.96,1.23,3.59,2.79,4.88,4.67,1.29,1.88,2.22,3.91,2.79,6.08.56,2.17.76,4.38.6,6.6ZM102.58,88.63c-1.05,1.67-2.72,2.7-5.01,3.09l-24.71,4.27c-4.83.83-7.66-1.19-8.5-6.07l-6.59-38.13c-.84-4.88,1.15-7.74,5.97-8.58l24.71-4.27c2.3-.4,4.21.02,5.76,1.23,1.54,1.22,2.49,2.83,2.83,4.83.35,2,0,3.83-1.05,5.5-1.05,1.67-2.72,2.7-5.01,3.09l-15.27,2.64c-1.22.21-2.04,1.37-1.83,2.59.21,1.22,1.37,2.04,2.59,1.83l11.74-2.03c2.3-.4,4.21.01,5.76,1.23,1.54,1.22,2.49,2.83,2.83,4.83.35,2,0,3.83-1.05,5.5-1.05,1.67-2.72,2.7-5.01,3.09l-11.74,2.03c-1.22.21-2.04,1.37-1.82,2.59h0c.21,1.22,1.37,2.04,2.59,1.83l15.27-2.64c2.29-.4,4.21.01,5.76,1.23,1.54,1.22,2.49,2.83,2.83,4.83.35,2,0,3.83-1.05,5.5ZM148.9,80.9c-.35.94-.84,1.78-1.48,2.51-.64.73-1.4,1.36-2.27,1.87-.87.52-1.79.83-2.74.93-2.26.25-4.26-.49-6.01-2.22l-11.28-12.54c-.81-.9-2.29-.23-2.16.97l.92,8.36c.26,2.37-.27,4.27-1.58,5.67-1.32,1.41-2.95,2.22-4.91,2.43-2.02.22-3.82-.21-5.41-1.29-1.59-1.09-2.52-2.82-2.78-5.19l-4.24-38.46c-.26-2.37.26-4.27,1.58-5.67,1.32-1.41,2.98-2.22,5-2.44,1.96-.22,3.73.22,5.33,1.3,1.59,1.09,2.52,2.82,2.78,5.19l.91,8.28c.13,1.21,1.74,1.53,2.32.46l8.16-14.87c.73-.98,1.52-1.76,2.36-2.33.84-.57,1.84-.92,3.03-1.06,1.03-.12,2.1,0,3.08.34.92.31,1.76.74,2.51,1.29.78.58,1.43,1.3,1.95,2.17.52.88.83,1.79.93,2.74.19,1.72-.21,3.3-1.19,4.73l-10.23,14.4c-.66.93-.53,2.21.32,2.99l13.16,12.08c1.34,1.23,2.1,2.71,2.29,4.43.11,1.01,0,1.98-.35,2.92ZM190.66,81.15c-3.26,1.61-6.77,2.51-10.53,2.72-3.76.2-7.34-.32-10.76-1.58-3.42-1.25-6.41-3.03-8.99-5.35-2.58-2.31-4.67-5.1-6.28-8.36-1.61-3.26-2.52-6.77-2.72-10.53-.2-3.76.32-7.34,1.58-10.76,1.25-3.42,3.03-6.43,5.35-9.03,2.31-2.6,5.1-4.71,8.36-6.32,3.26-1.61,6.77-2.52,10.53-2.72,3.76-.2,7.34.32,10.76,1.58,3.41,1.25,6.43,3.05,9.03,5.39,2.61,2.34,4.72,5.15,6.33,8.41,1.61,3.26,2.51,6.77,2.72,10.53.2,3.76-.32,7.34-1.58,10.76-1.25,3.42-3.05,6.41-5.39,8.99-2.34,2.58-5.15,4.67-8.41,6.28Z"/>
  <path class="cls-1" d="M472.26,75.13c-.75-1.37-1.76-2.58-3.04-3.64-1.28-1.06-2.75-1.83-4.41-2.32-1.66-.49-3.3-.62-4.92-.41-1.62.21-3.13.69-4.52,1.43-1.4.74-2.61,1.75-3.64,3.04-1.03,1.28-1.79,2.76-2.27,4.42-.49,1.66-.64,3.3-.45,4.91.18,1.61.66,3.12,1.43,4.52.77,1.41,1.78,2.62,3.04,3.64,1.26,1.02,2.72,1.77,4.38,2.26,1.66.49,3.31.64,4.95.47,1.64-.17,3.15-.65,4.53-1.43,1.38-.78,2.59-1.79,3.64-3.04,1.05-1.25,1.82-2.7,2.3-4.37.49-1.66.63-3.32.42-4.96-.2-1.65-.68-3.15-1.43-4.53Z"/>
  <path class="cls-1" d="M493.99,77.32c-.52-4.3-1.8-8.34-3.82-12.02-2.01-3.67-4.72-6.93-8.07-9.69-3.37-2.78-7.27-4.83-11.59-6.09-4.32-1.26-8.72-1.64-13.04-1.11-4.3.52-8.34,1.81-12,3.85-2.75,1.53-5.19,3.57-7.44,5.86.57-1.08,1.02-2.22,1.26-3.47.33-1.7.29-3.45-.13-5.22-.4-1.71-1.13-3.27-2.14-4.66v-.02c-1-1.32-2.2-2.48-3.6-3.43-1.4-.95-2.98-1.6-4.64-1.93-2.06-.4-4.04-.32-5.89.25-1.55.48-3.08,1.26-4.56,2.33l-3.83,3.62c-.3-2.65-1.38-4.6-2.41-5.91-2.01-2.53-4.77-4.19-7.97-4.81-3.27-.64-6.48-.13-9.28,1.46-1.1.62-2.35,1.6-3.45,3.05-.38-1.08-.85-2.12-1.51-3.1-1.39-2.04-4.08-4.6-8.95-5.25l-24.86-3.32c-5.72-.76-10.22,1.33-12.65,5.6-.3-.43-.52-.91-.85-1.32-1.94-2.43-4.48-4.47-7.57-6.07-3.04-1.57-6.66-2.54-10.77-2.89l-15.85-1.32c-8.03-.64-13.47,4.02-14.16,12.24l-3.39,40.74c-.33,3.97.57,7.3,2.65,9.88,2.15,2.68,5.37,4.22,9.57,4.57.55.05,1.08.07,1.61.07,3.42,0,6.27-.98,8.51-2.91,2.54-2.2,4-5.42,4.35-9.56l.59-7.08c.9.22,1.85.38,2.87.46l2.55.21c3.52.29,6.76-.17,9.7-1.36,1.72-.7,3.27-1.64,4.72-2.7l-1.46,10.93c-.52,3.94.2,7.24,2.15,9.82,1.96,2.61,4.96,4.19,8.89,4.72l24.86,3.32c.71.1,1.38.14,2.02.14,3.77,0,6.39-1.5,7.99-2.86.17-.14.29-.31.45-.46.29.51.6,1,.91,1.39,2,2.53,4.79,4.2,8.06,4.84,3.2.62,6.38.11,9.2-1.48,1.49-.85,3.28-2.31,4.56-4.78l2.03,4.42c1.95,3.66,5.02,5.98,8.9,6.73.76.15,1.53.22,2.3.22.96,0,1.94-.11,2.91-.35,1.55-.37,3.01-.96,4.35-1.78,1.4-.86,2.62-1.96,3.64-3.29.77-1,1.3-2.13,1.72-3.3.35.79.61,1.63,1.02,2.39,1.99,3.65,4.7,6.89,8.04,9.64,3.37,2.78,7.27,4.83,11.59,6.09,3.05.89,6.14,1.34,9.23,1.34,1.27,0,2.55-.08,3.82-.23,4.28-.52,8.31-1.78,11.98-3.76,3.69-1.99,6.95-4.7,9.7-8.04,2.78-3.38,4.83-7.28,6.09-11.59,1.26-4.32,1.64-8.71,1.11-13.05ZM336.65,60.24c-1.55,1.55-3.39,2.76-5.52,3.62-2.13.87-4.51,1.19-7.16.97l-2.55-.21c-4.71-.39-6.9-2.69-6.55-6.91.12-1.51.5-2.63,1.13-3.37.63-.74,1.4-1.27,2.32-1.61.92-.34,1.88-.54,2.9-.61,1.02-.07,1.98-.22,2.88-.43.9-.21,1.69-.57,2.37-1.08.67-.51,1.09-1.37,1.26-2.56.24-2.83-1.28-4.38-4.55-4.65l-6.13-.51c-1.25-.1-2.35.82-2.45,2.07l-2.61,31.31c-.44,5.34-3.28,7.8-8.49,7.36-2.64-.22-4.55-1.06-5.73-2.52-1.18-1.46-1.66-3.45-1.45-5.96l3.39-40.74c.43-5.22,3.17-7.62,8.2-7.2l15.84,1.32c3.4.28,6.29,1.05,8.69,2.29,2.4,1.24,4.33,2.78,5.79,4.61,1.46,1.83,2.49,3.86,3.1,6.1.6,2.23.81,4.48.63,6.75-.19,2.26-.74,4.43-1.63,6.51-.9,2.08-2.13,3.89-3.68,5.44ZM386.58,44.86c-.27,2.01-1.15,3.66-2.65,4.93-1.5,1.28-3.4,1.76-5.71,1.45l-15.36-2.05c-1.23-.16-2.35.7-2.52,1.92-.16,1.23.7,2.35,1.92,2.51l11.81,1.58c2.31.31,4.02,1.27,5.12,2.9,1.11,1.62,1.53,3.44,1.26,5.45-.27,2.01-1.15,3.66-2.65,4.93-1.5,1.28-3.4,1.76-5.71,1.45l-11.81-1.58c-1.23-.16-2.35.7-2.52,1.92h0c-.16,1.23.7,2.35,1.92,2.52l15.36,2.05c2.31.31,4.02,1.27,5.12,2.9,1.11,1.62,1.53,3.44,1.26,5.45-.27,2.01-1.15,3.66-2.65,4.93-1.49,1.28-3.4,1.76-5.7,1.45l-24.86-3.32c-4.85-.65-6.95-3.43-6.3-8.34l5.12-38.35c.66-4.91,3.41-7.04,8.26-6.4l24.86,3.32c2.31.31,4.02,1.27,5.13,2.9,1.11,1.62,1.53,3.44,1.26,5.45ZM431.33,57.76l-13.27,10.11c-1.35,1.03-1.73,2.91-.87,4.38l8.48,14.6c.91,1.58,1.2,3.21.87,4.91-.19,1-.6,1.89-1.21,2.69-.61.79-1.33,1.44-2.16,1.95-.83.51-1.74.88-2.73,1.11-.99.23-1.95.26-2.89.07-2.23-.43-3.92-1.73-5.08-3.91l-7.26-15.81c-.44-.95-1.83-.78-2.03.24l-1.71,8.77c-.46,2.34-1.52,3.99-3.2,4.94-1.68.95-3.48,1.24-5.42.86-1.99-.39-3.59-1.34-4.78-2.85-1.2-1.51-1.57-3.44-1.11-5.78l7.4-37.98c.46-2.34,1.52-3.99,3.2-4.94,1.68-.95,3.51-1.23,5.5-.84,1.93.38,3.5,1.32,4.7,2.83,1.2,1.51,1.56,3.44,1.11,5.78l-1.7,8.71c-.2,1.03,1.04,1.71,1.8.98l12.6-12.14c.99-.72,1.97-1.23,2.94-1.53.97-.3,2.03-.33,3.2-.11,1.01.2,1.98.62,2.82,1.23.8.57,1.48,1.24,2.04,2,.58.78.98,1.67,1.22,2.65.23.99.26,1.95.08,2.89-.33,1.7-1.18,3.09-2.54,4.16ZM487.58,88.82c-1.06,3.61-2.74,6.82-5.05,9.63-2.31,2.81-5,5.04-8.07,6.69-3.07,1.66-6.4,2.7-10.02,3.14-3.61.44-7.22.13-10.83-.93-3.61-1.06-6.82-2.74-9.63-5.05-2.81-2.31-5.04-4.99-6.7-8.02-1.66-3.04-2.71-6.36-3.15-9.97-.44-3.61-.13-7.22.93-10.83,1.06-3.61,2.74-6.82,5.05-9.63,2.31-2.81,4.99-5.06,8.04-6.75,3.04-1.69,6.37-2.76,9.98-3.19,3.61-.44,7.22-.13,10.83.93,3.61,1.06,6.82,2.74,9.63,5.05,2.81,2.31,5.05,5.01,6.74,8.08,1.68,3.07,2.74,6.42,3.18,10.03.44,3.61.13,7.22-.93,10.83Z"/>
  <path class="cls-1" d="M219,110.47c-.95-.69-2.17-.96-3.35-.64-.88.25-1.58.76-2.08,1.45-.67.92-.93,2.12-.63,3.33.25.88.78,1.59,1.49,2.11.9.66,2.11.95,3.29.59.9-.23,1.64-.75,2.14-1.44.66-.9.92-2.16.59-3.33-.27-.85-.78-1.59-1.45-2.08ZM218.32,114.76c-.65.89-1.91,1.08-2.8.43s-1.08-1.91-.43-2.8c.65-.89,1.91-1.08,2.8-.43.88.65,1.08,1.91.43,2.8Z"/>
  <path class="cls-1" d="M213.75,117.61c-.86-.63-1.52-1.57-1.85-2.7-.43-1.53-.1-3.11.76-4.29.58-.8,1.4-1.42,2.4-1.74-.51-1.43-1.04-2.37-1.94-3.03-.84-.61-2.72-1.06-4.2-.89-1.94.26-7.21,1.39-8.78,1.95-.68.26-1.23.69-1.62,1.22-.47.64-.72,1.48-.63,2.48.14,1.16.55,1.99,1.22,2.48.45.33,1.03.53,1.72.54,0,0,2.22.04,7.39-1.09,2.55,9.78,3.26,11.29,3.26,11.29.39.74.77,1.29,1.24,1.63.76.55,1.65.55,2.8.14.87-.29,1.42-.68,1.78-1.17.95-1.29.57-3.25.08-5.88-1.33.19-2.64-.18-3.65-.92Z"/>
  <path class="cls-1" d="M243.49,117.2c-1.04-.43-5.37-1.53-8.97-2.36-2.04-.47-3.84-.85-4.59-.92-1.37-.1-2.47.66-2.93,2.65-.5,2.2.25,4.15,2.14,4.61l9.65,2.4c-.36.87-.68,2.02-.93,3.09-.17.75-.3,1.43-.37,1.99-2.86-.82-4.87-1.34-6.25-1.65-1.84-.42-2.53-.5-2.53-.5-2.39-.28-3.41.61-3.93,2.89-.49,2.15,1.03,3.21,2.4,3.66,1.11.36,3.49.96,5.9,1.52,2.74.63,5.59,1.2,6.81,1.35,2.78.39,3.49-1.92,3.96-3.7.4-1.6.95-3.52,1.4-5.49.49-2.12.88-4.3.99-6.1.09-1.72-1.38-2.93-2.73-3.44Z"/>
  <path class="cls-1" d="M272,124.01c-.79,1.08-1.97,1.77-3.2,1.98-1.05.18-2.19,0-3.23-.55-1.4-.76-2.3-2.09-2.55-3.53-.16-.97-.04-1.99.42-2.94-1.38-.63-2.43-.91-3.53-.72-1.03.18-2.66,1.21-3.56,2.39-1.16,1.58-4.03,6.15-4.71,7.67-.29.67-.36,1.36-.25,2.01.14.79.57,1.55,1.35,2.17.93.71,1.82.99,2.63.85.55-.09,1.1-.37,1.58-.86,0,0,1.57-1.57,4.36-6.07,8.79,4.98,10.38,5.52,10.38,5.52.8.24,1.46.34,2.04.24.92-.16,1.54-.8,2.05-1.92.4-.83.5-1.49.4-2.1-.27-1.57-1.94-2.67-4.17-4.15Z"/>
  <path class="cls-1" d="M269.83,117.66c-.8-.4-1.69-.55-2.5-.41-1.16.2-2.2.89-2.8,1.97-.43.8-.55,1.66-.41,2.5.2,1.13.88,2.14,1.96,2.77.8.43,1.68.55,2.55.4,1.1-.19,2.15-.85,2.72-1.95.45-.81.6-1.7.46-2.54-.19-1.1-.91-2.17-1.98-2.74ZM268.3,123.04c-1.08.18-2.12-.55-2.3-1.63-.18-1.08.55-2.12,1.63-2.31,1.08-.18,2.12.55,2.3,1.63.18,1.08-.55,2.12-1.63,2.31Z"/>
  <path class="cls-1" d="M297.34,109.74c-1.18-1.83-2.47-3.63-3.69-4.97-1.17-1.27-3.06-1.06-4.37-.44-1.04.45-4.85,2.79-7.95,4.79-1.77,1.14-3.29,2.16-3.86,2.65-1.02.92-1.25,2.23-.14,3.95,1.23,1.9,3.15,2.71,4.79,1.68l8.45-5.24c.37.87.98,1.9,1.57,2.82.42.65.82,1.21,1.16,1.66-2.59,1.48-4.36,2.56-5.54,3.33-1.59,1.02-2.13,1.47-2.13,1.47-1.86,1.52-1.94,2.87-.67,4.84,1.2,1.85,3.02,1.49,4.3.83,1.04-.55,3.13-1.83,5.2-3.17,2.37-1.53,4.76-3.17,5.72-3.95,2.21-1.72,1.05-3.85.1-5.42-.87-1.4-1.86-3.13-2.96-4.83Z"/>
</svg>