<?xml version="1.0" encoding="UTF-8"?>
<svg id="Logo_Principal" data-name="Logo Principal" xmlns="http://www.w3.org/2000/svg" viewBox="0 0 500 144.79">
  <defs>
    <style>
      .cls-1 {
        fill: #fff;
      }

      .cls-2 {
        fill: #910f0f;
      }
    </style>
  </defs>
  <g>
    <path class="cls-2" d="M220.05,112.54c-.91-.67-2.1-.93-3.24-.62-.85.24-1.53.74-2.01,1.4-.65.89-.9,2.05-.6,3.22.24.85.75,1.54,1.44,2.04.87.64,2.04.92,3.18.57.87-.23,1.58-.73,2.06-1.39.64-.87.89-2.09.57-3.22-.26-.82-.75-1.54-1.4-2.01ZM219.39,116.7c-.63.86-1.85,1.05-2.71.42s-1.05-1.85-.42-2.71c.63-.86,1.85-1.05,2.71-.42.85.62,1.05,1.85.42,2.71Z"/>
    <path class="cls-2" d="M214.97,119.44c-.84-.61-1.47-1.52-1.79-2.61-.42-1.48-.1-3,.74-4.15.56-.77,1.35-1.37,2.32-1.69-.49-1.38-1-2.29-1.88-2.93-.81-.59-2.63-1.03-4.06-.86-1.88.25-6.97,1.34-8.48,1.89-.66.25-1.19.66-1.57,1.18-.46.62-.7,1.43-.6,2.4.14,1.12.54,1.92,1.18,2.39.44.32,1,.51,1.66.52,0,0,2.14.03,7.15-1.06,2.46,9.45,3.15,10.91,3.15,10.91.37.71.75,1.25,1.2,1.58.73.53,1.59.53,2.71.13.84-.28,1.37-.65,1.72-1.13.91-1.25.55-3.14.08-5.68-1.28.18-2.55-.17-3.53-.89Z"/>
    <path class="cls-2" d="M243.72,119.05c-1.01-.42-5.19-1.48-8.67-2.28-1.98-.45-3.71-.82-4.43-.89-1.32-.09-2.39.64-2.83,2.56-.48,2.13.24,4.01,2.06,4.46l9.33,2.32c-.35.84-.66,1.96-.9,2.98-.17.73-.29,1.38-.36,1.92-2.77-.79-4.71-1.29-6.04-1.6-1.78-.41-2.45-.48-2.45-.48-2.31-.27-3.29.59-3.8,2.79-.48,2.08,1,3.1,2.32,3.54,1.08.35,3.37.93,5.7,1.47,2.65.61,5.4,1.16,6.58,1.3,2.68.38,3.38-1.86,3.82-3.58.38-1.54.91-3.4,1.35-5.3.47-2.05.85-4.15.96-5.89.09-1.67-1.33-2.83-2.64-3.32Z"/>
    <path class="cls-2" d="M271.28,125.64c-.76,1.05-1.9,1.71-3.09,1.91-1.02.17-2.12,0-3.12-.54-1.36-.74-2.23-2.02-2.47-3.41-.16-.94-.04-1.93.4-2.84-1.33-.61-2.35-.88-3.41-.7-.99.17-2.57,1.17-3.44,2.31-1.12,1.52-3.89,5.94-4.55,7.41-.28.65-.35,1.31-.24,1.95.13.76.55,1.5,1.3,2.1.9.68,1.75.95,2.54.82.53-.09,1.06-.36,1.53-.84,0,0,1.51-1.51,4.21-5.87,8.5,4.81,10.03,5.33,10.03,5.33.77.23,1.41.33,1.97.23.89-.15,1.49-.77,1.98-1.85.39-.8.48-1.44.38-2.03-.26-1.52-1.88-2.58-4.03-4.01Z"/>
    <path class="cls-2" d="M265.56,126.09c.77.42,1.63.53,2.47.39,1.06-.18,2.08-.82,2.63-1.89.44-.78.58-1.64.44-2.45-.18-1.07-.88-2.1-1.92-2.65-.77-.39-1.63-.53-2.42-.4-1.12.19-2.13.86-2.71,1.9-.42.77-.54,1.61-.39,2.42.19,1.09.85,2.07,1.9,2.68ZM267.05,120.89c1.04-.18,2.05.53,2.23,1.58.18,1.05-.53,2.05-1.58,2.23-1.04.18-2.05-.53-2.23-1.58-.18-1.04.53-2.05,1.58-2.23Z"/>
    <path class="cls-2" d="M295.77,111.84c-1.15-1.77-2.39-3.51-3.56-4.8-1.13-1.23-2.96-1.03-4.22-.42-1,.43-4.69,2.69-7.69,4.63-1.71,1.1-3.18,2.09-3.73,2.56-.99.89-1.21,2.16-.13,3.82,1.19,1.83,3.04,2.62,4.63,1.63l8.17-5.07c.36.84.95,1.84,1.52,2.72.4.63.79,1.17,1.12,1.6-2.5,1.43-4.21,2.48-5.36,3.22-1.53.99-2.05,1.42-2.05,1.42-1.8,1.47-1.88,2.77-.65,4.68,1.16,1.79,2.92,1.44,4.16.8,1.01-.53,3.02-1.77,5.03-3.07,2.29-1.48,4.6-3.07,5.53-3.81,2.14-1.66,1.02-3.72.1-5.24-.84-1.35-1.8-3.03-2.86-4.67Z"/>
    <path class="cls-2" d="M490.59,85.24c.05-1.77.01-3.52-.2-5.28-.57-4.73-1.99-9.19-4.21-13.26s-5.23-7.67-8.91-10.7c-3.75-3.08-8.05-5.36-12.82-6.75-3.37-.99-6.8-1.48-10.21-1.48-1.42,0-2.85.08-4.25.26-4.56.55-8.87,1.9-12.8,4.01-.56-2.08-1.47-3.99-2.72-5.7-1.39-1.86-3.07-3.42-5.02-4.68-1.38-.88-2.9-1.57-4.49-1.99-1.53-.42-3.08-.62-4.58-.62-1.57,0-3.12.23-4.6.69-1.69.52-3.34,1.3-4.94,2.35-.18-.26-.38-.53-.57-.78-2.64-3.33-6.24-5.5-10.43-6.31-1.16-.23-2.34-.35-3.51-.35-2.99,0-5.84.74-8.45,2.2-2.05-2.41-5.41-4.9-10.73-5.6l-24.02-3.21c-.95-.13-1.89-.2-2.78-.2-3.8,0-7.22,1.13-9.95,3.19-1.78-1.63-3.84-3.06-6.14-4.25-3.48-1.79-7.57-2.91-12.13-3.29l-15.32-1.27c-.61-.05-1.2-.08-1.77-.08-5.2,0-9.54,1.92-12.54,5.29-9.73-12.08-24.64-19.82-41.35-19.82-19.39,0-36.36,10.4-45.6,25.92-.01-.01-.04-.03-.05-.04l-.12-.12c-3.45-3.09-7.46-5.49-11.94-7.13-3.93-1.44-8.09-2.17-12.35-2.17-.66,0-1.31.01-1.98.05-4.98.26-9.7,1.5-14.04,3.64-3.72,1.83-7.03,4.21-9.86,7.07-1.05-1.46-2.3-2.72-3.73-3.77-1.61-1.17-3.41-2.08-5.33-2.72-1.69-.55-3.43-.82-5.18-.82-.61,0-1.22.03-1.83.1-2.78.3-5.29,1.21-7.46,2.69-1.44,1-2.8,2.25-4.01,3.72-.25-.2-.52-.39-.78-.57-2.93-1.99-6.33-3.03-9.87-3.03-.64,0-1.29.03-1.92.1-4.28.47-8.02,2.3-10.9,5.32-2.04-1.29-4.97-2.5-8.79-2.5-1.07,0-2.16.09-3.25.27l-23.89,4.14c-4.95.86-8.89,3.2-11.39,6.77-.08.12-.16.25-.25.36-2.21-.96-4.63-1.63-7.2-2-1.24-.18-2.54-.27-3.86-.27-2.72,0-5.6.39-8.6,1.17l-14.69,3.81c-8.65,2.25-13.48,9-12.85,17.37-.27,2.31-.12,4.79.56,7.39l9.8,37.79c1.27,4.89,3.82,8.56,7.59,10.9,2.51,1.55,5.36,2.34,8.47,2.34,1.69,0,3.45-.23,5.25-.7,5.05-1.31,8.89-4.07,11.13-7.98,1.74-3.04,2.37-6.5,1.94-10.29.13-1.65-.03-3.41-.36-5.21,2.41-.64,4.64-1.56,6.64-2.76l.26,1.5c.87,5.03,3.12,8.88,6.7,11.44,2.69,1.92,5.86,2.9,9.43,2.9,1.16,0,2.38-.12,3.64-.33l23.87-4.12c3.43-.6,6.51-2.07,8.89-4.27,2.38,1.14,4.93,1.72,7.59,1.72.68,0,1.37-.04,2.05-.12,4.27-.47,8.05-2.35,10.95-5.45.25-.27.49-.55.73-.83,3.08,2.48,6.74,3.81,10.58,3.81.62,0,1.27-.04,1.92-.12,2.31-.23,4.55-.99,6.64-2.22,1.76-1.03,3.3-2.33,4.63-3.84.7-.79,1.33-1.66,1.89-2.59,2.55,1.76,5.37,3.21,8.37,4.32,4.56,1.66,9.41,2.39,14.38,2.12,4.95-.26,9.69-1.5,14.06-3.64,3.65-1.81,6.93-4.12,9.75-6.92,9.49,14.39,25.8,23.9,44.34,23.9,15.63,0,29.69-6.76,39.4-17.53,2.7,2.26,6.23,3.62,10.34,3.95.64.05,1.29.08,1.94.08,4.45,0,8.24-1.33,11.27-3.95,3.39-2.94,5.34-7.1,5.79-12.37l.17-1.99.61.05c.79.07,1.57.09,2.33.09,2.07,0,4.07-.25,5.97-.72-.05.9-.09,1.79-.03,2.65-.49,4.73.51,8.97,3,12.28,2.64,3.5,6.68,5.71,11.69,6.37l24.03,3.21c3.58.47,6.89-.03,9.84-1.44.27.26.62.4.91.64.68.55,1.38,1.03,2.13,1.47.66.39,1.35.73,2.07,1.03.78.34,1.6.61,2.43.82.39.1,3.43.72,4.56.72,3.06,0,5.96-.77,8.63-2.28.33-.2.65-.39.96-.6,2.64,3.9,6.37,6.41,10.83,7.28,2.28.44,4.67.39,7-.17,1.98-.47,3.84-1.22,5.55-2.26.82-.51,1.59-1.08,2.3-1.69,1.77,2.39,3.88,4.6,6.25,6.55,3.75,3.09,8.08,5.37,12.85,6.77,3.37.99,6.8,1.48,10.23,1.48,1.39,0,2.82-.09,4.24-.26,4.72-.57,9.17-1.96,13.24-4.16,4.1-2.21,7.71-5.2,10.75-8.89,3.09-3.76,5.37-8.08,6.77-12.86,1.22-4.21,1.65-8.5,1.34-12.76ZM204.73,81.73c-2.71,2.97-5.97,5.42-9.71,7.27-3.8,1.87-7.92,2.94-12.25,3.17-.59.03-1.18.05-1.77.05-3.72,0-7.33-.64-10.76-1.89-3.93-1.44-7.43-3.53-10.42-6.21-.69-.62-1.26-1.38-1.89-2.07-.02,1.28-.18,2.55-.63,3.77-.56,1.52-1.38,2.9-2.42,4.09-1,1.14-2.18,2.11-3.51,2.89-1.49.89-3.11,1.43-4.79,1.61-3.76.42-7.28-.84-10.13-3.65l-3.15-3.5c-.47,2.65-1.7,4.51-2.84,5.72-2.13,2.28-4.92,3.66-8.06,4.01-.52.06-1.04.09-1.55.09-2.62,0-5.11-.76-7.28-2.24-.41-.28-.85-.66-1.29-1.06-.09.16-.15.34-.26.5-1.26,2.02-3.76,4.6-8.46,5.41l-23.88,4.12c-.99.17-1.94.26-2.85.26-2.57,0-4.82-.68-6.72-2.04-2.55-1.82-4.17-4.66-4.82-8.45l-1.68-9.71c-.84,1.08-1.78,2.1-2.83,3.03-2.28,2.01-5.09,3.46-8.34,4.3l-2.35.61c-.92.24-1.82.4-2.68.48l1.69,6.49c1,3.86.7,7.24-.9,10.04-1.63,2.84-4.4,4.79-8.26,5.79-1.43.37-2.8.55-4.1.55-2.23,0-4.24-.55-6.01-1.65-2.72-1.69-4.58-4.42-5.54-8.11l-9.81-37.79c-1.99-7.66,1.44-13.63,8.94-15.58l14.7-3.81c3.82-.99,7.39-1.27,10.65-.79,3.29.47,6.23,1.51,8.75,3.09.48.3.88.7,1.34,1.04.28-1.63.87-3.1,1.78-4.41,1.8-2.59,4.64-4.23,8.42-4.88l23.88-4.13c4.68-.81,7.91.78,9.78,2.26.94.74,1.7,1.61,2.38,2.55.6-1.68,1.48-2.95,2.32-3.85,2.13-2.27,4.95-3.66,8.14-4.02,3.13-.33,6.16.4,8.73,2.15,1.34.91,2.89,2.4,3.93,4.76l2.5-4.45c1.06-1.41,2.25-2.58,3.54-3.46,1.65-1.13,3.61-1.8,5.82-1.97,1.53-.12,3.09.07,4.55.54,1.51.48,2.9,1.18,4.13,2.08,1.35.99,2.46,2.23,3.33,3.69.89,1.52,1.43,3.12,1.61,4.77.04.36.02.71.02,1.06,1.06-1.81,2.26-3.51,3.64-5.06,2.69-3.03,5.96-5.5,9.71-7.35,3.79-1.87,7.91-2.94,12.25-3.17,4.36-.22,8.56.39,12.52,1.84,3.92,1.44,7.44,3.54,10.46,6.25h0c3.01,2.72,5.48,5.99,7.33,9.74,1.87,3.8,2.94,7.92,3.17,12.25.23,4.34-.39,8.56-1.84,12.52-1.44,3.94-3.56,7.45-6.28,10.44ZM288.2,38.22l-3.29,39.37c-.07.92-.03,1.79,0,2.68l-.07.88c-.3,3.55.23,6.81,1.56,9.62-8.5,9.95-21.14,16.24-35.24,16.24-16.93,0-31.74-9.08-39.83-22.63,1.64-2.43,2.99-5.08,4.03-7.93,1.68-4.56,2.39-9.4,2.12-14.38-.01-.21-.04-.4-.07-.61.03-.99.05-1.96-.01-2.95-.26-4.95-1.48-9.67-3.63-14.03-1.01-2.04-2.17-3.95-3.5-5.73,7.82-14.55,23.2-24.46,40.88-24.46,15.63,0,29.44,7.72,37.84,19.57-.4,1.35-.68,2.81-.81,4.36ZM484.78,93.12c-1.22,4.17-3.2,7.94-5.89,11.2-2.66,3.23-5.82,5.84-9.38,7.77-3.55,1.91-7.44,3.13-11.58,3.64-1.23.15-2.46.22-3.69.22-2.98,0-5.97-.43-8.92-1.3-4.17-1.22-7.94-3.2-11.2-5.89-3.23-2.66-5.84-5.79-7.77-9.32-.4-.73-.65-1.55-.99-2.31-.4,1.14-.91,2.22-1.66,3.19-.98,1.28-2.16,2.34-3.51,3.18-1.3.79-2.7,1.37-4.2,1.72-.94.22-1.88.33-2.82.33-.75,0-1.49-.07-2.22-.22-3.74-.72-6.72-2.98-8.6-6.51l-1.96-4.27c-1.24,2.39-2.97,3.8-4.41,4.62-2.72,1.54-5.8,2.03-8.89,1.43-3.16-.61-5.85-2.23-7.79-4.68-.3-.38-.59-.85-.88-1.34-.15.14-.28.31-.44.45-1.55,1.32-4.08,2.77-7.72,2.77-.62,0-1.27-.04-1.96-.13l-24.03-3.21c-3.8-.51-6.69-2.04-8.59-4.56-1.89-2.5-2.58-5.69-2.08-9.5l1.41-10.57c-1.41,1.02-2.9,1.93-4.56,2.61-2.83,1.15-5.97,1.59-9.37,1.31l-2.46-.2c-.98-.08-1.91-.23-2.77-.45l-.57,6.84c-.33,4.01-1.74,7.12-4.2,9.24-2.16,1.87-4.92,2.82-8.22,2.82-.5,0-1.02-.02-1.55-.07-4.06-.34-7.17-1.82-9.25-4.41-2.02-2.49-2.88-5.71-2.56-9.55l3.28-39.38c.66-7.95,5.93-12.45,13.68-11.83l15.32,1.28c3.97.33,7.47,1.27,10.41,2.79,2.98,1.55,5.44,3.52,7.31,5.87.32.4.53.86.82,1.28,2.35-4.12,6.71-6.15,12.23-5.41l24.03,3.21c4.71.63,7.3,3.1,8.65,5.08.64.94,1.1,1.95,1.46,2.99,1.06-1.4,2.28-2.34,3.34-2.94,2.71-1.54,5.81-2.03,8.97-1.41,3.09.6,5.76,2.21,7.7,4.65,1,1.27,2.04,3.15,2.33,5.72l3.71-3.5c1.43-1.03,2.91-1.79,4.41-2.25,1.79-.55,3.7-.63,5.69-.24,1.61.31,3.13.94,4.48,1.86,1.35.92,2.52,2.04,3.47,3.32v.02c.99,1.33,1.69,2.85,2.08,4.5.4,1.7.44,3.4.12,5.04-.23,1.2-.67,2.31-1.22,3.35,2.18-2.21,4.53-4.19,7.19-5.67,3.54-1.96,7.44-3.21,11.6-3.72,4.18-.51,8.44-.15,12.61,1.07,4.17,1.22,7.94,3.2,11.2,5.89,3.23,2.67,5.86,5.82,7.8,9.37,1.95,3.56,3.19,7.46,3.69,11.62.51,4.2.15,8.44-1.07,12.61Z"/>
    <path class="cls-2" d="M59.42,59.56c-1.25-1.82-2.82-3.33-4.72-4.52-1.9-1.19-4.12-1.96-6.67-2.33-2.55-.37-5.4-.14-8.55.68l-14.69,3.81c-4.67,1.21-6.37,4.24-5.11,9.08l9.81,37.79c.61,2.33,1.67,3.97,3.19,4.91,1.52.94,3.51,1.1,5.95.46,4.84-1.26,6.62-4.36,5.33-9.32l-7.52-28.99c-.31-1.19.41-2.4,1.59-2.71l5.63-1.46c3.03-.79,4.89.13,5.57,2.76.23,1.12.12,2.02-.33,2.7-.45.68-1.04,1.25-1.79,1.73-.75.48-1.57.91-2.46,1.29-.9.39-1.7.88-2.42,1.47-.72.59-1.25,1.32-1.58,2.19-.33.86-.32,2,.04,3.4,1.01,3.91,3.71,5.29,8.08,4.16l2.36-.61c2.45-.63,4.5-1.68,6.14-3.13,1.64-1.45,2.92-3.12,3.84-5.01.91-1.89,1.44-3.91,1.6-6.07.16-2.15-.04-4.28-.58-6.38-.54-2.1-1.44-4.06-2.69-5.88Z"/>
    <path class="cls-2" d="M105.79,81.45c-1.49-1.18-3.35-1.57-5.57-1.19l-14.76,2.55c-1.18.2-2.3-.59-2.5-1.76h0c-.2-1.18.59-2.3,1.76-2.5l11.35-1.96c2.22-.38,3.83-1.38,4.84-2.99,1.01-1.61,1.35-3.38,1.01-5.31-.33-1.93-1.25-3.49-2.74-4.67-1.49-1.18-3.35-1.57-5.57-1.19l-11.35,1.96c-1.18.2-2.3-.59-2.5-1.76-.2-1.18.59-2.3,1.76-2.5l14.76-2.55c2.22-.38,3.83-1.38,4.84-2.99,1.01-1.61,1.35-3.38,1.01-5.31-.33-1.93-1.25-3.49-2.74-4.67-1.49-1.18-3.35-1.58-5.57-1.19l-23.89,4.13c-4.66.81-6.59,3.57-5.77,8.29l6.37,36.86c.82,4.72,3.55,6.68,8.22,5.87l23.89-4.13c2.22-.38,3.83-1.38,4.84-2.99,1.01-1.61,1.35-3.38,1.01-5.31-.33-1.93-1.25-3.49-2.74-4.67Z"/>
    <path class="cls-2" d="M150.41,76.85l-12.72-11.68c-.82-.75-.95-1.99-.31-2.89l9.89-13.92c.95-1.38,1.33-2.9,1.15-4.57-.1-.92-.4-1.8-.9-2.64-.5-.84-1.13-1.54-1.89-2.1-.73-.53-1.54-.95-2.43-1.25-.95-.32-1.98-.44-2.98-.33-1.14.13-2.12.47-2.93,1.02-.81.55-1.57,1.31-2.28,2.26l-7.89,14.37c-.56,1.03-2.12.72-2.25-.45l-.88-8.01c-.25-2.29-1.15-3.97-2.69-5.02-1.54-1.05-3.25-1.47-5.15-1.26-1.95.22-3.56,1-4.83,2.36-1.27,1.36-1.78,3.19-1.53,5.48l4.1,37.17c.25,2.3,1.15,3.97,2.69,5.02,1.54,1.05,3.28,1.47,5.23,1.25,1.89-.21,3.48-.99,4.75-2.35,1.27-1.36,1.78-3.19,1.53-5.48l-.89-8.08c-.13-1.16,1.31-1.8,2.09-.94l10.91,12.12c1.69,1.67,3.63,2.39,5.81,2.15.92-.1,1.8-.4,2.64-.9.84-.5,1.58-1.1,2.2-1.81.62-.71,1.1-1.52,1.43-2.42.34-.91.45-1.85.34-2.82-.18-1.66-.92-3.09-2.21-4.28Z"/>
    <path class="cls-2" d="M204.89,48.87c-1.56-3.15-3.6-5.86-6.12-8.13-2.52-2.26-5.43-4-8.73-5.21-3.3-1.21-6.77-1.72-10.4-1.52-3.63.19-7.02,1.07-10.18,2.63-3.15,1.56-5.85,3.59-8.08,6.11-2.24,2.52-3.96,5.43-5.17,8.73-1.21,3.3-1.72,6.77-1.52,10.4.19,3.63,1.07,7.02,2.63,10.18,1.56,3.15,3.58,5.85,6.07,8.08,2.49,2.24,5.38,3.96,8.69,5.17,3.3,1.21,6.77,1.72,10.4,1.52,3.63-.19,7.02-1.07,10.18-2.63,3.15-1.56,5.86-3.58,8.13-6.07,2.26-2.49,4-5.39,5.21-8.69,1.21-3.3,1.72-6.77,1.52-10.4-.19-3.63-1.07-7.02-2.63-10.18ZM192.47,64.71c-.56,1.48-1.34,2.79-2.35,3.94-1.01,1.15-2.23,2.07-3.67,2.75-1.44.68-2.99,1.07-4.66,1.16-1.67.09-3.24-.13-4.72-.66-1.47-.53-2.79-1.31-3.94-2.35-1.15-1.04-2.07-2.26-2.75-3.67-.68-1.41-1.07-2.95-1.16-4.62-.09-1.67.13-3.26.66-4.76.53-1.5,1.31-2.82,2.35-3.94,1.04-1.12,2.26-2.04,3.67-2.76,1.41-.71,2.95-1.11,4.62-1.2,1.67-.09,3.26.14,4.76.7,1.5.56,2.82,1.34,3.94,2.35,1.12,1.01,2.04,2.23,2.75,3.67.71,1.44,1.11,2.99,1.2,4.66.09,1.67-.14,3.25-.7,4.72Z"/>
    <path class="cls-2" d="M338.3,45.92c-.59-2.16-1.59-4.13-3-5.9-1.41-1.77-3.28-3.26-5.6-4.46-2.32-1.2-5.12-1.94-8.4-2.21l-15.31-1.28c-4.86-.41-7.5,1.91-7.92,6.96l-3.28,39.38c-.2,2.43.26,4.35,1.4,5.76,1.14,1.41,2.98,2.22,5.53,2.43,5.04.42,7.78-1.95,8.21-7.12l2.52-30.27c.1-1.21,1.16-2.11,2.37-2l5.93.49c3.16.26,4.63,1.76,4.4,4.5-.16,1.15-.56,1.97-1.22,2.47-.65.49-1.42.84-2.29,1.05-.87.2-1.8.34-2.79.41-.99.07-1.92.27-2.8.59-.88.32-1.63.84-2.24,1.56-.61.72-.98,1.8-1.1,3.26-.34,4.07,1.77,6.3,6.33,6.68l2.46.2c2.55.21,4.86-.1,6.92-.94,2.06-.84,3.84-2,5.34-3.5,1.5-1.5,2.69-3.25,3.56-5.26.87-2.01,1.4-4.11,1.58-6.29.18-2.19-.02-4.36-.6-6.52Z"/>
    <path class="cls-2" d="M375.85,41.06l-24.03-3.21c-4.69-.63-7.35,1.43-7.99,6.18l-4.95,37.07c-.63,4.75,1.39,7.44,6.09,8.06l24.03,3.21c2.23.3,4.07-.17,5.51-1.41,1.45-1.23,2.3-2.82,2.56-4.77.26-1.95-.15-3.7-1.22-5.27-1.07-1.57-2.72-2.5-4.95-2.8l-14.85-1.98c-1.18-.16-2.02-1.25-1.86-2.43h0c.16-1.19,1.25-2.02,2.43-1.86l11.41,1.52c2.23.3,4.07-.17,5.52-1.4,1.44-1.23,2.3-2.82,2.56-4.77.26-1.94-.15-3.7-1.22-5.27-1.07-1.57-2.72-2.5-4.95-2.8l-11.41-1.52c-1.18-.16-2.02-1.25-1.86-2.43.16-1.18,1.25-2.02,2.43-1.86l14.85,1.98c2.23.3,4.07-.17,5.52-1.4,1.44-1.23,2.3-2.82,2.56-4.77.26-1.94-.15-3.7-1.22-5.27-1.07-1.57-2.72-2.5-4.95-2.8Z"/>
    <path class="cls-2" d="M427.67,54.78c-.23-.95-.62-1.81-1.18-2.57-.54-.73-1.2-1.38-1.97-1.93-.81-.58-1.75-1-2.72-1.19-1.13-.22-2.16-.19-3.1.1-.94.29-1.89.78-2.85,1.47l-12.18,11.73c-.73.7-1.93.05-1.74-.95l1.64-8.41c.44-2.26.08-4.13-1.07-5.59-1.16-1.46-2.67-2.37-4.54-2.74-1.93-.38-3.7-.1-5.32.82-1.62.92-2.65,2.51-3.09,4.78l-7.15,36.71c-.44,2.27-.08,4.13,1.07,5.59,1.16,1.46,2.7,2.38,4.62,2.75,1.87.37,3.61.09,5.23-.83,1.62-.92,2.65-2.51,3.09-4.78l1.65-8.48c.19-.99,1.54-1.15,1.96-.23l7.01,15.28c1.12,2.1,2.75,3.36,4.91,3.78.91.18,1.84.15,2.79-.07.95-.23,1.83-.58,2.63-1.07.8-.49,1.5-1.12,2.09-1.89.59-.77.98-1.63,1.17-2.6.32-1.64.04-3.23-.84-4.75l-8.2-14.12c-.83-1.42-.46-3.24.85-4.24l12.83-9.77c1.32-1.04,2.14-2.37,2.46-4.02.18-.9.15-1.84-.07-2.79Z"/>
    <path class="cls-2" d="M477.48,71.46c-1.63-2.97-3.8-5.57-6.51-7.81-2.71-2.24-5.82-3.87-9.3-4.89-3.49-1.02-6.98-1.32-10.47-.9-3.49.42-6.71,1.45-9.65,3.09-2.95,1.64-5.53,3.81-7.77,6.52-2.24,2.71-3.87,5.82-4.89,9.31-1.02,3.49-1.32,6.98-.9,10.47.42,3.49,1.44,6.71,3.05,9.64,1.61,2.94,3.77,5.52,6.48,7.76,2.71,2.24,5.82,3.87,9.3,4.89,3.49,1.02,6.98,1.32,10.47.9,3.49-.42,6.72-1.43,9.68-3.03,2.96-1.6,5.56-3.75,7.8-6.47,2.24-2.71,3.87-5.82,4.89-9.3,1.02-3.49,1.32-6.98.9-10.47-.42-3.49-1.45-6.72-3.07-9.69ZM465.82,87.56c-.47,1.61-1.21,3.01-2.23,4.22-1.02,1.21-2.19,2.19-3.52,2.94-1.33.75-2.79,1.21-4.37,1.38-1.58.17-3.18.02-4.78-.45-1.61-.47-3.02-1.2-4.23-2.18-1.21-.99-2.2-2.16-2.94-3.52-.75-1.36-1.21-2.82-1.38-4.37-.18-1.56-.03-3.14.44-4.74.47-1.61,1.2-3.03,2.2-4.27.99-1.24,2.17-2.22,3.52-2.94,1.35-.72,2.81-1.18,4.37-1.38,1.56-.21,3.15-.07,4.75.4,1.61.47,3.03,1.22,4.26,2.24,1.23,1.02,2.21,2.2,2.94,3.52s1.19,2.78,1.38,4.37c.2,1.59.06,3.19-.41,4.79Z"/>
    <path class="cls-2" d="M250.91,37.67c1.27-.72,2.74-.89,4.13-.51.55.14,1.06-.17,1.21-.69.14-.53-.16-1.06-.69-1.21-1.91-.52-3.91-.28-5.63.7-1.72.98-2.96,2.57-3.48,4.47-.14.53.16,1.06.69,1.21.09.02.18.03.26.03.43,0,.83-.28.95-.72.39-1.4,1.29-2.57,2.56-3.29Z"/>
    <path class="cls-2" d="M244.4,48.96c-1.9-.52-3.9-.28-5.63.7-1.72.98-2.96,2.57-3.48,4.47-.14.53.16,1.06.69,1.21.09.02.18.03.26.03.43,0,.83-.28.95-.72.39-1.4,1.29-2.57,2.56-3.28,1.27-.72,2.73-.9,4.13-.51.54.15,1.06-.17,1.21-.69.14-.52-.16-1.06-.69-1.21Z"/>
    <path class="cls-2" d="M257.57,55.66c-1.9-.52-3.91-.28-5.63.7-1.72.98-2.96,2.57-3.48,4.47-.14.53.16,1.06.69,1.21.09.02.18.03.26.03.43,0,.83-.28.95-.72.39-1.4,1.29-2.57,2.56-3.29,1.27-.72,2.74-.89,4.13-.51.53.15,1.06-.17,1.21-.69.14-.53-.16-1.06-.69-1.21Z"/>
    <path class="cls-2" d="M275.68,49.94c-.27-3.19-2.3-5.96-5.23-7.18-.13-3.34-2.16-6.25-5.2-7.56-.66-3.35-3.33-6.07-6.68-6.79-1.63-2.07-4.1-3.28-6.74-3.28s-5.19,1.25-6.8,3.37c-3.24.82-5.72,3.45-6.36,6.7-3.04,1.3-5.07,4.21-5.2,7.56-2.93,1.22-4.95,4.01-5.23,7.18-5.32,1.73-8.02,4.1-8.01,7.03-.04.43-.05.94-.05,1.46,0,10.45,6.09,20.06,15.94,25.25v2.52c-.01,5.54,11.07,6.12,15.84,6.12s15.85-.59,15.85-6.12v-2.52c9.84-5.19,15.93-14.8,15.93-25.25,0-.51-.01-1-.05-1.51-.04-2.94-2.67-5.25-8.01-6.98ZM279.49,57.65c-.05.68-.62,1.33-1.52,1.92-.01.04,0,.07-.01.09-.3.21-.72.39-1.11.59-.44.21-.94.42-1.48.62-.33.12-.62.23-.98.35-.7.23-1.5.44-2.33.65-.12.03-.22.05-.33.08-.16.04-.27.08-.43.12-1.12.26-2.34.48-3.63.69-.27.04-.56.08-.83.12-.14.03-.29.04-.43.07-.96.13-1.95.26-2.99.38-.13.01-.27.01-.4.03-.39.05-.79.09-1.2.12-1.07.1-2.15.17-3.26.23-.42.03-.82.05-1.24.08-.1,0-.21.01-.3.01-1.65.07-3.34.12-5.07.12s-3.42-.05-5.06-.12c-.12,0-.23-.01-.35-.03-.4-.01-.79-.04-1.18-.07-1.13-.07-2.21-.13-3.28-.23-.53-.04-1.07-.09-1.59-.14-1.04-.12-2.03-.25-2.99-.38-.38-.05-.77-.1-1.13-.16-.04-.01-.09-.01-.14-.03-1.29-.21-2.51-.43-3.63-.69-.27-.07-.49-.13-.75-.2-.83-.21-1.63-.43-2.33-.65-.35-.12-.65-.23-.96-.35-.55-.21-1.04-.42-1.5-.62-.26-.13-.52-.26-.74-.39-.12-.07-.26-.13-.36-.2-.01-.03,0-.05-.01-.09-.9-.61-1.48-1.25-1.53-1.94,0-.03-.03-.05-.03-.09,0-.12.14-.25.17-.36.21-.79.95-1.55,2.29-2.22,0-.01.01-.03.01-.04,1.01-1.42,2.67-2.34,4.53-2.39-.05-.17-.1-.33-.14-.49-.12-.43-.18-.88-.18-1.35,0-3.12,2.48-5.64,5.58-5.73-.2-.59-.33-1.2-.33-1.85,0-2.95,2.24-5.37,5.11-5.7-.03-.2-.05-.38-.05-.57,0-3.04,2.37-5.51,5.37-5.72.95-1.85,2.85-3.12,5.08-3.12s4.11,1.26,5.07,3.09c3.13.07,5.64,2.61,5.64,5.75,0,.2-.03.38-.05.57,2.87.33,5.12,2.74,5.12,5.7,0,.65-.14,1.26-.34,1.85,3.09.09,5.58,2.61,5.58,5.73,0,.47-.05.92-.17,1.35-.05.17-.1.33-.16.49,1.86.05,3.51.98,4.53,2.39,0,.01.01.03.01.04,1.33.68,2.05,1.42,2.28,2.2.04.13.18.26.18.39,0,.04-.03.08-.04.1Z"/>
    <path class="cls-2" d="M264.07,44.24c-3.93-1.08-8.02,1.24-9.11,5.17-.14.52.16,1.06.69,1.21.09.02.18.03.26.03.43,0,.83-.28.95-.72.8-2.89,3.81-4.6,6.69-3.8.55.14,1.06-.17,1.21-.69.14-.53-.16-1.06-.69-1.21Z"/>
  </g>
  <g>
    <path class="cls-1" d="M251.17,14.29c-17.68,0-33.07,9.91-40.88,24.46,1.33,1.78,2.48,3.69,3.5,5.73,2.15,4.36,3.37,9.08,3.63,14.03.07.99.04,1.96.01,2.95.03.21.05.4.07.61.27,4.98-.44,9.82-2.12,14.38-1.04,2.85-2.39,5.5-4.03,7.93,8.09,13.55,22.9,22.63,39.83,22.63,14.1,0,26.74-6.29,35.24-16.24-1.33-2.81-1.86-6.07-1.56-9.62l.07-.88c-.03-.88-.07-1.76,0-2.68l3.29-39.37c.13-1.55.4-3,.81-4.36-8.4-11.85-22.21-19.57-37.84-19.57ZM267.81,83.68v2.52c0,5.54-11.08,6.12-15.85,6.12s-15.85-.59-15.85-6.12v-2.52c-9.84-5.19-15.93-14.8-15.93-25.25,0-.52.01-1.03.05-1.46-.01-2.94,2.69-5.31,8.01-7.03.27-3.17,2.3-5.96,5.23-7.18.13-3.34,2.16-6.25,5.2-7.56.64-3.25,3.12-5.88,6.36-6.7,1.61-2.12,4.12-3.37,6.8-3.37s5.11,1.21,6.74,3.28c3.35.72,6.02,3.43,6.68,6.79,3.04,1.3,5.07,4.21,5.2,7.56,2.93,1.22,4.95,3.99,5.23,7.18,5.34,1.73,7.97,4.04,8.01,6.98.04.51.05,1,.05,1.51,0,10.45-6.09,20.06-15.93,25.25Z"/>
    <path class="cls-1" d="M277.07,54.95s-.01-.03-.02-.04c-1.02-1.41-2.66-2.34-4.52-2.39.05-.16.11-.32.15-.49.12-.43.18-.89.18-1.36,0-3.12-2.49-5.64-5.58-5.74.19-.58.33-1.2.33-1.84,0-2.95-2.24-5.37-5.11-5.7.02-.19.05-.37.05-.57,0-3.13-2.51-5.69-5.64-5.75-.96-1.83-2.86-3.09-5.07-3.09s-4.14,1.27-5.09,3.12c-3,.2-5.37,2.68-5.37,5.72,0,.2.03.38.05.57-2.87.33-5.11,2.74-5.11,5.7,0,.65.14,1.26.33,1.84-3.09.1-5.58,2.62-5.58,5.74,0,.47.06.92.18,1.36.04.17.1.33.15.49-1.86.05-3.5.98-4.52,2.39,0,.01-.01.03-.02.04-1.34.69-2.07,1.44-2.28,2.23-.03.13-.18.24-.18.37,0,.03.03.06.03.09.05.68.63,1.33,1.53,1.94,0,.03,0,.06.01.09.1.06.25.12.36.19.23.13.49.26.75.39.45.22.94.43,1.49.63.32.12.62.24.97.35.71.23,1.49.44,2.32.65.26.06.48.14.75.2,1.12.26,2.34.48,3.64.69.04,0,.09.01.14.02.36.06.75.1,1.12.16.96.14,1.95.26,2.99.37.52.06,1.05.1,1.59.15,1.06.09,2.15.17,3.27.23.4.02.79.05,1.19.07.12,0,.23.01.34.02,1.65.07,3.33.12,5.06.12s3.42-.05,5.06-.12c.1,0,.2-.01.3-.02.42-.02.82-.05,1.24-.07,1.12-.06,2.21-.14,3.27-.23.41-.04.81-.08,1.2-.12.13-.01.26-.02.39-.04,1.04-.11,2.04-.24,3-.38.14-.02.28-.04.42-.06.28-.04.57-.07.83-.12,1.29-.21,2.52-.44,3.64-.69.15-.03.27-.08.42-.11.11-.03.22-.06.33-.09.83-.21,1.62-.42,2.33-.65.35-.11.65-.23.97-.35.54-.2,1.04-.41,1.49-.63.39-.19.8-.38,1.11-.58,0-.03,0-.06.01-.09.9-.61,1.47-1.25,1.53-1.93,0-.03.04-.07.04-.1,0-.14-.15-.26-.19-.39-.22-.78-.95-1.53-2.27-2.2ZM245.08,50.17c-.15.52-.67.83-1.21.69-1.4-.39-2.86-.21-4.13.51-1.26.72-2.17,1.88-2.56,3.28-.12.44-.52.72-.95.72-.08,0-.17-.01-.26-.03-.53-.15-.83-.68-.69-1.21.53-1.91,1.76-3.5,3.48-4.47,1.72-.98,3.72-1.22,5.63-.7.53.15.83.69.69,1.21ZM247.41,41.68c-.08,0-.17-.01-.26-.03-.53-.15-.83-.68-.69-1.21.53-1.91,1.76-3.5,3.48-4.47,1.72-.98,3.72-1.22,5.63-.7.53.15.83.68.69,1.21-.15.52-.66.83-1.21.69-1.4-.38-2.86-.2-4.13.51-1.26.72-2.17,1.88-2.56,3.29-.12.44-.52.72-.95.72ZM258.26,56.87c-.15.52-.68.84-1.21.69-1.4-.38-2.86-.21-4.13.51-1.26.72-2.17,1.88-2.56,3.29-.12.44-.52.72-.95.72-.08,0-.17-.01-.26-.03-.53-.15-.83-.68-.69-1.21.53-1.91,1.76-3.5,3.48-4.47,1.71-.98,3.72-1.22,5.63-.7.53.15.83.68.69,1.21ZM264.76,45.45c-.15.52-.66.83-1.21.69-2.88-.8-5.89.91-6.69,3.8-.12.44-.52.72-.95.72-.08,0-.17-.01-.26-.03-.53-.15-.83-.69-.69-1.21,1.09-3.93,5.18-6.25,9.11-5.17.53.15.83.68.69,1.21Z"/>
    <path class="cls-1" d="M191.97,55.33c-.71-1.43-1.63-2.66-2.75-3.67-1.12-1.01-2.44-1.79-3.94-2.35-1.51-.55-3.09-.79-4.76-.7-1.67.09-3.21.49-4.62,1.2-1.41.71-2.63,1.63-3.67,2.76-1.04,1.12-1.82,2.44-2.35,3.94-.53,1.5-.74,3.09-.66,4.76.09,1.67.48,3.21,1.16,4.62.68,1.41,1.6,2.63,2.75,3.67,1.15,1.04,2.46,1.82,3.94,2.35,1.47.53,3.04.75,4.72.66,1.67-.09,3.23-.48,4.66-1.16,1.44-.68,2.66-1.6,3.67-2.75,1.01-1.15,1.79-2.46,2.35-3.94.56-1.47.79-3.05.7-4.72-.09-1.67-.49-3.23-1.2-4.66Z"/>
    <path class="cls-1" d="M212.85,58.76c-.23-4.34-1.3-8.46-3.17-12.25-1.85-3.75-4.32-7.02-7.33-9.73h0c-3.02-2.72-6.54-4.82-10.46-6.26-3.97-1.45-8.16-2.06-12.52-1.84-4.34.23-8.47,1.3-12.25,3.17-3.76,1.85-7.02,4.33-9.71,7.35-1.38,1.55-2.59,3.25-3.64,5.06,0-.35.02-.7-.02-1.06-.18-1.65-.72-3.25-1.61-4.77-.87-1.46-1.98-2.7-3.33-3.69-1.23-.9-2.61-1.6-4.13-2.08-1.46-.47-3.02-.66-4.55-.54-2.21.17-4.17.83-5.82,1.97-1.29.88-2.48,2.05-3.54,3.46l-2.5,4.45c-1.04-2.36-2.59-3.85-3.93-4.76-2.58-1.75-5.6-2.48-8.73-2.15-3.2.35-6.01,1.74-8.14,4.02-.84.9-1.73,2.18-2.32,3.85-.68-.93-1.45-1.81-2.38-2.55-1.87-1.48-5.1-3.07-9.78-2.26l-23.88,4.13c-3.78.65-6.61,2.29-8.42,4.88-.91,1.3-1.5,2.78-1.78,4.41-.46-.34-.85-.74-1.34-1.04-2.52-1.58-5.46-2.62-8.75-3.09-3.26-.48-6.83-.2-10.65.79l-14.7,3.81c-7.5,1.95-10.93,7.92-8.94,15.58l9.81,37.79c.96,3.69,2.82,6.42,5.54,8.11,1.77,1.1,3.78,1.65,6.01,1.65,1.29,0,2.66-.18,4.1-.55,3.85-1,6.63-2.95,8.26-5.79,1.6-2.8,1.9-6.18.9-10.04l-1.69-6.49c.86-.08,1.76-.24,2.68-.48l2.35-.61c3.26-.84,6.07-2.29,8.34-4.3,1.06-.93,2-1.95,2.83-3.03l1.68,9.71c.65,3.79,2.27,6.62,4.82,8.45,1.9,1.36,4.15,2.04,6.72,2.04.91,0,1.86-.09,2.85-.26l23.88-4.12c4.69-.81,7.19-3.39,8.46-5.41.1-.16.16-.34.26-.5.44.4.88.78,1.29,1.06,2.16,1.48,4.65,2.24,7.28,2.24.51,0,1.03-.03,1.55-.09,3.14-.34,5.93-1.73,8.06-4.01,1.13-1.21,2.37-3.08,2.84-5.72l3.15,3.5c2.85,2.81,6.36,4.07,10.13,3.65,1.68-.18,3.29-.72,4.79-1.61,1.33-.78,2.51-1.75,3.51-2.89,1.05-1.2,1.86-2.57,2.42-4.09.45-1.22.61-2.48.63-3.77.64.69,1.2,1.45,1.89,2.07,2.98,2.68,6.49,4.77,10.42,6.21,3.43,1.26,7.04,1.89,10.76,1.89.59,0,1.18-.02,1.77-.05,4.33-.23,8.45-1.3,12.25-3.17,3.74-1.85,7-4.29,9.71-7.27,2.72-2.99,4.83-6.5,6.28-10.44,1.46-3.97,2.07-8.18,1.84-12.52ZM62.7,71.83c-.16,2.16-.69,4.18-1.6,6.07-.91,1.89-2.19,3.56-3.84,5.01-1.65,1.45-3.69,2.5-6.14,3.13l-2.36.61c-4.37,1.14-7.07-.25-8.08-4.16-.36-1.4-.38-2.53-.04-3.4.34-.86.86-1.59,1.58-2.19.72-.59,1.52-1.08,2.42-1.47.89-.39,1.72-.82,2.46-1.29.75-.47,1.35-1.05,1.79-1.73.45-.67.56-1.57.33-2.7-.68-2.62-2.54-3.54-5.57-2.76l-5.63,1.46c-1.19.31-1.9,1.52-1.59,2.71l7.52,28.99c1.29,4.96-.49,8.06-5.33,9.32-2.45.64-4.43.48-5.95-.46-1.52-.94-2.58-2.58-3.19-4.91l-9.81-37.79c-1.26-4.84.45-7.86,5.11-9.08l14.69-3.81c3.15-.82,6-1.04,8.55-.68,2.55.37,4.78,1.14,6.67,2.33,1.9,1.19,3.47,2.69,4.72,4.52,1.25,1.82,2.15,3.78,2.69,5.88.54,2.1.74,4.23.58,6.38ZM107.52,91.43c-1.01,1.61-2.63,2.61-4.84,2.99l-23.89,4.13c-4.66.81-7.4-1.15-8.22-5.87l-6.37-36.86c-.82-4.72,1.11-7.48,5.77-8.29l23.89-4.13c2.22-.38,4.07.02,5.57,1.19,1.49,1.18,2.4,2.73,2.74,4.67.33,1.93,0,3.71-1.01,5.31-1.01,1.61-2.62,2.61-4.84,2.99l-14.76,2.55c-1.18.2-1.97,1.32-1.76,2.5.2,1.18,1.32,1.97,2.5,1.76l11.35-1.96c2.22-.38,4.07.01,5.57,1.19,1.49,1.18,2.41,2.73,2.74,4.67.33,1.93,0,3.71-1.01,5.31-1.01,1.61-2.62,2.61-4.84,2.99l-11.35,1.96c-1.18.2-1.97,1.32-1.76,2.5h0c.2,1.18,1.32,1.97,2.5,1.76l14.76-2.55c2.22-.38,4.07.01,5.57,1.19,1.49,1.18,2.4,2.74,2.74,4.67.33,1.93,0,3.71-1.01,5.31ZM152.28,83.96c-.34.91-.81,1.72-1.43,2.42-.62.71-1.35,1.31-2.2,1.81-.85.5-1.73.8-2.64.9-2.18.24-4.12-.47-5.81-2.15l-10.91-12.12c-.78-.87-2.21-.22-2.09.94l.89,8.08c.25,2.3-.26,4.12-1.53,5.48-1.27,1.36-2.86,2.14-4.75,2.35-1.95.22-3.69-.2-5.23-1.25-1.54-1.05-2.43-2.72-2.69-5.02l-4.1-37.17c-.25-2.3.26-4.12,1.53-5.48,1.27-1.36,2.88-2.15,4.83-2.36,1.89-.21,3.61.21,5.15,1.26,1.54,1.05,2.43,2.72,2.69,5.02l.88,8.01c.13,1.17,1.68,1.48,2.25.45l7.89-14.37c.71-.95,1.47-1.7,2.28-2.26.81-.55,1.78-.89,2.93-1.02,1-.11,2.03,0,2.98.33.89.3,1.7.72,2.43,1.25.76.56,1.39,1.26,1.89,2.1.5.85.8,1.73.9,2.64.18,1.66-.2,3.19-1.15,4.57l-9.89,13.92c-.64.9-.51,2.14.31,2.89l12.72,11.68c1.29,1.19,2.03,2.62,2.21,4.28.11.98,0,1.92-.34,2.82ZM205.99,69.45c-1.21,3.3-2.95,6.2-5.21,8.69-2.27,2.49-4.97,4.51-8.13,6.07-3.15,1.56-6.55,2.43-10.18,2.63-3.63.19-7.1-.31-10.4-1.52-3.3-1.21-6.2-2.93-8.69-5.17-2.49-2.24-4.51-4.93-6.07-8.08-1.56-3.15-2.43-6.55-2.63-10.18-.19-3.63.31-7.1,1.52-10.4,1.21-3.3,2.93-6.21,5.17-8.73,2.24-2.52,4.93-4.55,8.08-6.11,3.15-1.56,6.55-2.43,10.18-2.63,3.63-.19,7.1.31,10.4,1.52,3.3,1.21,6.21,2.95,8.73,5.21,2.52,2.27,4.56,4.97,6.12,8.13,1.56,3.15,2.43,6.55,2.63,10.18.19,3.63-.31,7.1-1.52,10.4Z"/>
    <path class="cls-1" d="M464.85,78.39c-.73-1.33-1.71-2.5-2.94-3.52-1.23-1.02-2.65-1.77-4.26-2.24-1.61-.47-3.19-.6-4.75-.4-1.56.21-3.02.66-4.37,1.38-1.35.72-2.53,1.7-3.52,2.94-.99,1.24-1.73,2.67-2.2,4.27-.47,1.61-.62,3.19-.44,4.74.18,1.56.64,3.01,1.38,4.37.74,1.36,1.72,2.53,2.94,3.52,1.21.99,2.62,1.71,4.23,2.18,1.61.47,3.2.62,4.78.45,1.58-.17,3.04-.63,4.37-1.38,1.33-.75,2.51-1.73,3.52-2.94,1.01-1.21,1.76-2.61,2.23-4.22.47-1.6.61-3.2.41-4.79-.2-1.59-.66-3.05-1.38-4.37Z"/>
    <path class="cls-1" d="M485.85,80.51c-.5-4.15-1.74-8.06-3.69-11.62-1.94-3.55-4.57-6.7-7.8-9.37-3.26-2.69-7.03-4.67-11.2-5.89-4.17-1.22-8.42-1.59-12.61-1.07-4.16.5-8.06,1.75-11.6,3.72-2.66,1.48-5.01,3.45-7.19,5.67.55-1.04.99-2.15,1.22-3.35.32-1.64.28-3.34-.12-5.04-.39-1.65-1.09-3.17-2.07-4.5v-.02c-.96-1.28-2.13-2.4-3.48-3.32-1.35-.92-2.88-1.55-4.48-1.86-1.99-.39-3.9-.31-5.69.24-1.49.46-2.98,1.22-4.41,2.25l-3.71,3.5c-.29-2.56-1.33-4.45-2.33-5.72-1.94-2.44-4.61-4.05-7.7-4.65-3.17-.62-6.26-.13-8.97,1.41-1.06.6-2.28,1.54-3.34,2.94-.37-1.04-.82-2.05-1.46-2.99-1.35-1.97-3.94-4.45-8.65-5.08l-24.03-3.21c-5.52-.74-9.88,1.29-12.23,5.41-.29-.42-.5-.88-.82-1.28-1.88-2.35-4.33-4.32-7.31-5.87-2.94-1.52-6.44-2.46-10.41-2.79l-15.32-1.28c-7.76-.62-13.02,3.88-13.68,11.83l-3.28,39.38c-.32,3.84.55,7.06,2.56,9.55,2.08,2.59,5.19,4.07,9.25,4.41.53.04,1.05.07,1.55.07,3.3,0,6.06-.94,8.22-2.82,2.46-2.13,3.87-5.24,4.2-9.24l.57-6.84c.87.22,1.79.37,2.77.45l2.46.2c3.4.28,6.54-.16,9.37-1.31,1.66-.68,3.16-1.59,4.56-2.61l-1.41,10.57c-.51,3.8.19,7,2.08,9.5,1.9,2.52,4.79,4.05,8.59,4.56l24.03,3.21c.69.09,1.34.13,1.96.13,3.65,0,6.18-1.45,7.72-2.77.16-.14.28-.3.44-.45.29.49.58.96.88,1.34,1.93,2.45,4.63,4.06,7.79,4.68,3.09.6,6.17.11,8.89-1.43,1.44-.82,3.17-2.23,4.41-4.62l1.96,4.27c1.88,3.53,4.86,5.78,8.6,6.51.73.14,1.48.22,2.22.22.93,0,1.87-.11,2.82-.33,1.5-.35,2.91-.93,4.2-1.72,1.35-.83,2.53-1.9,3.51-3.18.75-.97,1.26-2.06,1.66-3.19.34.76.59,1.58.99,2.31,1.93,3.53,4.54,6.66,7.77,9.32,3.26,2.69,7.03,4.67,11.2,5.89,2.95.86,5.93,1.3,8.92,1.3,1.23,0,2.46-.08,3.69-.22,4.14-.5,8.03-1.72,11.58-3.64,3.56-1.93,6.72-4.54,9.38-7.77,2.69-3.26,4.67-7.03,5.89-11.2,1.22-4.17,1.58-8.42,1.07-12.61ZM333.77,63.99c-1.5,1.5-3.28,2.67-5.34,3.5-2.06.84-4.36,1.15-6.92.94l-2.46-.2c-4.56-.38-6.67-2.6-6.33-6.68.12-1.46.49-2.54,1.1-3.26.61-.71,1.36-1.23,2.24-1.56.89-.32,1.82-.52,2.8-.59.98-.07,1.91-.21,2.79-.41.87-.2,1.64-.55,2.29-1.05.65-.5,1.06-1.32,1.22-2.47.23-2.73-1.24-4.23-4.4-4.5l-5.93-.49c-1.21-.1-2.27.8-2.37,2l-2.52,30.27c-.43,5.16-3.17,7.54-8.21,7.12-2.55-.21-4.4-1.02-5.53-2.43-1.14-1.41-1.61-3.33-1.4-5.76l3.28-39.38c.42-5.04,3.06-7.36,7.92-6.96l15.31,1.28c3.28.27,6.08,1.01,8.4,2.21,2.32,1.2,4.18,2.69,5.6,4.46,1.41,1.77,2.41,3.73,3,5.9.58,2.16.79,4.33.6,6.52-.18,2.19-.71,4.29-1.58,6.29-.87,2.01-2.06,3.76-3.56,5.26ZM382.02,49.13c-.26,1.95-1.11,3.54-2.56,4.77-1.45,1.23-3.28,1.7-5.52,1.4l-14.85-1.98c-1.18-.16-2.27.67-2.43,1.86-.16,1.18.67,2.27,1.86,2.43l11.41,1.52c2.23.3,3.88,1.23,4.95,2.8,1.07,1.57,1.48,3.33,1.22,5.27-.26,1.94-1.11,3.54-2.56,4.77-1.45,1.23-3.28,1.7-5.52,1.4l-11.41-1.52c-1.18-.16-2.27.67-2.43,1.86h0c-.16,1.19.67,2.27,1.86,2.43l14.85,1.98c2.23.3,3.88,1.23,4.95,2.8,1.07,1.57,1.48,3.33,1.22,5.27-.26,1.94-1.11,3.53-2.56,4.77-1.44,1.23-3.28,1.7-5.51,1.41l-24.03-3.21c-4.69-.63-6.72-3.31-6.09-8.06l4.95-37.07c.63-4.75,3.29-6.81,7.99-6.18l24.03,3.21c2.23.3,3.88,1.23,4.95,2.8,1.07,1.57,1.48,3.33,1.22,5.27ZM425.28,61.6l-12.83,9.77c-1.31,1-1.67,2.81-.85,4.24l8.2,14.12c.88,1.53,1.16,3.11.84,4.75-.19.96-.58,1.83-1.17,2.6-.59.77-1.29,1.39-2.09,1.89-.8.49-1.68.85-2.63,1.07-.96.23-1.89.25-2.79.07-2.16-.42-3.79-1.68-4.91-3.78l-7.01-15.28c-.42-.92-1.77-.76-1.96.23l-1.65,8.48c-.44,2.27-1.47,3.86-3.09,4.78-1.62.92-3.36,1.2-5.23.83-1.93-.38-3.47-1.29-4.62-2.75-1.16-1.46-1.51-3.32-1.07-5.59l7.15-36.71c.44-2.27,1.47-3.86,3.09-4.78,1.62-.92,3.39-1.19,5.32-.82,1.87.36,3.38,1.28,4.54,2.74,1.16,1.46,1.51,3.32,1.07,5.59l-1.64,8.41c-.19,1,1.01,1.65,1.74.95l12.18-11.73c.96-.69,1.91-1.19,2.85-1.47.94-.29,1.97-.32,3.1-.1.98.19,1.92.6,2.72,1.19.77.56,1.43,1.2,1.97,1.93.56.76.95,1.61,1.18,2.57.23.96.25,1.89.07,2.79-.32,1.65-1.14,2.98-2.46,4.02ZM479.66,91.62c-1.02,3.49-2.65,6.59-4.89,9.3-2.24,2.71-4.84,4.87-7.8,6.47-2.96,1.6-6.19,2.61-9.68,3.03-3.49.42-6.98.12-10.47-.9-3.49-1.02-6.59-2.65-9.3-4.89-2.71-2.24-4.87-4.82-6.48-7.76-1.61-2.94-2.62-6.15-3.05-9.64-.42-3.49-.12-6.98.9-10.47,1.02-3.49,2.65-6.59,4.89-9.31,2.24-2.71,4.83-4.89,7.77-6.52,2.94-1.63,6.16-2.66,9.65-3.09,3.49-.42,6.98-.12,10.47.9,3.49,1.02,6.59,2.65,9.3,4.89,2.71,2.24,4.88,4.84,6.51,7.81,1.63,2.97,2.65,6.2,3.07,9.69.42,3.49.12,6.98-.9,10.47Z"/>
  </g>
</svg>