<?xml version="1.0" encoding="UTF-8"?>
<svg id="Layer_1" data-name="Layer 1" xmlns="http://www.w3.org/2000/svg" viewBox="0 0 126.5 86.69">
  <defs>
    <style>
      .cls-1 {
        fill: #820028;
      }
    </style>
  </defs>
  <path class="cls-1" d="M112.65,10.95c-.26-.07-.51-.13-.74-.2-.04,1.43-.31,1.9-.3,2.95.02.29,1.02,1.27,1.04-2.75ZM124.43,12.92c-.81-.42-1.83-.76-3-.83,1.14-.92,4.12-4.58,2.89-7.04-.1-.2-.37-.47-.74-.76-2.05-1.59-7.42-4.11-7.63-4.14-1.45-.76-4.4,1.41-4.42,5.44,0,.09,0,.19,0,.3-.09-.11-.19-.22-.3-.31-.22-.2-.44-.37-.67-.49-1.33-.68-2.96-.66-4.4-.26-1.59.44-2.72.91-3.71,2.26-1.04,1.42-2.34,3.05-2.85,4.89-.87,3.08.66,4.99,2.44,6.07.82.51,1.71.82,2.42,1.02-2.43,1.7-3.1,3.6-2.31,5.48.26.62.68,1.23,1.26,1.84.15.34.42.67.76,1.04.9.89,2.37,1.75,3.89,2.07,2.36.51,4.78-.27,5.28-4.24,2.64,6.22,8.72,1.41,8.09-2.29,3.22.68,5.46-7.47,5.02-8.29.02-.27-.74-1.12-2.01-1.77ZM122.74,13.35c1.25.34,2.28.96,2.89,1.51.35.72-.52,2.81-.81,3.5-3.03,7.04-3.77,1.88-6.82,1.09-.23-.06,1.14.54,2.39,2.99,2.21,5.33-8.99,7.63-6.4-2.2.2-.69-.37-.45-1.24,2.17-.63,1.89.66,5.81-3.24,6.21-.32.04-.69,0-1.1-.06-1.26-.26-2.73-1.06-3.85-2.12-.68-.63-1.22-1.39-1.51-2.18-.58-1.62-.08-3.36,2.59-4.82,1.12-1,3.24-2,4.71-2.25-.85-.55-3.89.67-4.42.81-.84.22-1.8.03-2.7-.43-2.55-1.41-4.46-5.31-.54-9.28.18-.19,2.81-4.01,7.03-2.33.18.07.34.15.49.26.81.49,1.24,1.31,1.57,2.25.09.97.13,1.7.12,2.27-.04,1.43-.31,1.9-.3,2.95.02.29,1.02,1.27,1.04-2.75,0-.97-.04-2.23-.18-3.85-.04-.48-.05-.97-.02-1.45.03-.71.15-1.43.37-2.12,1.05-3.35,2.98-2.59,3.27-2.59,3.15,1.56,5.18,2.7,6.32,3.69,2.52,2.2.71,3.7-2.79,7.58-.56.11-1.08.27-1.54.47-1.54.64-2.59,1.66-3.25,2.61-1.12,1.66-1.1,3.1-.43,2.04.4-.61.8-1.14,1.21-1.6,1.37-1.54,2.83-2.28,4.21-2.51,1.04-.19,2.04-.1,2.93.15ZM112.65,10.95c-.26-.07-.51-.13-.74-.2-.04,1.43-.31,1.9-.3,2.95.02.29,1.02,1.27,1.04-2.75Z"/>
  <path class="cls-1" d="M17.58,17.25c-1.29-.69-2.9.11-2.91.7-1.84,2.79,6.43,1.15,2.91-.7ZM14.98,18.13c.71-.37,1.16-.73,2.03-.51,2.72.73-2.77,2.37-2.03.51Z"/>
  <path class="cls-1" d="M79.47,21.99c-3,.73.33,4.3,1.26.99.23-.78-.63-1.15-1.26-.99ZM80.19,22.79c-.08.59-1.21,1.34-1.41.85.49-1.41,1.46-1.26,1.41-.85Z"/>
  <path class="cls-1" d="M109.94,18.46c-.95.11-1.6,1.4-.1,2.81,2.23,2.1,3.01-3.11.1-2.81ZM109.91,20.66c.03-.26-.6-.62-.49-1.16.05-.07.09-.11.07-.2,1.51-2.56,2.85,4.31.42,1.35Z"/>
  <path class="cls-1" d="M110.86,12.69c-.56-1.24-2.73-.52-2.93,1.17-1.38,3.05,3.97,1.09,2.93-1.17ZM108.25,14.83c.1-.02.1-1.69,1.29-2.19,2.36-.97-.66,3.56-1.29,2.19Z"/>
  <path class="cls-1" d="M112.36,15.78c-.2-1.56-2.38-.52-1.47.64.34,1.05,1.61.51,1.47-.64ZM111.56,16.47c-.02-.18-.27-.29-.32-.51-.17-1.02,1.18.15.32.51Z"/>
  <path class="cls-1" d="M114.81,13.24c-.38-.77-1.98-.57-1.79,1.61-.25,1.06,2.57-.05,1.79-1.61ZM113.44,14.67c.1-1.22.7-1.55.87-1.19.26.53-.33,1.16-.87,1.19Z"/>
  <path class="cls-1" d="M112.51,17.74c-.31.08-.97.86-.08,1.42,2.66,1.71,1.47-3.39.08-1.42ZM113.56,18.65c-.07.36-1.17.14-.99-.28.31-.09,1.18-.87.99.28Z"/>
  <path class="cls-1" d="M118.86,61.55c-6.44-4.55-8.73.55-8.53,1.66-.59.02-1.22.14-1.63.43-.13.04-.17.09-.2.16-.08.09-.13.19-.09.34-1.27,5.26,10.55,9.58,9.75,7.1.04-1.49-.98-4.5-1.67-5.41,3.47,1.32,6.82-1.16,2.38-4.28ZM114.55,65.22c1.89,1.12,2.08,3.57,2.53,5.58-5.97-.8-8.22-5-8-6.55,1.67-.72,4.07.14,5.46.97ZM120.14,64.18c.21.88-1.33,1.16-1.86,1.16-.95.02-1.84-.52-2.73-.83-.15-.06-.3,0-.36.11-.17-.12-.33-.22-.5-.31-1.03-.62-2.22-.94-3.4-1.05-.07-.02-.13-.01-.21-.02-.3-4.33,8.18-2.51,9.06.93Z"/>
  <path class="cls-1" d="M96.08,73.86c-2.63-2.78-5.04.36-2.58,1.92,1.83,2.26,4.43.06,2.58-1.92ZM94.18,75.52c-.02-.38-1.08-1.32-.72-1.71.44-.47,1.43.2,1.78.45,1.35,1.01.45,2.38-1.06,1.26Z"/>
  <path class="cls-1" d="M46.44,29.44c-.18-.07-.36-.14-.52-.23,0,.06,0,.13,0,.21-.01.08-.03.15-.07.23-.09.29-.28.61-.4.75,2.05-.08,3.89.66,3.89.66,1.18.46,1.5-1.43-2.9-1.61ZM46.44,29.44c-.18-.07-.36-.14-.52-.23,0,.06,0,.13,0,.21-.01.08-.03.15-.07.23-.09.29-.28.61-.4.75,2.05-.08,3.89.66,3.89.66,1.18.46,1.5-1.43-2.9-1.61ZM56.1,23.07c-.3.13-.59.26-.88.37.27.73.56,1.47.9,2.16.11.18,1.3,1.45-.02-2.54ZM46.44,29.44c-.18-.07-.36-.14-.52-.23,0,.06,0,.13,0,.21-.01.08-.03.15-.07.23-.09.29-.28.61-.4.75,2.05-.08,3.89.66,3.89.66,1.18.46,1.5-1.43-2.9-1.61ZM77.25,27.96c-.17-1.01-.45-2.01-.82-2.96-1.88-4.94-6.05-8.53-10.52-3.53.17-1.04.19-2,.11-2.84-.85-8.44-12.01-8.45-11.82.19-2.89-4.37-8.95-1.78-11.48,2.19-.47.72-.83,1.46-1,2.24-.17.7-.23,1.44-.1,2.16.11.59.32,1.16.65,1.73h.02c.05.11.11.2.19.28.06.08.12.17.18.25.17.21.38.4.61.62.46.43,1.06.85,1.75,1.2-1.34.2-2.62.74-3.61,1.7-1.13,1.08-1.71,2.43-1.83,3.83-.02.14-.03.3-.04.47,0,.02,0,.04,0,.07-.02.5.02,1.04.13,1.54l.03.21c.18.76.47,1.51.83,2.23.39.76.89,1.46,1.47,2.07.22.24.49.49.74.7.32.29.68.54,1.06.76.35.21.72.38,1.12.52,2.43.88,5.3.34,7.88-2.9-.04,3.31,1.52,6.53,4.09,8.66.53.43,1.09.83,1.63,1.15.26.14.53.26.79.37,2.96,1.32,5.98.74,8.24-.86.32-.22.62-.47.92-.73,3.75-3.41,4.83-9.84-1.19-14.18.17.05.34.08.52.1,5.34,2.73,8.16,1.3,9.19-1.63.58-1.59.62-3.61.25-5.61ZM75.43,25.06c.84,1.85,1.28,4,1.19,5.88-.07,1.08-.32,2.03-.78,2.81-.94,1.6-2.8,2.37-5.86,1.35-1.19-.01-7.01-2.54-7.4-2.71.58.87,1.42,1.49,2.32,2.08,8.14,5.47,6.64,11.38,2.58,14.21-.42.28-.85.53-1.31.76-1.77.85-3.82,1.15-5.72.74-.35-.07-.71-.2-1.07-.32-3.07-1.21-5.53-4.62-5.32-11.26.17-.45.3-.93.35-1.4.01-.43-1.37,1.38-1.42,1.68-2.06,3.78-4.75,4.69-7.1,4.07-.43-.14-.86-.3-1.26-.52-.36-.18-.72-.41-1.05-.66-.28-.22-.57-.48-.83-.74-.48-.48-.89-1.03-1.26-1.61-.4-.64-.71-1.34-.9-2.05-.03-.11-.06-.24-.08-.35-.13-.62-.21-1.23-.17-1.84,0-.05,0-.1,0-.13.08-1.04.44-2.05,1.15-2.92.15-.18.31-.35.48-.49.08-.09.17-.16.28-.24.18-.14.37-.26.57-.37.1-.06.19-.11.31-.14.68-.31,1.45-.47,2.32-.47,2.05-.08,3.89.66,3.89.66,1.18.46,1.5-1.43-2.9-1.61-.18-.07-.36-.14-.52-.23-1.08-.53-2.07-1.28-2.73-2.29-.24-.37-.41-.78-.54-1.18-.23-.77-.22-1.58-.04-2.35.17-.74.5-1.47.93-2.15,2.39-3.74,8.3-5.88,10.77-.14.15.33.27.65.39.98.17.45.35.92.51,1.37.27.73.56,1.47.9,2.16.11.18,1.3,1.45-.02-2.54-.14-.4-.3-.85-.51-1.36-.01-.05-.03-.1-.04-.15-.14-1.73-1.13-4.17.7-6.69,1.84-2.55,8.39-2.82,8.96,3.9.1,1.18.02,2.6-.31,4.25-.3.63-.52,1.26-.63,1.86-.1.49.6.67.81.25,3.91-7.62,8.3-4.73,10.35-.08ZM56.1,23.07c-.3.13-.59.26-.88.37.27.73.56,1.47.9,2.16.11.18,1.3,1.45-.02-2.54ZM56.1,23.07c-.3.13-.59.26-.88.37.27.73.56,1.47.9,2.16.11.18,1.3,1.45-.02-2.54ZM46.44,29.44c-.18-.07-.36-.14-.52-.23,0,.06,0,.13,0,.21-.01.08-.03.15-.07.23-.09.29-.28.61-.4.75,2.05-.08,3.89.66,3.89.66,1.18.46,1.5-1.43-2.9-1.61ZM46.44,29.44c-.18-.07-.36-.14-.52-.23,0,.06,0,.13,0,.21-.01.08-.03.15-.07.23-.09.29-.28.61-.4.75,2.05-.08,3.89.66,3.89.66,1.18.46,1.5-1.43-2.9-1.61Z"/>
  <path class="cls-1" d="M62.07,35.55c-2.28-.68-3.18,1.95-1.23,3.29,3.85,2.64,4.69-3.46,1.23-3.29ZM60.56,36.28c1.12-1.38,2.68.9,2.91.82,1.85,2.8-4.76,1.5-2.91-.82Z"/>
  <path class="cls-1" d="M58.31,36.37c-.91-.61-1.87.23-2.17,1.11-.3.88.23,1.98,1.23,2.03.43.01.81-.19,1.08-.51.07.02.14,0,.21-.06.7-.89.59-1.95-.35-2.56ZM58.56,37.46c-.1,0-.19.08-.16.2.14.69-.49,1.37-1.18,1.25-.75-.11-.73-1.1-.48-1.61.16-.32.48-.57.83-.65.3-.07.55.19.76.38.16.14.23.29.24.43Z"/>
  <path class="cls-1" d="M62.13,27.86c-.04-.05-.07-.06-.14-.06-.67-.29-2.24.09-3.03,1.85-2.27,4.98,7.23.62,3.17-1.79ZM59.59,29.53c.23-.48.58-.88,1.01-1.14.07.05.83-.24,1.25-.07,2.69,1.12-4.4,5.71-2.26,1.22Z"/>
  <path class="cls-1" d="M58.43,32.97c-1.08-.38-1.83,1.25-.99,1.73,2.84,1.64,1.51-3.38.99-1.73ZM58.76,33.63c.26,1.18-1.79.81-.92-.12.49-.53.68.12.92.12Z"/>
  <path class="cls-1" d="M57.96,28.29c-.17-.54-.94-.8-1.45-.6-4.44.46,2.58,4.5,1.45.6ZM56.21,28.11c.12.15.88-.12,1.2.25,1.54,1.76-3.79.74-1.2-.25Z"/>
  <path class="cls-1" d="M54.2,30.83c-1.36-.13-2.26,1.53-2.39,2.68-.29,2.44,3.37,3.01,4.01.16.7.21.27-2.66-1.62-2.84ZM54.23,34.92c-.66.31-2.16.09-1.73-1.76,1.02-4.29,4.84.29,1.73,1.76Z"/>
  <path class="cls-1" d="M51.01,29.58c-.05.14.05.23.16.24.22.86,1.85.84,2.43-.59.71-1.79-1.78-2.66-2.59.34ZM53.14,28.87c-.15.9-1.48,1.45-1.51.61,1.46-2.1,1.6-1.13,1.51-.61Z"/>
  <path class="cls-1" d="M61.15,24.18c-2.91-.84-1.19,3.66.63,1.7.45-.53.18-1.81-.63-1.7ZM60.43,25.63c-.49-.12-.71-.76.2-1.03.97-.31,1.33,1.4-.2,1.03Z"/>
  <path class="cls-1" d="M64.02,29.61c.53,2.39,2.86,1.67,2.15.04,0-2-2.53-1.71-2.15-.04ZM65.84,30.03c.19.87-1.04.91-1.35-.54-.11-.56.41-1.03.88-.59-.02.06.48,1.13.48,1.13Z"/>
  <path class="cls-1" d="M72.89,64.87c1.08-.61,2.15-1.23,3.2-1.88h.01s.01-.02.01-.02c.08-.04.16-.1.24-.15.47-.29.9-.58,1.35-.87.77,0,1.62-.13,2.53-.43.28-.09.56-.2.86-.33.25-.09.51-.21.78-.36.08-.03.15-.07.23-.12.19-.09.39-.22.59-.34.23-.13.46-.27.7-.42.96-.65,1.99-1.44,3.07-2.43.08-.07.19-.11.28-.08.09-.02.17.03.22.09.04.04.06.09.04.15.01.07,0,.15-.03.22-.04.08-.11.15-.14.23-.15.34-.29.63-.41.93-1.54,1.09-3.07,2.2-4.63,3.26-.21.14-.42.28-.62.42-.59.39-1.17.77-1.75,1.16h-.02c-.36.23-.7.44-1.05.67-1.17-.72-2.51-.97-3.57-.56-.25.09-1.05.5-1.92.85Z"/>
  <path class="cls-1" d="M49.3,74.19h0c.12-.09.21-.16.28-.18.17-.06.32-.12.49-.16,2.62-.9,5.37-1.44,8.02-2.28.04,0,.08-.02.13-.04h.02c1.02-.32,2.05-.68,3.05-1.07t.03,0c.56-.22,1.11-.44,1.66-.67h.02s0-.02,0-.02c.94-.39,1.88-.81,2.8-1.25-.12.17-.25.34-.37.5-.27.32-.56.61-.87.87-.46.39-.98.74-1.52,1-.37.17-.76.33-1.15.46-.31.44-.62.85-.89,1.24-.28.39-.55.75-.78,1.09-.61.22-1.24.43-1.85.65h-.01c-3.51,1.2-5.82,1.76-7.33,1.93-.54.07-.98.09-1.32.06-2.04-.14-1.03-1.59-.4-2.12Z"/>
  <path class="cls-1" d="M77.71,61.96c-.22.02-.46-.02-.67-.04-.25.3-.54.57-.87.88.05,0,.12,0,.19.02.46-.29.9-.57,1.35-.87ZM109.5,45.71c-1.39-.73-2.67-1.06-2.79-1.09-.5-.16-1.01-.26-1.53-.34-1.3-.21-2.55-.21-3.75.09-.75.18-1.48.48-2.19.91.72-1.79,2.91-5.89,2.28-9.26-.36-1.85-1.54-3.47-4.34-4.34-.58-.21-13.08-2.57-10.49,5.76-6.94-6.47-14.47,4.45-12.52,8.21.36.72.7,1.45,1.32,2-3.75-.59-5.41,1.97-5.46,5.21.02.32.02.66.05,1.01.28,3.3,2.07,6.97,4.95,8.61.36.2.7.37,1.06.52h.02c.69.21,1.42.36,2.18.36.91,0,1.89-.19,2.91-.59,1.16-.48,2.41-1.26,3.71-2.36-3.8,8.29,2.28,11.09,7.87,9.29,1.71-.54,11.53-1.8,8.78-7.71-.59-1.3-1.49-2.51-2.34-3.67,5.09,2.44,7.97,1.41,10.43-1.14,6.26-6.46,2.8-9.88-.14-11.45ZM108.95,56.48c-5.56,6.51-16.09-4.84-13.23-1.02,1.26,1.67,1.41.99,3.8,4.68,4.67,7.16-2.5,7.42-8.24,8.95-3.6.96-6.92-1.81-6.77-3.91.93-2.5-.34-.72,1.93-6.11.13-.3.27-.6.41-.93.02-.05.04-.08.07-.12,0-.02.01-.04.03-.06.02-.01.02-.04.03-.06.05-.07.04-.16.03-.22.01-.03.02-.06.01-.09,0-.03-.02-.05-.03-.06-.05-.06-.14-.1-.22-.09-.1-.03-.21,0-.29.08-1.07.99-2.11,1.79-3.07,2.43-.25.15-.47.3-.7.43-.2.12-.4.24-.58.34-.08.05-.15.08-.23.11-.27.16-.53.28-.78.36-.3.14-.57.26-.86.34-.17.07-.36.11-.53.16-.71.2-1.38.28-2,.26-.22.02-.46-.02-.67-.04-.37-.06-.72-.14-1.06-.24-3.12-1.04-4.72-4.67-4.86-7.86,0-.35-.01-.67,0-1,.15-2.28,1.1-4.12,2.84-4.26,1.13-.1,9.08,1.88,9.07,1.74-.03-.14-7.44-1.71-8.17-5.36-.86-4.22,4.6-10.21,10.01-7.78,2.68,1.21,4.86,7.12,3.22,1.69-.08-.31-2.09-6.5,5.04-6.66,12.56-.29,5.97,10.85,5.33,13.69-1.89,1.72.97-.68,4.37-.66.52,0,1.18,0,1.9.04,1.11.06,2.29.22,3.06.63.19.09.41.22.65.34,2.36,1.15,6.52,3.26.51,10.25ZM77.71,61.96c-.22.02-.46-.02-.67-.04-.25.3-.54.57-.87.88.05,0,.12,0,.19.02.46-.29.9-.57,1.35-.87Z"/>
  <path class="cls-1" d="M93.67,59.36c.13-1.19-2.02-.85-2.71-.63-2.58.8-1.05,3.71,1.95,2.49.68-.29,1.44-1.25.76-1.86ZM93.1,59.25c-.26.31.39.84-.37,1.27-1.18.68-3.25-.13-1.89-.99.31-.15,1.89-.65,2.26-.28Z"/>
  <path class="cls-1" d="M92.55,54.54c-.16.02-.23.19-.19.33-.65.36-.83,3,.86,2.84,1.94-.17,1.08-3.59-.68-3.17ZM93.35,56.91c-.75.76-1.09-1.54-.5-1.66.92.49.95,1.2.5,1.66Z"/>
  <path class="cls-1" d="M87.94,57.71c.32,1.68,3.44.33,3.03-.76,1.06-1.62-3.47-1.6-3.03.76ZM90.43,57.22c-1.12,1.31-2.82.43-1.17-.62,1.34-.83.93.43,1.17.62Z"/>
  <path class="cls-1" d="M89.91,52.59c-1.31-.92-4.14.91-2.94,2.37,1.91,2.31,5.11-2.97,2.94-2.37ZM89.71,52.98c.06,2.4-3.82,1.84-1.64.3.3-.18,1.2-.54,1.64-.3Z"/>
  <path class="cls-1" d="M93.56,51.31c-.96-.18-1.2,1.2-.37,1.8,2.08,1.43,1.51-3.42.37-1.8ZM93.35,51.91c.17-.11.42.02.57.15.5.98-1.24.3-.57-.15Z"/>
  <path class="cls-1" d="M90.46,48.33c-2.41-.2-1.85,3.01.41,2.87,2.16-.13,1.47-3.4-.41-2.87ZM90.85,50.36c-1.01.23-1.72-1.2-.77-1.5.21.38.91.09,1.22.54.28.42-.03.86-.45.96Z"/>
  <path class="cls-1" d="M98.17,49.04c-1.64-1.63-3.24,1.61-2.51,3.02,1.83,3.48,5.19-1.72,2.51-3.02ZM97.42,52.29c-2.06.21-.97-4.04.47-2.76.8,1.82.13,2.69-.47,2.76Z"/>
  <path class="cls-1" d="M84.29,54.47c-1.26-.32-2.19,1.8-.89,2.75,2.38,1.69,2.76-4.04.89-2.75ZM83.85,56.6c-.63-.26-.35-1.78.47-1.61,1.05,1.46-.07,1.8-.47,1.61Z"/>
  <path class="cls-1" d="M86.41,50.68c-.51-1.08-3.33.55-2.19,1.71,1.2,1.27,3.47-.85,2.19-1.71ZM85.98,51.4c-.2,1.54-2.55-.03-.25-.51.05.21.3.25.25.51Z"/>
  <path class="cls-1" d="M95.57,45.11c-.91-.32-1.83.99-2.15,1.67-.33.72-.52,1.86.43,2.14,1.01.3,2.15-1.01,2.29-1.9,0-.09-.01-.18-.07-.24.3-.65.37-1.36-.5-1.66ZM95.75,46.23c-.03.2-.12.39-.2.57-.43.32-.59.98-1.06,1.29-.75.46-.59-.46-.48-.85.16-.51.53-1.01.92-1.38.39-.35.93-.2.82.37Z"/>
  <path class="cls-1" d="M86.76,47.97c-1.45-.42-1.42,2.79.48,1.84,1.03-.52.53-2.33-.48-1.84ZM86.42,49.05c-.12-.2.09-.45.29-.52.92.24,0,.96-.29.52Z"/>
  <path class="cls-1" d="M90.89,44.59c-.13-.38-1.85-.97-2.92-.04-1.68,1.51.83,3.27,2.77,2.08.69-.42.97-1.7.16-2.04ZM90.29,44.8c0,2-1.56,1.36-1.85,1.17-.67-.38.21-1.53,1.85-1.17Z"/>
  <path class="cls-1" d="M79.44,63.91h-.01c-.37-.23-.75-.39-1.14-.56-.66-.27-1.33-.42-1.92-.53-.06-.02-.14-.01-.19-.02.33-.31.63-.59.87-.88-.37-.06-.72-.14-1.06-.24-.26.27-.59.54-.96.8l-.08.06c-.99,1.16-2.98,2.37-4.42,2.79.47.24,1.45-.06,2.37-.44.87-.35,1.67-.76,1.92-.85,1.06-.42,2.4-.17,3.57.55,2.3,1.44,3.84,4.78.77,8.72-.15.2-2.35,4.3-6.71,3.1-1.2-.31-1.81-1.19-2.33-2.24-.65-2.92-.38-3.61-.38-4.67-.01-.05,0-.09-.03-.13,0-.12-.02-.25-.03-.4h0c-.01-.17-.35-.48-.58-.11-.12.16-.22.48-.24,1.08-.02.98.14,2.74.74,5.68.25,1.17.3,2.41.07,3.58-.66,3.47-2.67,2.91-2.95,2.98-9.13-3.31-9.38-4.37-6.48-8.48.24-.34.5-.7.79-1.09.27-.39.57-.8.88-1.24.39-.13.78-.29,1.15-.46.54-.28,1.05-.62,1.52-1,.3-.27.59-.55.87-.87.14-.16.27-.31.39-.49.53-.76.95-1.66,1.22-2.67.08-.36-.39-.53-.55-.19-1,2.08-2.23,3.37-3.49,4.1v.02h-.03c-.55.32-1.1.53-1.66.67t-.02,0c-2.34.59-4.58-.3-5.67-1.07-.43-.66.18-2.86.39-3.58,2.21-7.32,3.54-2.28,6.63-1.86.26.03-1.17-.38-2.68-2.69-2.8-5.05,8.04-8.6,6.6,1.43-.11.74.4.42.98-2.28.42-1.95-1.34-5.69,2.5-6.54,0,0,0,0,.03,0,.32-.05.67-.09,1.05-.05,0-.35-.01-.67,0-1-.37-.02-.74-.01-1.1.04-1.84.25-3.37,1.56-3.38,4.79-3.35-5.88-8.83-.39-7.78,3.23-3.27-.33-4.55,8.03-4.02,8.78,0,.35,1.35,1.46,3.38,1.88h.02c.56.12,1.2.17,1.86.14-.44.45-1.19,1.46-1.75,2.65-.73,1.54-1.17,3.37-.33,4.67.85,1.29,8.64,3.9,8.9,3.9,1.56.59,4.32-2,3.73-6.21.32.31.7.55,1.06.68,1.4.53,3.02.33,4.4-.23,1.53-.64,2.6-1.24,3.41-2.67.87-1.53,1.98-3.29,2.28-5.19.45-2.73-.79-4.39-2.37-5.37Z"/>
  <path class="cls-1" d="M50.07,73.85h-.01c-.55-.49-1.34-.99-2.41-1.45-14.29-6.2-17.67,5.38-2.27,5.85,3.09.08,5.15-.78,5.63-1.98,0,0,0,0,.02-.01.3-.73,0-1.57-.96-2.41ZM49.3,74.06s-.03.08,0,.11v.02c.03.54,1.38,1.36.41,2.12,0,0-.02.01-.02.01h0c-.33.25-.89.47-1.83.69-13.52,3.03-16.92-10.73-.28-3.85.58.25,1.21.52,1.74.89Z"/>
  <path class="cls-1" d="M83.05,75.47c-1.29,2,.22,7.28,2.66,7.08,4.12-.35.55-12.14-2.66-7.08ZM85.66,75.56c.64.82.79,1.86,1.25,2.79.67,3.7-2.75,5.3-3.49-.22-.15-1.18.78-4.51,2.24-2.57Z"/>
  <path class="cls-1" d="M79.75,81.16c.44-.66-2.78-1.02-4.78,2.21-.76,1.24-.98,2.71.65,3.21,3.13.96,6.37-4.48,4.12-5.42ZM78.96,84.49c-4.42,5.18-5.1-2.77-.04-3.24-.11.36,2,.93.04,3.24Z"/>
  <path class="cls-1" d="M53.42,52.05c-.12-.07-.3,0-.36.12-1.53-.73-3.24,1.68-2.66,2.8,1.4,2.69,5.48-1.69,3.03-2.92ZM53.25,53.15c.17,1.38-.76,2.21-2.12,1.61-.76-.33,1.29-3.31,2.12-1.61Z"/>
  <path class="cls-1" d="M36.81,48.77s0-.06,0-.07h.01c0-.17.04-.36.12-.59.48-1.39,1.08-2.12,2.01-2.93.26-.22.54-.45.85-.7.94-.79,1.95-1.48,2.96-2.16.28-.2.56-.37.82-.56.34.25.69.48,1.05.67.41.22.84.38,1.26.51-.31.22-.63.44-.96.66-1.29.9-2.59,1.8-3.78,2.85-1,.89-1.86,1.68-2.97,2.33h-.01c-.24.15-.49.27-.75.39-.41.19-.61,0-.6-.4Z"/>
  <path class="cls-1" d="M43.55,21.24c-.26-.09-.54-.16-.82-.22-1.97-.53-3.82-.86-5.8-1.13-8.66-.28-13.3-.26-22.08,1.89-3.29-1.11-6.72-1.34-9.99-.05-1.62.67-5.85,2.73-4.64,5.21,1.3,2.66,5.7,2.46,8.09,1.84,2.75-.7,5.9-2.49,7.55-4.91,8.51-1.97,18.14-1.88,25.87-.62.3.03.61.08.89.13.17-.74.5-1.47.93-2.15ZM13.72,22.17c-2.29,1.01-1.71,2.82.3,2.23-1.2,1.19-2.53,2.11-4.19,2.89-2.42,1.14-6.09,1.71-8.36-.1-2.53-1.99,3.66-4.68,4.83-5.1,2.59-.83,4.91-.35,7.41.07Z"/>
  <path class="cls-1" d="M36.81,48.77s-.05,0-.08,0c.03-.02.05-.05.09-.07h0c1.45-1.32,2.09-2.5,2.12-3.52.25-4.66-11.69-5.75-10.02,1.63-4.05-6.13-14.27,1.22-8.29,4.73-8.91,1.96-4.31,13.97,4.35,8.11-6.93,11.25,22.07,9.68,10.13-3.6,1.84.62,3.4,1.01,4.73.89,4.13-.33,5.54-7.67-1.69-8.16h0c-.42-.02-.87-.04-1.35,0ZM34.56,49.6c.35.81,9.2-2.04,7.89,4.46-1.14,3.87-10.6.29-9.28,1.1,11,11.96-4.17,11.74-7.09,10.01-3.52-2.09,1.14-6.69.53-7.46-3.54,1.48-5.97,4.41-8.83,1.41-1.83-1.92-1.56-6.47,4.1-7.07,2.49-.25,1.64-.86,1.26-.83-7.89-1.47-.56-7.89,3.94-5.25,1.44.83,3.83,3.23,3.68,2.89-1.53-3.7-1.87-6.7,3.23-6.5,6.56.26,3.76,5.89.52,6.76-.26.08-.19.43.04.47Z"/>
  <path class="cls-1" d="M31.6,56.94c-.24-1.95-2.78-1.32-2.56,1.98.2,2.99,4.63,1.05,2.56-1.98ZM30.3,59.66c-1.16-.19-.6-3.47.45-3.21-.19.2,1.36,3.48-.45,3.21Z"/>
  <path class="cls-1" d="M28.6,55.83c-.57-1.29-2.97-.55-1.67,1.32.91,1.33,2.78-.1,1.67-1.32ZM27.97,57.04c-.21.06-.42-.14-.54-.28-.5-.54-.31-1.4.32-1.1-.07.27,1.05,1.06.22,1.37Z"/>
  <path class="cls-1" d="M33.79,52.3c.01-.18-.8-.59-1.28-.38-2.49,1.07,1.23,4.03,1.92,1.87.2-.57-.14-1.2-.64-1.49ZM33.91,53.57c-.11.75-2.16.28-1.58-.94.12-.25.34-.34.56-.36-.01.08.01.15.08.2.46.25,1.06.45.94,1.1Z"/>
  <path class="cls-1" d="M30.87,53.86c.06-1.06-2.45-.24-1.95.99.52,1.23,2.87.28,1.95-.99ZM30.39,53.79c-.06.28.32.71-.12.98-.93.6-1.42-.88.12-.98Z"/>
  <path class="cls-1" d="M33.1,49.49c-.15-.72-1.03-.92-1.58-.52-3.26,2.3,3.18,3.25,1.58.52ZM32.69,49.42c-.06.28.54,1.67-1.18,1.16-.78-.23.68-1.99,1.18-1.16Z"/>
  <path class="cls-1" d="M27.43,51.33c.15,1.57,3.04,1.68,2.33-.23.55-.93-2.65-3.13-2.33.23ZM29.44,50.94c-.21.17.12.82-.41.99-2.05.63-.98-4.14.41-.99Z"/>
  <path class="cls-1" d="M26.16,53.93c-.93-1-3.58.2-3.01,1.57.71,1.84,5.06-1.1,3.01-1.57ZM25.9,54.18c-.02,1.12-1.33,1.31-2.09,1.15-.76-.14.93-1.99,2.09-1.15Z"/>
  <path class="cls-1" d="M24.84,52.57c.07.49.8.81,1.22.59,2.03-.96-1.58-2.76-1.22-.59ZM25.29,52.45c-.06-.16,0-.29.11-.38,1.57.06.16,1.17-.11.38Z"/>
  <path class="cls-1" d="M101.23,37.58c.11-.23.19-.45.27-.67-.07-.07-.14-.2-.11-.35.04-.18.08-.36.12-.54.64-2.86,1.5-5.83,2.66-8.58.12-.33.27-.66.4-.98,1.12,1.06,2.58,1.84,3.84,2.11-.14.31-.26.62-.36.94-.52,1.38-.97,2.74-1.45,3.98-1.17,3.16-2.62,6.12-4.1,9.13-.34.68-.68,1.26-1.08,1.77-.44.52-.94.95-1.61,1.3-.35.18-.64,0-.78-.29,1.17-2.43,1.87-5.08,2.19-7.81Z"/>
  <path class="cls-1" d="M64.27,24.88c.11-.6.33-1.23.63-1.86.33-1.64.41-3.07.31-4.25.28-.05.55-.1.82-.13,2.07-.34,4.15-.5,6.25-.41,5.39.21,10.72.93,16.08,1.31,2.59.17,5.27.46,7.87.11,1.98-.27,3.9-.97,5.81-1.58.01-.02.04-.02.05-.02.39-.16.75-.33,1.15-.46.9.46,1.87.66,2.7.43.53-.14,3.58-1.36,4.42-.81-1.47.25-3.58,1.25-4.7,2.26-2.67,1.46-3.17,3.21-2.58,4.82-.31.1-.61.2-.93.29-1.08.3-2.22.5-3.39.6-5.02.99-10.32.29-15.4-.07-2.34-.16-4.64-.17-6.92-.07-.34.02-.68.02-1.01.05-2.05-4.65-6.44-7.55-10.36.07-.21.42-.91.24-.8-.26Z"/>
</svg>