<?xml version="1.0" encoding="UTF-8"?>
<svg id="Layer_1" data-name="Layer 1" xmlns="http://www.w3.org/2000/svg" viewBox="0 0 177.11 97.95">
  <defs>
    <style>
      .cls-1 {
        fill: #141414;
      }

      .cls-2 {
        fill: #fff;
      }
    </style>
  </defs>
  <g>
    <path class="cls-1" d="M177.11,87.62c-4.59-.43-9.27-.6-13.71.06-3.68.55-7.3,1.32-11.04,1.4-3.46.07-6.91-.49-10.35-.74-6.98-.5-13.83-.29-20.82-.35-3.49-.03-6.76-1.17-10.24-1.21-1.77-.02-3.58.51-5.34.68-.18.02-.37.03-.55.04-.09-.23-.31-.42-.66-.43-3.09-.11-6.1.68-9.22.5-3.09-.19-5.66-1.77-8.82-1.48-2.99.28-5.55,1.93-8.6,1.89-3.02-.04-5.98-.26-8.98.18-4,.59-7.65.56-11.54-.59-2.51-.74-5.13-1.88-7.82-1.5-1.69.24-3.33.66-5.03.81-1.94.17-4.06-.69-5.95-1.04-.74-.14-1.47-.22-2.2-.24-.14-.23-.38-.39-.75-.41-3.79-.11-7.04,3.17-10.83,2.42-.88-.17-1.77-.37-2.65-.56-.02.15-.04.3-.07.46-.06.34-.14.67-.26,1-.05.15-.13.29-.19.44,1.29.26,2.58.51,3.88.75,2.61.47,5.69-1.47,8.47-2.31,2.82-.29,5.36.33,8.18,1.12,2.94.83,5.81-.46,8.74-.5,3-.04,6.16,1.65,9.06,2.32,2.71.63,5.61.29,8.33-.08,3.26-.45,6.32-.5,9.6-.34,2.77.14,5.22-1.01,7.86-1.66,3.38-.83,6.26,1.19,9.56,1.4,2.42.15,4.98.05,7.38-.51,1.8.12,3.64.05,5.4-.18,3.85-.52,7.04.37,10.8.87,3.49.46,7.35.06,10.86-.11,3.82-.18,7.54.01,11.34.37,7.09.66,13.59.95,20.64-.19,3.85-.62,7.65-.57,11.53-.36,1.33.07,2.66.28,4,.47v-2.37Z"/>
    <path class="cls-1" d="M9.17,76.3c.04.44.02.89-.06,1.32,2.61-1.89,4.95-4.3,7.2-6.66.13-.75.41-1.41.83-2.03-2.46,2.64-5.2,5.1-7.96,7.37Z"/>
    <path class="cls-1" d="M177.11,74.94c-10.92-1.08-21.21-5.55-30.51-11.18-3.74-2.27-7.47-4.56-11.2-6.86-.59-.36-1.17-.73-1.76-1.09-2.79-1.74-5.31-4.04-7.64-6.48,0,0,0-.02.02-.03-.5-.44-.98-.9-1.45-1.37-.15-.16-.24-.32-.3-.48-.61-.69-1.21-1.37-1.8-2.06-6.53-7.62-12.63-15.82-18.74-23.78-5.78-7.53-10.31-16.42-18.81-21.37-.21-.12-.42-.1-.59,0-1.51-.44-3.12-.27-4.89.36-1.85.65-3.56,1.54-5.47,2.04-2.02.53-4.08.56-6.04,1.33-3.07,1.2-5.03,4.1-7.11,6.48-3.13,3.58-6.76,6.62-10.36,9.71-6.56,5.64-12.89,11.41-18.63,17.89-3.99,4.51-7.91,9.08-11.84,13.65-3.47,2.97-6.28,7.01-9.48,10.24-.72.73-1.46,1.43-2.21,2.09-2.57,2.32-5.34,4.3-8.3,6.1.11-.02.22-.02.33-.03.87-.24,1.77-.27,2.7,0,.19.06.38.15.56.23,2.31-1.65,4.49-3.48,6.57-5.41.31-.29.62-.58.94-.88,3.35-3.09,7.09-6.57,9.7-10.36,4.21-4.41,8.18-9.04,12.24-13.6-.57,1.65-1.11,3.51-.04,4.59,1.14,1.16,3.02-.18,3.98-.89,1.32-.96,2.42-2.66,3.45-3.92.33-.41,2.17-1.71,2.08-1.53-.6,1.17-1.46,2.92-1.32,4.38-1.52,1.63-2.89,3.38-4.49,4.95-2.15,2.1-4.48,3.99-6.71,6-3.36,3.02-5.98,6.79-8.74,10.38-.37.48-.74.95-1.11,1.42.09-.09.19-.17.27-.27.08-.08.15-.17.23-.26.33-.38.72-.67,1.15-.89.32-.17.67-.3,1.03-.39,2.28-2.93,4.43-5.99,7.09-8.6,3.9-3.86,8.1-7.11,11.68-11.26.14.13.34.2.53.21,1.09.04,1.68-.72,2.53.43.32.43.99.61,1.51.48.93-.23,1.5-.99,1.99-1.73.46-.7.92-1.36,1.32-2.08.97-1.74,1.8.02,1.86,1.22.03.53.68,1.1,1.2.71,1.99-1.48,2.18.55,2.31,1.99.09.9.48,1.68.93,2.45.86,1.45,1.82,1.98,1.79,4.08,0,1.15.07,1.85.5,2.88.53,1.27,2.15,1.66,3.29,1.02,1.89-1.05.57-3.79,2.11-4.72,1.36-.83,3.66-1.6,3.44-3.72-.06-.61-.13-1.21-.18-1.82-.04-1.13.29-2.08,1-2.86.47.66.46,1.58,1.03,2.19.7.75,1.73,1,1.31,2.42-.46,1.56-.89,3.12-1.3,4.69-.68,2.63-1.51,5.38-1.71,8.09-.03.56.61,1.11,1.16.91,1.66-.61,2.91-.23,4.53.21,1.21.32,2.33-.37,3.4-.79,2.16-.85,4.33-2.94,4.52-5.38.07-.69.11-1.38.11-2.07.07-.63.13-1.26.19-1.88.09-1.79.64-2.04,1.65-.76.2.95.09,2.31.84,3.08,1.18,1.2,3.08.48,3.73-.8.18-.33.11-.65-.06-.89.43-1.09,1.17-2.86,1.17-2.92.23.84.05,1.46.59,2.15.15.18.44.23.65.18.76-.19,3.39.25,4.01-.47,1.26-1.47.38-3.07.18-4.79-.39-3.34,3.06-.57,3.91.49.63.77,1.3,1.18,2.22,1.5.74.26,1.7-.23,2.35-.49.66-.28,1.15-.39,1.54-.4.31,0,.55.05.76.15.79.39,1,1.42,2.28,1.61.62.09,1.13.06,1.56-.09.24-.07.46-.19.65-.34.43-.33.78-.83,1.09-1.52.32-.69.2-1.24,0-1.93-.11-.29-.25-.58-.41-.86-1.15-2.28,1.05-.19,1.57.52,1.6,2.17,4.05,2.99,6.44,4.02,1.18.51,2.28,1.14,3.5,1.58.26.09.53.14.82.17h0c.31.03.62.03.94,0,.29-.01.59-.04.88-.07,3.41,3.61,7.39,6.63,11.57,9.38,4.02,2.64,8.24,5.04,12.31,7.46,8.78,5.22,19.12,9.17,29.4,9.62v-1.35ZM119.33,47.19c-1.65-.75-3.38-1.34-4.98-2.2-2.15-1.15-2.79-4.06-5.54-3.8-.16.01-.34.07-.42.24-.27.64-.27.62-.25,1.36.03.28.09.54.2.8l.16.49c.68,1.31-.11,2.01-2.35,2.11-1.22-.96-2.27-1.68-3.83-.93-3.96,1.87-3.97-2.62-6.91-3.11-1.53-.25-2.37.33-2.91,1.79-.47,1.27,1.17,5.27-1.13,5.2-.23-.03-.47-.03-.7,0-.22.04-.44.09-.65.13-.77.31-.87.17-.3-.4-.05-.51-.05-1.21-.41-1.62-1.89-2.19-3.13,1.97-3.49,3.96-.04.04-.08.1-.11.17-1.19.41-1.75.1-1.66-.94-.05-.55-.14-1.09-.27-1.63-.12-.55-.65-1.46-1.16-1.75-1.25-.73-2.14,1.39-2.51,2.12-.62,1.23-.68,2.88-.91,4.22-.39,2.32-1.7,3.86-3.75,4.91-1.85.94-2.87-.15-4.54-.39-.57-.09-1.24.12-1.87.37.36-3.06,1.19-6.38,2.08-9.21.45-1.43,1.77-3.56.15-4.78-1.07-.81-1.46-1.68-1.99-2.85-.2-.44-.65-.82-1.11-.95-1.84-.49-2.88,2.24-3.18,3.5-.47,1.97,1.32,3.33-1.5,4.9-.72.4-1.65.59-2.1,1.37-.48.82-.33,1.94-.47,2.83-.55-.51-1.09-1.03-1.64-1.54.03-.37.01-.73-.04-1.09-.16-.98-.18-.97-.62-1.89-.87-1.79-2.26-2.06-2.35-4.45-.03-.83.03-1.66-.39-2.41-.78-1.4-1.97-1.3-3.08-.76-.43-1.98-1.77-4.27-3.82-2.26-.6.59-.91,1.53-1.3,2.25-.28.49-.59.96-.92,1.41-1.36,1.95-.86.56-1.5.04-.41-.33-.68-.67-1.22-.59-1.04.14-1.45.87-.98-.5.35-1.01,1.92-3.41,1.25-4.61-.41-.74-1.34-.9-2.05-.48-1.16.68-2.2,1.65-3.02,2.71.06-.08-5.12,6.61-5.41,3.73-.14-1.38.78-3.08.96-4.54,3.73-4.12,7.59-8.15,11.83-11.83,5.99-5.21,12.12-10.05,17.44-15.97,2.79-3.11,5.23-4.55,9.39-5.24,4.33-.72,8.14-4.31,12.43-1.66.24.15.5.17.72.1,2.67,2.53,5.31,5.02,7.67,7.92,3.64,4.49,7.07,9.26,10.52,13.9,5.62,7.57,11.06,15.5,17.32,22.58-.89-.07-1.77-.27-2.78-.74Z"/>
    <path class="cls-1" d="M174.08,93.99c-1.63-.19-3.28-.03-4.92-.15-1.77-.12-3.55-.57-5.32-.74-3.9-.37-7.88-.5-11.79-.5-3.54,0-6.9-.42-10.42,0-1.66.2-3.41-.18-5.08-.11-2.15.09-4.29.38-6.45.47-3.82.17-7.43-.29-11.2-.76-3.85-.48-8.25-.33-12.12-.08-3.72.24-7.12.54-10.82.23-1.75-.15-3.73-.86-5.46-.78-2.03.09-3.96.71-6.01.79-.57.02-.58.87,0,.89,1.55.05,2.8-.11,4.31-.47,1.95-.47,4.02.34,5.97.55,3.72.4,7.1.44,10.87.21,4.04-.25,8.06-.18,12.11-.15,4.14.03,8.14,1,12.34.83,3.53-.14,6.99-.52,10.52-.32,1.63.09,3.22-.38,4.86-.34,2.19.05,4.36.48,6.57.49,3.93.02,7.88.23,11.79.54,3.61.28,6.74,1.01,10.38.45.63-.1.41-.96-.12-1.02Z"/>
    <path class="cls-1" d="M53.8,63.49c-.05.19-.11.37-.17.55-1.06,3.5-2.8,6.63-4.26,9.97-1.78,4.06-2.42,8.06-1.66,12.34.04.23.08.45.13.68.29.19.4.67.03.91-.24.37-.88.32-1-.15-.1-.42-.19-.83-.27-1.24-1.14-6.38.9-11.44,3.6-17.33.79-1.7,1.54-3.39,2.08-5.18.08-.29.17-.59.24-.89.09-.37,1.01-4.59-.04-3.28-1.02,1.29-1.9,2.71-2.69,4.17-.38.68-.73,1.37-1.08,2.05-3.13,6.13-7.31,10.76-13.04,14.62-4.2,2.83-8.62,5.55-13.65,6.02.02-.27.02-.54,0-.81,7.12-1.04,14.07-5.92,18.98-10.78,3.19-3.16,5.08-6.76,7.16-10.66.08-.14.15-.29.23-.44.9-1.72,1.88-3.66,3.19-5.1.66-.74,1.75-1.71,2.69-.76,1,1.02-.18,4.3-.46,5.31Z"/>
    <path class="cls-1" d="M86.14,87.34c-.4-.33-.8-.68-1.19-1.03-1.97-1.75-3.83-3.65-5.83-5.38-1.12-.96-2.06-2.16-3.2-3.09-1.54-1.27-3.16.66-4.3,1.3-1.52.84-3.59,2.31-5.4,1.57-1.16-.47-1.33-2.19-1.7-3.19-1.34-.52-1.92-.28-1.73.72,0,.22,0,.44,0,.66,0,.4.02.81,0,1.22-.05.78-.15,1.07-.64,1.71-.59.76-2.06.73-2.67,0-1.48-1.7-1.2-4.04-1.19-6.18.03-3.58.98-7.31.73-10.89-2.66,4.32-3.21,10.04-4.65,14.83-.6,1.99-1.59,3.85-2.14,5.86-.06.22-.11.45-.18.65-.16.53-.39.97-.95,1.2-.37.15-.67-.33-.31-.55.19-.12.38-.39.55-.74.67-1.35,1.21-4.01,1.49-4.79.75-2.06,1.39-4.16,1.98-6.28,1.07-3.85,1.41-7.51,3.51-10.91.19-.31.4-.62.62-.92.23-.32.83-.35.92.13.05.26.09.52.12.79.38,3.1-.18,6.41-.41,9.51-.13,1.71-.15,3.44-.08,5.16,1.66,1.93,2.41,2.2,2.27.82,0-.44-.02-.87-.02-1.3.04-1.85,1.36-4.54,3.23-2.17.38.48.55,1.17.72,1.75.71,2.36,2.76,1.85,4.59.86,1.38-.75,2.9-3.09,4.77-2.58,1.88.5,3.37,2.91,4.83,4.08,2.3,1.84,4.33,4.28,6.8,5.88.09.07.19.13.29.19.86.53-.05,1.75-.85,1.1Z"/>
    <path class="cls-1" d="M177.11,87.23c-1.72-.55-3.43-1.17-5.23-1.68-1.78-.5-2.48-2.11-3.85-3.1-1.37-.98-2.78-1.77-4.29-2.48-1.77-.84-3.52-1.19-5.26-1.23-1.62-1.65-3.54-2.52-5.72-3.25-.64-.22-1.22-.44-1.77-.68-.01,0-.01,0-.02-.02-4.66-4.39-10.08-7.59-15.57-10.76-5.59-3.22-8.62-9.14-12.45-14.13-.45-.59-.92-1.17-1.4-1.73-.21-.25-.65.08-.46.35.31.45.61.91.91,1.38h0c3.21,4.86,6.45,10.08,11.03,13.68.2.16.41.31.62.45,2.42,1.74,5.24,2.84,7.71,4.49.77.52,1.52,1.06,2.27,1.61-.97-.27-1.87-.31-2.94-.32-1.76-.02-3.13-.98-4.82-1.23-1.68-.24-3.43,1.39-4.35,2.61-.74.98-.93,1.83-1.13,3.06-.15.96-.38,1.5-.67,1.8-.08-.89-.46-1.72-.74-2.56-.15-.45-.29-.96-.54-1.38-1.08-2.46-2.67-4.56-4.81-6.3-.67-.55-1.25-1.14-1.77-1.78-.91-1.11-1.62-2.36-2.26-3.71-.44-.94-.72-3.37-1.61-4.15-1.14-1-2.03-.41-2.37.95-.81,3.26-4.18-2.72-4.55-3.48-.89-1.81-1.3-3.88-2.09-5.72-.13-.32-.28-.63-.44-.93-.19-.37-.69-.06-.54.3.07.17.18.5.33.97,1.16,3.5,4.55,14.05,7.78,10.35.16-.18.25-.51.32-.7.42-1.04,1.3-.45,1.55.45.5,1.79,1.28,3.47,2.22,5.08.12.2.25.4.39.59.84,1.2,1.96,2.15,3.1,3.08,1.59,1.32,2.75,3.06,3.64,4.91,0,0,0,.01,0,.01.51,1.27,1.19,2.8,1.27,4.18,0,.05.02.09.03.14-.49-.06-1.05-.24-1.68-.29-1.47-.14-2.62.12-4.05.41-1.04.22-2.07.11-3.1.04-.46-4.45-3.31-8.84-5.96-12.48-.3-.42-.6-.82-.89-1.21-3.75-5.04-7.82-9.71-8.47-16.08-.04-.35-.07-.71-.08-1.08-.02-.43-.63-.43-.65,0-.02.32-.03.63-.03.94.02,6.89,4.59,12.05,8.71,17.44,2.92,3.8,5.62,7.72,6.35,12.45-.34,0-.68.01-1.03.06-2.38.33-4.15,2.95-5.7,4.48-1.91,1.9-4.6,5.01-7.34,6.12-.35.15-.71.26-1.06.33-.38.07-.29.63.07.64.85.03,1.57-.28,2.24-.72.45-.29.89-.64,1.32-.98,2.4-1.88,4.74-3.94,6.85-6.15,1.13-1.2,2.25-2.24,3.86-2.76,1.4-.44,2.66.33,4.03.13,1.84-.27,3.62-.79,5.49-.42.69.14,1.5.4,2.22.22,1.38-.35,1.57-1.67,1.74-2.88.32-2.23,2.16-5.12,4.82-4.72,1.14.18,2.07,1,3.25,1.09,2.24.18,4.23.2,6.01,1.82,1.15,1.05,2.38,2,3.66,2.88.86.6,2.21.79,3.2,1.06,1.61.44,3.03,1.1,4.27,2.1-2.67.21-5.34.97-8.1,1.62-.4.09-.3.64.08.68.96.07.82-.13,2.11-.43,1.65-.37,3.51-.29,5.21-.55.67-.1,1.28-.19,1.86-.24.25.2.55.14.75-.04.89-.02,1.76.09,2.79.47,1.85.68,3.58,1.64,5.24,2.7,2.31,1.47,3.13,3.26,5.89,4.03.35.1.7.2,1.04.32,1.19.4,2.36.89,3.54,1.31v-1.43Z"/>
    <path class="cls-1" d="M94.52,96.9c-2.29-.07-4.59-.01-6.88-.11-2.34-.1-4.67-.76-7-.84-2.43-.08-4.86.42-7.32.42-2.63,0-5.2-.24-7.8-.64-4.68-.73-8.91.18-13.58.22-.45,0-1.01.29-1.42.45-1.35.53-3.03.05-4.28-.48-1.01-.43-2.31.27-3.29.46-.33.06-.26.58.07.58,1.5-.04,2.78.1,4.25.32,1.48.22,2.7.34,4.12-.2,1-.38,2.51-.21,3.57-.31.83-.08,4.35-.52,5.09-.38,2.28.44,4.6.26,6.88.68,3.73.69,8.2.75,11.93.06,2.25-.41,5.43.35,7.7.62,2.61.31,5.32.2,7.94.17.65,0,.66-.99,0-1.01Z"/>
  </g>
  <path class="cls-2" d="M33.83,42.67c.29,2.88,5.47-3.81,5.41-3.73.82-1.06,1.86-2.03,3.02-2.71.71-.42,1.64-.26,2.05.48.67,1.2-.9,3.6-1.25,4.61-.47,1.37-.06.64.98.5.54-.08.81.26,1.22.59.64.52.14,1.91,1.5-.04.33-.45.64-.92.92-1.41.39-.72.7-1.66,1.3-2.25,2.05-2.01,3.39.28,3.82,2.26,1.11-.54,2.3-.64,3.08.76.42.75.36,1.58.39,2.41.09,2.39,1.48,2.66,2.35,4.45.44.92.46.91.62,1.89.05.36.07.72.04,1.09.55.51,1.09,1.03,1.64,1.54.14-.89,0-2.01.47-2.83.45-.78,1.38-.97,2.1-1.37,2.82-1.57,1.03-2.93,1.5-4.9.3-1.26,1.34-3.99,3.18-3.5.46.13.91.51,1.11.95.53,1.17.92,2.04,1.99,2.85,1.62,1.22.3,3.35-.15,4.78-.89,2.83-1.72,6.15-2.08,9.21.63-.25,1.3-.46,1.87-.37,1.67.24,2.69,1.33,4.54.39,2.05-1.05,3.36-2.59,3.75-4.91.23-1.34.29-2.99.91-4.22.37-.73,1.26-2.85,2.51-2.12.51.29,1.04,1.2,1.16,1.75.13.54.22,1.08.27,1.63-.09,1.04.47,1.35,1.66.94.03-.07.07-.13.11-.17.36-1.99,1.6-6.15,3.49-3.96.36.41.36,1.11.41,1.62-.57.57-.47.71.3.4.21-.04.43-.09.65-.13.23-.04.47-.04.7,0,2.3.07.66-3.93,1.13-5.2.54-1.46,1.38-2.04,2.91-1.79,2.94.49,2.95,4.98,6.91,3.11,1.56-.75,2.61-.03,3.83.93,2.24-.1,3.03-.8,2.35-2.11l-.16-.49c-.11-.26-.17-.52-.2-.8-.02-.74-.02-.72.25-1.36.08-.17.26-.23.42-.24,2.75-.26,3.39,2.65,5.54,3.8,1.6.86,3.33,1.45,4.98,2.2,1.01.47,1.89.67,2.78.74-6.26-7.08-11.7-15.01-17.32-22.58-3.45-4.64-6.88-9.41-10.52-13.9-2.36-2.9-5-5.39-7.67-7.92-.22.07-.48.05-.72-.1-4.29-2.65-8.1.94-12.43,1.66-4.16.69-6.6,2.13-9.39,5.24-5.32,5.92-11.45,10.76-17.44,15.97-4.24,3.68-8.1,7.71-11.83,11.83-.18,1.46-1.1,3.16-.96,4.54Z"/>
</svg>