<?xml version="1.0" encoding="UTF-8"?>
<svg id="object" xmlns="http://www.w3.org/2000/svg" viewBox="0 0 275.07 342.69">
  <defs>
    <style>
      .cls-1 {
        fill: none;
      }

      .cls-2 {
        fill: #a6b9bc;
      }

      .cls-3 {
        fill: #32374e;
      }

      .cls-4 {
        fill: #b1501d;
      }

      .cls-5 {
        fill: #efe9df;
      }
    </style>
  </defs>
  <g>
    <g>
      <g>
        <path class="cls-5" d="M119.86,0l80.54,310.66c.27,1.04.09,2.1-.42,2.97L113.79,0h6.06Z"/>
        <path class="cls-3" d="M113.79,0l86.18,313.63c.51-.86.69-1.92.42-2.97L119.86,0h2.22l80.4,310.12c.83,3.21-1.1,6.52-4.3,7.37l-.1.02c-.75.2-1.52.25-2.28.16-2.46-.29-4.47-2.03-5.13-4.41L104.59,0h9.21Z"/>
      </g>
      <g>
        <path class="cls-5" d="M130.19,275.25c-1.22.59-2.52.29-3.75-.23.84-.66,1.88-1.32,2.55-.83.42.31.8.71,1.2,1.06Z"/>
        <path class="cls-5" d="M138.95,277.41c.03.13.06.27.09.4-1.16-.18-1.96-1-2.47-2.12-.18-.39-.28-.78-.35-1.18.69.27,1.34.59,1.76,1.25.32.51.6,1.14.98,1.66Z"/>
        <path class="cls-5" d="M156.17,280.5c-.97-.1-1.5-.86-2-1.62-.01-.07-.02-.15-.03-.22.87.25,1.73.52,2.6.78.35.21.72.42,1.08.61-.04.07-.05.15-.02.23-.55.16-1.1.28-1.63.22Z"/>
        <path class="cls-5" d="M147.86,277.41h0c-.21.28-.37.6-.47.96-.07-.06-.14-.13-.2-.2-.46-.58-.49-1.06-.41-1.64.3.09.61.18.91.26,0,.2.05.41.17.63Z"/>
        <path class="cls-5" d="M168.74,285.9c.5-.26.92-.6,1.18-1.06,1.26.54,2.48,1.13,3.7,1.75-1.75.69-3.56.64-4.87-.69Z"/>
        <path class="cls-5" d="M79.92,283.53c-.1,2.91.54,5.83,1.34,8.82.2-.81.44-1.61.67-2.37-.72-.77-.76-1.87-.6-3.05.07-.53.95-.79,1.04-.14.13.96.56,1.93,1.51,2.31.94.37,2.08.21,3.07.24.28,0,.35.35.14.5-1.23.89-2.71,1.44-4.19.8-.05-.02-.09-.05-.14-.08-.19,2.74-.17,5.5,1.14,8.01.73,1.41,2.03,2.61,3.4,3.67-.04-.54,0-1.11.11-1.7-.84-.63-1.47-1.6-1.87-2.54-.6-1.41.15-2.59-.13-4.03-.09-.44.57-.79.77-.32.31.73.4,1.47.6,2.24.24.92.86,1.63,1.44,2.36,1.35,1.69,3.98,1.55,5.91,1.58.34,0,.54.53.19.69-1.75.77-3.55,1.32-5.29.83.53,5.66,8.05,4.97,12.59,5.31-.84-1.01-1.27-2.35-.85-3.64-.71-.7-1.13-1.67-1.05-2.72.03-.41.56-.48.7-.1.84,2.24,4.58,2.99,6.51,1.76.23-.15.47.09.43.33-.35,1.71-2.98,1.93-4.35,1.8-.17-.02-.33-.06-.5-.1.02.11.03.22.05.35.14,1.01.83,1.54,1.67,1.97,1.31.69,3.24.54,4.49-.17.23-.13.57.15.39.39-1.27,1.71-3.19,2.18-5.21,1.62-.6-.16-1.16-.47-1.65-.88-1.05.33-2.14.66-3.24.9,5.17,1.73,10.13,4.17,15.23,6.07,3.17,1.19,6.22,2.48,9.65,2.54,2.88.06,5.29-.4,7.96.85.29.14.14.58-.16.58-1.17,0-2.33.1-3.48.22,3.01.9,5.74,2.28,8.82,3.1,3.05.8,6.05-.21,8.83,1.2.24.06.48.1.73.12,1.25.11,4.22.01,4.21-1.87,0-.29.41-.33.5-.07.58,1.72-1.23,2.83-2.59,3.36-1.02.4-2.42.41-3.67.08,2.15.89,4.24,1.87,6.36,2.92,1.84.91,3.76,1.28,5.71,1.57-.78-.45-1.54-.91-2.29-1.4-.49-.32-.07-1.02.45-.77,2.7,1.28,5.42,2.33,8.16,3.18-.38-.73-.65-1.55-.89-2.37-2.16.06-4.21-1.22-4.76-3.71-.11-.5.58-.83.84-.36,1.35,2.43,4.16,3.71,6.78,2.43.28-.14.64.25.36.46-.77.6-1.64.96-2.53,1.1,1.46,3.6,5.3,4.36,7.84,1.2.35-.43,1.08.03.92.54-.34,1.05-1,1.84-1.84,2.38,6.15,1.21,12.44,1.6,18.97,1.57.36,0,.42.52.08.62-.78.23-1.57.42-2.36.59,2.03.52,4.12.79,6.12.14,2.33-.76,5.52-2.1,7.99-1.7.97.16.6,1.47-.21,1.56-.25.03-.5.09-.76.16,2.69.75,5.35,1.25,8.23.54,1.49-.37,2.95-.75,4.43-1.06-.81-.13-1.62-.29-2.42-.5-.58-.15-.47-1.12.14-1.05,6.8.73,13.75-.6,20.37-2.09,2.79-.63,5.14-2.65,7.62-3.89-.4-.14-.8-.31-1.19-.48-.52-.23-.14-1,.37-.88,4.07.96,8.36-1.19,10.88-4.37-.81-.29-1.59-.67-2.25-1.05-.56-.32-.17-1.12.42-1,2.27.47,5.4.72,6.7-1.49,1.16-1.98,1.57-4.28,2.34-6.42-1.77.67-3.38.1-4.36-1.51-.29-.48.37-.95.76-.58.73.69,1.92.67,2.84.45.69-.16,2.47-.98,2.41-1.87-.03-.54.73-.58.89-.12.39,1.11-.6,2.41-1.63,3.14-.16,1.3-.48,2.57-.74,3.85,1.63-1.88,3.45-3.97,3.72-6.13.32-2.58.38-5.19.63-7.78-.98.49-2.05.85-3.08,1.19-.63.21-.94-.69-.43-1.02,1.9-1.25,4.45-2.9,5.33-5.1.6-1.5.39-3.1.67-4.64-1.46.51-2.98.92-4.53,1.28,0,2.58-2.89,5.42-5.48,4.09-.48-.25-.13-.91.35-.82,1.73.32,2.19-1.39,2.73-2.75-2.55.52-5.13.95-7.59,1.49,0,.02,0,.04-.01.06-.25,1-.83,1.9-1.62,2.55-.2.16-.42.3-.64.42-.33.4-.72.76-1.14,1.05.2.38.27.82.5,1.2.31.5.96.41,1.45.43.13,0,.26.14.21.28-.16.44-.36.58-.81.73-.44.15-.94,0-1.34-.18-.61-.27-1.2-1.04-1.39-1.76-1.11.34-2.24.18-3.39-.25-.38-.14-.35-.75.1-.73,1.08.03,2.11-.55,3-1.14.18-.12.34-.26.48-.4-1.44.25-2.92.4-4.35.64-1.71.3-3.4.68-5.08,1.09.28.63.57,1.19,1.16,1.75.96.92,2.14.56,3.26.89.19.06.22.27.11.41-.88,1.11-3.04.81-4.16.26-.07-.04-.14-.08-.21-.12-.97,1.14-2.6,1.49-3.98.92-1.02-.42-1.77-1.5-1.96-2.62-1.56.41-3.2.84-4.86,1.17.48,1.7,2.16,2.53,4.04,2.74.27.03.45.42.15.56-1.09.55-2.38.44-3.46-.09-1.17,2.02-4.04,1.18-5.65.06-.34-.23-.13-.76.28-.66,1.52.34,2.73.4,3.94-.51-.34-.4-.63-.86-.84-1.36-.06-.15-.1-.29-.14-.44-3.09.45-6.2.39-9-.96-1.09-.1-2.18-.25-3.26-.47.32.71.68,1.38,1.54,1.39.62,0,.59.88,0,.94-.73.08-1.37-.22-1.89-.7-.26.69-.68,1.33-1.23,1.85-1.24,1.18-2.95,1.24-4.48.66-.4-.15-.37-.8.11-.78,2.18.09,3.66-1.63,3.85-3.65,0-.07.04-.12.06-.19-2-.52-3.96-1.19-5.88-1.92-.86.31-1.72.46-2.58.47.23.27.49.51.79.75,1.08.83,2.22.87,3.46,1.2.22.06.29.4.07.5-2.28,1.09-5.21-.6-6.65-2.73-.43-.11-.84-.26-1.26-.43-.3.72-.96,1.33-1.69,1.59-1.57.55-3.02.12-4.18-1.02-.26-.26.02-.6.33-.56.77.11,1.61.11,2.38.11.85,0,1.33-.32,1.59-.93-.81-.5-1.57-1.09-2.26-1.76-2.8-.76-5.55-1.7-8.26-2.85-.29.94-.6,1.85.38,2.55,1.01.72,2.28.43,3.4.25.45-.07.61.51.19.68-1.62.67-3.32,1.13-4.93.25-1.05-.58-1.4-1.66-1.33-2.76-1.44.69-3.22.45-4.7.06-.8-.21-.62-1.4.19-1.42,1.02-.02,2.06.03,3.07-.12.36-.06.94-.24,1.43-.52-.46-.22-.93-.44-1.39-.67-1.38-.7-2.74-1.41-4.08-2.12-.02.32-.18.64-.54.89-2.65,1.9-6.02.49-7.45-2.11-.23.07-.45.13-.66.18-2.4.6-5.46-.73-6.85-2.73-.17-.24.16-.57.41-.41,1.27.84,2.33,1.22,3.87,1.18.66-.02,1.3-.24,1.92-.42.25-.07.57-.29.83-.43-.14-.05-.28-.1-.42-.15-2.27-.75-4.58-1.53-6.78-2.52-1.21.98-2.99,1.94-4.44,1.7-1.32-.22-2.34-1.06-3.09-2.12-.08-.01-.18-.02-.25-.03-.54-.11-1.07-.36-1.57-.59-.32-.15-.62-.35-.91-.57-.1,0-.19.02-.28.03-.08.31-.11.64-.03,1.05.12.68,1.03,1.99,1.83,1.25.25-.23.64.06.47.37-.77,1.37-2.67.86-3.52-.14-.52-.6-.82-1.5-.87-2.39-.39-.09-.78-.26-1.08-.51-.1,0-.2-.01-.29-.05-1.96.51-3.67-.82-4.88-2.41-.01.73.29,1.44.62,2.06.65,1.23,2.44,2.99,3.98,2.3.33-.15.63.22.38.5-1.59,1.86-4.43.12-5.68-1.29-.33-.38-.65-.9-.9-1.47-1.42.33-2.9-.5-3.94-1.43-.16-.14-.31-.31-.46-.49-.94.36-1.88.07-2.68-.53-.31-.08-.62-.18-.93-.32-.99,1.44-3.13,1.68-4.98,1.21-.05.01-.1.02-.15.03.36,1.29.92,2.27,2.4,2.83,1.64.62,3.08-.23,4.69-.3.3-.01.52.36.35.61-1.16,1.75-3.72,2.06-5.67,1.65-.41.8-1.58,1.33-2.42,1.36-1.08.03-2.41-.43-2.89-1.49-.1-.21.06-.53.33-.44.63.21,1.11.37,1.78.34.44-.02.96-.25,1.4-.53-1.34-.93-2.24-2.54-2.18-4.16-.34-.09-.68-.21-1.02-.36-.42,1.04-1.57,1.75-2.8,1.81-.83.04-1.59-.28-2.26-.79-.68-.21-1.3-.6-1.78-1.15-1.6.38-3.36-.24-4.26-1.76-.14.04-.28.07-.42.09-.24.08-.49.14-.71.15-.6.01-1.1-.17-1.51-.48-.04-.02-.07-.04-.11-.06.15.91.59,1.67,1.72,1.65.37,0,.45.57.09.65-2.27.52-3.41-1.67-3.35-3.62-.53-.74-.86-1.64-.98-2.58-.13-.13-.28-.25-.47-.32-.51-.19-1.11.12-1.62.2-.5.08-1.04.06-1.55-.05.13.3.27.59.45.88.4.61.84,1.01,1.42,1.44.34.25.13.74-.28.67-.88-.15-1.82-.6-2.59-1.23-.45-.2-.91-.39-1.36-.59-.71-.32-1.52-.57-1.71.45-.03.15-.09.27-.17.37.23.51.64,1.02.9,1.29,1.07,1.09,3.19,1.91,4.67,1.55.42-.1.66.46.29.69-2.07,1.32-4.14,1.28-6.08-.24-.65-.51-1.26-1.41-1.47-2.3-2.03-.12-4.18-.28-5.76-1.7-.7-.62-1.26-1.43-1.69-2.32-.35-.12-.72-.23-1.13-.28-.88-.11-1.77.03-2.66-.05-.51-.05-1.01-.16-1.48-.34.34.53.72,1,1.31,1.36,1.03.64,2.32.45,3.43.86.24.09.31.41.07.55-1.29.81-2.92,1.18-4.39.68-.86-.29-1.64-.95-2.21-1.75-.07.77-.14,1.55-.14,2.36,0,1.79.33,3.53.8,5.24.09.12.17.24.28.35.67.7,1.57,1.11,2.54,1.07.32-.01.35.44.07.54-1.15.41-2.32.35-3.44-.16-.6-.27-1.3-.89-1.66-1.6-.4.98-.68,1.95-.86,2.92.1.35.2.66.48.95.46.5,1.09.62,1.72.44.44-.12.68.48.3.71-.78.49-1.8.62-2.65.24-.03-.02-.07-.04-.1-.06ZM241.03,315.94c1.06.38,2.25.38,3.27-.13.28-.14.66-.41.86-.72-.54-.23-1.04-.56-1.42-1.02-.41-.49.13-1.35.72-.94,1.56,1.09,3.01,1.5,4.88.93.4-.12.58.42.27.64-.89.63-2.08.86-3.21.72-.12.78-.96,1.54-1.54,1.9-1.37.84-2.95.24-4.22-.5-.46-.27-.15-1.07.37-.88ZM229.56,311.07c-.58,1.63-2.36,2.01-3.89,2.21-.91.12-.96-1.41,0-1.45,1.1-.05,2.47-.1,3.19-1.05.24-.32.85-.15.7.29ZM218.17,322.78c1.85,1.35,3.95,1.34,5.55-.4.24-.26.76.01.62.36-.24.59-.59,1.08-1.02,1.48,2.91.67,6-.39,6.71-3.66.07-.33.56-.24.57.08.1,4.31-5.03,7.13-8.37,4.29-1.64.73-3.7.37-4.9-1.3-.35-.49.35-1.2.84-.84ZM205.6,308.37c1.25,1.35,3.51,2.01,5,.56.31-.3.71.14.46.46-.83,1.06-1.75,1.77-3.16,1.79-1.37.02-2.68-.84-3.31-2.03-.33-.63.5-1.33,1.01-.78ZM194.31,324.3c1.64.74,3.81.7,5.29-.37.35-.25.68.27.43.56-1.64,1.96-4.39,2.35-6.35.63-.48-.42.13-1.04.63-.82ZM183.94,304.74c-1.23.01-2.41-.62-3.13-1.69-.32-.48.34-1.18.82-.82.75.57,1.52.92,2.48.94.65.02,2.89-.56,2.5-1.64-.12-.34.36-.47.54-.23.86,1.11-.57,2.48-1.56,3.02.36.95.71,1.69,1.67,2.33,1.25.83,2.84.38,3.97-.39.35-.24.64.26.42.55-2.25,2.86-7.5,1.47-7.71-2.07ZM179.38,314.01c1.05,1.2,2.39,1.23,3.86,1.01.3-.05.54.28.31.52-1.41,1.45-3.93.8-5.18-.51-.64-.67.41-1.71,1.01-1.01ZM144.02,287.06c-2.33,2.14-7.13.99-6.88-2.64.04-.58.79-.83,1.11-.3,1.21,2,2.87,3.4,5.27,2.3.4-.18.86.31.5.64ZM145.41,300.27c-1.26.33-2.63-.25-3.6-1.03-.92-.74-1.27-2.01-1.2-3.15.02-.4.68-.55.75-.1.13.87.66,1.55,1.38,2.05.84.57,1.73.55,2.67.79.72.18.72,1.26,0,1.44ZM170.1,306.57c-.99,2.58-4.73,1.51-5.28-.81-.16-.67.84-1.16,1.16-.49.79,1.69,2.26,1.79,3.8,1.04.16-.08.41.05.33.25ZM164.44,312.94c-.03-.57.84-.67.98-.13.26,1.06.85,1.77,1.75,2.36.65.42,3.22.87,3.6-.2.16-.47.8-.27.73.2-.24,1.72-2.92,1.97-4.21,1.63-1.74-.45-2.75-2.17-2.85-3.87ZM158.29,294.97c.17-.24.6-.1.5.21-.47,1.47-.19,2.62.88,3.74.95,1,2.46,1.27,3.75,1.12.41-.05.44.5.19.69-1.59,1.21-3.86.85-5.15-.59-1.19-1.33-1.18-3.73-.17-5.16ZM155.54,286.51c-.95,1.24-2.58,2.29-4.22,1.88-1.76-.43-2.8-1.76-2.89-3.56-.04-.67,1-.8,1.15-.16.53,2.23,3.79,2.81,5.35,1.37.31-.28.88.11.61.47ZM145.41,304.35c.01-.56.88-.71,1-.14.41,1.9,2.5,2.7,4.09,1.59.28-.2.68.2.47.47-.65.87-1.55,1.26-2.44,1.28.98,2.91,4.54,3.41,6.35.73.22-.33.76-.13.65.28-.52,1.92-2.51,3.19-4.46,2.97-1.95-.22-3.5-2.2-3.5-4.11-1.22-.37-2.21-1.48-2.17-3.07ZM138.04,311.14c.04-.37.64-.53.72-.1.59,3.41,3.61,4.13,6.56,3.35.4-.11.75.42.42.72-1.11.97-2.41,1.3-3.64,1.16,0,.46.08.87.36,1.32.44.68,1.33.87,2.06.72.31-.06.55.38.23.54-1.96.98-4.51-.75-4.01-2.96-1.7-.76-2.94-2.5-2.71-4.76ZM114.96,302.83c.16-.42.76-.36.79.11.05.81.41,1.36.92,1.72.22-.07.5.07.58.31.9.36,2.04.38,2.97.32.4-.02.45.57.09.68-.81.25-1.76.52-2.66.52.35.83.93,1.45,1.89,1.95,1.11.59,2.42.51,3.63.66.19.19.36.4.55.58-.01.25-.15.5-.41.56-1.74.38-3.81.4-5.36-.58-1.32-.83-1.7-2.07-1.66-3.43-.03-.01-.05-.02-.08-.03-1.23-.59-1.75-2.11-1.26-3.37ZM114.92,294.62c.1-.32.64-.28.6.08-.11,1.17.13,2.08.9,2.98.62.73,1.4,1.45,2.41,1.1.36-.13.67.4.37.64-1.03.88-2.53.55-3.45-.33-1.1-1.04-1.25-3.11-.83-4.48ZM112.44,278.7c-.11-.6.68-.81.91-.25.87,2.13,3.76,3.46,5.9,2.51.47-.21.86.41.41.71-.63.41-1.28.67-1.93.8,0,1.28.5,2.42,1.57,3.19.78.56,1.64.73,2.54.79-.43.29-.86.6-1.23.96-.77,0-1.52-.16-2.35-.7-1.4-.92-2.09-2.54-2.11-4.17-1.82-.24-3.33-1.58-3.72-3.84ZM112.85,284.06c-1.24,1.44-3.58,1.9-4.71.06-.5-.82.7-1.44,1.25-.73.76.98,2.14.64,3.07.16.33-.17.63.23.39.51ZM105.59,290.78c-1.55.18-3.06-1.12-3.17-2.67-.02-.28.41-.4.54-.15.41.82,1.2,1.35,2.1,1.33-.08-.49-.08-.97.04-1.43.17-.64,1.02-.44,1.09.15.18,1.62.67,2.54,2.25,3.16,1.18.46,2.17-.11,3.32-.2.21-.02.38.23.32.42-.58,1.68-3.24,1.97-4.64,1.27-.75-.37-1.4-1.07-1.85-1.88ZM93.38,292.04c.09-.08.25-.12.36-.05.02.01.04.03.06.04.14.1.15.28.08.41.1.29.73.85.87.98.47.45,1.07.72,1.67.96.83.33,1.74.4,2.63.4-.16-.67-.16-1.38-.25-2.08-.1-.8-.3-1.8.44-2.33.24-.17.47.15.37.37-.58,1.2.57,3.12,1.37,3.95.62.64,1.79,1.04,2.66.76.68-.23,1.12.67.67,1.15-1.2,1.29-2.89,1.04-4.07.04-1.88.75-3.88.31-5.39-1.06-.6-.55-2.33-2.72-1.47-3.53ZM86.62,276.2c0-.33.49-.4.57-.08.43,1.61,1.31,2.17,2.73,2.84,1.16.55,2.28.5,3.48.41-.34-.58-.48-1.25-.23-2.02.17-.51.87-.51,1.04,0,.78,2.35,3.61,3.2,5.82,2.97.33-.03.45.47.17.62-1.32.69-3.18.88-4.57.25-.47-.22-.95-.5-1.37-.84-.02.02-.05.03-.07.05-.97.38-1.71.95-2.79,1.03-.48.03-.92-.01-1.35-.12,0,.3-.02.61-.03.93-.02.78.78,1.37,1.34,1.78,1.24.9,2.56,1.24,4.04,1.52.72.14.49,1.16-.16,1.21-1.9.16-4.12.07-5.69-1.12-.78-.6-1.29-1.33-1.6-2.26-.3-.92.08-1.97.34-2.88-1.11-.97-1.66-2.97-1.66-4.28Z"/>
        <path class="cls-5" d="M122.92,273.62c-.23-.35-.4-.74-.56-1.16.21-.06.42-.11.63-.16.71.1,1.44.17,2.16.22-.2.18-.4.36-.61.53-.44.35-1.03.54-1.63.58Z"/>
        <path class="cls-5" d="M233.44,300.55c-.7.41-1.64.55-2.28-.05-.54-.51-.69-1.02-.7-1.64.54-.14,1.07-.28,1.61-.42.22.8.74,1.54,1.38,2.11Z"/>
        <path class="cls-5" d="M134.2,275.47c-.06,0-.11-.02-.16-.03-.66-.4-.99-1.08-1.33-1.79.1.03.21.05.31.09.36.15.64.32.86.53.06.4.17.81.33,1.19Z"/>
        <path class="cls-5" d="M87.31,266.5c-1,.1-2.14-.21-2.79-.66-.51-.35-.86-.76-1.11-1.24.63.18,1.26.36,1.82.63.75.37,1.43.8,2.08,1.27Z"/>
        <path class="cls-5" d="M88.3,264.65c.08.01.16.02.25.04-.06,0-.12,0-.18.02-.02-.02-.05-.04-.07-.06Z"/>
        <polygon class="cls-5" points="91.2 265.06 91.21 265.07 91.2 265.08 91.2 265.06"/>
        <path class="cls-5" d="M118.18,275.43s.08-.08.12-.13c.24-.28.46-.59.64-.91.23-.21.46-.43.7-.63.22.31.49.57.8.77.32.51.72.97,1.16,1.35-.64.64-1.8.54-2.67.1-.29-.15-.54-.34-.75-.55Z"/>
        <path class="cls-2" d="M94.29,236.6s-.03-.02-.04-.03c.06-.02.11-.05.17-.07-.05.04-.09.07-.13.11Z"/>
        <path class="cls-2" d="M201.62,259.18c.09,0,.17-.01.25-.02-.15.05-.3.1-.45.15.07-.04.13-.08.2-.12Z"/>
        <path class="cls-4" d="M184.02,286.16c3.01-3,1.83-7.81,1.75-11.87-.05-2.41.34-4.66,2.09-6.43,3,.62,6.02,1.06,8.93,1.15.29,0,.32-.4.07-.49-2.45-.81-4.91-1.65-7.38-2.46.12-.17.24-.35.36-.54.16-.26.25-.52.31-.77,1.53.05,3.06.39,4.86.73.92.18,1.84.34,2.77.51.63.21,1.25.42,1.88.62,2.03.67,4.08,1.38,6.17,1.84.26.44.5.88.72,1.34.37,4.57-.44,9.1-.66,13.65-4.27,1.3-7.34,3.96-9.15,8.26-3.49-1.34-6.95-2.81-10.32-4.39-.79-.37-1.58-.75-2.38-1.14Z"/>
        <path class="cls-2" d="M220.44,282.8c-.03.08-.06.16-.08.24-.08-.05-.16-.08-.25-.12.11-.04.22-.08.33-.13Z"/>
        <path class="cls-2" d="M183.78,269.82s.06-.02.09-.03c-.02.05-.04.11-.06.16-.01-.04-.02-.08-.03-.13Z"/>
        <path class="cls-5" d="M97.24,269.89c-.08.7-.37,1.38-1.18,1.42-.21.01-.36.1-.47.22-.66-.39-1.27-.88-1.52-1.14-.47-.5-.81-1.04-1.05-1.62.28-.59.82-1.09,1.48-1.49.58,1.29,1.55,2.13,2.74,2.62Z"/>
        <path class="cls-5" d="M116.16,271.7c-.49.31-.99.46-1.51.57.3-.57.52-1.17.49-1.79.55.15,1.1.31,1.65.46-.12.3-.33.57-.63.76Z"/>
        <path class="cls-5" d="M112.19,269.96c-.18.19-.34.39-.5.6-.71.35-1.63.51-2.33.81-.01,0-.02.02-.03.02-.34-.78-.28-1.77-.19-2.62,0,0,0-.01,0-.01,1.05.3,2.09.61,3.14.91-.03.1-.06.19-.1.29Z"/>
        <path class="cls-5" d="M100.15,267.11c-.24-.26-.42-.54-.58-.82,1.75.19,3.51.66,5.44,1.24-1.11.51-2.23.73-3.32.66-.57-.25-1.09-.6-1.54-1.09Z"/>
        <path class="cls-5" d="M266.42,258c-1.19-.63-2.38-1.24-3.5-1.98-.45-.29-.06-.97.42-.71,1.19.63,2.29,1.39,3.41,2.13.35.23.04.76-.33.56Z"/>
        <path class="cls-5" d="M74.85,252.43c.34.27.35.65.26,1.05-.13.62-1.09.37-.97-.22-.28-.12-.47-.53-.18-.77.26-.22.6-.27.89-.05Z"/>
        <path class="cls-5" d="M86.44,232.41c.4-.12.96-.32,1.34-.08.05.03.07.08.06.14-.12.44-.65.65-1.03.83-.54.25-1.08.5-1.64.72-.67.28-1-.85-.3-1.1.52-.19,1.04-.34,1.57-.51Z"/>
        <path class="cls-5" d="M96.72,258.17c-.37-3.24.18-6.44.31-9.68.01-.39.6-.39.6,0,.04,3.28.49,6.53.03,9.8-.08.58-.89.36-.94-.13Z"/>
        <path class="cls-2" d="M74.84,261.01c1.44.62,2.89,1.13,4.36,1.59.31,1.79.9,3.47,1.76,5.01-.92,2.38-.61,5.22.18,7.82-2.27,2.61-4.1,5.97-3.68,9.56.41,3.45,1.91,6.72,3.38,9.88-.13,1.69.11,3.36,1.13,4.82,1.48,2.13,3.45,3.28,5.7,4.19.65,1.69,2.06,3.05,3.85,3.89,1.55.73,3.19.92,4.84.81,5.27,3.36,11.5,5.49,17.31,7.73,2.78,1.07,5.86,2.53,8.91,2.57.83.01,1.65-.03,2.46-.1.06.05.13.09.22.11,2.5.72,4.75,1.72,7.01,3.01,1.28.73,2.66,1.64,4.14,1.87,1.59.25,3.19.29,4.78.25.05.09.1.17.2.23,3.2,2.12,6.57,4.26,10.18,5.64,3.06,1.16,6,.86,9.09.86,7.18,3.38,15.33,5.03,23.15,4.08,2.31,1.2,5.53,2.64,8.12,2.31,1.39-.18,2.69-.58,4.03-1.02.57-.19,1.17-.46,1.79-.74,2.63,1.54,6.05,2.78,9.04,2.31,3.54-.55,7-2.22,10.42-3.31,3.96.07,7.93-.49,11.9-1.17,2.78-.47,5.65-1.15,7.95-2.87,1.35-1.01,2.79-2.3,4.37-3.17,1.57.13,3.12-.14,4.58-1.09,1.78-1.16,3.13-2.94,3.78-4.97,1.69.33,3.4.1,4.52-1.45.7-.97.95-2.06,1.1-3.22,2.5-1.97,5.5-4.01,6.38-7.15.83-2.91.17-6.77-.29-9.93.57-.44,1.08-.96,1.47-1.62,1.46-2.49.62-5.07,1.18-7.69,3.29-1.48,5.3-3.85,6.57-7.43,1.64-4.63,3.47-9.59,4.19-14.47,1.42-9.6-7.13-13.41-14.07-17.9-5.18-3.36-10.36-6.71-15.54-10.07-4.26-2.76-8.48-5.74-13.11-7.87-9.75-4.48-20.81-5.44-31.29-7.22-11.7-1.99-23.41-3.97-35.12-5.96-10.69-1.81-20.79-2.82-31.58-1.07-11.39,1.84-22.7,4.22-33.9,7-7.69,1.91-16.81,3.37-22.71,9.1-2.7,2.08-4.95,4.72-6.47,8.03-2.94,6.38-4.09,15.51,3.69,18.84ZM73.96,252.49c.26-.22.6-.27.89-.05.34.27.35.65.26,1.05-.13.62-1.09.37-.97-.22-.28-.12-.47-.53-.18-.77ZM84.87,232.92c.52-.19,1.04-.34,1.57-.51.4-.12.96-.32,1.34-.08.05.03.07.08.06.14-.12.44-.65.65-1.03.83-.54.25-1.08.5-1.64.72-.67.28-1-.85-.3-1.1ZM266.42,258c-1.19-.63-2.38-1.24-3.5-1.98-.45-.29-.06-.97.42-.71,1.19.63,2.29,1.39,3.41,2.13.35.23.04.76-.33.56ZM221.85,297.73c-.63,0-.74-.91-.14-1.08.82-.24,1.64-.39,2.45-.69.79-.29,1.49-.75,2.27-1.06.4-.16.6.39.38.65-1.08,1.29-3.3,2.14-4.95,2.17ZM232.06,298.44c.22.8.74,1.54,1.38,2.11-.7.41-1.64.55-2.28-.05-.54-.51-.69-1.02-.7-1.64.54-.14,1.07-.28,1.61-.42ZM82.69,279.92c1.11.5,2.28.57,3.44.16.28-.1.25-.55-.07-.54-.97.04-1.87-.37-2.54-1.07-.1-.11-.19-.23-.28-.35-.47-1.71-.81-3.46-.8-5.24,0-.81.08-1.59.14-2.36.57.79,1.35,1.46,2.21,1.75,1.47.49,3.09.12,4.39-.68.24-.15.17-.46-.07-.55-1.11-.42-2.4-.22-3.43-.86-.59-.36-.97-.84-1.31-1.36.47.18.97.3,1.48.34.88.07,1.78-.07,2.66.05.41.05.78.16,1.13.28.43.89,1,1.7,1.69,2.32,1.58,1.42,3.73,1.58,5.76,1.7.21.88.82,1.79,1.47,2.3,1.93,1.52,4.01,1.56,6.08.24.37-.23.13-.8-.29-.69-1.48.35-3.61-.46-4.67-1.55-.27-.27-.68-.77-.9-1.29.08-.1.14-.21.17-.37.19-1.02,1-.77,1.71-.45.45.2.91.39,1.36.59.77.62,1.72,1.07,2.59,1.23.42.07.62-.42.28-.66-.58-.43-1.03-.83-1.42-1.44-.18-.28-.32-.58-.45-.88.51.11,1.05.13,1.55.05.51-.08,1.12-.4,1.62-.2.19.07.34.19.47.32.12.94.45,1.84.98,2.59-.06,1.94,1.07,4.14,3.35,3.62.37-.08.28-.66-.09-.65-1.13.02-1.57-.74-1.72-1.65.04.02.07.04.11.06.41.31.91.49,1.51.48.23,0,.47-.07.71-.15.14-.02.28-.06.42-.09.9,1.52,2.66,2.14,4.26,1.76.48.56,1.1.95,1.78,1.15.66.51,1.43.83,2.26.79,1.24-.06,2.38-.77,2.8-1.81.33.15.67.28,1.02.36-.05,1.62.84,3.23,2.18,4.16-.44.27-.95.51-1.4.53-.67.03-1.15-.13-1.78-.34-.27-.09-.43.22-.33.44.48,1.06,1.81,1.52,2.89,1.49.84-.03,2.01-.56,2.42-1.36,1.95.41,4.5.1,5.67-1.65.17-.25-.05-.63-.35-.61-1.6.07-3.04.92-4.68.3-1.49-.56-2.05-1.55-2.4-2.83.05-.01.1-.02.15-.03,1.86.47,4,.23,4.99-1.21.31.13.62.24.93.32.8.59,1.74.89,2.68.53.14.19.3.35.45.49,1.04.94,2.53,1.76,3.94,1.43.25.58.57,1.1.9,1.47,1.25,1.41,4.09,3.16,5.68,1.29.24-.28-.06-.65-.38-.5-1.54.69-3.33-1.07-3.98-2.3-.33-.63-.63-1.33-.62-2.06,1.21,1.59,2.92,2.92,4.88,2.41.09.04.19.06.29.05.3.24.7.42,1.08.51.04.89.35,1.79.87,2.39.85.99,2.75,1.5,3.52.14.17-.31-.22-.6-.47-.37-.8.73-1.71-.57-1.83-1.25-.07-.41-.05-.74.03-1.05.09-.01.19-.02.28-.03.29.22.59.41.91.57.5.24,1.03.49,1.57.59.07.02.16.02.25.03.75,1.06,1.77,1.9,3.09,2.12,1.45.24,3.22-.72,4.44-1.7,2.2.99,4.51,1.77,6.78,2.52.14.05.28.1.42.15-.27.13-.59.35-.83.43-.63.18-1.26.4-1.92.42-1.54.04-2.6-.35-3.87-1.18-.24-.16-.58.16-.41.41,1.39,1.99,4.45,3.32,6.85,2.73.2-.05.43-.11.66-.18,1.43,2.6,4.8,4.01,7.45,2.11.35-.25.51-.57.54-.89,1.35.71,2.7,1.42,4.08,2.12.46.23.93.46,1.39.67-.49.28-1.07.46-1.43.52-1.01.16-2.05.1-3.07.12-.81.02-.99,1.21-.19,1.42,1.47.39,3.26.63,4.7-.06-.07,1.1.28,2.18,1.33,2.76,1.61.88,3.32.42,4.93-.25.42-.18.27-.75-.19-.68-1.12.18-2.38.47-3.4-.25-.98-.7-.66-1.61-.38-2.55,2.71,1.15,5.46,2.09,8.26,2.85.69.67,1.45,1.27,2.26,1.76-.27.6-.75.93-1.59.93-.78,0-1.62,0-2.38-.11-.31-.04-.59.3-.33.56,1.15,1.14,2.61,1.57,4.18,1.02.73-.26,1.39-.86,1.69-1.59.41.17.83.32,1.26.43,1.44,2.13,4.36,3.82,6.65,2.73.22-.1.15-.44-.07-.5-1.24-.33-2.39-.37-3.46-1.2-.3-.23-.56-.48-.79-.75.86-.01,1.72-.16,2.58-.47,1.91.73,3.88,1.4,5.88,1.92-.02.06-.05.12-.06.19-.19,2.02-1.67,3.74-3.85,3.65-.47-.02-.5.63-.11.78,1.53.58,3.23.52,4.48-.66.55-.53.98-1.16,1.23-1.85.53.48,1.16.78,1.89.7.59-.06.62-.93,0-.94-.86,0-1.23-.67-1.54-1.39,1.08.22,2.17.37,3.26.47,2.8,1.34,5.91,1.4,9,.96.03.15.08.3.14.44.21.5.5.96.84,1.36-1.21.92-2.42.86-3.94.51-.41-.1-.62.43-.28.66,1.61,1.12,4.48,1.96,5.65-.06,1.08.53,2.37.64,3.46.09.3-.15.12-.53-.15-.57-1.88-.21-3.55-1.04-4.04-2.74,1.66-.33,3.3-.76,4.86-1.16.19,1.12.93,2.2,1.96,2.62,1.38.56,3.01.22,3.98-.92.07.04.14.09.21.12,1.12.55,3.28.85,4.16-.26.11-.14.08-.36-.11-.41-1.12-.33-2.3.03-3.26-.89-.59-.57-.88-1.12-1.16-1.75,1.68-.41,3.37-.79,5.08-1.09,1.43-.25,2.91-.39,4.35-.64-.14.14-.3.28-.48.4-.88.59-1.92,1.17-3,1.14-.45-.01-.48.59-.1.73,1.16.43,2.29.58,3.39.25.19.72.78,1.5,1.39,1.76.4.18.9.33,1.34.18.45-.15.65-.29.81-.73.05-.14-.08-.27-.21-.28-.49-.02-1.15.06-1.46-.43-.23-.38-.31-.82-.5-1.2.42-.3.81-.65,1.14-1.05.22-.12.44-.26.64-.42.8-.65,1.37-1.55,1.62-2.55,0-.02,0-.04.01-.06,2.47-.54,5.04-.98,7.59-1.49-.54,1.36-1,3.07-2.73,2.75-.47-.09-.83.57-.34.82,2.59,1.33,5.47-1.5,5.47-4.09,1.54-.36,3.06-.77,4.53-1.28-.28,1.54-.07,3.14-.67,4.64-.88,2.19-3.43,3.85-5.33,5.1-.51.33-.2,1.23.43,1.02,1.02-.34,2.1-.7,3.08-1.19-.24,2.59-.3,5.2-.63,7.78-.27,2.15-2.09,4.24-3.72,6.13.26-1.28.58-2.55.74-3.85,1.03-.74,2.02-2.03,1.63-3.14-.16-.46-.93-.42-.89.12.06.89-1.72,1.71-2.41,1.87-.92.22-2.1.24-2.84-.45-.39-.37-1.05.11-.76.58.98,1.61,2.59,2.18,4.36,1.51-.77,2.14-1.18,4.44-2.34,6.42-1.29,2.21-4.43,1.96-6.7,1.49-.59-.12-.98.68-.42,1,.66.38,1.43.76,2.25,1.05-2.51,3.19-6.81,5.33-10.88,4.37-.51-.12-.89.65-.37.88.39.17.79.33,1.19.48-2.48,1.24-4.84,3.26-7.62,3.89-6.62,1.49-13.57,2.83-20.37,2.09-.61-.07-.72.91-.14,1.05.81.21,1.62.37,2.42.5-1.48.31-2.94.69-4.43,1.06-2.88.71-5.54.21-8.23-.54.25-.07.51-.13.75-.16.81-.1,1.18-1.41.21-1.56-2.48-.4-5.66.94-7.99,1.7-2,.65-4.09.38-6.12-.14.79-.17,1.58-.36,2.36-.59.34-.1.27-.62-.08-.62-6.53.02-12.83-.37-18.97-1.57.83-.54,1.49-1.33,1.84-2.38.16-.5-.57-.97-.92-.53-2.54,3.16-6.39,2.4-7.84-1.2.88-.14,1.75-.5,2.53-1.1.28-.22-.07-.6-.36-.46-2.61,1.28-5.43,0-6.78-2.43-.26-.47-.95-.14-.84.36.55,2.49,2.6,3.77,4.76,3.71.25.82.52,1.64.89,2.37-2.74-.85-5.46-1.89-8.16-3.18-.52-.25-.94.45-.45.77.75.49,1.51.95,2.29,1.4-1.95-.29-3.88-.66-5.71-1.57-2.12-1.05-4.21-2.03-6.36-2.92,1.25.33,2.65.31,3.67-.08,1.37-.53,3.18-1.64,2.59-3.36-.09-.26-.5-.23-.5.07.01,1.88-2.96,1.98-4.21,1.87-.25-.02-.49-.07-.73-.12-2.78-1.41-5.78-.39-8.83-1.2-3.08-.81-5.81-2.2-8.82-3.1,1.16-.12,2.31-.22,3.48-.22.3,0,.45-.45.16-.58-2.67-1.25-5.09-.79-7.96-.85-3.44-.06-6.48-1.36-9.65-2.54-5.1-1.9-10.07-4.34-15.23-6.07,1.1-.25,2.19-.57,3.24-.9.49.4,1.05.71,1.65.88,2.02.56,3.95.09,5.22-1.62.18-.24-.16-.52-.39-.39-1.25.71-3.18.86-4.49.17-.83-.44-1.52-.97-1.67-1.97-.02-.13-.03-.24-.05-.35.16.04.33.08.5.1,1.38.14,4.01-.08,4.35-1.8.05-.24-.2-.47-.43-.33-1.93,1.23-5.67.48-6.51-1.76-.14-.38-.67-.32-.7.1-.08,1.05.34,2.02,1.05,2.72-.41,1.29,0,2.63.85,3.64-4.54-.34-12.06.35-12.59-5.31,1.74.49,3.55-.06,5.29-.83.36-.16.15-.68-.19-.69-1.93-.04-4.56.1-5.91-1.58-.58-.72-1.2-1.44-1.44-2.36-.2-.77-.29-1.51-.61-2.24-.2-.46-.85-.11-.77.32.28,1.44-.47,2.62.13,4.03.4.94,1.04,1.91,1.87,2.54-.12.58-.15,1.15-.11,1.7-1.37-1.06-2.67-2.27-3.4-3.67-1.31-2.51-1.33-5.27-1.14-8.01.05.02.09.06.14.08,1.48.63,2.96.09,4.19-.8.21-.15.15-.49-.14-.5-.99-.03-2.13.13-3.07-.24-.96-.37-1.38-1.35-1.51-2.31-.09-.65-.97-.39-1.04.14-.16,1.19-.12,2.28.6,3.05-.24.76-.47,1.55-.67,2.37-.8-2.98-1.44-5.91-1.34-8.82.04.02.07.04.11.06.84.38,1.87.25,2.65-.24.37-.23.14-.84-.3-.71-.64.18-1.26.06-1.72-.44-.28-.3-.38-.6-.48-.95.18-.97.46-1.95.86-2.92.36.71,1.06,1.33,1.66,1.6ZM173.61,286.59c-1.75.69-3.56.64-4.87-.69.5-.26.92-.6,1.18-1.06,1.26.54,2.48,1.13,3.7,1.75ZM146.78,276.52c.3.09.61.18.91.26,0,.2.05.41.17.63h0c-.22.28-.37.6-.47.96-.07-.06-.14-.13-.2-.2-.46-.58-.49-1.06-.41-1.64ZM157.8,280.28c-.55.16-1.1.28-1.63.22-.97-.1-1.5-.86-2-1.62-.01-.07-.02-.15-.03-.22.87.25,1.73.52,2.6.78.35.21.72.42,1.08.61-.04.07-.05.15-.02.23ZM125.15,272.52c-.2.18-.4.36-.61.53-.44.35-1.03.54-1.63.58-.23-.35-.4-.74-.56-1.16.21-.06.42-.11.63-.16.71.1,1.44.17,2.16.22ZM129,274.19c.42.31.8.71,1.2,1.06-1.22.59-2.52.29-3.75-.23.84-.66,1.88-1.32,2.55-.83ZM133.01,273.74c.36.15.64.32.86.53.06.4.17.81.33,1.19-.06,0-.11-.02-.16-.03-.66-.4-.99-1.08-1.33-1.79.1.03.21.05.31.09ZM137.98,275.75c.32.51.6,1.14.98,1.66.03.13.06.27.09.4-1.16-.18-1.96-1-2.47-2.12-.18-.39-.28-.78-.35-1.18.69.27,1.34.59,1.76,1.25ZM118.93,275.97c-.29-.15-.54-.34-.75-.55.04-.05.08-.08.12-.13.24-.28.46-.59.64-.91.23-.21.46-.43.7-.63.22.31.49.57.8.77.32.51.72.97,1.16,1.35-.64.64-1.8.54-2.67.1ZM112.29,269.67c-.03.1-.06.19-.1.29-.18.19-.34.39-.5.6-.71.35-1.63.51-2.33.81-.01,0-.02.02-.03.02-.34-.78-.28-1.77-.19-2.62,0,0,0-.02,0-.02,1.05.31,2.09.62,3.14.91ZM116.79,270.94c-.12.3-.33.57-.63.76-.49.31-.99.46-1.51.57.3-.57.52-1.17.49-1.79.55.15,1.1.31,1.65.46ZM97.67,258.3c-.08.58-.89.36-.94-.13-.37-3.24.18-6.44.31-9.68.01-.39.6-.39.6,0,.04,3.28.49,6.53.03,9.8ZM94.5,267.27c.58,1.29,1.55,2.13,2.74,2.62-.08.7-.37,1.38-1.18,1.42-.21.01-.36.1-.47.22-.66-.39-1.27-.88-1.52-1.14-.47-.5-.81-1.04-1.05-1.62.28-.59.82-1.09,1.48-1.49ZM101.69,268.2c-.57-.25-1.09-.6-1.54-1.09-.24-.26-.42-.54-.58-.82,1.75.19,3.51.66,5.44,1.24-1.11.51-2.23.73-3.32.66ZM85.23,265.23c.75.37,1.43.8,2.08,1.27-1,.1-2.14-.21-2.79-.66-.51-.35-.86-.76-1.11-1.24.63.18,1.26.36,1.82.63ZM88.54,264.68c-.06,0-.12,0-.18.02-.02-.02-.05-.04-.07-.06.08.01.16.02.25.04ZM91.21,265.07h-.01s0,0,0,0h.01ZM77.05,258.56c2.43.73,4.93,1.11,7.45,1.43,2.08-2.69-.15-6.91-.9-9.82-1-3.87,1.92-6.36,1.87-10.02,0-.11.01-.21.02-.31-.72-.07-1.45-.12-2.17-.18-.79,1.46-1.61,2.94-2.3,4.46-1.16,4.11-2.33,7.97-2.03,12.58,0,.12-.16.13-.2.03-1.28-3.83-1.6-9.92.08-14.29.07-.48.19-1.21.2-1.68-.02-.01-.04-.02-.06-.03-.78.75-1.48,1.67-1.84,2.19-1.14,1.61-1.25,3.7-1.42,5.59-.05.58-.89.6-.92,0-.16-3.93,1.1-6.98,3.61-9.99.86-1.03,2.36-1.22,3.99-1.03.8-.08,1.63-.07,2.47-.05.82.02,1.64-.02,2.45-.08.93-.61,2.03-1.07,2.85-1.47,1.86-.9,4.01-1.2,5.53-2.71,1.29-1.28,2.19-2.67,3.67-3.82,2.51-1.96,5.8-2.8,8.83-3.69,5.23-1.21,10.48-2.33,15.75-3.34,7.59-1.45,15.31-3.05,23.07-3.02h0s.06,0,.09,0h.1c4.87-.68,10.22.54,14.61,2.32.14.06.14.29-.04.28-4.09-.16-8.15-1.04-12.21-1.16-6.55.84-13.09,1.86-19.53,3.33-3.54.81-6.85,2.39-10.3,3.5-3.49,1.12-7.29.73-10.68,2.22,1.57.2,3.1.58,4.51,1.21.19.08.09.38-.1.38-2.15-.02-4.28-.16-6.42-.16-.12.12-.25.25-.37.38.57.24,1.13.54,1.64.84.18.1.02.35-.16.27-.58-.25-1.23-.52-1.87-.53-.05,0-.1,0-.14,0-1.05,1.19-2.07,2.43-3.66,2.99-2.77.98-5.82,1.43-7.43,3.6,3.05.16,6.08.37,9.09.52,1.24.06,2.48.14,3.72.23,1.61-1.39,3.87-2.19,5.7-3.14,2.41-1.25,4.16-1.98,6.91-1.93,8,.15,15.84-2,23.52-4.04,6.65-1.77,13.23-4.84,20.04-5.76,4.16-.57,8.62-1,13.03-1.18.23.04.45.08.67.12,2.21.37,4.41.75,6.62,1.12,3.15.21,6.36.92,9.41,1.45,3.96.69,8.01,1.28,11.7,2.93.06.03.03.12-.03.13-3.63.12-7.2-.65-10.77-1.27-2.31-.4-4.71-.68-7.07-1.08-1.76.05-3.53.16-5.3.34-3.71.39-7.36,1.21-10.94,2.25-3.59,1.05-6.89,2.98-10.57,3.69-3.37.65-6.36,1.15-9.61,2.33-2.99,1.09-6.17,1.5-9.33,1.66-3.77.19-7.29-.66-11.04.2-.32.07-.64.16-.97.25,1.61.45,3.19,1.03,4.72,1.55.08.03.07.16-.02.15-2.77-.29-5.39-.62-8.09-.65-1.91.68-3.81,1.49-5.61,2.31,1.75.28,3.49.6,5.22.97,5,1.06,9.92,2.42,14.81,3.92,1.1.1,2.22-.04,3.35-.12,5.56-3.69,12.56-2.36,18.9-3.79,4.13-.93,7.82-2.82,11.63-4.59,3.2-1.49,7.11-2.31,10.61-2.71,3.43-.39,6.44.37,9.75,1.18,4.75,1.16,9.73,1.15,14.54.4,3.92-.62,7.34-2.34,11.07-3.54,1.47-.47,3.14-.57,4.83-.47,1.16.37,2.31.78,3.43,1.25.68.28,1.36.59,2.02.9,1.85.6,3.65,1.35,5.43,2.25,3.43,1.74,5.77,4.64,8.82,6.93.12.09.06.32-.11.27-2.8-.97-4.93-2.83-7.52-4.18-1.1-.58-2.22-1.11-3.34-1.63-1.25-.05-2.5-.05-3.77.03-4.41.26-7.88,2.14-11.81,3.86-1.04.46-2.19.67-3.38.76-.55.18-1.11.35-1.67.51-4.69,1.33-9.34-.02-14.09-.02-.1,0-.12-.15-.02-.17,1.72-.43,3.46-.57,5.2-.66-3.45-.07-6.9-.14-10.32-.52-4.05-.45-6.67-.14-10.22,1.94-2.54,1.49-5.16,3.21-8.19,3.41-1.97.13-3.91.01-5.88-.06-1.57-.06-2.92.25-4.25.74,1.39.58,2.75,1.21,4.04,1.97.27.16.08.55-.21.49-1.93-.39-3.8-1.01-5.66-1.69-.22.1-.44.2-.66.31-.64.31-1.36.54-2.11.73,1.31.37,2.58.8,3.78,1.37.19.09.08.37-.1.37-2.59.08-5.31-.54-7.86-1.14-.46.02-.91.04-1.35.04-.18.08-.36.15-.54.22,0,.03-.02.06-.03.08,1.42.49,2.84.97,4.27,1.46.4.11.8.25,1.19.4,2.54.86,5.09,1.71,7.64,2.53,1.68.27,3.16,1.09,4.93,1.14,1.19.04,2.39.01,3.59-.03,2.23-1.33,4.63-2.16,7.13-2.63-.4-.37-.85-.68-1.28-.99-.05-.03-.04-.13.03-.12.99.05,1.8.39,2.64.89,2.45-.34,4.97-.37,7.49-.21,3.85.24,6.92.07,10.49-1.43,3.62-1.52,7.31-2.57,11.18-3.23,7.39-1.25,14.83.12,22.25-.13,3.52-.12,7.05-.32,10.56-.62,1.12-.1,2.2-.37,3.26-.58-.56-.47-1.16-.87-1.88-1.12-.19-.07-.16-.34.05-.35,2.09-.14,3.46,1.36,4.89,2.73,1.54.99,3.07,1.99,4.61,2.98-1.94,1.13-3.53,2.23-5.87,2.95-2.99.92-6.07,1.29-9.18,1.18-2.75-.1-5.51-.79-8.21-1.29-3.97-.75-7.92-.67-11.92-.3-3.17.29-6.43.74-9.47,1.69-3.03.95-5.34,4.14-8.17,5.66-.77.41-1.58.76-2.41,1.06,9.07,1.96,18.59,1.44,27.48-1.51.25-.08.34.29.11.39-9.83,4.05-20.3,4.65-30.4,1.9-1.21.25-2.44.41-3.68.5,3.31.97,6.61,1.98,9.95,2.86,4.51,1.19,8.74.71,13.28.12,16.02-2.05,32.2-4.73,48.34-5.58.11,0,.13.17.03.2-5.13,1.23-10.34,2.23-15.59,3.09,2.51-.04,5.02-.05,7.52-.07.38,0,.37.55,0,.58-4.84.43-9.67.87-14.52,1.15-2.96.17-6.35.87-9.43.6-5,.59-10,1.12-14.95,1.66-1.9.21-3.79.4-5.69.56-.15.88-.59,1.6-.86,2.48-.31,1.02-.42,2.17-.65,3.22-.03.17-.3.13-.29-.04.03-1.1.07-2.19.13-3.29.04-.8-.2-1.49-.24-2.24-.32.02-.65.04-.98.06-.25,1.48-.8,2.91-1.26,4.34-.67,2.1-1.04,4.24-1.57,6.38-.07.27-.45.19-.46-.06-.21-3.17-.01-7.47,1.35-10.59-.19,0-.37.02-.56.02-.06,0-.11,0-.17,0-.57.63-1.06,1.27-1.22,2.12-.25,2.36-.67,4.74-1.21,7.03-.4,1.7-.63,3.43-.82,5.16.54-.14,1.1-.26,1.67-.36,3.96-.68,7.62-.68,11.38-2.3,3.74-1.61,7.31-3.15,11.29-4.13,3.48-.86,7.14-1.34,10.71-1.44,3.51-.1,6.76,1.38,10.12,2.12,6.11,1.36,12.51-.7,17.67-4.14,0,0,0,0,0-.01,1.74-3.44,2.27-6.49,2.45-10.29.01-.26.38-.32.46-.06.93,3.13.53,5.83-.33,8.45l.02-.02c-.2.78-.42,1.55-.66,2.32-.03.03-.05.06-.08.09.02,0,.03.01.05.02-.72,2.25-1.56,4.41-2.18,6.21-.58,1.68-1.16,3.56-2.15,5.11-2.16,1.2-4.76,1.76-7.14,2.21-5.77,1.08-12.77,2.41-18.42.31-4.22-1.57-7.09-1.63-11.28.18-2.6,1.13-5.03,2.42-7.8,3.11-3.26.81-6.61.12-9.92.99-2.43.64-5.04,1.48-7.08,3.01,3.58.9,7.2,1.53,10.79,2.48.11.03.12.21,0,.24-8.91,1.58-18.62-3.01-26.5-6.59-4.55-2.07-8.99-4.41-13.55-6.47-5.21-2.34-10.64-3.9-15.93-6.01-.32-.13-.32-.69.09-.66,3.75.3,7.48,1.37,11.13,2.8-.46-4.19-.46-8.17,1.33-12.19.81-1.82,1-2.92.62-4.9-.17-.9-.43-2.25-.06-3.13.18-.43.37-.81.58-1.15-1.41-.73-2.82-1.56-4.2-2.4-3.21-1.05-6.43-2.09-9.65-3.12-1.29-.16-2.59-.26-3.88-.27-.29,0-.58,0-.86.02.01.58-.05.94-.19,1.76-.32,1.81.54,3.52.98,5.22.52,1.95-.15,3.75-.96,5.49-1.57,3.39-2.89,6.04-2.59,9.88-4.22-1.24-8.44-2.45-12.67-3.6-.49-3.68-1.24-6.98.36-10.48,1.72-3.75,2.25-8.06,2.47-12.22-2.42-1.53-5.44-2.41-7.92-3.4-1.3-.36-2.6-.71-3.91-1.05-.07.21-.16.42-.25.62-.25.54-.62.91-.7,1.52-.06.41-.62.25-.66-.09-.06-.49-.22-.94-.29-1.42-.29.15-.58.31-.79.58-.17.22-.28.54-.36.89-.31,3.14-1.35,6.23-2.03,9.28-.03.14-.24.1-.25-.03-.13-3-.21-6.11.53-9.04,0-.4.02-.78.06-1.16-.12-.12-.11-.31.05-.41,0,0,0,0,0,0,.02-.12.05-.24.08-.35-.02-.2-.05-.4-.09-.6-.06-.25-.16-.49-.27-.73-.63-.08-3.06-.07-5.13-.05.01.07.03.14.03.21.07,1.11.1,1.14-.27,2.14-.73,1.98.49,3.54,1.07,5.31.53,1.58-.08,3.75-.81,5.15-1.6,3.07-3.67,5.45-3.28,9.04,2.22.57,4.44,1.14,6.67,1.69.17.04.12.27-.04.29-3.66.31-7.07-.38-10.58-1.33-4.11-1.11-8.35-1.46-12.47-2.46-.65-.16-.47-1.08.15-1.12,2.56-.16,5.15.2,7.69.75-.24-3.45,1.08-6.66,1.54-10.19.4-3.05-1.32-4.27-2.45-6.78-.72-1.6-.4-3.26-1.15-4.8-.06-.13-.11-.28-.13-.43-1.31-.08-2.62-.16-3.93-.23,0,.03,0,.06-.02.09-.39,1.44-.93,2.79-1.46,4.18-.11.29-.6.27-.57-.08.11-1.45.19-2.86.42-4.28-.69-.04-1.38-.07-2.07-.11-.09,1.38-.83,2.65-.95,4.04-.02.21-.33.22-.34,0,0-1.38-.53-2.76-.39-4.14-1.09-.06-2.17-.13-3.26-.2-.06.21-.11.43-.15.67-.23,1.33-.71,2.35-1.32,3.57-1.28,2.54-1.23,5.36-.57,8.04.57,2.3-.33,5.31,0,7.7.01.04.02.07.03.11.03.1.03.21.05.31.02.07.03.15.05.23,1.23.28,2.44.63,3.63,1.09.35.14.22.63-.15.56-.95-.17-1.94-.27-2.95-.34.02.07.03.14.03.21-.86-.1-1.73-.21-2.59-.33-4.81-.14-9.84-.06-13.69-2.81-.49-.35-.21-1.22.43-1.02ZM235.49,242.35c-1,.09-1.97-.15-2.97-.18-1.19-.03-2.4.26-3.49.72-.58.25-.92-.55-.34-.8.93-.39,1.87-.62,2.87-.71,1.34-.12,2.6.46,3.92.45.34,0,.33.48,0,.51ZM188.64,230.56c-2.04.32-4.08.63-6.12.95-2.26.35-4.83-.39-6.98.08-4.39.95-8.73,3.69-12.96,5.21-.59.21-1.01-.77-.43-1.02,4.3-1.85,8.73-3.51,13.14-5.07,1.75-.62,3.98.3,5.75.27,2.51-.05,5.06-.41,7.56-.63.13-.01.16.2.03.22Z"/>
        <path class="cls-2" d="M87.19,276.12c.43,1.61,1.31,2.17,2.73,2.84,1.16.55,2.28.5,3.48.41-.34-.58-.48-1.25-.23-2.02.17-.51.87-.51,1.04,0,.78,2.35,3.61,3.2,5.82,2.97.33-.03.45.47.17.62-1.32.69-3.18.88-4.57.25-.47-.21-.95-.5-1.37-.84-.02.02-.05.03-.07.05-.97.38-1.71.95-2.79,1.03-.48.03-.92-.01-1.35-.12,0,.3-.02.61-.03.93-.02.78.78,1.37,1.34,1.78,1.24.9,2.56,1.24,4.04,1.52.72.14.49,1.16-.16,1.21-1.9.16-4.12.07-5.69-1.12-.78-.59-1.29-1.32-1.6-2.25-.3-.92.08-1.97.34-2.88-1.11-.97-1.66-2.97-1.66-4.28,0-.33.49-.4.57-.08Z"/>
        <path class="cls-2" d="M93.74,292s.04.03.06.04c.14.1.15.28.08.41.1.29.73.85.87.98.47.45,1.07.72,1.67.96.83.33,1.74.4,2.63.4-.16-.67-.16-1.38-.25-2.08-.1-.8-.3-1.8.44-2.33.24-.17.47.15.37.37-.58,1.2.57,3.12,1.37,3.95.62.64,1.79,1.04,2.66.76.68-.23,1.12.67.67,1.15-1.2,1.29-2.89,1.04-4.07.04-1.87.75-3.87.31-5.39-1.06-.6-.55-2.33-2.72-1.47-3.53.09-.08.25-.12.36-.05Z"/>
        <path class="cls-2" d="M102.42,288.1c-.02-.28.41-.4.54-.15.41.82,1.2,1.35,2.1,1.33-.08-.49-.08-.97.04-1.43.17-.64,1.02-.44,1.09.15.18,1.62.67,2.54,2.25,3.16,1.18.46,2.17-.11,3.32-.2.21-.02.39.23.32.42-.58,1.68-3.24,1.97-4.64,1.27-.75-.37-1.4-1.07-1.85-1.88-1.55.18-3.06-1.12-3.17-2.67Z"/>
        <path class="cls-2" d="M108.15,284.12c-.5-.82.7-1.44,1.24-.73.76.98,2.14.64,3.07.16.33-.17.63.23.39.51-1.24,1.44-3.58,1.9-4.7.06Z"/>
        <path class="cls-2" d="M113.34,278.45c.87,2.13,3.76,3.46,5.9,2.51.47-.21.86.41.41.71-.63.41-1.28.67-1.93.8,0,1.28.5,2.42,1.57,3.19,1.15.84,2.5.82,3.85.84.31,0,.4.51.07.56-1.87.31-3.25.77-4.96-.35-1.4-.92-2.09-2.54-2.11-4.17-1.82-.24-3.33-1.58-3.72-3.84-.1-.6.68-.81.9-.25Z"/>
        <path class="cls-2" d="M115.52,294.7c-.11,1.17.13,2.08.9,2.98.62.73,1.4,1.45,2.41,1.1.36-.13.67.4.37.64-1.03.88-2.53.55-3.45-.33-1.1-1.04-1.25-3.11-.83-4.48.1-.32.64-.28.6.08Z"/>
        <path class="cls-2" d="M138.26,284.12c1.21,2,2.87,3.4,5.27,2.3.4-.18.86.31.5.64-2.33,2.14-7.13.99-6.88-2.64.04-.58.79-.83,1.11-.3Z"/>
        <path class="cls-2" d="M151.33,288.4c-1.76-.43-2.8-1.76-2.89-3.56-.04-.67,1-.8,1.15-.16.53,2.23,3.79,2.81,5.35,1.37.31-.28.88.11.61.47-.95,1.24-2.58,2.29-4.22,1.88Z"/>
        <path class="cls-2" d="M145.41,300.27c-1.26.33-2.63-.25-3.6-1.03-.92-.74-1.27-2.01-1.2-3.15.02-.4.68-.55.75-.1.13.87.66,1.55,1.38,2.05.84.57,1.73.55,2.67.79.72.18.72,1.26,0,1.44Z"/>
        <path class="cls-2" d="M115.75,302.93c.05.81.41,1.36.92,1.72.21-.07.5.07.58.31.9.36,2.04.38,2.96.33.41-.03.46.57.09.68-.81.25-1.76.52-2.66.52.35.83.93,1.45,1.89,1.95,1.16.61,2.52.5,3.77.67.58.08.53,1.01,0,1.12-1.74.38-3.81.4-5.36-.58-1.32-.83-1.7-2.07-1.66-3.43-.03-.01-.05-.02-.08-.03-1.23-.59-1.75-2.11-1.26-3.37.16-.42.76-.36.79.11Z"/>
        <path class="cls-2" d="M138.76,311.05c.59,3.41,3.61,4.13,6.56,3.35.4-.11.75.42.42.72-1.1.97-2.41,1.3-3.63,1.16,0,.46.08.87.36,1.32.44.68,1.33.87,2.06.72.31-.06.55.38.23.54-1.96.98-4.51-.75-4.01-2.96-1.7-.76-2.95-2.5-2.71-4.76.04-.37.64-.53.72-.1Z"/>
        <path class="cls-2" d="M158.79,295.18c-.47,1.47-.19,2.62.88,3.74.95,1,2.46,1.27,3.75,1.12.41-.05.44.5.19.69-1.59,1.21-3.86.85-5.15-.59-1.19-1.33-1.18-3.73-.17-5.16.17-.24.6-.1.5.21Z"/>
        <path class="cls-2" d="M146.41,304.22c.41,1.9,2.5,2.7,4.09,1.59.28-.2.68.2.47.47-.65.87-1.55,1.26-2.44,1.28.98,2.91,4.54,3.41,6.35.73.22-.33.76-.13.65.28-.52,1.92-2.51,3.19-4.46,2.97-1.95-.22-3.5-2.2-3.5-4.11-1.22-.37-2.21-1.48-2.17-3.07.01-.56.88-.71,1-.14Z"/>
        <path class="cls-2" d="M165.42,312.81c.26,1.06.85,1.77,1.75,2.36.65.42,3.22.87,3.6-.2.16-.47.8-.27.73.2-.24,1.72-2.92,1.97-4.21,1.63-1.74-.45-2.75-2.18-2.85-3.87-.03-.57.84-.67.98-.13Z"/>
        <path class="cls-2" d="M164.82,305.77c-.16-.67.84-1.16,1.16-.49.79,1.69,2.26,1.79,3.8,1.04.16-.08.41.05.33.25-.99,2.58-4.73,1.51-5.28-.81Z"/>
        <path class="cls-2" d="M180.81,303.05c-.32-.48.34-1.18.82-.82.75.57,1.52.92,2.48.94.65.02,2.89-.56,2.5-1.64-.12-.34.36-.47.54-.23.85,1.11-.57,2.48-1.56,3.02.36.95.71,1.69,1.67,2.33,1.25.83,2.84.38,3.97-.39.35-.24.64.26.42.55-2.25,2.86-7.5,1.47-7.72-2.07-1.23.01-2.4-.62-3.13-1.69Z"/>
        <path class="cls-2" d="M179.38,314.01c1.05,1.2,2.39,1.23,3.86,1.01.3-.05.54.28.31.52-1.41,1.45-3.93.8-5.18-.51-.64-.67.41-1.71,1.01-1.01Z"/>
        <path class="cls-2" d="M205.6,308.37c1.25,1.35,3.51,2,5,.56.31-.3.71.14.46.46-.83,1.06-1.75,1.77-3.16,1.79-1.37.02-2.68-.84-3.31-2.03-.33-.63.5-1.33,1.01-.78Z"/>
        <path class="cls-2" d="M193.78,313.9c.83.46,1.94.2,2.51-.57.31-.42,1-.06.72.42-.76,1.32-2.42,1.73-3.76,1.05-.6-.31-.06-1.24.53-.91Z"/>
        <path class="cls-2" d="M241.03,315.94c1.06.38,2.25.38,3.27-.13.28-.14.66-.41.86-.72-.54-.23-1.04-.56-1.42-1.02-.41-.49.13-1.35.72-.94,1.56,1.09,3.01,1.5,4.88.93.41-.12.58.42.27.64-.89.63-2.08.86-3.21.72-.12.78-.96,1.54-1.54,1.89-1.37.84-2.95.24-4.22-.5-.46-.27-.15-1.07.37-.88Z"/>
        <path class="cls-2" d="M218.17,322.78c1.85,1.35,3.95,1.34,5.55-.4.24-.26.76.01.62.36-.24.59-.59,1.08-1.02,1.48,2.91.67,5.99-.39,6.71-3.66.07-.33.56-.24.57.08.1,4.31-5.03,7.13-8.37,4.29-1.64.73-3.7.37-4.9-1.3-.35-.49.35-1.2.84-.84Z"/>
        <path class="cls-2" d="M225.68,313.29c-.91.12-.96-1.41,0-1.45,1.1-.05,2.47-.1,3.19-1.05.24-.32.85-.15.7.29-.58,1.63-2.36,2.01-3.89,2.21Z"/>
        <path class="cls-2" d="M194.31,324.3c1.64.74,3.81.7,5.29-.37.35-.25.68.27.43.56-1.64,1.96-4.39,2.35-6.35.63-.48-.42.13-1.04.63-.82Z"/>
        <path class="cls-5" d="M76.62,259.59c3.85,2.75,8.89,2.67,13.69,2.81.86.12,1.73.23,2.59.33,0-.07-.02-.14-.03-.21,1.01.07,2,.17,2.95.34.37.07.5-.42.15-.56-1.19-.46-2.4-.8-3.63-1.09-.02-.07-.03-.15-.05-.23-.01-.1-.02-.21-.05-.31-.01-.04-.02-.07-.03-.11-.33-2.39.57-5.4,0-7.7-.67-2.68-.71-5.51.57-8.04.61-1.22,1.09-2.23,1.32-3.57.04-.24.1-.45.15-.67,1.09.07,2.17.14,3.26.2-.14,1.38.39,2.75.39,4.14,0,.22.32.21.34,0,.11-1.39.85-2.67.95-4.04.69.04,1.38.08,2.07.11-.23,1.43-.31,2.84-.42,4.28-.03.35.46.37.57.08.53-1.4,1.07-2.74,1.46-4.18,0-.03.01-.06.02-.09,1.31.07,2.62.15,3.93.23.03.15.07.3.13.43.76,1.54.44,3.2,1.15,4.8,1.13,2.51,2.85,3.73,2.45,6.78-.46,3.53-1.79,6.74-1.54,10.19-2.54-.55-5.13-.9-7.69-.75-.62.04-.8.96-.15,1.12,4.12,1,8.36,1.34,12.47,2.46,3.51.95,6.92,1.64,10.58,1.33.16-.01.21-.24.04-.29-2.23-.55-4.45-1.11-6.67-1.69-.39-3.59,1.67-5.97,3.28-9.04.74-1.41,1.34-3.57.81-5.15-.59-1.76-1.8-3.33-1.07-5.31.37-.99.34-1.03.27-2.14,0-.07-.02-.14-.03-.21,2.07-.02,4.5-.03,5.13.05.1.24.2.47.27.73.05.2.07.4.09.6-.03.12-.06.23-.08.35,0,0-.01,0-.01,0-.15.1-.16.29-.04.41-.04.37-.06.76-.06,1.16-.74,2.92-.65,6.04-.53,9.04,0,.14.21.18.25.03.68-3.05,1.72-6.14,2.03-9.28.08-.35.19-.67.36-.89.21-.27.5-.44.79-.58.08.48.23.94.29,1.42.04.34.6.5.66.09.08-.61.45-.98.7-1.52.09-.2.18-.41.25-.62,1.31.35,2.61.7,3.91,1.05,2.48.99,5.5,1.87,7.92,3.4-.22,4.15-.75,8.47-2.47,12.22-1.6,3.5-.86,6.79-.36,10.48,4.23,1.15,8.45,2.36,12.67,3.6-.29-3.84,1.02-6.49,2.59-9.88.8-1.74,1.47-3.54.96-5.49-.45-1.69-1.3-3.4-.98-5.22.14-.81.2-1.18.19-1.76.28-.01.57-.02.86-.02,1.29,0,2.59.11,3.88.27,3.23,1.03,6.44,2.07,9.65,3.12,1.38.84,2.79,1.66,4.2,2.4-.21.34-.4.72-.58,1.15-.36.88-.11,2.23.06,3.13.38,1.98.19,3.08-.62,4.9-1.79,4.02-1.8,8-1.33,12.19-3.66-1.43-7.38-2.5-11.13-2.8-.41-.03-.41.53-.09.66,5.28,2.11,10.72,3.67,15.93,6.01,4.57,2.06,9,4.4,13.55,6.47,7.89,3.59,17.6,8.18,26.5,6.59.12-.02.11-.21,0-.24-3.59-.95-7.21-1.57-10.79-2.48,2.04-1.53,4.65-2.37,7.08-3.01,3.31-.87,6.67-.18,9.92-.99,2.77-.69,5.2-1.99,7.8-3.11,4.18-1.81,7.06-1.75,11.28-.18,5.65,2.1,12.65.77,18.42-.31,2.38-.45,4.98-1.01,7.14-2.21.98-1.55,1.57-3.44,2.15-5.11.62-1.8,1.46-3.95,2.18-6.21-.02,0-.03-.01-.05-.02.03-.03.06-.06.08-.09.24-.77.47-1.54.66-2.32l-.02.02c.86-2.62,1.26-5.32.33-8.45-.08-.26-.45-.2-.46.06-.18,3.8-.71,6.85-2.45,10.29,0,0,0,.02,0,.02-5.16,3.44-11.56,5.49-17.67,4.14-3.36-.74-6.61-2.22-10.12-2.12-3.58.1-7.24.58-10.71,1.44-3.98.98-7.55,2.53-11.29,4.13-3.76,1.62-7.42,1.62-11.38,2.3-.58.1-1.13.23-1.67.36.19-1.73.42-3.46.82-5.16.54-2.29.95-4.66,1.21-7.03.16-.84.66-1.49,1.22-2.12.06,0,.11,0,.17,0,.19,0,.37-.02.56-.02-1.36,3.12-1.56,7.42-1.35,10.59.02.25.4.33.46.06.53-2.14.9-4.28,1.57-6.38.46-1.43,1-2.86,1.26-4.34.33-.02.65-.04.98-.06.04.75.28,1.44.24,2.24-.06,1.1-.1,2.19-.13,3.29,0,.17.26.21.29.04.23-1.05.33-2.19.65-3.22.27-.89.71-1.6.86-2.48,1.9-.15,3.79-.35,5.69-.56,4.95-.53,9.95-1.06,14.95-1.66,3.09.27,6.47-.43,9.43-.6,4.85-.28,9.69-.72,14.52-1.15.37-.03.38-.58,0-.58-2.5.02-5.01.03-7.52.07,5.25-.85,10.46-1.85,15.59-3.09.11-.03.09-.2-.03-.2-16.13.85-32.32,3.54-48.34,5.58-4.54.58-8.77,1.06-13.28-.12-3.33-.88-6.64-1.88-9.95-2.86,1.24-.09,2.48-.25,3.68-.5,10.09,2.75,20.57,2.15,30.4-1.9.23-.1.15-.47-.11-.39-8.9,2.95-18.41,3.47-27.48,1.51.83-.3,1.64-.64,2.41-1.06,2.83-1.52,5.14-4.71,8.17-5.66,3.04-.96,6.3-1.4,9.47-1.69,4-.37,7.96-.45,11.92.3,2.7.51,5.46,1.2,8.21,1.29,3.11.11,6.2-.27,9.18-1.18,2.34-.72,3.93-1.82,5.87-2.95-1.54-.99-3.07-1.99-4.61-2.98-1.44-1.37-2.8-2.87-4.89-2.73-.2.01-.24.28-.05.35.72.25,1.32.66,1.88,1.12-1.06.22-2.13.49-3.26.58-3.51.29-7.04.5-10.56.62-7.43.25-14.87-1.12-22.25.13-3.87.66-7.57,1.7-11.18,3.23-3.57,1.5-6.65,1.67-10.49,1.43-2.52-.16-5.04-.13-7.49.21-.84-.5-1.65-.84-2.64-.89-.07,0-.08.09-.03.12.43.31.89.63,1.28.99-2.5.47-4.9,1.31-7.13,2.63-1.2.05-2.4.07-3.59.03-1.77-.06-3.25-.88-4.93-1.14-2.55-.82-5.1-1.66-7.64-2.53-.39-.16-.78-.29-1.19-.4-1.42-.49-2.85-.97-4.27-1.46.01-.03.02-.06.03-.08.18-.07.36-.14.54-.22.44,0,.89-.02,1.35-.04,2.55.61,5.27,1.22,7.86,1.14.19,0,.29-.28.1-.37-1.19-.57-2.47-1-3.78-1.37.75-.19,1.47-.42,2.11-.73.23-.11.45-.21.66-.31,1.85.68,3.73,1.3,5.66,1.69.29.06.48-.33.21-.49-1.3-.76-2.65-1.39-4.04-1.97,1.33-.49,2.67-.79,4.25-.74,1.97.07,3.91.19,5.88.06,3.03-.2,5.65-1.93,8.19-3.41,3.55-2.08,6.17-2.38,10.22-1.94,3.42.38,6.87.45,10.32.52-1.75.08-3.48.23-5.2.66-.1.02-.07.17.02.17,4.75,0,9.4,1.35,14.09.02.56-.16,1.12-.33,1.67-.51,1.19-.08,2.34-.3,3.38-.76,3.93-1.72,7.41-3.6,11.81-3.86,1.27-.07,2.52-.08,3.77-.03,1.12.52,2.23,1.06,3.34,1.63,2.59,1.35,4.72,3.2,7.52,4.18.17.06.24-.18.11-.27-3.06-2.29-5.39-5.19-8.82-6.93-1.78-.9-3.58-1.66-5.43-2.25-.67-.31-1.34-.62-2.02-.9-1.12-.46-2.27-.87-3.43-1.25-1.69-.1-3.36,0-4.83.47-3.73,1.2-7.15,2.92-11.07,3.54-4.81.76-9.78.77-14.54-.4-3.31-.81-6.32-1.57-9.75-1.18-3.5.4-7.4,1.22-10.61,2.71-3.81,1.77-7.49,3.66-11.63,4.59-6.33,1.42-13.34.1-18.9,3.79-1.12.09-2.25.22-3.35.12-4.89-1.51-9.82-2.86-14.81-3.92-1.74-.37-3.48-.68-5.22-.97,1.8-.81,3.7-1.62,5.61-2.31,2.7.03,5.32.36,8.09.65.09.01.1-.12.02-.15-1.53-.52-3.11-1.1-4.72-1.55.32-.08.65-.17.97-.25,3.75-.85,7.27-.01,11.04-.2,3.16-.16,6.33-.58,9.33-1.66,3.25-1.18,6.24-1.68,9.61-2.33,3.67-.71,6.98-2.64,10.57-3.69,3.58-1.05,7.23-1.87,10.94-2.25,1.77-.19,3.53-.29,5.3-.34,2.37.4,4.76.68,7.07,1.08,3.56.62,7.14,1.39,10.77,1.27.06,0,.1-.1.03-.13-3.69-1.66-7.74-2.24-11.7-2.93-3.05-.53-6.26-1.24-9.41-1.45-2.2-.37-4.41-.75-6.62-1.12-.22-.04-.45-.08-.67-.12-4.41.18-8.87.61-13.03,1.18-6.82.93-13.4,4-20.04,5.76-7.67,2.04-15.51,4.19-23.52,4.04-2.75-.05-4.5.68-6.91,1.93-1.83.95-4.09,1.75-5.7,3.14-1.24-.08-2.48-.16-3.72-.23-3-.15-6.04-.36-9.09-.52,1.61-2.17,4.66-2.62,7.43-3.6,1.58-.56,2.6-1.8,3.66-2.99.05,0,.1,0,.14,0,.64,0,1.29.27,1.87.53.18.08.34-.17.16-.27-.51-.3-1.07-.59-1.64-.84.12-.13.24-.25.37-.38,2.14,0,4.26.14,6.42.16.19,0,.29-.29.1-.38-1.4-.64-2.94-1.01-4.51-1.21,3.38-1.49,7.18-1.1,10.68-2.22,3.45-1.1,6.76-2.69,10.3-3.5,6.44-1.47,12.98-2.49,19.53-3.33,4.06.12,8.12,1,12.21,1.16.18,0,.18-.23.04-.28-4.4-1.77-9.74-2.99-14.61-2.32h-.1s-.06,0-.09.01h0c-7.76-.05-15.48,1.56-23.07,3.01-5.27,1.01-10.52,2.13-15.75,3.34-3.04.89-6.32,1.73-8.83,3.69-1.48,1.15-2.38,2.54-3.67,3.82-1.52,1.5-3.67,1.8-5.53,2.71-.82.4-1.92.86-2.85,1.47-.81.05-1.63.1-2.45.08-.84-.02-1.67-.04-2.47.05-1.64-.18-3.13,0-3.99,1.03-2.51,3.02-3.78,6.06-3.61,9.99.03.6.86.58.92,0,.17-1.89.28-3.99,1.42-5.59.37-.52,1.06-1.43,1.84-2.19.02.01.04.02.06.03,0,.47-.13,1.2-.2,1.68-1.68,4.37-1.36,10.47-.08,14.29.03.1.2.09.2-.03-.31-4.61.87-8.47,2.03-12.58.69-1.53,1.51-3,2.3-4.46.72.06,1.44.11,2.17.18-.01.1-.02.2-.02.31.04,3.66-2.87,6.14-1.87,10.02.75,2.91,2.98,7.13.9,9.82-2.51-.32-5.02-.7-7.45-1.43-.64-.2-.92.67-.43,1.02ZM139.12,233.36c1.46-.47,2.9-.35,4.42-.37,2.06-.03,4.16-.61,6.04-1.41.14-.06.27.13.12.21-1.48.87-2.97,1.48-4.65,1.84-1.89.4-3.83.09-5.7.57-.55.14-.76-.67-.23-.84ZM144.76,248.88c2.75.62,5.81,1.6,8.35,2.86.19.1.11.44-.11.42-2.84-.31-5.98-1.29-8.56-2.5-.46-.21-.12-.88.33-.78ZM193.61,237.01c1.76.32,3.47.51,5.24.69.11.01.14.16.03.2-1.7.6-3.8.55-5.5-.04-.53-.19-.32-.94.23-.84ZM177.67,259.31c1.39.71,2.85.92,4.35,1.23,1.39.29,2.77,1.34,3.94,2.07.12.07.04.27-.1.23-1.76-.56-3.44-1.45-5.28-1.64-1.38-.14-2.19-.67-3.12-1.62-.14-.14.03-.35.2-.26ZM201.87,259.16c-.15.05-.3.1-.45.15.07-.04.13-.08.2-.12.09,0,.17-.01.25-.02ZM183.87,269.79c-.02.05-.04.11-.06.16-.01-.04-.02-.08-.03-.13.03,0,.06-.02.09-.03ZM235.04,250.57c-1.5.19-2.98.27-4.48.23-.66-.02-.66-1.07,0-1.03,1.49.1,2.99.13,4.48.09.47-.02.44.66,0,.72ZM233.19,251.83c.72.1,1.41.22,2.11.39.36.08.26.6-.08.62-.73.03-1.44.02-2.16-.02-.73-.03-.6-1.09.13-.99ZM220.37,283.05c-.08-.05-.16-.08-.25-.12.11-.04.22-.08.33-.13-.03.08-.06.16-.08.24ZM205.07,284.92c.08-.4.7-.3.7.1.02,2.37-.39,4.91-.92,7.21-.03.15-.26.11-.27-.03-.08-2.38,0-4.93.48-7.27ZM186.4,287.3c-.79-.37-1.58-.75-2.38-1.14,3.01-3,1.83-7.81,1.75-11.87-.05-2.41.34-4.66,2.09-6.43,3,.62,6.02,1.06,8.93,1.15.29,0,.32-.4.07-.49-2.45-.81-4.91-1.65-7.38-2.46.12-.17.24-.35.36-.54.16-.26.25-.52.31-.77,1.53.05,3.06.39,4.86.73.92.18,1.84.34,2.77.51.63.21,1.25.42,1.88.62,2.03.67,4.08,1.38,6.17,1.84.26.44.5.88.72,1.34.37,4.57-.44,9.1-.66,13.65-4.27,1.3-7.34,3.96-9.15,8.26-3.49-1.34-6.95-2.81-10.32-4.39ZM108.23,240.96c2.03-.34,4.51.57,6.37,1.31.2.08.19.41-.05.4-2.07-.11-4.14-.57-6.2-.8-.47-.05-.67-.81-.12-.9ZM100.15,233.23c-.52.33-1.01-.5-.49-.83,1.87-1.2,2.9-3.44,5.16-4.05.42-.11.58.51.18.65-2.07.72-3.05,3.07-4.85,4.23ZM91.3,240.45c-.92.02-1.84-.08-2.75-.24-.58-.1-.33-.98.24-.88.87.15,1.74.37,2.57.69.23.08.2.44-.06.44ZM94.25,236.56c.06-.02.11-.05.17-.07-.05.04-.09.07-.13.11-.02-.01-.03-.02-.04-.03Z"/>
        <path class="cls-5" d="M221.71,296.65c.82-.24,1.64-.39,2.45-.69.79-.29,1.49-.75,2.27-1.06.4-.16.6.39.38.65-1.08,1.29-3.3,2.14-4.95,2.17-.63,0-.74-.91-.14-1.08Z"/>
        <path class="cls-5" d="M182.52,231.51c-2.26.35-4.83-.39-6.98.08-4.39.95-8.73,3.69-12.96,5.21-.59.21-1.01-.77-.43-1.02,4.3-1.85,8.73-3.51,13.14-5.07,1.75-.62,3.98.3,5.75.27,2.51-.05,5.06-.41,7.56-.63.13-.01.16.2.03.22-2.04.32-4.08.63-6.12.95Z"/>
        <path class="cls-5" d="M232.53,242.17c-1.19-.03-2.4.26-3.49.72-.58.25-.92-.55-.34-.8.93-.39,1.87-.62,2.87-.71,1.34-.12,2.6.46,3.92.45.34,0,.33.48,0,.51-1,.09-1.97-.15-2.97-.18Z"/>
        <path class="cls-4" d="M205.77,285.01c.02,2.37-.39,4.91-.92,7.21-.03.15-.26.11-.27-.03-.08-2.38,0-4.93.48-7.27.08-.4.7-.3.7.1Z"/>
        <path class="cls-4" d="M177.67,259.31c1.39.71,2.85.92,4.35,1.23,1.39.29,2.77,1.34,3.94,2.07.12.07.04.27-.1.23-1.76-.56-3.44-1.45-5.28-1.64-1.38-.14-2.19-.67-3.12-1.62-.14-.14.03-.35.2-.26Z"/>
        <path class="cls-4" d="M144.76,248.88c2.75.62,5.81,1.6,8.35,2.86.19.1.11.44-.11.42-2.84-.31-5.98-1.29-8.56-2.5-.46-.21-.12-.88.33-.78Z"/>
        <path class="cls-4" d="M108.23,240.96c2.03-.34,4.51.57,6.37,1.31.2.08.19.41-.05.4-2.07-.11-4.14-.57-6.2-.8-.47-.05-.67-.81-.12-.9Z"/>
        <path class="cls-4" d="M91.3,240.45c-.92.02-1.84-.08-2.75-.24-.58-.1-.33-.98.24-.88.87.15,1.74.37,2.57.69.23.08.2.44-.06.44Z"/>
        <path class="cls-4" d="M198.88,237.9c-1.7.6-3.8.55-5.5-.04-.53-.19-.32-.94.23-.84,1.76.32,3.47.51,5.24.69.11.01.14.16.03.2Z"/>
        <path class="cls-4" d="M235.04,250.57c-1.5.19-2.98.27-4.48.23-.66-.02-.66-1.07,0-1.03,1.49.1,2.99.13,4.48.09.47-.02.44.66,0,.72Z"/>
        <path class="cls-4" d="M233.19,251.83c.72.1,1.41.22,2.11.39.36.08.26.6-.08.62-.73.03-1.44.02-2.16-.02-.73-.03-.6-1.09.13-.99Z"/>
        <path class="cls-4" d="M143.54,233c2.06-.03,4.16-.61,6.04-1.41.14-.06.27.13.12.21-1.48.87-2.97,1.48-4.65,1.84-1.89.4-3.83.09-5.7.57-.55.14-.76-.67-.23-.84,1.46-.47,2.9-.35,4.42-.37Z"/>
        <path class="cls-4" d="M100.15,233.23c-.52.33-1.01-.5-.49-.83,1.87-1.2,2.9-3.44,5.16-4.05.42-.11.58.51.18.65-2.07.72-3.05,3.07-4.85,4.23Z"/>
        <path class="cls-4" d="M69.2,254.26c1.96,8.78,14.06,9.61,21.16,10.32,8.25.82,16.57,3.46,24.6,5.5,3.58.91,7.12,1.68,10.74,2.43,1.23.25,10.39,1.46,10.66,2.44-.04-.15-.11-.3-.14-.45.42.16.78.42,1.12.71.28.08.57.14.85.22,2.01.58,4.43.49,6.51.84,2.27.39,4.53.86,6.77,1.42,4.5,1.12,8.91,2.58,13.22,4.28,4.28,1.69,8.45,3.65,12.53,5.76,3.93,2.04,7.54,4.54,11.89,5.71,12.13,3.24,24.6,8.91,37.41,6.44,7.07-1.33,14.16-3.15,21.05-5.27,1.99-.61,3.93-1.35,5.91-1.98,2.09-.67,4.07-.33,6.14-1.22,1.8-.78,3.71-1.3,5.49-2.14,2.87-1.37,4.57-3.71,5.61-6.67,1.64-4.63,3.47-9.59,4.19-14.47,1.42-9.6-7.13-13.41-14.07-17.9-5.18-3.36-10.36-6.71-15.54-10.07-4.26-2.76-8.48-5.74-13.11-7.87-9.75-4.48-20.81-5.44-31.29-7.22l-35.12-5.96c-10.69-1.81-20.79-2.82-31.58-1.07-11.39,1.84-22.7,4.22-33.9,7-7.69,1.91-16.81,3.37-22.71,9.1-2.7,2.08-4.95,4.72-6.47,8.03-1.69,3.66-2.84,8.06-1.94,12.09ZM87.84,232.47c-.12.44-.65.65-1.03.83-.54.25-1.08.5-1.64.72-.67.28-1-.85-.3-1.1.52-.19,1.04-.34,1.57-.51.4-.12.96-.32,1.35-.08.05.03.07.08.06.14ZM266.42,258c-1.19-.63-2.38-1.24-3.5-1.98-.45-.29-.06-.97.42-.71,1.19.63,2.29,1.39,3.41,2.13.35.23.04.76-.33.56ZM221.71,296.65c.82-.24,1.64-.39,2.45-.69.79-.29,1.49-.75,2.27-1.06.4-.16.6.39.38.65-1.08,1.29-3.3,2.14-4.95,2.17-.63,0-.74-.91-.15-1.08ZM97.03,248.5c.01-.39.6-.39.6,0,.04,3.28.49,6.53.03,9.8-.08.58-.89.36-.94-.13-.37-3.24.19-6.44.31-9.68ZM74.83,248.51c-.16-3.93,1.1-6.98,3.61-9.99.86-1.03,2.36-1.22,3.99-1.03.8-.08,1.63-.06,2.47-.04.82.02,1.64-.02,2.45-.08.93-.61,2.03-1.07,2.85-1.47,1.86-.9,4.01-1.2,5.53-2.71,1.29-1.28,2.19-2.67,3.67-3.82,2.51-1.96,5.8-2.8,8.83-3.69,5.23-1.21,10.48-2.34,15.75-3.34,7.59-1.45,15.31-3.05,23.07-3.02h0s.06,0,.09,0h.1c4.87-.68,10.22.54,14.61,2.32.14.06.14.29-.04.28-4.09-.16-8.15-1.04-12.21-1.16-6.56.84-13.09,1.86-19.53,3.33-3.54.81-6.85,2.39-10.3,3.5-3.49,1.12-7.29.73-10.68,2.22,1.57.2,3.1.58,4.51,1.21.19.08.09.38-.1.38-2.15-.02-4.27-.16-6.42-.16-.12.12-.25.25-.37.38.57.24,1.13.54,1.64.84.18.1.02.35-.16.27-.58-.25-1.23-.52-1.87-.53-.05,0-.09,0-.14,0-1.05,1.19-2.07,2.43-3.66,2.99-2.77.98-5.82,1.43-7.43,3.6,3.05.16,6.08.37,9.09.52,1.24.06,2.48.14,3.72.23,1.61-1.39,3.87-2.19,5.7-3.14,2.41-1.25,4.16-1.98,6.91-1.93,8,.15,15.84-2,23.52-4.04,6.65-1.77,13.23-4.84,20.04-5.76,4.16-.57,8.62-1,13.03-1.18.23.04.45.08.67.12,2.21.37,4.41.75,6.62,1.12,3.15.21,6.35.92,9.41,1.45,3.96.69,8.01,1.28,11.7,2.93.06.03.03.12-.03.13-3.63.12-7.2-.65-10.77-1.27-2.31-.4-4.71-.68-7.07-1.08-1.76.05-3.53.16-5.3.34-3.71.39-7.36,1.21-10.94,2.25-3.59,1.05-6.89,2.98-10.57,3.69-3.37.65-6.36,1.15-9.61,2.33-2.99,1.09-6.17,1.5-9.33,1.66-3.77.19-7.29-.66-11.04.2-.32.07-.64.16-.97.25,1.61.45,3.19,1.03,4.72,1.55.08.03.07.16-.02.15-2.77-.29-5.39-.62-8.09-.65-1.91.68-3.81,1.49-5.61,2.31,1.75.28,3.49.6,5.22.97,5,1.06,9.92,2.42,14.81,3.92,1.1.1,2.22-.04,3.35-.12,5.56-3.69,12.56-2.36,18.9-3.79,4.13-.93,7.82-2.82,11.63-4.59,3.2-1.49,7.11-2.31,10.61-2.71,3.43-.39,6.44.37,9.75,1.18,4.75,1.16,9.73,1.15,14.54.39,3.92-.62,7.34-2.34,11.07-3.54,1.47-.47,3.14-.57,4.83-.47,1.16.37,2.31.78,3.43,1.25.68.28,1.36.59,2.02.9,1.85.6,3.65,1.35,5.43,2.25,3.43,1.74,5.77,4.64,8.82,6.93.12.09.06.32-.11.27-2.8-.97-4.93-2.83-7.52-4.18-1.1-.58-2.22-1.11-3.34-1.63-1.25-.05-2.5-.05-3.77.03-4.41.26-7.88,2.14-11.81,3.86-1.04.46-2.19.67-3.38.76-.55.18-1.11.35-1.67.51-4.69,1.33-9.35-.02-14.09-.02-.1,0-.12-.15-.02-.17,1.72-.43,3.46-.57,5.2-.66-3.45-.07-6.9-.14-10.32-.51-4.05-.45-6.66-.14-10.22,1.94-2.54,1.49-5.16,3.21-8.19,3.41-1.97.13-3.91.01-5.88-.06-1.57-.06-2.92.25-4.25.74,1.39.58,2.75,1.21,4.04,1.97.27.16.08.55-.21.49-1.93-.39-3.8-1.01-5.66-1.69-.22.1-.44.2-.66.31-.64.31-1.36.54-2.11.73,1.31.37,2.58.8,3.78,1.37.19.09.08.37-.1.37-2.59.08-5.31-.54-7.86-1.14-.46.02-.91.04-1.35.04-.18.08-.36.15-.54.22,0,.03-.02.06-.03.08,1.42.49,2.84.97,4.27,1.46.4.11.8.25,1.19.4,2.54.86,5.09,1.71,7.64,2.53,1.68.27,3.16,1.09,4.93,1.14,1.19.04,2.39.01,3.59-.03,2.23-1.33,4.63-2.16,7.13-2.63-.4-.37-.85-.69-1.28-.99-.05-.03-.04-.13.03-.12.99.05,1.8.39,2.64.89,2.45-.34,4.97-.37,7.49-.21,3.85.24,6.92.07,10.49-1.43,3.62-1.52,7.31-2.57,11.18-3.23,7.39-1.25,14.83.12,22.25-.13,3.52-.12,7.05-.32,10.56-.62,1.12-.1,2.2-.37,3.26-.58-.55-.47-1.16-.87-1.88-1.12-.19-.07-.16-.34.05-.35,2.09-.14,3.46,1.36,4.89,2.73,1.54.99,3.07,1.99,4.61,2.98-1.94,1.13-3.53,2.23-5.87,2.95-2.99.92-6.07,1.29-9.18,1.18-2.75-.1-5.51-.79-8.21-1.29-3.97-.75-7.93-.67-11.92-.3-3.17.29-6.43.74-9.47,1.69-3.03.95-5.34,4.14-8.17,5.66-.77.41-1.58.76-2.41,1.06,9.07,1.96,18.59,1.44,27.48-1.51.25-.08.34.29.11.39-9.83,4.05-20.3,4.65-30.4,1.9-1.21.25-2.44.41-3.68.5,3.31.97,6.61,1.98,9.95,2.86,4.51,1.19,8.74.71,13.28.12,16.02-2.05,32.2-4.73,48.34-5.58.11,0,.13.17.03.2-5.13,1.24-10.34,2.24-15.59,3.09,2.51-.04,5.02-.05,7.52-.07.38,0,.37.55,0,.58-4.84.43-9.68.87-14.53,1.15-2.96.17-6.35.87-9.43.6-5,.59-10,1.12-14.95,1.66-1.9.21-3.79.4-5.69.56-.15.88-.58,1.6-.86,2.48-.31,1.02-.42,2.17-.65,3.22-.03.17-.3.13-.3-.04.03-1.1.07-2.19.13-3.29.04-.8-.2-1.49-.24-2.24-.32.02-.65.04-.98.06-.25,1.48-.8,2.91-1.25,4.34-.68,2.1-1.05,4.24-1.57,6.38-.07.27-.44.19-.46-.06-.21-3.17-.01-7.47,1.35-10.59-.19,0-.37.02-.56.02-.06,0-.11,0-.17,0-.57.63-1.06,1.27-1.22,2.12-.25,2.36-.67,4.74-1.21,7.03-.4,1.7-.63,3.43-.82,5.16.54-.14,1.1-.26,1.67-.36,3.96-.68,7.62-.68,11.38-2.3,3.74-1.61,7.31-3.15,11.29-4.13,3.48-.86,7.14-1.34,10.72-1.44,3.51-.1,6.76,1.38,10.12,2.12,6.11,1.36,12.51-.7,17.67-4.14,0,0,0,0,0-.01,1.74-3.44,2.27-6.49,2.45-10.29.01-.26.38-.32.46-.06.93,3.13.53,5.83-.33,8.45l.02-.02c-.2.78-.42,1.55-.66,2.32-.03.03-.05.06-.08.09.02,0,.03.01.05.02-.72,2.25-1.56,4.41-2.18,6.21-.58,1.68-1.16,3.56-2.15,5.11-2.16,1.2-4.76,1.76-7.14,2.21-5.77,1.08-12.77,2.41-18.42.31-4.22-1.57-7.09-1.63-11.28.18-2.6,1.13-5.03,2.43-7.8,3.12-3.26.81-6.61.12-9.92.99-2.43.64-5.04,1.48-7.08,3.01,3.58.9,7.2,1.53,10.79,2.48.11.03.12.21,0,.24-8.91,1.58-18.62-3.01-26.5-6.59-4.55-2.07-8.99-4.41-13.55-6.47-5.21-2.34-10.64-3.9-15.93-6.01-.32-.13-.32-.69.09-.66,3.75.3,7.48,1.37,11.13,2.8-.46-4.19-.46-8.17,1.34-12.19.81-1.82.99-2.92.62-4.9-.17-.9-.43-2.25-.06-3.13.18-.43.37-.81.58-1.15-1.41-.73-2.82-1.56-4.2-2.4-3.21-1.05-6.43-2.09-9.65-3.12-1.29-.16-2.59-.26-3.88-.27-.29,0-.58,0-.86.02.01.58-.05.94-.19,1.76-.32,1.81.54,3.52.98,5.22.52,1.95-.15,3.75-.96,5.49-1.57,3.39-2.89,6.04-2.59,9.88-4.22-1.24-8.44-2.45-12.67-3.6-.5-3.68-1.24-6.98.36-10.48,1.72-3.75,2.25-8.06,2.47-12.22-2.42-1.53-5.44-2.41-7.92-3.4-1.3-.36-2.6-.71-3.91-1.05-.07.21-.16.42-.25.62-.25.54-.62.91-.7,1.52-.06.41-.62.25-.66-.09-.06-.49-.22-.94-.29-1.42-.29.15-.58.31-.79.58-.17.22-.28.54-.36.89-.31,3.14-1.34,6.23-2.03,9.28-.03.14-.24.1-.25-.03-.13-3-.21-6.11.53-9.04,0-.4.02-.78.06-1.16-.12-.12-.11-.31.05-.41,0,0,0,0,0,0,.02-.12.05-.23.08-.35-.02-.2-.05-.4-.09-.6-.06-.25-.16-.49-.27-.73-.63-.08-3.06-.07-5.13-.05.01.07.03.14.03.21.07,1.11.1,1.14-.27,2.14-.73,1.98.49,3.54,1.07,5.31.53,1.58-.08,3.75-.81,5.15-1.6,3.07-3.67,5.45-3.28,9.04,2.22.57,4.44,1.14,6.67,1.69.17.04.12.27-.04.29-3.66.31-7.07-.38-10.58-1.33-4.11-1.11-8.35-1.46-12.47-2.46-.65-.16-.47-1.08.15-1.12,2.56-.16,5.15.2,7.69.75-.24-3.45,1.08-6.66,1.54-10.19.4-3.05-1.32-4.27-2.45-6.78-.72-1.6-.4-3.26-1.15-4.8-.06-.13-.11-.28-.13-.43-1.31-.08-2.62-.16-3.93-.23,0,.03,0,.06-.02.09-.39,1.44-.93,2.79-1.46,4.18-.11.29-.6.27-.57-.08.11-1.45.19-2.86.42-4.28-.69-.04-1.38-.07-2.07-.11-.09,1.38-.83,2.65-.95,4.04-.02.21-.33.22-.33,0,0-1.38-.53-2.76-.4-4.14-1.09-.06-2.17-.13-3.26-.2-.06.21-.11.43-.15.67-.23,1.33-.71,2.35-1.32,3.57-1.28,2.54-1.23,5.36-.57,8.04.57,2.3-.33,5.31,0,7.7.01.04.02.07.03.11.03.1.03.21.05.31.02.07.03.15.05.23,1.23.28,2.44.63,3.63,1.09.35.14.22.63-.15.56-.95-.17-1.94-.27-2.95-.34.02.07.03.14.03.21-.86-.1-1.72-.21-2.59-.33-4.81-.14-9.84-.06-13.69-2.81-.49-.35-.21-1.22.43-1.02,2.43.73,4.93,1.11,7.45,1.43,2.08-2.69-.15-6.91-.9-9.82-1-3.87,1.92-6.36,1.87-10.02,0-.11.01-.21.02-.31-.72-.07-1.45-.12-2.17-.18-.79,1.46-1.61,2.94-2.3,4.46-1.16,4.11-2.33,7.97-2.03,12.58,0,.12-.16.13-.2.03-1.28-3.83-1.6-9.92.08-14.29.07-.48.19-1.21.2-1.68-.02-.01-.04-.02-.06-.03-.78.75-1.48,1.67-1.84,2.19-1.14,1.61-1.24,3.7-1.42,5.59-.05.58-.89.6-.92,0ZM235.5,242.35c-1,.09-1.97-.15-2.97-.18-1.19-.03-2.4.26-3.49.72-.58.25-.92-.55-.34-.8.94-.39,1.87-.62,2.87-.71,1.34-.12,2.6.46,3.93.45.34,0,.32.48,0,.51ZM188.64,230.56c-2.04.32-4.08.63-6.12.95-2.26.35-4.83-.39-6.98.08-4.39.95-8.73,3.69-12.96,5.21-.59.21-1.01-.77-.43-1.02,4.3-1.85,8.73-3.51,13.14-5.07,1.75-.62,3.98.3,5.75.27,2.51-.05,5.06-.41,7.57-.63.12-.01.15.2.03.22Z"/>
      </g>
      <g>
        <path class="cls-5" d="M16.51,0l131.01,335.17c.39,1,.34,2.08-.07,3L9.59,0h6.92Z"/>
        <path class="cls-3" d="M9.59,0l137.86,338.17c.41-.92.46-1.99.07-3L16.51,0h2.31l130.7,334.39c1.21,3.09-.32,6.6-3.4,7.83l-.09.04c-.72.29-1.48.43-2.24.43-2.48,0-4.68-1.48-5.61-3.77L0,0h9.59Z"/>
      </g>
    </g>
    <path class="cls-4" d="M184.02,286.3c3.01-3,1.83-7.81,1.75-11.87-.05-2.41.34-4.66,2.09-6.44,3,.62,6.02,1.06,8.93,1.15.29,0,.32-.4.07-.48-2.45-.81-4.91-1.66-7.38-2.46.12-.17.24-.35.36-.54.16-.27.25-.52.31-.78,1.53.05,3.06.39,4.86.73.92.18,1.84.34,2.77.51.63.21,1.25.42,1.88.63,2.03.67,4.08,1.38,6.17,1.83.26.44.5.88.72,1.34.37,4.57-.44,9.1-.66,13.65-4.27,1.3-7.34,3.96-9.15,8.26-3.49-1.34-6.95-2.81-10.32-4.39-.79-.37-1.58-.75-2.38-1.15Z"/>
    <g>
      <path class="cls-2" d="M87.19,276.12c.43,1.61,1.31,2.17,2.73,2.84,1.16.55,2.28.5,3.48.41-.34-.58-.48-1.25-.23-2.02.17-.51.87-.51,1.04,0,.78,2.35,3.61,3.2,5.82,2.97.33-.03.45.47.17.62-1.32.69-3.18.88-4.57.25-.47-.21-.95-.5-1.37-.84-.02.02-.05.03-.07.05-.97.38-1.71.95-2.79,1.03-.48.03-.92-.01-1.35-.12,0,.3-.02.61-.03.93-.02.78.78,1.37,1.34,1.78,1.24.9,2.56,1.24,4.04,1.52.72.14.49,1.16-.16,1.21-1.9.16-4.12.07-5.69-1.12-.78-.59-1.29-1.32-1.6-2.25-.3-.92.08-1.97.34-2.88-1.11-.97-1.66-2.97-1.66-4.28,0-.33.49-.4.57-.08Z"/>
      <path class="cls-2" d="M93.74,292s.04.03.06.04c.14.1.15.28.08.41.1.29.73.85.87.98.47.45,1.07.72,1.67.96.83.33,1.74.4,2.63.4-.16-.67-.16-1.38-.25-2.08-.1-.8-.3-1.8.44-2.33.24-.17.47.15.37.37-.58,1.2.57,3.12,1.37,3.95.62.64,1.79,1.04,2.66.76.68-.23,1.12.67.67,1.15-1.2,1.29-2.89,1.04-4.07.04-1.87.75-3.87.31-5.39-1.06-.6-.55-2.33-2.72-1.47-3.53.09-.08.25-.12.36-.05Z"/>
      <path class="cls-2" d="M102.42,288.1c-.02-.28.41-.4.54-.15.41.82,1.2,1.35,2.1,1.33-.08-.49-.08-.97.04-1.43.17-.64,1.02-.44,1.09.15.18,1.62.67,2.54,2.25,3.16,1.18.46,2.17-.11,3.32-.2.21-.02.39.23.32.42-.58,1.68-3.24,1.97-4.64,1.27-.75-.37-1.4-1.07-1.85-1.88-1.55.18-3.06-1.12-3.17-2.67Z"/>
      <path class="cls-2" d="M108.15,284.12c-.5-.82.7-1.44,1.24-.73.76.98,2.14.64,3.07.16.33-.17.63.23.39.51-1.24,1.44-3.58,1.9-4.7.06Z"/>
      <path class="cls-2" d="M115.52,294.7c-.11,1.17.13,2.08.9,2.98.62.73,1.4,1.45,2.41,1.1.36-.13.67.4.37.64-1.03.88-2.53.55-3.45-.33-1.1-1.04-1.25-3.11-.83-4.48.1-.32.64-.28.6.08Z"/>
      <path class="cls-2" d="M138.26,284.12c1.21,2,2.87,3.4,5.27,2.3.4-.18.86.31.5.64-2.33,2.14-7.13.99-6.88-2.64.04-.58.79-.83,1.11-.3Z"/>
      <path class="cls-2" d="M151.33,288.4c-1.76-.43-2.8-1.76-2.89-3.56-.04-.67,1-.8,1.15-.16.53,2.23,3.79,2.81,5.35,1.37.31-.28.88.11.61.47-.95,1.24-2.58,2.29-4.22,1.88Z"/>
      <path class="cls-2" d="M145.41,300.27c-1.26.33-2.63-.25-3.6-1.03-.92-.74-1.27-2.01-1.2-3.15.02-.4.68-.55.75-.1.13.87.66,1.55,1.38,2.05.84.57,1.73.55,2.67.79.72.18.72,1.26,0,1.44Z"/>
      <path class="cls-2" d="M115.75,302.93c.05.81.41,1.36.92,1.72.21-.07.5.07.58.31.9.36,2.04.38,2.96.33.41-.03.46.57.09.68-.81.25-1.76.52-2.66.52.35.83.93,1.45,1.89,1.95,1.16.61,2.52.5,3.77.67.58.08.53,1.01,0,1.12-1.74.38-3.81.4-5.36-.58-1.32-.83-1.7-2.07-1.66-3.43-.03-.01-.05-.02-.08-.03-1.23-.59-1.75-2.11-1.26-3.37.16-.42.76-.36.79.11Z"/>
      <path class="cls-2" d="M158.79,295.18c-.47,1.47-.19,2.62.88,3.74.95,1,2.46,1.27,3.75,1.12.41-.05.44.5.19.69-1.59,1.21-3.86.85-5.15-.59-1.19-1.33-1.18-3.73-.17-5.16.17-.24.6-.1.5.21Z"/>
      <path class="cls-2" d="M146.41,304.22c.41,1.9,2.5,2.7,4.09,1.59.28-.2.68.2.47.47-.65.87-1.55,1.26-2.44,1.28.98,2.91,4.54,3.41,6.35.73.22-.33.76-.13.65.28-.52,1.92-2.51,3.19-4.46,2.97-1.95-.22-3.5-2.2-3.5-4.11-1.22-.37-2.21-1.48-2.17-3.07.01-.56.88-.71,1-.14Z"/>
      <path class="cls-2" d="M165.42,312.81c.26,1.06.85,1.77,1.75,2.36.65.42,3.22.87,3.6-.2.16-.47.8-.27.73.2-.24,1.72-2.92,1.97-4.21,1.63-1.74-.45-2.75-2.18-2.85-3.87-.03-.57.84-.67.98-.13Z"/>
      <path class="cls-2" d="M164.82,305.77c-.16-.67.84-1.16,1.16-.49.79,1.69,2.26,1.79,3.8,1.04.16-.08.41.05.33.25-.99,2.58-4.73,1.51-5.28-.81Z"/>
      <path class="cls-2" d="M180.81,303.05c-.32-.48.34-1.18.82-.82.75.57,1.52.92,2.48.94.65.02,2.89-.56,2.5-1.64-.12-.34.36-.47.54-.23.85,1.11-.57,2.48-1.56,3.02.36.95.71,1.69,1.67,2.33,1.25.83,2.84.38,3.97-.39.35-.24.64.26.42.55-2.25,2.86-7.5,1.47-7.72-2.07-1.23.01-2.4-.62-3.13-1.69Z"/>
      <path class="cls-2" d="M179.38,314.01c1.05,1.2,2.39,1.23,3.86,1.01.3-.05.54.28.31.52-1.41,1.45-3.93.8-5.18-.51-.64-.67.41-1.71,1.01-1.01Z"/>
      <path class="cls-2" d="M205.6,308.37c1.25,1.35,3.51,2,5,.56.31-.3.71.14.46.46-.83,1.06-1.75,1.77-3.16,1.79-1.37.02-2.68-.84-3.31-2.03-.33-.63.5-1.33,1.01-.78Z"/>
      <path class="cls-2" d="M193.78,313.9c.83.46,1.94.2,2.51-.57.31-.42,1-.06.72.42-.76,1.32-2.42,1.73-3.76,1.05-.6-.31-.06-1.24.53-.91Z"/>
      <path class="cls-2" d="M241.03,315.94c1.06.38,2.25.38,3.27-.13.28-.14.66-.41.86-.72-.54-.23-1.04-.56-1.42-1.02-.41-.49.13-1.35.72-.94,1.56,1.09,3.01,1.5,4.88.93.41-.12.58.42.27.64-.89.63-2.08.86-3.21.72-.12.78-.96,1.54-1.54,1.89-1.37.84-2.95.24-4.22-.5-.46-.27-.15-1.07.37-.88Z"/>
      <path class="cls-2" d="M218.17,322.78c1.85,1.35,3.95,1.34,5.55-.4.24-.26.76.01.62.36-.24.59-.59,1.08-1.02,1.48,2.91.67,5.99-.39,6.71-3.66.07-.33.56-.24.57.08.1,4.31-5.03,7.13-8.37,4.29-1.64.73-3.7.37-4.9-1.3-.35-.49.35-1.2.84-.84Z"/>
      <path class="cls-2" d="M225.68,313.29c-.91.12-.96-1.41,0-1.45,1.1-.05,2.47-.1,3.19-1.05.24-.32.85-.15.7.29-.58,1.63-2.36,2.01-3.89,2.21Z"/>
      <path class="cls-2" d="M194.31,324.3c1.64.74,3.81.7,5.29-.37.35-.25.68.27.43.56-1.64,1.96-4.39,2.35-6.35.63-.48-.42.13-1.04.63-.82Z"/>
    </g>
    <path class="cls-4" d="M205.77,285.01c.02,2.37-.39,4.91-.92,7.21-.03.15-.26.11-.27-.03-.08-2.38,0-4.93.48-7.27.08-.4.7-.3.7.1Z"/>
    <path class="cls-4" d="M177.67,259.31c1.39.71,2.85.92,4.35,1.23,1.39.29,2.77,1.34,3.94,2.07.12.07.04.27-.1.23-1.76-.56-3.44-1.45-5.28-1.64-1.38-.14-2.19-.67-3.12-1.62-.14-.14.03-.35.2-.26Z"/>
    <path class="cls-4" d="M144.76,248.88c2.75.62,5.81,1.6,8.35,2.86.19.1.11.44-.11.42-2.84-.31-5.98-1.29-8.56-2.5-.46-.21-.12-.88.33-.78Z"/>
    <path class="cls-4" d="M198.88,237.9c-1.7.6-3.8.55-5.5-.04-.53-.19-.32-.94.23-.84,1.76.32,3.47.51,5.24.69.11.01.14.16.03.2Z"/>
    <path class="cls-4" d="M235.04,250.57c-1.5.19-2.98.27-4.48.23-.66-.02-.66-1.07,0-1.03,1.49.1,2.99.13,4.48.09.47-.02.44.66,0,.72Z"/>
    <path class="cls-4" d="M233.19,251.83c.72.1,1.41.22,2.11.39.36.08.26.6-.08.62-.73.03-1.44.02-2.16-.02-.73-.03-.6-1.09.13-.99Z"/>
    <path class="cls-4" d="M143.54,233c2.06-.03,4.16-.61,6.04-1.41.14-.06.27.13.12.21-1.48.87-2.97,1.48-4.65,1.84-1.89.4-3.83.09-5.7.57-.55.14-.76-.67-.23-.84,1.46-.47,2.9-.35,4.42-.37Z"/>
  </g>
  <rect class="cls-1" x="-121.11" y="245.93" width="124.43" height="458.94"/>
</svg>