<?xml version="1.0" encoding="UTF-8"?>
<svg id="object" xmlns="http://www.w3.org/2000/svg" viewBox="0 0 286.88 357.4">
  <defs>
    <style>
      .cls-1 {
        fill: #a6b9bc;
      }

      .cls-2 {
        fill: #32374e;
      }

      .cls-3 {
        fill: #b1501d;
      }

      .cls-4 {
        fill: #efe9df;
      }
    </style>
  </defs>
  <g>
    <g>
      <path class="cls-4" d="M161.87,357.4L77.88,33.4c-.28-1.09-.09-2.19.44-3.09l89.88,327.09h-6.32Z"/>
      <path class="cls-2" d="M168.2,357.4L78.32,30.31c-.53.9-.72,2.01-.44,3.09l83.99,323.99h-2.32L75.71,33.96c-.87-3.35,1.15-6.8,4.49-7.69l.1-.02c.78-.21,1.58-.27,2.38-.17,2.56.31,4.66,2.11,5.35,4.6l89.77,326.72h-9.6Z"/>
    </g>
    <g>
      <path class="cls-4" d="M151.09,70.34c1.27-.62,2.63-.3,3.91.24-.87.69-1.96,1.37-2.66.87-.44-.32-.83-.74-1.25-1.11Z"/>
      <path class="cls-4" d="M141.96,68.08c-.03-.14-.06-.28-.1-.41,1.21.19,2.04,1.04,2.58,2.22.18.4.29.82.37,1.23-.72-.28-1.39-.61-1.83-1.31-.33-.53-.63-1.19-1.02-1.73Z"/>
      <path class="cls-4" d="M124,64.86c1.01.1,1.57.9,2.08,1.69.01.08.02.15.03.23-.9-.27-1.81-.54-2.71-.81-.37-.22-.75-.43-1.13-.64.04-.07.05-.16.02-.24.57-.17,1.14-.29,1.7-.23Z"/>
      <path class="cls-4" d="M132.67,68.08h0c.22-.3.38-.63.49-1,.07.07.14.13.2.21.48.61.51,1.11.43,1.71-.32-.09-.63-.18-.95-.27,0-.2-.05-.42-.17-.65Z"/>
      <path class="cls-4" d="M110.9,59.23c-.52.27-.96.63-1.23,1.11-1.31-.56-2.59-1.18-3.85-1.82,1.82-.72,3.71-.67,5.08.72Z"/>
      <path class="cls-4" d="M203.53,61.7c.11-3.04-.56-6.08-1.4-9.2-.21.85-.45,1.68-.7,2.47.76.8.8,1.94.63,3.18-.07.56-1,.83-1.09.15-.14-1-.58-2.02-1.58-2.41-.98-.38-2.17-.22-3.2-.25-.29,0-.36-.36-.14-.52,1.28-.93,2.82-1.5,4.37-.84.06.02.1.06.15.08.2-2.86.18-5.74-1.18-8.35-.76-1.47-2.12-2.73-3.55-3.83.04.57,0,1.16-.12,1.77.87.66,1.53,1.67,1.95,2.65.63,1.47-.16,2.7.14,4.2.09.46-.59.82-.8.34-.33-.77-.42-1.54-.63-2.34-.25-.95-.9-1.7-1.5-2.46-1.41-1.76-4.15-1.61-6.16-1.65-.35,0-.56-.55-.19-.72,1.82-.81,3.71-1.38,5.52-.87-.55-5.9-8.39-5.18-13.13-5.54.88,1.05,1.32,2.45.89,3.8.74.73,1.18,1.74,1.09,2.83-.04.43-.58.5-.73.1-.88-2.34-4.78-3.12-6.79-1.84-.24.15-.49-.1-.45-.34.36-1.79,3.1-2.01,4.54-1.87.18.02.35.06.52.1-.02-.11-.03-.23-.05-.37-.15-1.05-.87-1.6-1.74-2.06-1.37-.72-3.38-.56-4.69.17-.24.14-.59-.15-.41-.41,1.32-1.78,3.33-2.28,5.44-1.69.62.17,1.21.5,1.72.92,1.09-.35,2.23-.68,3.38-.94-5.39-1.81-10.57-4.35-15.89-6.34-3.31-1.24-6.48-2.59-10.07-2.65-3-.06-5.52.42-8.31-.89-.3-.14-.14-.61.16-.61,1.22,0,2.43-.1,3.63-.23-3.14-.94-5.98-2.38-9.2-3.23-3.18-.84-6.31.22-9.21-1.25-.25-.06-.5-.11-.76-.13-1.3-.12-4.4-.01-4.39,1.95,0,.31-.42.34-.52.07-.61-1.8,1.28-2.95,2.71-3.51,1.06-.41,2.53-.43,3.82-.09-2.24-.93-4.43-1.95-6.63-3.05-1.91-.95-3.93-1.34-5.96-1.64.81.47,1.61.95,2.39,1.46.51.33.07,1.06-.47.81-2.82-1.34-5.66-2.43-8.51-3.31.39.76.68,1.61.93,2.47,2.25-.06,4.39,1.27,4.96,3.87.11.52-.6.86-.87.37-1.41-2.54-4.34-3.87-7.07-2.53-.3.15-.67-.26-.37-.48.8-.63,1.72-1,2.63-1.15-1.52-3.75-5.53-4.55-8.18-1.25-.37.45-1.13-.04-.96-.56.36-1.09,1.05-1.92,1.91-2.48-6.41-1.26-12.97-1.67-19.78-1.64-.37,0-.44-.54-.09-.64.81-.24,1.63-.44,2.46-.61-2.11-.54-4.29-.82-6.38-.15-2.43.79-5.75,2.19-8.33,1.77-1.01-.16-.63-1.53.22-1.63.26-.03.52-.09.79-.17-2.81-.79-5.58-1.31-8.58-.57-1.55.38-3.08.78-4.62,1.1.84.14,1.69.31,2.53.52.6.15.49,1.17-.15,1.1-7.09-.77-14.34.63-21.24,2.18-2.91.66-5.36,2.76-7.95,4.06.42.15.83.32,1.24.5.54.24.14,1.04-.38.92-4.24-1-8.72,1.24-11.35,4.56.85.31,1.66.7,2.34,1.1.58.33.18,1.17-.44,1.04-2.36-.49-5.64-.75-6.98,1.55-1.21,2.07-1.64,4.47-2.44,6.7,1.85-.7,3.52-.11,4.55,1.58.3.5-.38.99-.79.61-.77-.72-2-.7-2.96-.47-.72.17-2.58,1.03-2.51,1.95.04.56-.76.6-.93.12-.41-1.16.63-2.51,1.7-3.28.17-1.36.5-2.68.77-4.01-1.7,1.96-3.59,4.14-3.88,6.39-.34,2.69-.4,5.41-.65,8.11,1.02-.51,2.14-.89,3.21-1.25.66-.22.98.72.45,1.07-1.98,1.3-4.64,3.03-5.56,5.31-.63,1.57-.41,3.24-.7,4.84,1.53-.53,3.11-.96,4.72-1.34,0-2.69,3.01-5.65,5.71-4.26.5.26.13.95-.36.85-1.8-.34-2.28,1.45-2.84,2.87,2.66-.54,5.35-1,7.92-1.56,0-.02,0-.04.01-.06.26-1.04.86-1.98,1.69-2.66.21-.17.43-.32.66-.44.35-.42.75-.79,1.19-1.1-.21-.4-.29-.86-.53-1.25-.32-.52-1-.43-1.52-.45-.14,0-.27-.14-.22-.29.17-.46.38-.6.85-.76.46-.16.98,0,1.4.19.64.28,1.25,1.09,1.45,1.84,1.15-.35,2.33-.19,3.54.26.39.15.36.78-.1.77-1.13-.03-2.2.58-3.12,1.19-.19.13-.35.27-.5.42,1.51-.26,3.05-.41,4.54-.67,1.78-.31,3.54-.71,5.3-1.14-.29-.66-.6-1.24-1.21-1.83-1-.96-2.23-.58-3.4-.93-.2-.06-.23-.28-.11-.43.92-1.16,3.17-.85,4.34-.27.08.04.15.09.22.13,1.01-1.19,2.71-1.55,4.15-.96,1.07.44,1.84,1.56,2.04,2.73,1.63-.43,3.34-.88,5.07-1.22-.5-1.77-2.25-2.64-4.21-2.85-.28-.03-.47-.43-.16-.59,1.14-.57,2.49-.46,3.61.09,1.22-2.11,4.21-1.23,5.89-.06.35.24.14.79-.29.69-1.58-.36-2.84-.42-4.11.54.36.42.65.89.88,1.42.06.15.11.3.14.46,3.22-.47,6.46-.4,9.38,1,1.14.11,2.28.27,3.4.49-.33-.74-.71-1.44-1.61-1.45-.65,0-.61-.92,0-.98.77-.08,1.43.23,1.98.73.27-.72.71-1.39,1.29-1.93,1.29-1.23,3.07-1.29,4.67-.69.41.15.38.84-.11.81-2.27-.1-3.82,1.7-4.01,3.81,0,.07-.04.13-.06.2,2.09.54,4.13,1.24,6.13,2.01.89-.32,1.8-.48,2.69-.5-.24-.28-.51-.53-.82-.78-1.12-.86-2.32-.91-3.61-1.25-.23-.06-.3-.41-.07-.52,2.38-1.14,5.44.63,6.93,2.85.45.12.88.27,1.31.45.32-.76,1-1.39,1.77-1.65,1.64-.58,3.15-.12,4.36,1.06.27.27-.02.63-.34.58-.8-.11-1.68-.12-2.49-.12-.88,0-1.38.33-1.66.97.85.52,1.64,1.14,2.36,1.84,2.92.79,5.79,1.77,8.62,2.97.3-.98.63-1.93-.4-2.66-1.06-.75-2.37-.45-3.54-.26-.47.07-.63-.53-.2-.71,1.68-.7,3.47-1.18,5.15-.26,1.1.6,1.46,1.73,1.38,2.87,1.5-.72,3.36-.47,4.9-.07.84.22.64,1.46-.2,1.48-1.06.02-2.14-.04-3.2.13-.38.06-.98.25-1.49.54.48.23.97.46,1.45.7,1.44.72,2.85,1.47,4.26,2.21.02-.33.19-.66.56-.93,2.76-1.99,6.28-.51,7.77,2.2.24-.07.47-.14.68-.19,2.51-.62,5.69.76,7.14,2.84.18.25-.17.59-.42.42-1.33-.87-2.43-1.27-4.03-1.23-.69.02-1.35.25-2.01.44-.26.08-.59.31-.87.45.15.05.29.11.43.15,2.37.78,4.77,1.59,7.07,2.63,1.27-1.02,3.12-2.03,4.63-1.78,1.37.23,2.44,1.11,3.22,2.21.09.01.19.02.26.04.57.11,1.12.37,1.64.62.33.16.65.36.95.59.1,0,.2-.02.29-.03.08-.33.11-.67.03-1.1-.12-.71-1.07-2.07-1.91-1.31-.26.24-.67-.06-.49-.38.8-1.42,2.79-.9,3.67.14.54.63.86,1.56.9,2.5.4.09.81.27,1.13.53.1,0,.2.01.3.05,2.04-.53,3.82.86,5.09,2.51.01-.76-.3-1.5-.65-2.15-.68-1.28-2.54-3.12-4.15-2.4-.35.15-.66-.23-.4-.52,1.66-1.94,4.62-.12,5.93,1.35.35.4.68.94.94,1.54,1.48-.35,3.03.52,4.11,1.49.16.15.32.32.48.51.98-.38,1.96-.07,2.79.55.33.08.65.19.97.33,1.03-1.5,3.26-1.75,5.2-1.26.05-.01.11-.02.15-.03-.37-1.34-.95-2.37-2.5-2.95-1.72-.65-3.22.24-4.89.31-.31.01-.54-.38-.37-.64,1.21-1.82,3.88-2.14,5.91-1.72.43-.84,1.65-1.39,2.53-1.42,1.13-.03,2.52.45,3.02,1.55.1.22-.06.55-.35.45-.65-.22-1.16-.39-1.86-.35-.46.02-1,.27-1.46.55,1.4.97,2.33,2.65,2.28,4.34.36.09.71.22,1.06.38.44-1.08,1.64-1.83,2.92-1.89.86-.04,1.66.29,2.35.83.71.22,1.36.63,1.86,1.2,1.67-.4,3.51.25,4.44,1.83.14-.04.29-.07.44-.1.25-.09.51-.15.74-.15.63-.01,1.15.18,1.57.5.04.02.08.04.12.06-.15-.95-.61-1.75-1.79-1.72-.39,0-.47-.59-.09-.67,2.37-.55,3.56,1.75,3.49,3.78.55.77.89,1.72,1.02,2.69.14.14.29.26.49.33.53.2,1.16-.12,1.69-.21.52-.09,1.08-.07,1.62.05-.14-.31-.28-.62-.47-.91-.41-.64-.88-1.06-1.48-1.5-.35-.26-.14-.77.29-.69.91.16,1.9.63,2.7,1.28.47.2.95.4,1.42.61.74.33,1.59.59,1.78-.47.03-.16.1-.28.18-.38-.24-.54-.67-1.06-.94-1.34-1.11-1.14-3.33-1.99-4.87-1.62-.44.11-.69-.48-.3-.72,2.16-1.37,4.32-1.33,6.34.25.68.53,1.32,1.47,1.53,2.4,2.11.12,4.36.29,6.01,1.77.72.65,1.31,1.49,1.76,2.42.37.13.75.24,1.18.29.92.12,1.85-.03,2.77.05.54.05,1.05.17,1.54.36-.35-.55-.75-1.04-1.36-1.42-1.07-.67-2.42-.46-3.57-.9-.25-.09-.32-.42-.07-.58,1.35-.84,3.04-1.23,4.57-.71.9.3,1.71.99,2.31,1.82.07-.81.15-1.62.15-2.47,0-1.86-.35-3.68-.84-5.47-.09-.12-.18-.25-.29-.37-.7-.73-1.63-1.16-2.65-1.11-.34.01-.37-.46-.07-.56,1.2-.43,2.42-.36,3.58.16.63.28,1.35.93,1.73,1.67.42-1.02.71-2.03.9-3.05-.11-.37-.21-.69-.5-1-.48-.52-1.13-.64-1.79-.46-.46.13-.71-.5-.32-.74.81-.51,1.88-.65,2.76-.25.04.02.07.04.11.06ZM35.51,27.9c-1.11-.4-2.34-.39-3.41.14-.29.14-.69.43-.9.75.57.24,1.08.59,1.48,1.06.43.51-.14,1.41-.76.98-1.63-1.13-3.14-1.57-5.09-.97-.42.13-.61-.44-.28-.67.93-.65,2.17-.9,3.35-.75.13-.81,1-1.61,1.6-1.98,1.43-.88,3.08-.25,4.4.52.48.28.16,1.11-.39.92ZM47.46,32.97c.61-1.7,2.47-2.1,4.05-2.31.95-.12,1,1.47,0,1.52-1.15.05-2.58.11-3.33,1.1-.25.33-.89.15-.72-.31ZM59.34,20.76c-1.93-1.41-4.12-1.4-5.79.42-.25.27-.79-.01-.64-.37.25-.62.62-1.13,1.07-1.54-3.04-.7-6.25.41-7,3.82-.08.35-.59.25-.6-.08-.11-4.5,5.25-7.44,8.73-4.48,1.71-.77,3.86-.39,5.11,1.36.37.51-.37,1.25-.88.88ZM72.46,35.8c-1.3-1.41-3.66-2.09-5.22-.59-.32.31-.74-.14-.48-.48.87-1.1,1.83-1.85,3.29-1.86,1.43-.02,2.8.87,3.46,2.11.35.65-.52,1.39-1.05.81ZM84.23,19.18c-1.71-.77-3.97-.73-5.51.39-.37.26-.71-.29-.45-.59,1.72-2.04,4.57-2.45,6.63-.65.5.44-.14,1.09-.66.85ZM95.05,39.58c1.28-.01,2.51.64,3.26,1.76.33.5-.35,1.23-.85.85-.78-.59-1.59-.95-2.59-.98-.68-.02-3.01.59-2.61,1.71.13.36-.37.49-.56.24-.89-1.16.6-2.58,1.63-3.15-.37-.99-.74-1.76-1.74-2.43-1.31-.87-2.96-.4-4.14.41-.37.25-.67-.27-.44-.57,2.35-2.98,7.82-1.53,8.05,2.16ZM99.8,29.91c-1.1-1.25-2.5-1.28-4.03-1.05-.31.05-.56-.29-.32-.54,1.47-1.51,4.1-.83,5.4.54.66.7-.43,1.78-1.06,1.06ZM136.67,58.02c2.43-2.23,7.43-1.03,7.17,2.75-.04.61-.83.87-1.16.32-1.26-2.09-3-3.55-5.49-2.4-.42.19-.9-.32-.52-.67ZM135.23,44.24c1.31-.34,2.74.26,3.76,1.08.96.77,1.32,2.1,1.25,3.28-.02.42-.71.57-.78.11-.13-.91-.69-1.62-1.44-2.13-.88-.6-1.8-.58-2.79-.83-.75-.19-.75-1.31,0-1.51ZM109.47,37.67c1.03-2.69,4.93-1.57,5.51.84.17.7-.88,1.21-1.21.51-.82-1.76-2.35-1.87-3.96-1.08-.16.08-.42-.06-.34-.27ZM115.38,31.03c.03.59-.88.7-1.02.14-.27-1.1-.89-1.85-1.83-2.47-.68-.44-3.36-.91-3.75.21-.17.5-.83.28-.76-.21.25-1.79,3.05-2.05,4.39-1.7,1.82.47,2.86,2.27,2.97,4.03ZM121.79,49.77c-.18.25-.63.11-.52-.22.49-1.54.2-2.73-.92-3.9-.99-1.04-2.56-1.32-3.91-1.16-.43.05-.46-.52-.19-.72,1.65-1.26,4.03-.88,5.37.62,1.24,1.39,1.23,3.89.17,5.38ZM124.66,58.59c.99-1.3,2.69-2.38,4.4-1.96,1.83.45,2.92,1.83,3.02,3.71.04.69-1.04.83-1.2.16-.55-2.32-3.95-2.93-5.57-1.42-.32.3-.92-.11-.63-.49ZM135.23,39.98c-.01.58-.91.74-1.04.14-.43-1.98-2.61-2.82-4.26-1.65-.29.2-.71-.2-.5-.49.68-.91,1.62-1.32,2.54-1.33-1.03-3.04-4.74-3.55-6.62-.77-.23.34-.8.14-.68-.29.54-2,2.62-3.33,4.65-3.1,2.03.23,3.65,2.29,3.65,4.29,1.27.39,2.3,1.54,2.26,3.2ZM142.91,32.9c-.04.39-.67.56-.75.1-.62-3.55-3.76-4.31-6.84-3.49-.42.11-.79-.44-.44-.75,1.15-1.02,2.52-1.36,3.79-1.21,0-.48-.08-.91-.38-1.37-.45-.71-1.38-.91-2.15-.76-.33.06-.57-.4-.24-.57,2.04-1.02,4.71.79,4.18,3.08,1.77.79,3.07,2.61,2.82,4.97ZM166.98,41.58c-.17.44-.8.38-.83-.11-.05-.85-.42-1.42-.96-1.79-.22.07-.52-.07-.61-.33-.94-.38-2.13-.4-3.09-.34-.42.02-.47-.59-.09-.71.84-.26,1.83-.54,2.78-.55-.36-.86-.97-1.51-1.97-2.03-1.16-.61-2.52-.53-3.78-.69-.19-.2-.37-.42-.58-.6.01-.26.16-.52.43-.58,1.81-.4,3.98-.41,5.59.61,1.38.87,1.77,2.16,1.73,3.57.03.01.06.02.08.03,1.28.62,1.83,2.2,1.31,3.52ZM167.02,50.14c-.1.33-.67.29-.63-.09.12-1.22-.14-2.17-.94-3.11-.64-.76-1.46-1.51-2.51-1.15-.37.13-.69-.41-.39-.67,1.07-.92,2.63-.57,3.6.35,1.14,1.09,1.3,3.24.87,4.67ZM169.61,66.74c.11.63-.71.84-.95.26-.91-2.22-3.92-3.61-6.15-2.62-.5.22-.9-.43-.43-.74.66-.43,1.34-.7,2.01-.84,0-1.34-.53-2.52-1.64-3.33-.81-.59-1.72-.76-2.65-.82.45-.31.89-.62,1.28-1,.8,0,1.58.17,2.45.73,1.46.96,2.18,2.65,2.21,4.34,1.89.25,3.47,1.65,3.88,4.01ZM169.18,61.14c1.29-1.5,3.73-1.98,4.91-.06.52.85-.73,1.51-1.3.76-.79-1.03-2.23-.67-3.2-.17-.35.18-.66-.24-.41-.53ZM176.76,54.14c1.62-.19,3.19,1.17,3.31,2.79.02.3-.43.42-.56.15-.43-.85-1.25-1.4-2.19-1.39.09.51.08,1.01-.04,1.49-.18.67-1.07.46-1.14-.16-.18-1.69-.7-2.65-2.34-3.29-1.23-.48-2.26.12-3.46.21-.22.02-.4-.24-.33-.44.6-1.76,3.38-2.05,4.84-1.33.78.38,1.46,1.11,1.93,1.96ZM189.49,52.82c-.09.09-.26.13-.37.05-.02-.01-.04-.03-.06-.04-.14-.1-.16-.29-.09-.42-.11-.31-.76-.88-.91-1.02-.49-.46-1.12-.76-1.74-1-.87-.35-1.81-.42-2.74-.42.17.7.16,1.44.26,2.17.11.84.31,1.88-.46,2.43-.25.18-.49-.15-.38-.38.61-1.25-.59-3.25-1.43-4.12-.65-.67-1.87-1.08-2.77-.79-.71.24-1.16-.7-.7-1.2,1.25-1.34,3.01-1.08,4.24-.04,1.96-.78,4.04-.32,5.62,1.11.63.57,2.43,2.84,1.53,3.68ZM196.54,69.35c0,.34-.51.41-.59.08-.45-1.68-1.36-2.26-2.84-2.97-1.21-.57-2.38-.52-3.63-.43.36.61.5,1.31.24,2.11-.17.54-.9.53-1.08,0-.82-2.45-3.77-3.34-6.07-3.09-.35.04-.46-.49-.17-.64,1.37-.72,3.32-.92,4.76-.26.5.23.99.52,1.42.87.02-.02.05-.04.08-.05,1.01-.4,1.78-1,2.91-1.07.5-.03.96.01,1.41.12,0-.32.02-.63.04-.97.03-.82-.82-1.43-1.39-1.85-1.29-.94-2.67-1.3-4.21-1.59-.76-.14-.51-1.21.17-1.26,1.98-.16,4.29-.08,5.93,1.17.82.62,1.35,1.38,1.67,2.35.32.96-.08,2.05-.36,3.01,1.16,1.02,1.73,3.1,1.73,4.46Z"/>
      <path class="cls-4" d="M158.68,72.04c.24.37.42.77.58,1.21-.22.06-.44.12-.66.17-.74-.11-1.5-.18-2.25-.23.21-.19.42-.38.63-.55.46-.37,1.07-.57,1.7-.6Z"/>
      <path class="cls-4" d="M43.42,43.95c.73-.43,1.71-.58,2.38.05.57.53.72,1.06.73,1.71-.56.15-1.11.29-1.67.43-.23-.84-.77-1.61-1.44-2.2Z"/>
      <path class="cls-4" d="M146.92,70.11c.06,0,.12.02.17.03.68.42,1.04,1.12,1.39,1.87-.11-.03-.22-.06-.32-.1-.38-.15-.66-.33-.9-.56-.06-.42-.18-.84-.34-1.24Z"/>
      <path class="cls-4" d="M195.82,79.46c1.04-.1,2.23.22,2.91.69.53.37.89.8,1.16,1.29-.66-.19-1.31-.37-1.9-.66-.78-.38-1.49-.84-2.17-1.32Z"/>
      <path class="cls-4" d="M194.79,81.39c-.09-.01-.17-.02-.26-.04.06,0,.13,0,.19-.02.02.02.05.04.07.06Z"/>
      <polygon class="cls-4" points="191.76 80.96 191.75 80.96 191.76 80.95 191.76 80.96"/>
      <path class="cls-4" d="M163.63,70.15s-.09.09-.13.14c-.25.3-.48.61-.67.95-.24.22-.48.45-.73.66-.23-.32-.51-.59-.83-.81-.34-.53-.76-1.02-1.21-1.41.67-.67,1.88-.56,2.78-.1.31.16.56.35.79.57Z"/>
      <path class="cls-1" d="M188.54,110.65s.03.02.04.04c-.06.02-.12.05-.18.08.05-.04.09-.07.14-.11Z"/>
      <path class="cls-1" d="M76.6,87.1c-.09,0-.17.01-.26.02.15-.05.31-.1.47-.15-.07.04-.14.09-.21.13Z"/>
      <path class="cls-3" d="M94.96,58.96c-3.13,3.13-1.91,8.15-1.83,12.38.05,2.51-.35,4.86-2.17,6.71-3.13-.64-6.28-1.1-9.32-1.2-.3,0-.33.42-.07.51,2.55.85,5.12,1.72,7.69,2.56-.13.18-.25.37-.37.57-.16.27-.27.55-.33.81-1.6-.05-3.19-.4-5.07-.76-.96-.18-1.92-.36-2.89-.53-.65-.22-1.3-.44-1.96-.65-2.12-.69-4.25-1.44-6.43-1.91-.27-.45-.52-.92-.75-1.4-.39-4.76.46-9.49.69-14.23,4.46-1.36,7.65-4.13,9.54-8.61,3.64,1.4,7.24,2.93,10.76,4.58.82.38,1.65.79,2.49,1.19Z"/>
      <path class="cls-1" d="M56.97,62.46c.03-.09.06-.17.08-.25.08.05.17.08.26.12l-.34.13Z"/>
      <path class="cls-1" d="M95.21,76s-.06.02-.09.03c.02-.06.04-.11.06-.16.01.04.02.09.03.13Z"/>
      <path class="cls-4" d="M185.46,75.93c.09-.73.39-1.44,1.23-1.48.22-.01.38-.1.49-.23.69.4,1.33.92,1.59,1.19.49.52.85,1.08,1.09,1.69-.29.62-.85,1.13-1.55,1.55-.6-1.34-1.62-2.22-2.86-2.73Z"/>
      <path class="cls-4" d="M165.73,74.04c.51-.32,1.03-.48,1.58-.59-.31.59-.54,1.22-.51,1.87-.58-.16-1.15-.32-1.72-.48.13-.31.34-.59.66-.79Z"/>
      <path class="cls-4" d="M169.87,75.85c.19-.19.36-.4.52-.63.74-.36,1.7-.53,2.43-.85.01,0,.02-.02.04-.02.35.81.29,1.85.2,2.73,0,0,0,.01,0,.01-1.09-.32-2.18-.64-3.28-.95.03-.1.06-.2.1-.3Z"/>
      <path class="cls-4" d="M182.43,78.82c.25.27.43.56.6.86-1.83-.19-3.66-.68-5.67-1.3,1.16-.53,2.33-.76,3.46-.69.6.26,1.14.62,1.61,1.13Z"/>
      <path class="cls-4" d="M9.02,88.32c1.24.66,2.48,1.29,3.65,2.06.46.3.06,1.01-.44.74-1.24-.66-2.38-1.45-3.56-2.22-.37-.24-.04-.79.34-.59Z"/>
      <path class="cls-4" d="M208.82,94.13c-.36-.28-.36-.68-.27-1.09.14-.64,1.14-.39,1.02.23.3.13.49.56.19.81-.27.23-.63.29-.93.06Z"/>
      <path class="cls-4" d="M196.73,115.01c-.42.13-1,.34-1.4.09-.05-.03-.08-.09-.06-.14.13-.45.68-.68,1.08-.86.57-.26,1.13-.52,1.71-.76.7-.29,1.04.89.32,1.15-.54.19-1.09.36-1.64.53Z"/>
      <path class="cls-4" d="M186,88.15c.38,3.38-.19,6.72-.32,10.09-.01.4-.63.41-.63,0-.04-3.42-.51-6.81-.04-10.22.08-.61.93-.38.98.13Z"/>
      <path class="cls-1" d="M208.83,85.18c-1.5-.64-3.02-1.18-4.55-1.66-.32-1.87-.94-3.62-1.84-5.22.96-2.48.63-5.44-.18-8.16,2.36-2.72,4.28-6.23,3.84-9.97-.42-3.6-1.99-7.01-3.53-10.3.14-1.77-.12-3.51-1.18-5.03-1.54-2.22-3.6-3.42-5.94-4.37-.68-1.76-2.15-3.18-4.02-4.06-1.62-.76-3.33-.96-5.05-.85-5.5-3.51-11.99-5.73-18.05-8.06-2.9-1.12-6.11-2.64-9.29-2.68-.86-.01-1.72.03-2.57.11-.06-.05-.14-.09-.23-.12-2.61-.75-4.96-1.79-7.32-3.13-1.33-.76-2.77-1.71-4.32-1.95-1.66-.26-3.32-.3-4.99-.26-.05-.09-.11-.18-.2-.24-3.33-2.21-6.86-4.44-10.61-5.88-3.19-1.21-6.26-.9-9.48-.89-7.49-3.52-15.98-5.25-24.15-4.26-2.41-1.25-5.76-2.75-8.47-2.41-1.45.19-2.81.6-4.2,1.06-.59.19-1.22.48-1.87.77-2.74-1.61-6.31-2.9-9.43-2.41-3.69.57-7.3,2.31-10.87,3.45-4.13-.07-8.27.51-12.41,1.22-2.9.49-5.89,1.2-8.29,2.99-1.41,1.05-2.91,2.4-4.56,3.31-1.63-.14-3.26.14-4.78,1.13-1.86,1.21-3.27,3.07-3.94,5.19-1.77-.35-3.54-.11-4.72,1.52-.73,1.01-.99,2.15-1.14,3.36-2.6,2.06-5.73,4.19-6.66,7.46-.86,3.03-.18,7.06.3,10.36-.59.46-1.13,1-1.53,1.69-1.52,2.6-.64,5.29-1.23,8.02-3.43,1.55-5.53,4.01-6.85,7.75-1.71,4.83-3.62,10-4.37,15.09-1.48,10.01,7.44,13.98,14.67,18.67,5.4,3.5,10.8,7,16.21,10.5,4.44,2.87,8.85,5.99,13.67,8.2,10.17,4.67,21.7,5.67,32.63,7.53,12.21,2.07,24.42,4.14,36.62,6.21,11.15,1.89,21.68,2.94,32.93,1.12,11.87-1.92,23.68-4.4,35.36-7.3,8.02-1.99,17.53-3.52,23.68-9.49,2.82-2.17,5.16-4.92,6.75-8.37,3.07-6.65,4.27-16.17-3.85-19.65ZM209.75,94.08c-.27.23-.63.29-.93.06-.36-.28-.36-.68-.27-1.09.14-.64,1.14-.39,1.02.23.3.13.49.56.19.81ZM198.36,114.48c-.54.19-1.09.36-1.64.53-.42.13-1,.34-1.4.09-.05-.03-.08-.09-.06-.14.13-.45.68-.68,1.08-.86.57-.26,1.13-.52,1.71-.76.7-.29,1.04.89.32,1.15ZM9.02,88.32c1.24.66,2.48,1.29,3.65,2.06.46.3.06,1.01-.44.74-1.24-.66-2.38-1.45-3.56-2.22-.37-.24-.04-.79.34-.59ZM55.5,46.89c.65,0,.77.95.15,1.12-.85.25-1.71.41-2.55.72-.82.3-1.55.79-2.36,1.1-.42.17-.63-.4-.4-.68,1.13-1.34,3.44-2.23,5.16-2.26ZM44.86,46.15c-.23-.84-.77-1.61-1.44-2.2.73-.43,1.71-.58,2.38.05.57.53.72,1.06.73,1.71-.56.15-1.11.29-1.67.43ZM200.64,65.46c-1.16-.53-2.38-.59-3.58-.16-.29.11-.26.58.07.56,1.01-.04,1.95.39,2.65,1.11.11.11.2.24.29.37.49,1.79.85,3.61.84,5.47,0,.85-.08,1.66-.15,2.47-.6-.83-1.41-1.52-2.31-1.82-1.53-.51-3.22-.13-4.57.71-.25.15-.18.48.07.58,1.16.43,2.5.23,3.57.9.61.38,1.01.87,1.36,1.42-.49-.19-1.01-.31-1.54-.36-.92-.08-1.86.07-2.77-.05-.43-.06-.81-.16-1.18-.29-.45-.93-1.04-1.77-1.76-2.42-1.65-1.48-3.89-1.65-6.01-1.77-.22-.92-.85-1.86-1.53-2.4-2.01-1.59-4.18-1.63-6.34-.25-.38.24-.14.83.3.72,1.54-.37,3.76.48,4.87,1.62.28.28.71.81.94,1.34-.08.1-.15.22-.18.38-.2,1.06-1.04.8-1.78.47-.47-.21-.95-.41-1.42-.61-.8-.65-1.79-1.12-2.7-1.28-.43-.07-.64.43-.29.69.61.45,1.07.86,1.48,1.51.19.3.33.6.47.91-.53-.11-1.09-.13-1.62-.05-.53.09-1.16.41-1.69.21-.2-.07-.35-.19-.49-.33-.12-.98-.46-1.92-1.02-2.7.07-2.03-1.12-4.32-3.49-3.77-.38.09-.3.68.09.67,1.18-.02,1.63.77,1.79,1.72-.04-.02-.08-.04-.12-.06-.43-.32-.95-.51-1.57-.5-.24,0-.49.07-.74.15-.15.02-.29.06-.44.1-.94-1.59-2.77-2.24-4.44-1.83-.5-.58-1.15-.99-1.86-1.2-.69-.53-1.49-.87-2.35-.83-1.29.06-2.49.81-2.92,1.89-.35-.16-.7-.29-1.06-.38.06-1.68-.88-3.37-2.28-4.34.45-.28.99-.53,1.46-.55.7-.03,1.2.14,1.86.35.28.09.45-.23.35-.45-.5-1.11-1.89-1.59-3.02-1.55-.88.03-2.1.58-2.53,1.42-2.03-.43-4.7-.1-5.91,1.72-.18.26.06.65.37.64,1.67-.08,3.17-.96,4.89-.31,1.55.58,2.13,1.61,2.5,2.95-.05.01-.1.02-.15.03-1.94-.49-4.17-.24-5.2,1.26-.32-.14-.64-.25-.97-.33-.84-.62-1.81-.93-2.79-.55-.15-.19-.31-.37-.47-.51-1.08-.98-2.63-1.84-4.11-1.49-.27-.6-.59-1.14-.94-1.54-1.3-1.47-4.27-3.3-5.93-1.35-.25.3.06.68.4.52,1.61-.72,3.47,1.12,4.15,2.4.35.65.66,1.39.65,2.15-1.26-1.65-3.05-3.05-5.09-2.51-.1-.04-.2-.06-.3-.05-.32-.25-.72-.43-1.13-.53-.04-.93-.36-1.86-.9-2.49-.89-1.04-2.87-1.57-3.67-.14-.18.32.23.62.49.38.83-.76,1.78.59,1.91,1.31.08.43.05.77-.03,1.1-.1.01-.19.02-.29.03-.3-.23-.62-.43-.95-.59-.52-.25-1.07-.51-1.64-.62-.08-.02-.17-.02-.26-.04-.78-1.1-1.85-1.98-3.22-2.21-1.51-.25-3.36.76-4.63,1.78-2.29-1.03-4.7-1.85-7.07-2.63-.15-.05-.29-.11-.43-.15.28-.14.61-.37.87-.45.65-.19,1.32-.42,2.01-.44,1.6-.04,2.71.36,4.03,1.23.25.17.6-.17.42-.42-1.45-2.08-4.64-3.47-7.14-2.84-.21.05-.45.12-.68.19-1.49-2.71-5-4.19-7.77-2.2-.37.26-.53.6-.56.93-1.41-.74-2.81-1.48-4.26-2.21-.48-.24-.97-.48-1.45-.7.51-.29,1.12-.48,1.49-.54,1.06-.16,2.14-.11,3.2-.13.84-.02,1.04-1.26.2-1.48-1.54-.4-3.4-.65-4.9.07.07-1.15-.29-2.27-1.38-2.87-1.68-.92-3.46-.44-5.15.26-.44.18-.28.78.2.71,1.17-.19,2.49-.49,3.54.26,1.03.73.69,1.68.4,2.66-2.83-1.2-5.69-2.17-8.62-2.97-.72-.7-1.51-1.32-2.36-1.84.28-.63.78-.97,1.66-.97.81,0,1.68,0,2.49.12.32.04.61-.32.34-.58-1.2-1.18-2.72-1.64-4.36-1.06-.76.27-1.45.9-1.77,1.65-.43-.18-.87-.33-1.31-.45-1.5-2.22-4.55-3.99-6.93-2.85-.23.11-.16.46.07.52,1.29.35,2.49.39,3.61,1.25.32.24.58.5.82.78-.89.01-1.8.17-2.69.5-2-.77-4.04-1.46-6.13-2.01.02-.07.05-.12.06-.2.19-2.11,1.74-3.9,4.01-3.81.5.02.52-.66.11-.81-1.59-.6-3.37-.54-4.67.69-.58.55-1.02,1.21-1.29,1.93-.55-.5-1.21-.81-1.98-.73-.61.07-.65.97,0,.98.9,0,1.28.7,1.61,1.45-1.13-.23-2.26-.39-3.4-.49-2.92-1.4-6.16-1.46-9.38-1-.04-.16-.08-.31-.14-.46-.22-.52-.52-1-.88-1.42,1.26-.95,2.52-.89,4.11-.54.43.1.64-.45.29-.69-1.68-1.16-4.68-2.04-5.89.06-1.13-.56-2.47-.67-3.61-.1-.31.15-.12.56.16.59,1.96.22,3.71,1.08,4.21,2.85-1.73.34-3.44.79-5.07,1.21-.2-1.17-.97-2.29-2.04-2.73-1.44-.59-3.14-.23-4.15.96-.08-.04-.15-.09-.22-.13-1.17-.58-3.42-.89-4.34.27-.12.15-.09.37.11.43,1.17.34,2.4-.04,3.4.93.61.59.92,1.17,1.21,1.83-1.76.43-3.52.82-5.3,1.14-1.49.26-3.03.41-4.54.67.15-.15.31-.29.5-.42.92-.62,2-1.22,3.12-1.19.47.01.5-.62.1-.77-1.21-.45-2.38-.61-3.54-.26-.2-.75-.81-1.56-1.45-1.84-.42-.18-.94-.34-1.4-.19-.47.16-.68.3-.85.76-.05.14.08.28.22.29.51.02,1.2-.07,1.52.45.24.39.32.85.53,1.25-.44.31-.84.68-1.19,1.1-.23.13-.45.27-.66.44-.83.68-1.43,1.62-1.69,2.66,0,.02,0,.04-.01.06-2.57.56-5.26,1.02-7.92,1.55.56-1.42,1.04-3.2,2.84-2.86.5.09.86-.59.36-.85-2.7-1.39-5.71,1.57-5.71,4.26-1.61.38-3.19.81-4.72,1.34.29-1.6.07-3.27.7-4.84.92-2.29,3.57-4.01,5.56-5.31.53-.35.2-1.29-.45-1.07-1.07.36-2.19.73-3.21,1.25.25-2.71.32-5.42.65-8.11.28-2.25,2.17-4.42,3.88-6.39-.27,1.33-.6,2.66-.77,4.01-1.08.77-2.11,2.12-1.7,3.28.17.48.97.44.93-.12-.06-.93,1.8-1.78,2.51-1.95.96-.23,2.19-.25,2.96.47.41.38,1.09-.11.79-.61-1.02-1.68-2.7-2.27-4.55-1.58.8-2.23,1.23-4.63,2.44-6.7,1.35-2.31,4.62-2.04,6.98-1.55.62.13,1.02-.71.44-1.04-.69-.4-1.49-.79-2.34-1.1,2.62-3.32,7.1-5.56,11.35-4.56.53.13.92-.68.38-.92-.41-.18-.82-.35-1.24-.5,2.59-1.3,5.04-3.4,7.95-4.06,6.9-1.56,14.15-2.95,21.24-2.18.64.07.75-.95.15-1.1-.84-.22-1.68-.39-2.53-.52,1.54-.32,3.07-.72,4.62-1.1,3-.74,5.77-.22,8.58.57-.27.07-.53.13-.79.17-.84.1-1.23,1.47-.22,1.63,2.58.42,5.9-.98,8.34-1.77,2.09-.68,4.27-.39,6.38.15-.82.17-1.64.38-2.46.61-.35.1-.29.64.09.64,6.81-.03,13.38.38,19.79,1.64-.87.56-1.56,1.39-1.91,2.48-.17.52.59,1.01.96.56,2.65-3.3,6.66-2.5,8.18,1.25-.92.15-1.83.52-2.63,1.15-.29.23.08.63.37.48,2.72-1.34,5.66,0,7.07,2.53.27.49.99.15.87-.37-.57-2.6-2.71-3.93-4.96-3.87-.26-.86-.54-1.71-.93-2.47,2.86.88,5.69,1.97,8.51,3.31.54.26.98-.47.47-.81-.78-.51-1.58-.99-2.39-1.46,2.03.3,4.04.69,5.96,1.64,2.21,1.1,4.39,2.12,6.63,3.05-1.3-.34-2.76-.33-3.82.09-1.43.55-3.31,1.71-2.71,3.51.09.27.52.24.52-.07-.01-1.96,3.09-2.06,4.39-1.95.26.02.51.07.76.13,2.9,1.47,6.03.41,9.21,1.25,3.21.85,6.06,2.29,9.2,3.23-1.21.13-2.41.23-3.63.23-.31,0-.47.46-.17.61,2.79,1.31,5.3.83,8.31.89,3.58.07,6.76,1.42,10.07,2.65,5.32,1.99,10.5,4.53,15.89,6.34-1.15.26-2.29.59-3.38.94-.51-.42-1.1-.74-1.72-.92-2.11-.59-4.12-.09-5.44,1.69-.19.25.17.55.41.41,1.3-.74,3.31-.89,4.69-.17.87.45,1.59,1.01,1.74,2.06.02.14.03.25.05.37-.17-.04-.34-.09-.52-.1-1.44-.14-4.18.09-4.54,1.87-.05.25.21.5.45.34,2.02-1.28,5.91-.5,6.79,1.84.15.4.7.33.73-.1.09-1.1-.36-2.1-1.09-2.83.43-1.35,0-2.75-.89-3.8,4.74.36,12.58-.37,13.13,5.54-1.82-.51-3.7.06-5.52.87-.37.16-.16.71.19.72,2.01.04,4.75-.11,6.16,1.65.61.76,1.25,1.5,1.5,2.46.21.81.3,1.57.63,2.34.21.48.89.12.8-.34-.3-1.51.5-2.73-.14-4.2-.42-.98-1.08-1.99-1.95-2.65.12-.61.16-1.2.12-1.77,1.42,1.1,2.78,2.36,3.55,3.83,1.36,2.62,1.39,5.49,1.18,8.35-.05-.02-.09-.06-.15-.08-1.54-.66-3.08-.09-4.37.84-.22.16-.15.51.14.52,1.03.03,2.22-.13,3.2.25,1,.39,1.44,1.41,1.58,2.41.09.68,1.01.41,1.09-.15.17-1.24.12-2.38-.63-3.18.25-.79.49-1.62.7-2.47.83,3.11,1.5,6.16,1.4,9.2-.04-.02-.07-.04-.11-.06-.88-.4-1.95-.26-2.76.25-.39.24-.14.87.31.74.66-.19,1.31-.06,1.8.46.29.31.39.63.5,1-.19,1.02-.48,2.03-.9,3.05-.38-.74-1.11-1.39-1.73-1.67ZM105.81,58.51c1.82-.72,3.71-.67,5.08.72-.52.27-.96.63-1.23,1.11-1.31-.56-2.59-1.18-3.85-1.82ZM133.79,69.01c-.32-.09-.63-.18-.95-.27,0-.2-.05-.42-.17-.65h0c.23-.3.39-.63.49-1,.07.07.14.13.2.21.48.61.51,1.11.43,1.71ZM122.3,65.09c.57-.17,1.14-.29,1.7-.23,1.01.1,1.57.9,2.08,1.69.01.08.02.15.03.23-.9-.27-1.81-.54-2.71-.81-.37-.22-.75-.43-1.13-.64.04-.07.05-.16.02-.24ZM156.35,73.18c.21-.19.42-.38.63-.55.46-.37,1.07-.57,1.7-.6.24.37.42.77.58,1.21-.22.06-.44.12-.66.17-.74-.11-1.5-.18-2.25-.23ZM152.34,71.44c-.44-.32-.83-.74-1.25-1.11,1.27-.62,2.63-.3,3.91.24-.87.69-1.96,1.37-2.66.87ZM148.16,71.91c-.38-.15-.66-.33-.9-.56-.06-.42-.18-.84-.34-1.24.06,0,.12.02.17.03.68.42,1.04,1.12,1.39,1.87-.11-.03-.22-.06-.32-.1ZM142.98,69.81c-.33-.53-.63-1.19-1.02-1.73-.03-.14-.06-.28-.1-.41,1.21.19,2.04,1.04,2.58,2.22.18.4.29.82.37,1.23-.72-.28-1.39-.61-1.83-1.31ZM162.84,69.58c.31.16.56.35.79.57-.04.05-.09.09-.13.14-.25.3-.48.61-.67.95-.24.22-.48.45-.73.66-.23-.32-.51-.59-.83-.81-.34-.53-.76-1.02-1.21-1.41.67-.67,1.88-.56,2.78-.1ZM169.77,76.15c.03-.1.06-.2.1-.3.19-.19.36-.4.52-.63.74-.36,1.7-.53,2.43-.85.01,0,.02-.02.04-.02.35.81.29,1.85.2,2.73,0,0,0,.02,0,.02-1.09-.32-2.18-.64-3.28-.95ZM165.08,74.83c.13-.31.34-.59.66-.79.51-.32,1.03-.48,1.58-.59-.31.59-.54,1.22-.51,1.87-.58-.16-1.15-.32-1.72-.48ZM185.02,88.01c.08-.61.93-.38.98.13.38,3.38-.19,6.72-.32,10.09-.01.4-.63.41-.63,0-.04-3.42-.51-6.81-.04-10.22ZM188.32,78.65c-.6-1.34-1.62-2.22-2.86-2.73.09-.73.39-1.44,1.23-1.48.22-.01.38-.1.49-.23.69.4,1.33.92,1.59,1.19.49.52.85,1.08,1.09,1.69-.29.62-.85,1.13-1.55,1.55ZM180.82,77.69c.6.26,1.14.62,1.61,1.13.25.27.43.56.6.86-1.83-.19-3.66-.68-5.67-1.3,1.16-.53,2.33-.76,3.46-.69ZM197.99,80.78c-.78-.38-1.49-.84-2.17-1.32,1.04-.1,2.23.22,2.91.69.53.37.89.8,1.16,1.29-.66-.19-1.31-.37-1.9-.66ZM194.53,81.35c.06,0,.13,0,.19-.02.02.02.05.04.07.06-.09-.01-.17-.02-.26-.04ZM191.75,80.96h.01s0,0,0,0h-.01ZM206.52,87.74c-2.53-.76-5.15-1.15-7.77-1.49-2.17,2.81.16,7.2.94,10.24,1.04,4.04-2,6.63-1.95,10.45,0,.11-.01.22-.02.32.76.07,1.51.13,2.26.19.82-1.53,1.68-3.06,2.4-4.65,1.21-4.29,2.43-8.31,2.11-13.12,0-.12.17-.14.2-.03,1.34,3.99,1.67,10.35-.08,14.91-.07.5-.2,1.26-.2,1.75.02.01.04.02.06.04.81-.79,1.54-1.74,1.92-2.28,1.19-1.68,1.3-3.86,1.48-5.84.06-.61.93-.62.96,0,.17,4.1-1.15,7.28-3.77,10.42-.9,1.08-2.46,1.27-4.16,1.08-.84.09-1.7.07-2.58.05-.85-.02-1.71.02-2.56.08-.97.64-2.12,1.12-2.97,1.54-1.94.94-4.18,1.26-5.77,2.82-1.35,1.33-2.29,2.79-3.83,3.99-2.62,2.04-6.05,2.92-9.21,3.85-5.45,1.26-10.93,2.43-16.43,3.49-7.91,1.51-15.97,3.18-24.06,3.15h0s-.06,0-.09,0h-.11c-5.08.71-10.65-.56-15.24-2.42-.15-.06-.14-.3.04-.3,4.26.17,8.5,1.08,12.73,1.21,6.83-.87,13.66-1.94,20.37-3.47,3.69-.84,7.14-2.5,10.74-3.65,3.64-1.17,7.61-.77,11.13-2.32-1.63-.21-3.24-.6-4.7-1.27-.2-.09-.09-.39.11-.39,2.25.02,4.46.17,6.69.17.13-.13.26-.26.38-.39-.6-.25-1.18-.56-1.71-.87-.19-.11-.02-.37.17-.28.61.27,1.28.54,1.95.55.05,0,.1,0,.15,0,1.1-1.24,2.16-2.53,3.81-3.12,2.89-1.02,6.07-1.49,7.75-3.76-3.18-.17-6.34-.38-9.48-.54-1.29-.07-2.59-.15-3.88-.24-1.68,1.45-4.04,2.29-5.95,3.28-2.51,1.3-4.34,2.07-7.21,2.01-8.34-.16-16.52,2.08-24.52,4.21-6.93,1.85-13.79,5.04-20.91,6.01-4.34.59-8.99,1.05-13.59,1.23-.24-.04-.47-.08-.7-.12-2.3-.39-4.6-.78-6.9-1.17-3.29-.22-6.63-.96-9.81-1.52-4.13-.72-8.35-1.33-12.2-3.06-.07-.03-.03-.13.04-.13,3.79-.12,7.51.68,11.23,1.33,2.41.42,4.91.71,7.38,1.13,1.84-.06,3.68-.16,5.52-.36,3.87-.4,7.68-1.26,11.41-2.35,3.74-1.09,7.19-3.11,11.02-3.85,3.51-.68,6.63-1.2,10.02-2.43,3.12-1.13,6.43-1.57,9.73-1.73,3.93-.19,7.61.68,11.52-.2.33-.08.67-.17,1.01-.26-1.68-.47-3.33-1.07-4.92-1.62-.08-.03-.07-.17.02-.16,2.89.3,5.62.64,8.44.68,1.99-.71,3.97-1.55,5.85-2.4-1.82-.29-3.64-.63-5.44-1.01-5.21-1.11-10.35-2.52-15.45-4.09-1.14-.1-2.32.04-3.49.13-5.8,3.85-13.1,2.47-19.71,3.95-4.31.97-8.15,2.94-12.12,4.79-3.34,1.55-7.42,2.41-11.06,2.82-3.57.4-6.71-.38-10.16-1.23-4.96-1.21-10.15-1.2-15.16-.41-4.09.65-7.65,2.44-11.54,3.69-1.54.49-3.28.59-5.04.49-1.21-.39-2.41-.82-3.57-1.3-.71-.3-1.41-.61-2.11-.94-1.93-.62-3.81-1.41-5.66-2.35-3.58-1.81-6.01-4.84-9.2-7.23-.13-.09-.06-.34.12-.28,2.92,1.01,5.14,2.95,7.84,4.35,1.15.6,2.31,1.16,3.48,1.7,1.3.06,2.61.05,3.93-.03,4.6-.27,8.22-2.23,12.32-4.03,1.08-.48,2.28-.7,3.52-.79.58-.19,1.16-.37,1.75-.53,4.89-1.39,9.74.02,14.69.02.1,0,.13.16.02.18-1.79.45-3.6.6-5.43.68,3.59.07,7.2.15,10.76.54,4.22.46,6.95.15,10.66-2.02,2.65-1.55,5.38-3.35,8.54-3.56,2.05-.14,4.08-.01,6.13.06,1.64.06,3.05-.26,4.43-.77-1.45-.6-2.86-1.26-4.21-2.05-.28-.17-.09-.57.22-.51,2.01.41,3.97,1.05,5.9,1.77.23-.11.46-.21.69-.32.67-.32,1.41-.56,2.2-.76-1.36-.38-2.69-.84-3.94-1.43-.2-.09-.09-.38.11-.39,2.7-.08,5.53.56,8.2,1.19.48-.02.95-.04,1.41-.04.19-.08.37-.15.56-.23,0-.03.02-.06.03-.09-1.48-.51-2.97-1.02-4.45-1.52-.42-.12-.83-.26-1.24-.42-2.65-.9-5.31-1.78-7.97-2.64-1.75-.28-3.29-1.13-5.14-1.19-1.24-.04-2.49-.01-3.74.03-2.32,1.38-4.83,2.25-7.44,2.75.42.38.89.71,1.34,1.03.05.04.04.13-.04.13-1.03-.06-1.88-.41-2.75-.93-2.55.35-5.19.38-7.81.22-4.01-.25-7.22-.07-10.94,1.49-3.77,1.59-7.63,2.68-11.66,3.36-7.7,1.3-15.46-.13-23.21.13-3.67.12-7.35.34-11.01.64-1.17.1-2.29.38-3.39.61.58.49,1.21.91,1.96,1.17.2.07.16.35-.05.37-2.18.15-3.61-1.42-5.11-2.85-1.6-1.03-3.2-2.07-4.8-3.11,2.03-1.18,3.68-2.33,6.12-3.07,3.12-.96,6.33-1.35,9.58-1.23,2.87.1,5.75.82,8.56,1.35,4.14.78,8.26.7,12.43.31,3.3-.31,6.7-.77,9.87-1.77,3.16-.99,5.57-4.32,8.52-5.9.81-.43,1.65-.79,2.51-1.1-9.46-2.04-19.38-1.5-28.66,1.57-.26.09-.35-.3-.11-.4,10.25-4.23,21.18-4.85,31.7-1.98,1.26-.26,2.55-.43,3.84-.52-3.45-1.02-6.9-2.06-10.38-2.98-4.71-1.24-9.12-.74-13.85-.13-16.71,2.13-33.59,4.93-50.41,5.82-.12,0-.14-.18-.03-.21,5.35-1.29,10.78-2.33,16.26-3.22-2.61.04-5.23.05-7.84.07-.4,0-.38-.57,0-.61,5.04-.45,10.09-.91,15.15-1.2,3.09-.18,6.62-.91,9.84-.63,5.22-.62,10.43-1.17,15.6-1.73,1.98-.22,3.96-.42,5.93-.58.15-.92.61-1.67.89-2.59.33-1.07.44-2.26.68-3.35.04-.18.31-.14.31.04-.03,1.14-.07,2.29-.13,3.43-.04.83.2,1.55.25,2.33.34-.02.68-.04,1.02-.06.27-1.54.83-3.04,1.31-4.53.7-2.19,1.09-4.42,1.64-6.65.07-.28.46-.2.48.07.22,3.3.01,7.79-1.41,11.04.19,0,.39-.02.58-.02.06,0,.12,0,.17,0,.59-.66,1.11-1.33,1.28-2.21.26-2.47.69-4.94,1.26-7.33.42-1.77.66-3.57.86-5.38-.56.14-1.14.27-1.75.38-4.13.71-7.94.71-11.87,2.4-3.9,1.68-7.62,3.29-11.78,4.31-3.63.9-7.44,1.4-11.17,1.5-3.66.1-7.05-1.44-10.55-2.21-6.37-1.41-13.04.73-18.43,4.32,0,0,0,0,0,.01-1.81,3.59-2.37,6.77-2.55,10.73-.01.27-.4.33-.48.06-.97-3.26-.55-6.08.34-8.81l-.02.02c.2-.81.44-1.62.69-2.42.03-.03.06-.06.09-.09-.02,0-.03-.01-.05-.02.75-2.35,1.63-4.6,2.27-6.47.6-1.75,1.21-3.71,2.24-5.33,2.25-1.25,4.96-1.84,7.44-2.3,6.02-1.12,13.32-2.51,19.21-.32,4.4,1.64,7.4,1.7,11.76-.19,2.71-1.18,5.24-2.53,8.13-3.25,3.39-.85,6.9-.13,10.35-1.04,2.53-.66,5.25-1.54,7.38-3.14-3.73-.94-7.51-1.59-11.25-2.58-.12-.03-.13-.22,0-.25,9.29-1.65,19.42,3.13,27.64,6.88,4.75,2.16,9.37,4.6,14.14,6.75,5.43,2.44,11.1,4.07,16.61,6.27.34.13.33.72-.09.69-3.91-.31-7.8-1.43-11.61-2.92.48,4.37.48,8.52-1.39,12.71-.85,1.9-1.04,3.04-.64,5.11.18.94.45,2.35.07,3.26-.19.45-.39.85-.6,1.2,1.47.77,2.94,1.63,4.38,2.5,3.35,1.1,6.7,2.18,10.07,3.26,1.34.17,2.7.27,4.04.28.3,0,.61,0,.9-.02-.01-.6.05-.98.2-1.83.33-1.89-.56-3.67-1.03-5.44-.54-2.04.16-3.91,1-5.73,1.64-3.54,3.01-6.3,2.71-10.31,4.4,1.29,8.81,2.55,13.21,3.75.51,3.84,1.29,7.28-.38,10.93-1.79,3.91-2.35,8.41-2.58,12.74,2.52,1.6,5.67,2.51,8.26,3.54,1.36.37,2.72.74,4.08,1.1.08-.22.17-.44.26-.65.26-.56.64-.95.73-1.59.06-.43.64-.26.69.09.06.51.23.98.31,1.49.31-.16.61-.33.82-.61.17-.23.29-.57.37-.93.32-3.27,1.4-6.5,2.11-9.68.03-.15.25-.11.26.04.13,3.12.22,6.37-.55,9.42,0,.41-.02.82-.07,1.21.12.12.11.32-.05.43,0,0,0,0,0,0-.02.13-.06.25-.08.37.02.21.05.42.1.63.06.27.17.51.28.76.66.09,3.2.07,5.35.06-.01-.07-.03-.15-.03-.22-.07-1.16-.1-1.19.28-2.23.76-2.06-.51-3.69-1.12-5.53-.55-1.65.08-3.91.85-5.37,1.67-3.2,3.83-5.69,3.42-9.43-2.31-.6-4.63-1.18-6.96-1.76-.18-.04-.12-.28.04-.3,3.82-.33,7.37.4,11.03,1.39,4.29,1.16,8.71,1.52,13.01,2.56.68.16.49,1.13-.16,1.17-2.67.16-5.37-.21-8.02-.78.25,3.59-1.13,6.94-1.61,10.62-.42,3.18,1.37,4.45,2.55,7.07.75,1.67.41,3.4,1.2,5,.07.14.11.29.14.45,1.37.09,2.73.16,4.1.24,0-.03,0-.06.02-.09.4-1.5.97-2.91,1.52-4.36.11-.3.62-.28.59.08-.11,1.51-.2,2.98-.44,4.47.72.04,1.44.08,2.16.12.1-1.44.87-2.77.99-4.22.02-.22.35-.23.35,0,0,1.44.55,2.88.41,4.32,1.13.06,2.26.14,3.4.21.06-.22.12-.45.16-.7.24-1.39.74-2.45,1.38-3.72,1.33-2.64,1.29-5.59.59-8.39-.59-2.4.34-5.54,0-8.03-.01-.04-.02-.08-.03-.12-.03-.11-.04-.22-.05-.32-.02-.08-.03-.16-.05-.24-1.28-.29-2.55-.66-3.78-1.13-.37-.14-.23-.66.16-.58.99.18,2.02.28,3.08.35-.02-.08-.03-.15-.04-.22.9.11,1.8.22,2.7.35,5.01.15,10.26.06,14.28,2.94.51.37.22,1.27-.45,1.07ZM41.28,104.64c1.04-.1,2.05.15,3.1.19,1.24.04,2.5-.27,3.64-.75.61-.26.96.58.35.83-.97.41-1.95.64-3,.74-1.4.13-2.71-.48-4.09-.46-.35,0-.34-.5,0-.54ZM90.14,116.94c2.13-.33,4.26-.66,6.39-.99,2.35-.37,5.04.4,7.28-.08,4.58-.99,9.1-3.85,13.52-5.44.62-.22,1.05.81.45,1.07-4.48,1.93-9.11,3.66-13.71,5.29-1.82.64-4.15-.31-6-.28-2.62.05-5.28.43-7.89.66-.13.01-.16-.21-.03-.23Z"/>
      <path class="cls-1" d="M195.94,69.43c-.45-1.68-1.36-2.26-2.84-2.97-1.21-.57-2.38-.52-3.63-.43.36.61.5,1.31.24,2.11-.17.54-.9.53-1.08,0-.82-2.45-3.77-3.34-6.07-3.09-.35.04-.46-.49-.17-.64,1.37-.72,3.32-.92,4.76-.26.5.22.99.52,1.42.87.02-.02.05-.04.08-.05,1.01-.4,1.78-1,2.91-1.07.5-.03.96.01,1.41.12,0-.32.02-.63.04-.97.03-.82-.82-1.43-1.39-1.85-1.29-.94-2.67-1.3-4.21-1.59-.76-.14-.51-1.21.17-1.26,1.98-.16,4.29-.08,5.93,1.17.82.62,1.35,1.38,1.67,2.35.32.96-.08,2.05-.36,3.01,1.16,1.02,1.73,3.1,1.73,4.46,0,.34-.51.41-.59.08Z"/>
      <path class="cls-1" d="M189.12,52.87s-.04-.03-.06-.04c-.14-.1-.16-.29-.09-.42-.11-.31-.76-.88-.91-1.02-.49-.46-1.12-.76-1.74-1-.87-.35-1.81-.42-2.74-.42.17.7.17,1.44.26,2.17.11.84.32,1.88-.46,2.43-.25.18-.49-.15-.38-.38.61-1.25-.59-3.25-1.43-4.12-.65-.67-1.87-1.08-2.77-.79-.71.24-1.16-.7-.7-1.2,1.25-1.34,3.01-1.08,4.25-.04,1.95-.78,4.04-.32,5.62,1.11.63.57,2.43,2.84,1.53,3.68-.09.09-.26.13-.37.05Z"/>
      <path class="cls-1" d="M180.06,56.93c.02.3-.43.42-.56.15-.43-.85-1.25-1.4-2.19-1.39.09.51.08,1.02-.04,1.49-.18.67-1.07.46-1.13-.16-.19-1.69-.7-2.65-2.35-3.29-1.23-.48-2.26.12-3.46.21-.22.02-.4-.24-.33-.44.6-1.76,3.38-2.05,4.84-1.33.78.38,1.46,1.11,1.93,1.96,1.62-.19,3.19,1.17,3.31,2.79Z"/>
      <path class="cls-1" d="M174.08,61.09c.52.85-.73,1.51-1.3.76-.79-1.03-2.23-.67-3.2-.17-.35.18-.66-.24-.41-.53,1.29-1.5,3.73-1.98,4.9-.06Z"/>
      <path class="cls-1" d="M168.67,67c-.91-2.22-3.93-3.61-6.16-2.62-.5.22-.9-.43-.43-.74.66-.43,1.34-.7,2.01-.84,0-1.34-.53-2.52-1.64-3.33-1.2-.87-2.61-.85-4.02-.87-.32,0-.42-.53-.08-.58,1.95-.33,3.39-.8,5.17.37,1.46.96,2.18,2.65,2.21,4.34,1.89.25,3.47,1.65,3.88,4.01.11.63-.71.84-.94.26Z"/>
      <path class="cls-1" d="M166.4,50.05c.12-1.22-.14-2.17-.94-3.11-.64-.76-1.46-1.51-2.51-1.15-.37.13-.69-.41-.39-.67,1.07-.92,2.64-.57,3.6.35,1.14,1.09,1.3,3.24.87,4.67-.1.33-.66.29-.63-.09Z"/>
      <path class="cls-1" d="M142.69,61.09c-1.26-2.09-3-3.55-5.49-2.4-.42.19-.9-.32-.52-.67,2.43-2.23,7.43-1.03,7.17,2.75-.04.61-.83.87-1.16.32Z"/>
      <path class="cls-1" d="M129.05,56.63c1.83.45,2.92,1.83,3.02,3.71.04.69-1.04.83-1.2.16-.55-2.32-3.95-2.93-5.57-1.42-.32.3-.92-.11-.63-.49.99-1.3,2.69-2.38,4.4-1.96Z"/>
      <path class="cls-1" d="M135.23,44.24c1.31-.34,2.74.26,3.76,1.08.96.77,1.32,2.1,1.25,3.28-.02.42-.71.57-.78.11-.13-.91-.69-1.62-1.44-2.13-.88-.6-1.8-.58-2.79-.83-.75-.19-.75-1.31,0-1.51Z"/>
      <path class="cls-1" d="M166.16,41.46c-.05-.85-.42-1.42-.96-1.8-.22.07-.52-.07-.61-.32-.94-.38-2.13-.4-3.09-.34-.42.03-.48-.59-.1-.71.84-.26,1.83-.55,2.78-.55-.36-.86-.97-1.51-1.97-2.03-1.21-.64-2.63-.52-3.93-.7-.6-.09-.56-1.05,0-1.17,1.81-.4,3.98-.41,5.59.6,1.38.87,1.77,2.16,1.73,3.58.03.01.06.02.08.03,1.28.62,1.83,2.2,1.31,3.52-.17.44-.8.38-.83-.11Z"/>
      <path class="cls-1" d="M142.16,33c-.62-3.55-3.76-4.31-6.84-3.49-.42.11-.79-.44-.44-.75,1.15-1.02,2.51-1.36,3.79-1.21,0-.48-.08-.91-.38-1.37-.45-.71-1.38-.91-2.15-.76-.33.06-.57-.4-.24-.57,2.04-1.02,4.71.79,4.18,3.08,1.77.79,3.07,2.61,2.82,4.97-.04.39-.67.56-.75.1Z"/>
      <path class="cls-1" d="M121.27,49.55c.49-1.54.2-2.73-.92-3.9-.99-1.04-2.56-1.32-3.91-1.16-.43.05-.46-.52-.19-.72,1.65-1.26,4.03-.88,5.37.62,1.24,1.39,1.23,3.89.18,5.38-.18.25-.63.11-.52-.22Z"/>
      <path class="cls-1" d="M134.18,40.13c-.43-1.98-2.61-2.82-4.26-1.65-.29.2-.71-.2-.5-.49.68-.91,1.62-1.32,2.54-1.33-1.03-3.04-4.74-3.55-6.62-.77-.23.34-.8.14-.68-.29.54-2,2.62-3.33,4.65-3.1,2.03.23,3.65,2.29,3.65,4.29,1.27.39,2.3,1.54,2.26,3.2-.01.58-.91.74-1.04.14Z"/>
      <path class="cls-1" d="M114.36,31.16c-.27-1.1-.89-1.85-1.83-2.47-.68-.44-3.36-.91-3.75.21-.17.5-.83.28-.76-.21.25-1.79,3.05-2.05,4.39-1.7,1.82.47,2.86,2.27,2.97,4.03.03.59-.88.7-1.02.14Z"/>
      <path class="cls-1" d="M114.99,38.51c.17.7-.88,1.21-1.21.51-.82-1.76-2.35-1.87-3.96-1.08-.16.08-.42-.06-.34-.27,1.03-2.69,4.93-1.57,5.51.84Z"/>
      <path class="cls-1" d="M98.31,41.35c.33.5-.35,1.23-.85.85-.78-.59-1.59-.95-2.59-.98-.68-.02-3.01.59-2.61,1.71.13.36-.37.49-.56.24-.89-1.16.6-2.58,1.63-3.15-.37-.99-.74-1.76-1.74-2.43-1.31-.87-2.96-.4-4.14.41-.37.25-.67-.27-.44-.57,2.35-2.98,7.82-1.53,8.05,2.16,1.28-.01,2.51.64,3.26,1.76Z"/>
      <path class="cls-1" d="M99.8,29.91c-1.1-1.25-2.5-1.28-4.03-1.05-.31.05-.56-.29-.32-.54,1.47-1.51,4.1-.83,5.4.54.66.7-.43,1.78-1.06,1.06Z"/>
      <path class="cls-1" d="M72.46,35.8c-1.3-1.41-3.66-2.09-5.22-.58-.32.31-.74-.14-.48-.48.87-1.1,1.83-1.85,3.29-1.86,1.43-.02,2.79.87,3.45,2.11.35.65-.52,1.39-1.05.81Z"/>
      <path class="cls-1" d="M84.78,30.03c-.87-.48-2.03-.21-2.61.59-.33.44-1.04.06-.76-.44.79-1.38,2.53-1.8,3.92-1.09.63.32.07,1.29-.55.95Z"/>
      <path class="cls-1" d="M35.51,27.9c-1.11-.4-2.34-.39-3.41.14-.29.14-.69.43-.9.75.57.24,1.08.59,1.48,1.06.43.51-.14,1.41-.76.98-1.63-1.13-3.14-1.57-5.09-.97-.42.13-.61-.44-.29-.67.93-.66,2.17-.9,3.35-.76.13-.81,1-1.6,1.6-1.98,1.43-.88,3.08-.25,4.4.52.48.28.16,1.11-.39.92Z"/>
      <path class="cls-1" d="M59.34,20.76c-1.93-1.41-4.12-1.4-5.79.42-.25.27-.79-.01-.64-.37.25-.62.62-1.13,1.06-1.54-3.03-.7-6.25.4-7,3.82-.08.35-.59.25-.6-.08-.11-4.5,5.25-7.44,8.73-4.48,1.71-.77,3.86-.39,5.11,1.36.37.51-.37,1.25-.88.88Z"/>
      <path class="cls-1" d="M51.51,30.67c.95-.12,1,1.47,0,1.52-1.15.05-2.58.11-3.33,1.1-.25.33-.89.15-.72-.31.61-1.7,2.47-2.1,4.05-2.31Z"/>
      <path class="cls-1" d="M84.23,19.18c-1.71-.77-3.97-.73-5.51.39-.37.26-.71-.29-.45-.59,1.72-2.04,4.58-2.45,6.63-.65.5.44-.14,1.09-.66.85Z"/>
      <path class="cls-4" d="M206.97,86.67c-4.02-2.87-9.27-2.79-14.28-2.94-.9-.12-1.8-.24-2.7-.35,0,.07.02.15.04.22-1.05-.07-2.09-.18-3.08-.35-.39-.07-.53.44-.16.58,1.24.48,2.5.84,3.78,1.13.02.08.03.16.05.24.01.11.02.22.05.32.01.04.02.08.03.12.35,2.49-.59,5.64,0,8.03.69,2.79.74,5.74-.59,8.39-.64,1.27-1.14,2.33-1.38,3.72-.04.25-.1.47-.16.7-1.13-.07-2.26-.15-3.4-.21.14-1.44-.4-2.87-.41-4.32,0-.23-.33-.22-.35,0-.12,1.45-.89,2.78-.99,4.22-.72-.04-1.44-.08-2.16-.12.24-1.49.33-2.96.44-4.47.03-.37-.48-.38-.59-.08-.55,1.46-1.12,2.86-1.52,4.36,0,.03-.01.06-.02.09-1.37-.07-2.73-.15-4.1-.24-.03-.16-.07-.32-.14-.45-.79-1.61-.46-3.34-1.2-5-1.18-2.62-2.97-3.89-2.55-7.07.48-3.68,1.86-7.03,1.61-10.62,2.65.57,5.35.94,8.02.78.65-.04.84-1,.16-1.17-4.3-1.04-8.72-1.4-13.01-2.56-3.66-.99-7.22-1.72-11.03-1.39-.16.01-.22.25-.04.3,2.33.58,4.64,1.16,6.96,1.76.41,3.74-1.75,6.23-3.42,9.43-.77,1.47-1.4,3.73-.85,5.37.61,1.84,1.88,3.47,1.12,5.53-.38,1.04-.35,1.07-.28,2.23,0,.07.02.15.03.22-2.16.02-4.69.03-5.35-.06-.11-.25-.21-.49-.28-.76-.05-.21-.08-.41-.1-.63.03-.12.06-.24.08-.37,0,0,.01,0,.01,0,.16-.1.17-.3.04-.42.04-.39.07-.79.07-1.21.77-3.05.68-6.3.55-9.42,0-.14-.22-.19-.26-.04-.71,3.18-1.79,6.41-2.11,9.68-.08.36-.2.7-.37.93-.22.28-.52.45-.82.61-.08-.5-.24-.98-.31-1.49-.04-.35-.63-.52-.69-.09-.09.64-.46,1.02-.73,1.59-.1.21-.19.43-.26.65-1.36-.36-2.72-.72-4.08-1.1-2.59-1.03-5.74-1.95-8.26-3.54.23-4.33.78-8.83,2.58-12.74,1.67-3.65.89-7.09.38-10.93-4.41-1.2-8.81-2.46-13.21-3.75.31,4.01-1.07,6.77-2.71,10.31-.84,1.81-1.54,3.69-1,5.73.46,1.77,1.36,3.55,1.03,5.44-.15.85-.21,1.23-.2,1.83-.3.01-.6.02-.9.02-1.35,0-2.7-.11-4.04-.28-3.36-1.08-6.72-2.16-10.07-3.26-1.44-.87-2.91-1.73-4.38-2.5.22-.35.41-.75.6-1.2.38-.92.11-2.33-.07-3.26-.4-2.07-.2-3.21.64-5.11,1.87-4.2,1.87-8.35,1.39-12.71,3.81,1.49,7.7,2.61,11.61,2.92.43.03.43-.55.09-.69-5.51-2.2-11.18-3.83-16.61-6.27-4.76-2.14-9.39-4.59-14.14-6.75-8.23-3.74-18.35-8.53-27.64-6.88-.13.02-.12.22,0,.25,3.74.99,7.52,1.64,11.25,2.58-2.13,1.6-4.85,2.48-7.38,3.14-3.45.91-6.95.19-10.35,1.04-2.89.72-5.42,2.07-8.13,3.25-4.36,1.89-7.36,1.82-11.76.19-5.89-2.19-13.19-.8-19.21.32-2.48.46-5.2,1.06-7.44,2.3-1.03,1.62-1.64,3.58-2.24,5.33-.64,1.87-1.52,4.12-2.27,6.47.02,0,.03.01.05.02-.03.03-.06.06-.09.09-.25.8-.49,1.61-.69,2.42l.02-.02c-.89,2.73-1.31,5.55-.34,8.81.08.27.47.21.48-.06.19-3.97.74-7.15,2.55-10.73,0,0,0-.02,0-.02,5.39-3.58,12.05-5.73,18.43-4.31,3.51.77,6.89,2.31,10.55,2.21,3.73-.11,7.55-.61,11.17-1.5,4.15-1.02,7.87-2.63,11.78-4.31,3.93-1.69,7.74-1.69,11.87-2.4.6-.11,1.18-.24,1.75-.38-.2,1.81-.43,3.61-.86,5.38-.56,2.38-1,4.86-1.26,7.33-.17.88-.69,1.55-1.28,2.21-.06,0-.12,0-.17,0-.2,0-.39.02-.58.02,1.42-3.26,1.62-7.74,1.41-11.04-.02-.27-.41-.35-.48-.07-.55,2.23-.94,4.46-1.64,6.65-.48,1.49-1.05,2.99-1.31,4.53-.34.02-.68.04-1.02.06-.04-.78-.29-1.5-.25-2.33.06-1.14.11-2.29.13-3.43,0-.18-.27-.22-.31-.04-.24,1.09-.35,2.29-.68,3.35-.28.92-.74,1.67-.89,2.59-1.98.16-3.96.37-5.93.58-5.17.56-10.38,1.11-15.6,1.73-3.22-.28-6.75.45-9.84.63-5.06.29-10.1.75-15.15,1.2-.38.03-.4.61,0,.61,2.61-.02,5.23-.04,7.84-.07-5.48.89-10.91,1.93-16.26,3.22-.11.03-.09.21.03.21,16.82-.89,33.7-3.69,50.41-5.82,4.74-.61,9.15-1.11,13.85.13,3.48.92,6.92,1.96,10.38,2.98-1.29.09-2.58.26-3.84.52-10.52-2.87-21.45-2.24-31.7,1.98-.24.1-.15.49.11.4,9.28-3.08,19.2-3.62,28.66-1.57-.86.31-1.71.67-2.51,1.1-2.95,1.59-5.36,4.91-8.52,5.9-3.17,1-6.57,1.46-9.87,1.77-4.17.39-8.3.46-12.43-.31-2.81-.53-5.69-1.25-8.56-1.35-3.25-.11-6.46.28-9.58,1.23-2.44.75-4.09,1.9-6.12,3.07,1.6,1.03,3.2,2.07,4.8,3.11,1.5,1.42,2.92,2.99,5.11,2.85.21-.01.25-.3.05-.37-.75-.26-1.38-.68-1.96-1.17,1.1-.23,2.22-.51,3.39-.61,3.66-.31,7.34-.52,11.01-.64,7.75-.26,15.51,1.17,23.21-.13,4.04-.68,7.89-1.78,11.66-3.36,3.73-1.57,6.93-1.75,10.94-1.49,2.63.17,5.26.14,7.81-.22.87.52,1.72.88,2.75.93.07,0,.09-.09.04-.13-.45-.32-.92-.65-1.34-1.03,2.61-.49,5.11-1.36,7.44-2.75,1.25-.05,2.51-.07,3.74-.03,1.85.06,3.39.92,5.14,1.19,2.66.85,5.32,1.73,7.97,2.64.4.16.82.3,1.24.42,1.49.51,2.97,1.02,4.45,1.52-.01.03-.02.06-.03.09-.19.07-.38.15-.56.23-.46,0-.93.02-1.41.04-2.66-.63-5.5-1.28-8.2-1.19-.19,0-.3.3-.11.39,1.24.59,2.58,1.04,3.94,1.43-.78.2-1.53.44-2.2.76-.24.11-.46.22-.69.32-1.93-.71-3.89-1.36-5.9-1.77-.3-.06-.5.35-.22.51,1.35.79,2.77,1.45,4.21,2.05-1.38.51-2.79.83-4.43.77-2.05-.07-4.08-.2-6.13-.06-3.16.21-5.89,2.01-8.54,3.56-3.71,2.17-6.44,2.48-10.66,2.02-3.56-.39-7.17-.47-10.76-.54,1.82-.09,3.63-.24,5.43-.68.1-.02.08-.18-.02-.18-4.95,0-9.8-1.41-14.69-.02-.59.17-1.17.34-1.75.53-1.24.09-2.44.31-3.52.79-4.1,1.8-7.72,3.75-12.32,4.03-1.32.08-2.63.09-3.93.03-1.17-.54-2.33-1.1-3.48-1.7-2.7-1.41-4.92-3.34-7.84-4.35-.18-.06-.25.18-.12.28,3.19,2.39,5.62,5.41,9.2,7.23,1.85.94,3.73,1.73,5.66,2.35.7.32,1.4.64,2.11.94,1.17.48,2.36.91,3.57,1.3,1.77.11,3.51,0,5.04-.49,3.89-1.25,7.45-3.04,11.54-3.69,5.02-.79,10.2-.8,15.16.41,3.45.84,6.59,1.63,10.16,1.23,3.65-.42,7.72-1.28,11.06-2.82,3.97-1.84,7.82-3.82,12.12-4.79,6.61-1.48,13.91-.1,19.71-3.95,1.17-.09,2.35-.23,3.49-.13,5.1,1.57,10.24,2.99,15.45,4.09,1.81.38,3.62.71,5.44,1.01-1.87.85-3.85,1.69-5.85,2.4-2.82-.04-5.55-.38-8.44-.68-.1-.01-.1.13-.02.16,1.6.55,3.25,1.15,4.92,1.62-.34.09-.68.18-1.01.26-3.91.89-7.59.01-11.52.2-3.3.16-6.61.6-9.73,1.73-3.39,1.23-6.51,1.75-10.02,2.43-3.83.74-7.28,2.76-11.02,3.85-3.73,1.09-7.54,1.95-11.41,2.35-1.85.19-3.69.3-5.52.36-2.47-.41-4.97-.71-7.38-1.13-3.72-.65-7.44-1.45-11.23-1.33-.06,0-.1.1-.04.13,3.85,1.73,8.07,2.34,12.2,3.06,3.18.56,6.52,1.29,9.81,1.52,2.3.39,4.6.78,6.9,1.17.23.04.47.08.7.12,4.6-.18,9.25-.64,13.59-1.23,7.11-.97,13.97-4.17,20.91-6.01,8-2.13,16.18-4.37,24.52-4.21,2.87.06,4.7-.71,7.21-2.01,1.91-.99,4.27-1.83,5.95-3.28,1.29.09,2.59.17,3.88.24,3.13.16,6.3.37,9.48.54-1.68,2.26-4.86,2.73-7.75,3.76-1.65.58-2.71,1.88-3.81,3.12-.05,0-.1,0-.15,0-.67,0-1.34-.28-1.95-.55-.19-.08-.35.17-.17.28.53.31,1.11.62,1.71.87-.12.13-.25.26-.38.39-2.23,0-4.45-.14-6.69-.17-.2,0-.3.3-.11.39,1.46.66,3.07,1.06,4.7,1.27-3.53,1.55-7.49,1.15-11.13,2.32-3.6,1.15-7.05,2.8-10.74,3.65-6.71,1.53-13.54,2.6-20.37,3.47-4.23-.13-8.47-1.04-12.73-1.21-.19,0-.19.24-.04.3,4.58,1.85,10.16,3.12,15.24,2.42h.11s.06,0,.09-.01h0c8.09.05,16.15-1.63,24.06-3.14,5.5-1.05,10.98-2.22,16.43-3.49,3.17-.93,6.6-1.81,9.21-3.85,1.54-1.2,2.48-2.65,3.83-3.99,1.58-1.57,3.82-1.88,5.77-2.82.86-.42,2-.9,2.97-1.54.85-.06,1.7-.1,2.56-.08.88.02,1.74.04,2.58-.05,1.71.19,3.26,0,4.16-1.08,2.62-3.15,3.94-6.32,3.77-10.42-.03-.62-.9-.61-.96,0-.18,1.98-.29,4.16-1.48,5.84-.38.54-1.11,1.49-1.92,2.28-.02-.01-.04-.02-.06-.04,0-.49.14-1.25.2-1.75,1.75-4.56,1.42-10.91.08-14.91-.04-.11-.21-.09-.2.03.32,4.81-.9,8.83-2.11,13.12-.72,1.59-1.57,3.13-2.4,4.65-.75-.06-1.5-.12-2.26-.19.01-.11.02-.21.02-.32-.04-3.81,2.99-6.41,1.95-10.45-.78-3.04-3.11-7.43-.94-10.24,2.62.34,5.24.73,7.77,1.49.67.2.96-.7.45-1.07ZM141.78,114.02c-1.52.5-3.03.36-4.61.38-2.14.03-4.34.64-6.3,1.47-.15.06-.28-.14-.13-.22,1.55-.9,3.1-1.55,4.85-1.92,1.97-.42,4-.09,5.94-.6.57-.15.8.7.24.88ZM135.9,97.84c-2.87-.65-6.06-1.67-8.7-2.98-.2-.1-.11-.46.12-.43,2.96.32,6.24,1.35,8.93,2.61.48.22.13.92-.34.81ZM84.96,110.21c-1.83-.33-3.61-.53-5.47-.72-.12-.01-.14-.17-.03-.2,1.77-.63,3.96-.57,5.74.04.56.2.33.99-.24.88ZM101.58,86.96c-1.45-.74-2.97-.96-4.53-1.28-1.45-.3-2.89-1.39-4.11-2.16-.12-.08-.04-.28.1-.24,1.83.58,3.59,1.51,5.51,1.71,1.44.15,2.28.7,3.25,1.69.14.15-.04.37-.21.27ZM76.34,87.12c.15-.05.31-.1.47-.15-.07.04-.14.09-.21.13-.09,0-.17.01-.26.02ZM95.12,76.03c.02-.06.04-.11.06-.16.01.04.02.09.03.13-.03,0-.06.02-.09.03ZM41.75,96.08c1.56-.2,3.1-.28,4.68-.24.69.02.69,1.12,0,1.07-1.55-.1-3.12-.14-4.68-.09-.49.02-.46-.69,0-.75ZM43.68,94.76c-.75-.11-1.47-.23-2.2-.41-.37-.09-.27-.63.09-.64.76-.03,1.5-.02,2.25.02s.62,1.14-.14,1.03ZM57.05,62.2c.08.05.17.08.26.12l-.34.13c.03-.09.06-.17.08-.25ZM73,60.25c-.09.42-.73.31-.73-.1-.02-2.47.41-5.12.96-7.52.04-.16.27-.12.28.04.08,2.48,0,5.15-.5,7.58ZM92.47,57.77c.82.38,1.65.79,2.49,1.19-3.13,3.13-1.91,8.15-1.83,12.38.05,2.51-.35,4.86-2.17,6.71-3.13-.64-6.28-1.1-9.32-1.2-.3,0-.33.42-.07.51,2.55.85,5.12,1.72,7.69,2.56-.13.18-.25.37-.37.57-.16.27-.27.55-.33.81-1.6-.05-3.19-.4-5.07-.76-.96-.18-1.92-.36-2.89-.53-.65-.22-1.3-.44-1.96-.65-2.12-.69-4.25-1.44-6.43-1.91-.27-.45-.52-.92-.75-1.4-.39-4.76.46-9.49.69-14.23,4.46-1.36,7.65-4.13,9.54-8.61,3.64,1.4,7.24,2.93,10.76,4.58ZM174,106.1c-2.12.36-4.7-.59-6.65-1.36-.21-.08-.2-.43.06-.41,2.16.12,4.32.59,6.46.84.49.06.7.84.13.94ZM182.43,114.16c.54-.35,1.05.52.51.87-1.95,1.25-3.02,3.59-5.38,4.22-.44.12-.61-.53-.19-.68,2.16-.75,3.18-3.2,5.06-4.41ZM191.66,106.63c.96-.02,1.92.09,2.87.25.61.11.35,1.03-.25.92-.91-.16-1.81-.39-2.68-.72-.24-.09-.21-.45.06-.46ZM188.58,110.68c-.06.02-.12.05-.18.08.05-.04.09-.07.14-.11.02.01.03.02.04.04Z"/>
      <path class="cls-4" d="M55.65,48.02c-.85.25-1.71.41-2.55.72-.82.3-1.55.79-2.36,1.1-.42.17-.63-.4-.4-.68,1.13-1.34,3.44-2.23,5.16-2.26.65,0,.77.95.15,1.12Z"/>
      <path class="cls-4" d="M96.52,115.95c2.35-.37,5.04.4,7.28-.08,4.58-.99,9.1-3.85,13.52-5.44.62-.22,1.05.81.45,1.07-4.48,1.93-9.11,3.66-13.71,5.29-1.82.64-4.15-.31-6-.28-2.62.05-5.28.43-7.89.66-.13.01-.16-.21-.03-.23,2.13-.33,4.26-.66,6.39-.99Z"/>
      <path class="cls-4" d="M44.37,104.83c1.24.04,2.5-.27,3.64-.75.61-.26.96.58.35.83-.97.41-1.95.64-3,.74-1.4.13-2.71-.48-4.09-.46-.35,0-.34-.5,0-.54,1.04-.1,2.05.15,3.1.19Z"/>
      <path class="cls-3" d="M72.27,60.15c-.02-2.47.41-5.12.96-7.52.04-.16.27-.12.28.04.08,2.48,0,5.15-.5,7.58-.09.42-.73.31-.73-.1Z"/>
      <path class="cls-3" d="M101.58,86.96c-1.45-.74-2.97-.96-4.53-1.28-1.45-.3-2.89-1.39-4.11-2.16-.12-.08-.04-.28.1-.24,1.83.58,3.59,1.51,5.51,1.71,1.44.15,2.28.7,3.25,1.69.14.15-.04.37-.21.27Z"/>
      <path class="cls-3" d="M135.9,97.84c-2.87-.65-6.06-1.67-8.7-2.98-.2-.1-.11-.46.12-.43,2.96.32,6.24,1.35,8.93,2.61.48.22.13.92-.34.81Z"/>
      <path class="cls-3" d="M174,106.1c-2.12.36-4.7-.59-6.65-1.36-.21-.08-.2-.43.06-.41,2.16.12,4.32.59,6.46.84.49.06.7.84.13.94Z"/>
      <path class="cls-3" d="M191.66,106.63c.96-.02,1.92.09,2.87.25.61.11.35,1.03-.25.92-.91-.16-1.81-.39-2.68-.72-.24-.09-.21-.45.06-.46Z"/>
      <path class="cls-3" d="M79.46,109.29c1.77-.63,3.96-.57,5.74.04.56.2.33.99-.24.88-1.83-.33-3.61-.53-5.47-.72-.12-.01-.14-.17-.03-.2Z"/>
      <path class="cls-3" d="M41.75,96.08c1.56-.2,3.1-.28,4.68-.24.69.02.69,1.12,0,1.07-1.55-.1-3.12-.14-4.68-.09-.49.02-.46-.69,0-.75Z"/>
      <path class="cls-3" d="M43.68,94.76c-.75-.11-1.47-.23-2.2-.41-.37-.09-.27-.63.09-.64.76-.03,1.5-.02,2.25.02s.62,1.14-.14,1.03Z"/>
      <path class="cls-3" d="M137.17,114.4c-2.14.03-4.34.64-6.3,1.47-.15.06-.28-.14-.13-.22,1.55-.9,3.1-1.55,4.85-1.92,1.97-.42,4-.09,5.94-.6.57-.15.8.7.24.88-1.52.5-3.03.36-4.61.38Z"/>
      <path class="cls-3" d="M182.43,114.16c.54-.35,1.05.52.51.87-1.95,1.25-3.02,3.59-5.38,4.22-.44.12-.61-.53-.19-.68,2.16-.75,3.18-3.2,5.06-4.41Z"/>
      <path class="cls-3" d="M214.7,92.23c-2.04-9.15-14.66-10.02-22.07-10.76-8.6-.86-17.29-3.61-25.65-5.74-3.74-.95-7.43-1.75-11.2-2.53-1.28-.26-10.84-1.52-11.11-2.55.04.16.11.31.14.47-.44-.17-.82-.44-1.17-.74-.3-.08-.6-.15-.89-.23-2.09-.6-4.62-.51-6.79-.88-2.37-.4-4.73-.9-7.06-1.49-4.69-1.17-9.3-2.69-13.79-4.47-4.46-1.77-8.81-3.8-13.07-6.01-4.09-2.12-7.87-4.74-12.4-5.95-12.65-3.38-25.66-9.3-39.02-6.72-7.37,1.38-14.77,3.28-21.96,5.5-2.07.64-4.1,1.41-6.16,2.07-2.18.7-4.25.34-6.4,1.28-1.88.81-3.87,1.35-5.72,2.24-2.99,1.43-4.76,3.87-5.85,6.95-1.71,4.83-3.62,10-4.37,15.09-1.48,10.01,7.44,13.98,14.67,18.67,5.4,3.5,10.8,7,16.21,10.5,4.44,2.87,8.85,5.99,13.67,8.2,10.17,4.67,21.7,5.67,32.63,7.53l36.62,6.21c11.15,1.89,21.68,2.94,32.93,1.12,11.87-1.92,23.68-4.4,35.36-7.3,8.02-1.99,17.53-3.52,23.68-9.49,2.82-2.17,5.16-4.92,6.75-8.37,1.76-3.82,2.96-8.41,2.03-12.61ZM195.26,114.95c.13-.45.68-.68,1.08-.86.57-.26,1.13-.52,1.71-.76.7-.29,1.04.89.32,1.15-.54.19-1.09.36-1.63.53-.42.13-1,.34-1.41.09-.05-.03-.07-.09-.06-.14ZM9.02,88.32c1.24.66,2.48,1.29,3.65,2.06.46.3.06,1.01-.44.74-1.24-.66-2.38-1.45-3.56-2.22-.37-.24-.04-.79.34-.59ZM55.65,48.02c-.85.25-1.72.41-2.55.72-.82.31-1.55.79-2.36,1.1-.42.17-.63-.4-.4-.68,1.13-1.34,3.44-2.23,5.16-2.26.66,0,.77.95.15,1.12ZM185.68,98.24c-.01.4-.63.41-.63,0-.04-3.42-.51-6.81-.04-10.22.08-.61.93-.38.98.13.38,3.38-.19,6.72-.32,10.09ZM208.83,98.22c.17,4.1-1.15,7.28-3.77,10.42-.9,1.08-2.46,1.27-4.16,1.08-.84.08-1.7.07-2.58.04-.85-.02-1.71.02-2.56.08-.97.64-2.12,1.12-2.97,1.54-1.94.94-4.18,1.26-5.77,2.82-1.35,1.33-2.29,2.79-3.83,3.99-2.62,2.04-6.05,2.92-9.21,3.85-5.46,1.26-10.93,2.44-16.43,3.49-7.91,1.51-15.97,3.18-24.06,3.15h0s-.06,0-.09,0h-.11c-5.08.71-10.66-.56-15.24-2.42-.15-.06-.14-.3.04-.3,4.26.17,8.5,1.08,12.73,1.21,6.84-.87,13.66-1.94,20.37-3.47,3.69-.84,7.14-2.5,10.74-3.65,3.64-1.17,7.61-.77,11.13-2.32-1.63-.21-3.24-.6-4.7-1.27-.19-.09-.09-.39.11-.39,2.25.02,4.46.17,6.69.17.13-.13.26-.26.38-.39-.6-.25-1.18-.56-1.71-.87-.19-.11-.02-.37.17-.28.61.27,1.28.54,1.95.55.05,0,.1,0,.15,0,1.1-1.24,2.16-2.54,3.81-3.12,2.89-1.02,6.07-1.49,7.75-3.76-3.18-.17-6.34-.38-9.48-.54-1.29-.07-2.59-.15-3.88-.24-1.68,1.45-4.04,2.29-5.95,3.28-2.51,1.3-4.34,2.07-7.21,2.01-8.34-.16-16.52,2.08-24.52,4.21-6.93,1.85-13.79,5.04-20.91,6.01-4.34.59-8.99,1.05-13.59,1.23-.24-.04-.47-.08-.7-.12-2.3-.39-4.6-.78-6.91-1.17-3.29-.22-6.63-.96-9.81-1.52-4.13-.72-8.35-1.33-12.2-3.06-.07-.03-.03-.13.04-.13,3.79-.12,7.51.68,11.23,1.33,2.41.42,4.91.71,7.38,1.13,1.84-.06,3.68-.16,5.52-.36,3.87-.4,7.68-1.26,11.41-2.35,3.74-1.09,7.19-3.11,11.02-3.85,3.51-.68,6.63-1.2,10.02-2.43,3.12-1.13,6.43-1.57,9.73-1.73,3.93-.19,7.61.68,11.52-.2.33-.08.67-.17,1.01-.26-1.68-.47-3.33-1.07-4.92-1.62-.08-.03-.08-.17.02-.16,2.89.3,5.62.64,8.44.68,1.99-.71,3.97-1.55,5.85-2.4-1.82-.29-3.64-.63-5.44-1.01-5.21-1.11-10.35-2.52-15.45-4.09-1.14-.1-2.31.04-3.49.13-5.8,3.85-13.1,2.47-19.71,3.95-4.31.97-8.15,2.94-12.12,4.79-3.34,1.55-7.41,2.41-11.06,2.82-3.57.4-6.71-.38-10.16-1.23-4.96-1.21-10.14-1.2-15.16-.41-4.09.64-7.65,2.44-11.54,3.69-1.54.49-3.28.59-5.04.49-1.21-.39-2.41-.82-3.57-1.3-.71-.3-1.41-.61-2.11-.94-1.93-.62-3.81-1.41-5.66-2.35-3.58-1.81-6.01-4.84-9.2-7.23-.13-.09-.06-.34.12-.28,2.92,1.01,5.14,2.95,7.84,4.35,1.15.6,2.31,1.16,3.48,1.7,1.3.06,2.61.05,3.93-.03,4.6-.27,8.22-2.23,12.32-4.03,1.08-.48,2.28-.7,3.52-.79.58-.19,1.16-.37,1.74-.53,4.89-1.39,9.75.02,14.7.02.1,0,.13.16.02.18-1.79.45-3.6.6-5.43.69,3.59.07,7.2.14,10.76.54,4.22.46,6.95.15,10.66-2.02,2.65-1.55,5.38-3.35,8.54-3.56,2.05-.14,4.08-.01,6.13.06,1.64.06,3.05-.26,4.43-.77-1.45-.6-2.86-1.26-4.21-2.05-.28-.17-.09-.57.22-.51,2.01.41,3.97,1.05,5.9,1.77.23-.11.46-.21.69-.32.67-.32,1.41-.56,2.2-.76-1.36-.38-2.69-.83-3.94-1.43-.2-.09-.09-.38.11-.39,2.7-.08,5.53.56,8.2,1.19.48-.02.95-.04,1.41-.04.19-.08.37-.15.56-.23,0-.03.02-.06.03-.09-1.48-.51-2.97-1.02-4.45-1.52-.42-.12-.83-.26-1.24-.42-2.65-.9-5.31-1.78-7.97-2.64-1.75-.28-3.29-1.13-5.14-1.19-1.24-.04-2.49-.01-3.74.03-2.32,1.38-4.83,2.25-7.44,2.75.42.38.89.72,1.34,1.03.05.04.04.13-.04.13-1.03-.06-1.88-.41-2.75-.93-2.55.35-5.19.38-7.81.22-4.01-.25-7.22-.07-10.94,1.49-3.77,1.59-7.63,2.68-11.66,3.36-7.7,1.3-15.46-.13-23.21.13-3.67.12-7.35.34-11.01.64-1.17.1-2.29.38-3.39.61.58.49,1.21.91,1.96,1.17.2.07.16.35-.05.37-2.18.15-3.61-1.42-5.11-2.85-1.6-1.03-3.2-2.07-4.8-3.11,2.03-1.18,3.68-2.33,6.12-3.07,3.12-.96,6.33-1.35,9.58-1.23,2.87.1,5.75.82,8.56,1.35,4.14.78,8.27.7,12.44.31,3.3-.31,6.7-.77,9.87-1.77,3.16-.99,5.57-4.32,8.52-5.9.81-.43,1.65-.79,2.51-1.1-9.46-2.04-19.38-1.5-28.66,1.57-.26.09-.35-.3-.11-.4,10.25-4.23,21.17-4.85,31.7-1.98,1.26-.26,2.55-.43,3.84-.52-3.45-1.02-6.9-2.06-10.38-2.98-4.71-1.24-9.12-.74-13.85-.13-16.71,2.13-33.59,4.93-50.41,5.82-.12,0-.14-.18-.03-.2,5.35-1.29,10.78-2.33,16.26-3.22-2.61.04-5.23.05-7.85.07-.4,0-.38-.57,0-.61,5.05-.45,10.09-.91,15.15-1.2,3.09-.18,6.62-.91,9.84-.63,5.22-.62,10.43-1.17,15.6-1.73,1.98-.22,3.96-.42,5.93-.58.15-.92.61-1.67.89-2.59.33-1.07.44-2.26.68-3.36.04-.18.31-.14.31.04-.03,1.14-.07,2.29-.14,3.43-.04.83.2,1.55.25,2.33.34-.02.68-.04,1.02-.06.27-1.54.83-3.04,1.31-4.53.71-2.19,1.09-4.43,1.64-6.65.07-.28.46-.2.48.07.22,3.3.01,7.79-1.41,11.04.19,0,.39-.02.58-.02.06,0,.12,0,.17,0,.59-.66,1.11-1.33,1.28-2.21.26-2.47.69-4.94,1.26-7.33.42-1.77.65-3.57.86-5.38-.56.14-1.14.27-1.75.38-4.13.71-7.94.71-11.87,2.4-3.9,1.68-7.62,3.29-11.77,4.31-3.63.9-7.44,1.4-11.18,1.5-3.66.11-7.05-1.44-10.55-2.21-6.37-1.41-13.04.73-18.43,4.32,0,0,0,0,0,.01-1.81,3.59-2.37,6.77-2.55,10.73-.01.27-.4.33-.48.06-.97-3.26-.55-6.08.34-8.81l-.02.02c.2-.81.44-1.62.69-2.42.03-.03.06-.06.09-.09-.02,0-.03-.01-.05-.02.75-2.35,1.63-4.6,2.27-6.47.6-1.75,1.21-3.71,2.24-5.33,2.25-1.25,4.96-1.84,7.44-2.3,6.02-1.12,13.32-2.51,19.21-.32,4.4,1.64,7.4,1.7,11.76-.19,2.71-1.18,5.24-2.53,8.13-3.25,3.39-.85,6.9-.13,10.35-1.04,2.53-.66,5.25-1.54,7.38-3.14-3.73-.94-7.51-1.59-11.25-2.58-.12-.03-.13-.22,0-.25,9.29-1.65,19.42,3.13,27.64,6.88,4.75,2.16,9.37,4.6,14.14,6.75,5.43,2.44,11.1,4.07,16.61,6.27.34.13.33.72-.09.69-3.91-.31-7.8-1.43-11.61-2.92.48,4.37.48,8.52-1.39,12.71-.84,1.9-1.04,3.04-.64,5.11.18.94.45,2.35.07,3.26-.19.45-.39.85-.6,1.2,1.47.77,2.94,1.63,4.38,2.5,3.34,1.1,6.7,2.18,10.07,3.26,1.34.17,2.7.27,4.04.28.3,0,.61,0,.9-.02-.01-.6.05-.98.2-1.83.33-1.89-.56-3.67-1.03-5.44-.54-2.04.16-3.91,1-5.73,1.64-3.54,3.01-6.3,2.71-10.31,4.4,1.29,8.81,2.55,13.21,3.75.52,3.84,1.29,7.28-.38,10.93-1.79,3.91-2.35,8.41-2.58,12.74,2.52,1.6,5.67,2.51,8.26,3.54,1.36.37,2.72.74,4.08,1.1.08-.22.17-.44.26-.65.26-.56.64-.95.73-1.59.06-.43.64-.26.69.09.06.51.23.98.31,1.49.31-.16.61-.32.82-.61.17-.23.29-.56.37-.93.32-3.27,1.4-6.5,2.11-9.68.03-.15.25-.11.26.04.13,3.12.22,6.37-.55,9.42,0,.41-.02.82-.06,1.21.12.12.11.32-.05.43,0,0,0,0,0,0-.02.12-.06.24-.08.37.02.21.05.42.1.63.06.27.17.51.28.76.66.09,3.2.07,5.35.06-.01-.07-.03-.15-.03-.22-.07-1.16-.1-1.19.28-2.23.76-2.06-.51-3.69-1.12-5.53-.55-1.65.08-3.91.85-5.37,1.67-3.2,3.83-5.69,3.42-9.43-2.31-.6-4.63-1.18-6.96-1.76-.17-.04-.12-.28.04-.3,3.82-.33,7.37.4,11.03,1.39,4.29,1.16,8.71,1.52,13.01,2.56.68.16.49,1.13-.16,1.17-2.67.16-5.37-.21-8.02-.78.25,3.59-1.13,6.94-1.61,10.62-.42,3.18,1.37,4.45,2.55,7.07.75,1.67.41,3.4,1.2,5,.07.14.11.29.14.45,1.37.09,2.73.16,4.1.24,0-.03,0-.06.02-.09.4-1.5.97-2.91,1.52-4.36.11-.3.62-.28.59.08-.11,1.51-.2,2.98-.44,4.47.72.04,1.44.08,2.16.12.1-1.44.87-2.77.99-4.22.02-.22.35-.23.35,0,0,1.44.55,2.88.41,4.32,1.13.06,2.26.14,3.4.21.06-.22.12-.45.16-.7.24-1.39.74-2.45,1.38-3.72,1.33-2.64,1.29-5.59.59-8.39-.59-2.4.34-5.54,0-8.03-.01-.04-.02-.08-.03-.12-.03-.11-.04-.22-.05-.32-.02-.08-.03-.16-.05-.24-1.28-.29-2.55-.66-3.78-1.13-.37-.14-.23-.66.16-.58.99.18,2.03.28,3.08.35-.02-.08-.03-.15-.03-.22.9.11,1.8.22,2.7.34,5.01.15,10.26.06,14.28,2.94.51.37.22,1.27-.45,1.07-2.53-.76-5.15-1.15-7.77-1.49-2.17,2.81.16,7.2.94,10.24,1.04,4.04-2,6.63-1.95,10.45,0,.11-.01.22-.02.32.76.07,1.51.13,2.26.19.82-1.53,1.68-3.06,2.4-4.65,1.21-4.29,2.43-8.31,2.11-13.12,0-.12.17-.14.2-.03,1.34,3.99,1.67,10.35-.08,14.91-.07.5-.2,1.26-.2,1.75.02.01.04.02.06.04.81-.79,1.54-1.74,1.92-2.28,1.19-1.68,1.3-3.86,1.48-5.84.06-.61.93-.62.96,0ZM41.27,104.64c1.05-.1,2.06.15,3.1.19,1.24.04,2.5-.27,3.64-.75.61-.26.96.58.35.83-.98.41-1.95.64-3,.74-1.4.13-2.71-.48-4.09-.46-.35,0-.34-.5,0-.54ZM90.14,116.94c2.13-.33,4.26-.66,6.39-.99,2.35-.37,5.04.4,7.28-.08,4.58-.99,9.1-3.85,13.51-5.44.62-.22,1.06.81.45,1.07-4.48,1.93-9.11,3.66-13.71,5.29-1.82.64-4.15-.31-6-.28-2.62.05-5.28.43-7.89.66-.13.01-.16-.21-.03-.23Z"/>
    </g>
    <g>
      <path class="cls-4" d="M269.66,357.4L133.03,7.84c-.41-1.05-.35-2.17.07-3.12l143.78,352.68h-7.22Z"/>
      <path class="cls-2" d="M276.88,357.4L133.1,4.72c-.42.96-.48,2.08-.07,3.12l136.63,349.55h-2.41L130.94,8.66c-1.26-3.22.33-6.89,3.54-8.17l.1-.04c.75-.3,1.54-.45,2.34-.45,2.58,0,4.88,1.54,5.85,3.93l144.1,353.46h-10Z"/>
    </g>
  </g>
  <path class="cls-3" d="M94.96,58.81c-3.13,3.13-1.91,8.15-1.83,12.38.05,2.51-.35,4.86-2.17,6.71-3.13-.64-6.28-1.1-9.32-1.2-.3,0-.33.42-.07.5,2.55.85,5.12,1.73,7.69,2.56-.13.18-.25.36-.37.56-.16.28-.27.55-.33.81-1.6-.05-3.19-.4-5.07-.76-.96-.18-1.92-.36-2.89-.53-.65-.22-1.3-.44-1.96-.65-2.12-.69-4.25-1.44-6.43-1.91-.27-.45-.52-.92-.75-1.4-.39-4.76.46-9.49.69-14.23,4.46-1.36,7.65-4.13,9.54-8.61,3.64,1.4,7.24,2.93,10.76,4.58.82.38,1.65.79,2.49,1.2Z"/>
  <g>
    <path class="cls-1" d="M195.94,69.43c-.45-1.68-1.36-2.26-2.84-2.97-1.21-.57-2.38-.52-3.63-.43.36.61.5,1.31.24,2.11-.17.54-.9.53-1.08,0-.82-2.45-3.77-3.34-6.07-3.09-.35.04-.46-.49-.17-.64,1.37-.72,3.32-.92,4.76-.26.5.22.99.52,1.42.87.02-.02.05-.04.08-.05,1.01-.4,1.78-1,2.91-1.07.5-.03.96.01,1.41.12,0-.32.02-.63.04-.97.03-.82-.82-1.43-1.39-1.85-1.29-.94-2.67-1.3-4.21-1.59-.76-.14-.51-1.21.17-1.26,1.98-.16,4.29-.08,5.93,1.17.82.62,1.35,1.38,1.67,2.35.32.96-.08,2.05-.36,3.01,1.16,1.02,1.73,3.1,1.73,4.46,0,.34-.51.41-.59.08Z"/>
    <path class="cls-1" d="M189.12,52.87s-.04-.03-.06-.04c-.14-.1-.16-.29-.09-.42-.11-.31-.76-.88-.91-1.02-.49-.46-1.12-.76-1.74-1-.87-.35-1.81-.42-2.74-.42.17.7.17,1.44.26,2.17.11.84.32,1.88-.46,2.43-.25.18-.49-.15-.38-.38.61-1.25-.59-3.25-1.43-4.12-.65-.67-1.87-1.08-2.77-.79-.71.24-1.16-.7-.7-1.2,1.25-1.34,3.01-1.08,4.25-.04,1.95-.78,4.04-.32,5.62,1.11.63.57,2.43,2.84,1.53,3.68-.09.09-.26.13-.37.05Z"/>
    <path class="cls-1" d="M180.06,56.93c.02.3-.43.42-.56.15-.43-.85-1.25-1.4-2.19-1.39.09.51.08,1.02-.04,1.49-.18.67-1.07.46-1.13-.16-.19-1.69-.7-2.65-2.35-3.29-1.23-.48-2.26.12-3.46.21-.22.02-.4-.24-.33-.44.6-1.76,3.38-2.05,4.84-1.33.78.38,1.46,1.11,1.93,1.96,1.62-.19,3.19,1.17,3.31,2.79Z"/>
    <path class="cls-1" d="M174.08,61.09c.52.85-.73,1.51-1.3.76-.79-1.03-2.23-.67-3.2-.17-.35.18-.66-.24-.41-.53,1.29-1.5,3.73-1.98,4.9-.06Z"/>
    <path class="cls-1" d="M166.4,50.05c.12-1.22-.14-2.17-.94-3.11-.64-.76-1.46-1.51-2.51-1.15-.37.13-.69-.41-.39-.67,1.07-.92,2.64-.57,3.6.35,1.14,1.09,1.3,3.24.87,4.67-.1.33-.66.29-.63-.09Z"/>
    <path class="cls-1" d="M142.69,61.09c-1.26-2.09-3-3.55-5.49-2.4-.42.19-.9-.32-.52-.67,2.43-2.23,7.43-1.03,7.17,2.75-.04.61-.83.87-1.16.32Z"/>
    <path class="cls-1" d="M129.05,56.63c1.83.45,2.92,1.83,3.02,3.71.04.69-1.04.83-1.2.16-.55-2.32-3.95-2.93-5.57-1.42-.32.3-.92-.11-.63-.49.99-1.3,2.69-2.38,4.4-1.96Z"/>
    <path class="cls-1" d="M135.23,44.24c1.31-.34,2.74.26,3.76,1.08.96.77,1.32,2.1,1.25,3.28-.02.42-.71.57-.78.11-.13-.91-.69-1.62-1.44-2.13-.88-.6-1.8-.58-2.79-.83-.75-.19-.75-1.31,0-1.51Z"/>
    <path class="cls-1" d="M166.16,41.46c-.05-.85-.42-1.42-.96-1.8-.22.07-.52-.07-.61-.32-.94-.38-2.13-.4-3.09-.34-.42.03-.48-.59-.1-.71.84-.26,1.83-.55,2.78-.55-.36-.86-.97-1.51-1.97-2.03-1.21-.64-2.63-.52-3.93-.7-.6-.09-.56-1.05,0-1.17,1.81-.4,3.98-.41,5.59.6,1.38.87,1.77,2.16,1.73,3.58.03.01.06.02.08.03,1.28.62,1.83,2.2,1.31,3.52-.17.44-.8.38-.83-.11Z"/>
    <path class="cls-1" d="M121.27,49.55c.49-1.54.2-2.73-.92-3.9-.99-1.04-2.56-1.32-3.91-1.16-.43.05-.46-.52-.19-.72,1.65-1.26,4.03-.88,5.37.62,1.24,1.39,1.23,3.89.18,5.38-.18.25-.63.11-.52-.22Z"/>
    <path class="cls-1" d="M134.18,40.13c-.43-1.98-2.61-2.82-4.26-1.65-.29.2-.71-.2-.5-.49.68-.91,1.62-1.32,2.54-1.33-1.03-3.04-4.74-3.55-6.62-.77-.23.34-.8.14-.68-.29.54-2,2.62-3.33,4.65-3.1,2.03.23,3.65,2.29,3.65,4.29,1.27.39,2.3,1.54,2.26,3.2-.01.58-.91.74-1.04.14Z"/>
    <path class="cls-1" d="M114.36,31.16c-.27-1.1-.89-1.85-1.83-2.47-.68-.44-3.36-.91-3.75.21-.17.5-.83.28-.76-.21.25-1.79,3.05-2.05,4.39-1.7,1.82.47,2.86,2.27,2.97,4.03.03.59-.88.7-1.02.14Z"/>
    <path class="cls-1" d="M114.99,38.51c.17.7-.88,1.21-1.21.51-.82-1.76-2.35-1.87-3.96-1.08-.16.08-.42-.06-.34-.27,1.03-2.69,4.93-1.57,5.51.84Z"/>
    <path class="cls-1" d="M98.31,41.35c.33.5-.35,1.23-.85.85-.78-.59-1.59-.95-2.59-.98-.68-.02-3.01.59-2.61,1.71.13.36-.37.49-.56.24-.89-1.16.6-2.58,1.63-3.15-.37-.99-.74-1.76-1.74-2.43-1.31-.87-2.96-.4-4.14.41-.37.25-.67-.27-.44-.57,2.35-2.98,7.82-1.53,8.05,2.16,1.28-.01,2.51.64,3.26,1.76Z"/>
    <path class="cls-1" d="M99.8,29.91c-1.1-1.25-2.5-1.28-4.03-1.05-.31.05-.56-.29-.32-.54,1.47-1.51,4.1-.83,5.4.54.66.7-.43,1.78-1.06,1.06Z"/>
    <path class="cls-1" d="M72.46,35.8c-1.3-1.41-3.66-2.09-5.22-.58-.32.31-.74-.14-.48-.48.87-1.1,1.83-1.85,3.29-1.86,1.43-.02,2.79.87,3.45,2.11.35.65-.52,1.39-1.05.81Z"/>
    <path class="cls-1" d="M84.78,30.03c-.87-.48-2.03-.21-2.61.59-.33.44-1.04.06-.76-.44.79-1.38,2.53-1.8,3.92-1.09.63.32.07,1.29-.55.95Z"/>
    <path class="cls-1" d="M35.51,27.9c-1.11-.4-2.34-.39-3.41.14-.29.14-.69.43-.9.75.57.24,1.08.59,1.48,1.06.43.51-.14,1.41-.76.98-1.63-1.13-3.14-1.57-5.09-.97-.42.13-.61-.44-.29-.67.93-.66,2.17-.9,3.35-.76.13-.81,1-1.6,1.6-1.98,1.43-.88,3.08-.25,4.4.52.48.28.16,1.11-.39.92Z"/>
    <path class="cls-1" d="M59.34,20.76c-1.93-1.41-4.12-1.4-5.79.42-.25.27-.79-.01-.64-.37.25-.62.62-1.13,1.06-1.54-3.03-.7-6.25.4-7,3.82-.08.35-.59.25-.6-.08-.11-4.5,5.25-7.44,8.73-4.48,1.71-.77,3.86-.39,5.11,1.36.37.51-.37,1.25-.88.88Z"/>
    <path class="cls-1" d="M51.51,30.67c.95-.12,1,1.47,0,1.52-1.15.05-2.58.11-3.33,1.1-.25.33-.89.15-.72-.31.61-1.7,2.47-2.1,4.05-2.31Z"/>
    <path class="cls-1" d="M84.23,19.18c-1.71-.77-3.97-.73-5.51.39-.37.26-.71-.29-.45-.59,1.72-2.04,4.58-2.45,6.63-.65.5.44-.14,1.09-.66.85Z"/>
  </g>
  <path class="cls-3" d="M72.27,60.15c-.02-2.47.41-5.12.96-7.52.04-.16.27-.12.28.04.08,2.48,0,5.15-.5,7.58-.09.42-.73.31-.73-.1Z"/>
  <path class="cls-3" d="M101.58,86.96c-1.45-.74-2.97-.96-4.53-1.28-1.45-.3-2.89-1.39-4.11-2.16-.12-.08-.04-.28.1-.24,1.83.58,3.59,1.51,5.51,1.71,1.44.15,2.28.7,3.25,1.69.14.15-.04.37-.21.27Z"/>
  <path class="cls-3" d="M135.9,97.84c-2.87-.65-6.06-1.67-8.7-2.98-.2-.1-.11-.46.12-.43,2.96.32,6.24,1.35,8.93,2.61.48.22.13.92-.34.81Z"/>
  <path class="cls-3" d="M79.46,109.29c1.77-.63,3.96-.57,5.74.04.56.2.33.99-.24.88-1.83-.33-3.61-.53-5.47-.72-.12-.01-.14-.17-.03-.2Z"/>
  <path class="cls-3" d="M41.75,96.08c1.56-.2,3.1-.28,4.68-.24.69.02.69,1.12,0,1.07-1.55-.1-3.12-.14-4.68-.09-.49.02-.46-.69,0-.75Z"/>
  <path class="cls-3" d="M43.68,94.76c-.75-.11-1.47-.23-2.2-.41-.37-.09-.27-.63.09-.64.76-.03,1.5-.02,2.25.02s.62,1.14-.14,1.03Z"/>
  <path class="cls-3" d="M137.17,114.4c-2.14.03-4.34.64-6.3,1.47-.15.06-.28-.14-.13-.22,1.55-.9,3.1-1.55,4.85-1.92,1.97-.42,4-.09,5.94-.6.57-.15.8.7.24.88-1.52.5-3.03.36-4.61.38Z"/>
</svg>