<?xml version="1.0" encoding="UTF-8"?>
<svg id="Layer_1" data-name="Layer 1" xmlns="http://www.w3.org/2000/svg" viewBox="0 0 193.39 97.55">
  <defs>
    <style>
      .cls-1 {
        fill: #820028;
      }
    </style>
  </defs>
  <g>
    <path class="cls-1" d="M137.72,19.9c-1.36-3.49-9.06-4.48-8.12,2.19-4.65-5.92-9.4,1.43-9.1,4.17-.7,3.28.74,5.46,4.69,5.73-1.67,1.7-3.91,5.37-.51,8.58.33.3.69.58,1.05.82,1.24.82,2.68,1.37,3.92,1.9,1.52.64,2.75.47,4.34.02,1.44-.4,2.84-1.23,3.64-2.51.19-.32.35-.73.42-1.17,2.07,3.68,5.86,4.06,6.74,2.63.19-.15,4.76-6.99,4.64-8.5-.21-2.75-4.66-4.35-6.1-4.55,2.51-1.73,3.19-4.45,2.94-4.81-.04-.92-6.14-6.76-8.55-4.51ZM143,22.09c.6.43,2.43,1.8,2.5,2.6-.69,2.29-4.12,7.07-10.89,3.68-1.97-.99,1.77,3.64,7.12,1.69,7.24,2.19,8.86,1.94,2.77,11.5-.25.11-1.51,1.78-4.15-.55-.91-.8-1.6-1.81-2.13-2.88-3.71-7.55-4.3-5.52-4.12-5.21.74,1.26,1.37,1.26,2.83,4.38.23,1.17.27,2.23-.48,3.2-2.74,3.63-6.98,1.71-7.22,1.66-7.29-1.89-5.44-9.05-2.22-10.01.5-.15,3.76-.69,4.18-1.58-1.37.54-3.7.78-5.19.5-7.74.33-4.47-8.44-1.4-9.87,3.54-1.64,4.43,2.36,5.95,3.66,2.11,1.8,2.71,1.71,2.19,1.21-7.28-7.07,3.5-10.87,4.35-5.17.2,2.76-.67,3.95-.5,3.78,2.21-2.25.18-7.03,6.4-2.58Z"/>
    <path class="cls-1" d="M137.64,34.28c.33.51,2.11.36,2.86-.88,2.07-3.41-5.88-.55-2.86.88ZM139.81,33.35c-.64.66-1.22.57-2,.63-1.6-1.23,3.94-2.65,2-.63Z"/>
    <path class="cls-1" d="M138.07,28.76c.62-.2,1.17-.94.58-1.5-2.5-2.36-3.53,2.42-.58,1.5ZM138.28,27.69c.26.33-.5.97-1.62.01-.12-.53,1.26-.48,1.62-.01Z"/>
    <path class="cls-1" d="M128.66,27.35c-.56,1.98.68,2.75,1.54,2.35,2.64-1.24-.71-5.29-1.54-2.35ZM129.38,29.19c-.04-.08-.08-.09-.15-.12-.38-.41-.02-1.05-.18-1.24.56-3.8,2.95,2.78.33,1.35Z"/>
    <path class="cls-1" d="M130.86,34.67c1.04,1.33,3.26.85,3.12-.51-.28-2.46-5.86-1.4-3.12.51ZM132.85,34.88c-1.29.2-2.17-1.3-2.22-1.21-.17-1.49,4.75.83,2.22,1.21Z"/>
    <path class="cls-1" d="M132.07,30.96c-.19,1.45,2.22,1.21,1.58-.23-.46-1.04-1.85-.86-1.58.23ZM132.61,31.15c-.08-.19.07-.43,0-.59.93-.14.36,1.57,0,.59Z"/>
    <path class="cls-1" d="M134.72,31.19c.95,1.98,2.41,1.32,2.35.47-.12-1.74-3.11-1.24-2.35-.47ZM136.51,31.7c.04.41-.66.44-1.36-.57.47-.25,1.29-.02,1.36.57Z"/>
    <path class="cls-1" d="M134.33,25.47c-1.66.21,2.02,2.95,1.97.27-.01-.9-1.5-1.17-1.97-.27ZM134.6,25.83c.06-.25.38-.45.64-.45,1.37.05-.34,1.91-.64.45Z"/>
    <path class="cls-1" d="M131.97,27.79c-.46.96.5,1.28.82,1.19,2.21.97.58-4.02-.82-1.19ZM133.2,27.67c.76.89-.39.67-.71.75-.36-.28.47-1.02.71-.75Z"/>
    <path class="cls-1" d="M147.98,23.71c-.07.13-.05.23,0,.34,0,.08,0,.14.13.22.3.42.85.72,1.41.93-.57.99-.03,6.57,7.52,4.36,5.19-1.53,2.85-4.97-.86-4.82.95-.65,2.89-3.18,3.34-4.59,1.56-2.08-11.02-1.83-11.55,3.56ZM154.01,25.61c.19-.05.38-.1.57-.15.04.13.13.22.32.23.93,0,1.94-.23,2.85.09.49.18,1.86.95,1.35,1.7-1.93,2.97-10.53,1.96-8.86-2.04.08.02.13.04.2.04,1.16.26,2.41.35,3.57.13ZM158.38,20.25c-1.09,1.75-2.06,4.01-4.21,4.45-1.58.33-4.16.36-5.49-.85.29-1.54,3.78-4.78,9.7-3.6Z"/>
    <path class="cls-1" d="M105.74,40.24c-.09.61,1.98,2.87,4.48,2.83,3.65-.08,7.08-4.72,7.01-5.04,1.09-2.49-13.75-2.2-11.49,2.22ZM116.27,38.19c-.24.21-4.71,5.87-8.05,3.69-.18-.12-1.29-.83-1.76-1.34.02-.06.02-.11-.02-.17-.52-.75.4-4.14,9.83-2.18Z"/>
    <path class="cls-1" d="M154.3,33.82c-2.82.67-1.55,4.43,1.82,2.64,2.39-1.27.64-4.19-1.82-2.64ZM155.45,35.82c-.41.13-1.56.43-1.82-.14-.22-.5,1.09-1.04,1.21-1.4,1.8-.55,2.22,1.01.61,1.54Z"/>
  </g>
  <path class="cls-1" d="M111.87,62.32c.2,1.03.56,1.43.88,2.83.22-.11.45-.22.69-.34-.82-3.94-1.61-2.78-1.57-2.49ZM126.21,58.39c.27-.89-3.55-8.43-6.57-7.12-.12-3.75-7.03-7.25-8.38-.63-1.28-3.79-3.81-4.07-6.02-3.1-1.43.61-2.69,1.75-3.4,2.8-.26.43-.46.81-.54,1.17-.45.72-.74,1.4-.87,2.06-.39,2,.64,3.73,3.36,4.91-.66.34-1.47.82-2.17,1.48-1.53,1.42-2.65,3.6-1.18,6.44.87,1.7,2.47,3.04,3.77,4.22,1.24,1.12,2.44,1.36,4.09,1.47,1.49.11,3.09-.2,4.26-1.13.2-.16.39-.37.56-.61.09-.11.16-.23.23-.36.02.1.04.2.06.29.83,3.95,4.15,5.48,5.42,4.45.2-.07,4.96-3.61,6.65-5.58.3-.36.51-.67.57-.89.71-2.65-2.94-5.65-4.24-6.32,1.14-.3,2.07-.84,2.78-1.41,1.12-.9,1.69-1.88,1.62-2.14ZM120.01,61.17c-1.4.05-2.98-.38-4.63-1.62-.49-.37-.99-.81-1.5-1.33-.87-.91-.6.51.83,1.91.84.8,2.07,1.59,3.71,1.91.49.1,1.03.15,1.6.15,4.2,3.1,6.27,4.21,4.24,6.87-.92,1.2-2.68,2.72-5.46,4.88-.28.05-2.02,1.18-3.72-1.89-.35-.63-.61-1.31-.78-2-.13-.47-.21-.95-.27-1.43-.19-1.62-.39-2.86-.59-3.81-.82-3.94-1.61-2.78-1.57-2.49.2,1.03.56,1.43.88,2.83.13.56.24,1.28.34,2.25-.14.99-.39,1.88-1.09,2.52-.13.13-.27.25-.43.35-3.8,2.49-7.14-.73-7.35-.88-4.63-3.11-3.54-7.31-1.32-9.2.79-.63,1.69-1.01,2.56-.96.54.03,3.77.62,4.49-.09-1.49.05-3.76-.51-5.06-1.27-2.91-.9-3.75-2.51-3.5-4.21.12-.83.5-1.69,1.04-2.44.89-1.26,2.17-2.33,3.35-2.84.38-.15.74-.26,1.06-.28,3.9-.38,3.41,3.71,4.41,5.44,1.38,2.39,1.98,2.52,1.65,1.88-4.5-9.11,6.93-9.09,5.83-3.43-.73,2.65-1.95,3.51-1.74,3.41,2.83-1.38,2.53-6.58,6.9-.29.42.62,1.69,2.5,1.49,3.27-.49.66-1.37,1.48-2.53,2.06-.82.42-1.78.71-2.84.73ZM111.87,62.32c.2,1.03.56,1.43.88,2.83.22-.11.45-.22.69-.34-.82-3.94-1.61-2.78-1.57-2.49Z"/>
  <path class="cls-1" d="M16.03,77.48c.13.58,1.86,1.04,2.99.11,3.08-2.52-5.35-2.48-2.99-.11ZM18.39,77.33c-.81.39-1.32.13-2.09-.09-1.1-1.68,4.61-1.17,2.09.09Z"/>
  <path class="cls-1" d="M79.76,59.38c-1.57-3.06-4.13,1.1-1.04,1.22.65.03,1.42-.5,1.04-1.22ZM77.72,59.12c.1-.52,1.36-.01,1.55.55.13.39-.79.73-1.55-.55Z"/>
  <path class="cls-1" d="M108.62,55.26c-1.19,1.68-.29,2.81.66,2.73,2.91-.28,1.11-5.23-.66-2.73ZM108.68,57.25c0-.09-.05-.12-.11-.18-.21-.5.33-.98.25-1.23,1.79-3.38,1.85,3.62-.14,1.41Z"/>
  <path class="cls-1" d="M108.24,62.9c.53,1.61,2.8,1.89,3.1.56.57-2.42-5.06-3.27-3.1-.56ZM110.05,63.77c-1.26-.25-1.6-1.89-1.7-1.89.34-1.47,4.21,2.37,1.7,1.89Z"/>
  <path class="cls-1" d="M110.62,59.8c-.66,1.31,1.69,1.9,1.57.33-.09-1.15-1.45-1.43-1.57-.33ZM111.06,60.17c0-.22.23-.38.21-.56.92.18-.18,1.59-.21.56Z"/>
  <path class="cls-1" d="M113.03,60.91c.24,2.17,1.85,2.05,2.07,1.22.46-1.68-2.53-2.21-2.07-1.22ZM114.56,61.99c-.09.39-.75.19-1.09-.99.53-.08,1.24.42,1.09.99Z"/>
  <path class="cls-1" d="M111.59,56.8c-.76.73.04,1.36.36,1.38,1.76,1.65,1.91-3.59-.36-1.38ZM111.88,57.55c-.26-.37.77-.81.91-.47.42,1.09-.59.5-.91.47Z"/>
  <path class="cls-1" d="M106.24,10.26c.5-1.03.9-4.19.56-5.64.29-2.59-10.43,4-8.14,8.9,0,.15.06.24.16.31.05.07.1.11.23.12.47.21,1.11.2,1.69.1.03,1.13,3.29,5.67,8.69-.07,3.72-3.94-.05-5.71-3.19-3.72ZM99.32,13.29c-.53-1.47.84-6.03,6.53-8.01-.04,2.06.26,4.5-1.37,5.97-1.2,1.09-3.38,2.41-5.16,2.04ZM101.47,13.87c.07-.02.14-.03.2-.06,1.13-.35,2.24-.9,3.12-1.71.15-.12.29-.25.43-.4.09.1.24.13.38.04.81-.48,1.57-1.19,2.51-1.36.52-.1,2.08-.13,2.05.77-.17,3.55-8.12,7.02-8.69,2.72Z"/>
  <path class="cls-1" d="M81.75,5.09c-2.1,2.02.89,4.62,2.91,1.37,1.42-2.31-1.57-3.95-2.91-1.37ZM83.75,6.24c-.29.32-1.13,1.17-1.65.8-.43-.31.42-1.45.36-1.82,1.26-1.4,2.41-.24,1.29,1.02Z"/>
  <path class="cls-1" d="M47.39,57.73s-1.66,1.09-3.68,1.42c.15.12.39.39.54.66.05.07.08.13.11.21.02.07.03.14.05.2.14-.12.3-.23.46-.33,4.27-1.06,3.58-2.85,2.52-2.16ZM47.39,57.73s-1.66,1.09-3.68,1.42c.15.12.39.39.54.66.05.07.08.13.11.21.02.07.03.14.05.2.14-.12.3-.23.46-.33,4.27-1.06,3.58-2.85,2.52-2.16ZM55.12,61.71c-.19.75-.33,1.53-.45,2.3.31.05.62.12.94.19.5-4.17-.42-2.69-.49-2.49ZM47.39,57.73s-1.66,1.09-3.68,1.42c.15.12.39.39.54.66.05.07.08.13.11.21.02.07.03.14.05.2.14-.12.3-.23.46-.33,4.27-1.06,3.58-2.85,2.52-2.16ZM74,49.74c-1.59-2.66-4.64-3.5-9.33.24-.17.05-.33.12-.49.2,5.03-5.45,2.69-11.53-1.66-14.13-.35-.19-.69-.38-1.05-.53-2.54-1.12-5.61-1.08-8.25.8-.23.16-.47.33-.7.52-.47.42-.94.92-1.37,1.45-2.09,2.6-2.98,6.06-2.28,9.3-3.17-2.66-6.1-2.62-8.3-1.27-.36.21-.69.45-.99.73-.33.29-.63.61-.89.96-.21.25-.42.55-.59.83-.45.71-.8,1.5-1.03,2.32-.21.78-.34,1.57-.37,2.35v.21c0,.51.07,1.04.19,1.53,0,.03,0,.05,0,.07.04.16.08.32.13.45.4,1.35,1.24,2.56,2.56,3.39,1.16.75,2.53,1.02,3.88.95-.61.49-1.11,1.02-1.48,1.53-.18.26-.34.49-.47.73-.04.09-.09.19-.13.28-.06.1-.1.2-.13.31h-.02c-.21.63-.3,1.23-.29,1.83.02.73.22,1.45.53,2.1.33.72.83,1.38,1.43,1.99,3.27,3.39,9.73,4.72,11.69-.14,1.54,8.5,12.47,6.27,11.62-2.17-.09-.84-.3-1.77-.67-2.76,5.37,4.01,8.74-.34,9.6-5.56.17-1,.24-2.04.21-3.06-.03-2.04-.48-4.01-1.36-5.45ZM63.99,60.39c-.29-.37-.94-.05-.74.41.23.57.57,1.14.99,1.7.65,1.55,1.01,2.92,1.15,4.1.78,6.7-5.69,7.74-8,5.61-2.3-2.11-1.81-4.7-2.02-6.42,0-.06,0-.11,0-.16.1-.54.17-1.01.23-1.43.5-4.17-.42-2.69-.49-2.49-.19.75-.33,1.53-.45,2.3-.07.47-.15.96-.23,1.44-.05.35-.11.69-.19,1.04-1.27,6.12-7.49,5.2-10.58,2.01-.56-.58-1.03-1.23-1.34-1.92-.33-.72-.5-1.51-.43-2.31.05-.41.13-.85.29-1.26.45-1.12,1.27-2.06,2.22-2.79.14-.12.3-.23.46-.33,4.27-1.06,3.58-2.85,2.52-2.16,0,0-1.66,1.09-3.68,1.42-.85.17-1.64.17-2.37,0-.12,0-.22-.04-.33-.08-.22-.07-.42-.15-.63-.25-.12-.06-.22-.11-.32-.18-.2-.1-.39-.23-.57-.38-.87-.71-1.43-1.63-1.71-2.63,0-.03,0-.08-.03-.13-.16-.59-.21-1.21-.2-1.84,0-.11,0-.25,0-.36.04-.73.21-1.48.47-2.19.24-.64.54-1.26.91-1.83.21-.31.44-.62.67-.89.28-.31.58-.61.9-.86.35-.3.74-.54,1.13-.76,2.18-1.08,5-.72,7.77,2.57.11.28,1.83,1.78,1.73,1.36-.14-.45-.36-.89-.62-1.3-1.53-6.47.2-10.3,2.97-12.1.32-.19.65-.39.98-.53,1.78-.78,3.85-.89,5.75-.41.5.13.97.29,1.44.48,4.54,1.96,7.19,7.46.3,14.44-.76.76-1.47,1.53-1.86,2.5.35-.24,5.55-3.88,6.71-4.13,2.79-1.61,4.77-1.23,6.01.15.6.67,1.04,1.56,1.32,2.6.47,1.82.46,4.02,0,6-1.08,4.97-4.81,8.68-10.16,1.99ZM55.12,61.71c-.19.75-.33,1.53-.45,2.3.31.05.62.12.94.19.5-4.17-.42-2.69-.49-2.49ZM55.12,61.71c-.19.75-.33,1.53-.45,2.3.31.05.62.12.94.19.5-4.17-.42-2.69-.49-2.49ZM47.39,57.73s-1.66,1.09-3.68,1.42c.15.12.39.39.54.66.05.07.08.13.11.21.02.07.03.14.05.2.14-.12.3-.23.46-.33,4.27-1.06,3.58-2.85,2.52-2.16ZM47.39,57.73s-1.66,1.09-3.68,1.42c.15.12.39.39.54.66.05.07.08.13.11.21.02.07.03.14.05.2.14-.12.3-.23.46-.33,4.27-1.06,3.58-2.85,2.52-2.16Z"/>
  <path class="cls-1" d="M57.11,47.8c-1.65,1.7-.24,4.1,1.86,2.98,3.43-.53,1.39-6.34-1.86-2.98ZM60.03,48.99c-.24-.04-1.32,2.51-2.69,1.38-2.27-1.9,3.94-4.49,2.69-1.38Z"/>
  <path class="cls-1" d="M54.95,48.15c-.08-.04-.16-.05-.22-.02-.33-.26-.74-.38-1.16-.28-.97.24-1.27,1.43-.8,2.23s1.58,1.43,2.35.65c.8-.79.69-1.85-.17-2.58ZM55,50.08c-.17.22-.36.53-.67.52-.36,0-.72-.19-.94-.47-.35-.45-.56-1.41.15-1.67.66-.26,1.41.29,1.41.99,0,.12.1.17.2.16.02.14-.02.3-.15.47Z"/>
  <path class="cls-1" d="M57.1,57.19c1.13,1.57,2.74,1.63,3.34,1.21.06-.02.09-.03.12-.09,3.5-3.17-6.68-5.55-3.46-1.12ZM60.2,57.92c-.38.25-1.18.12-1.24.18-.47-.17-.9-.49-1.22-.92-2.99-3.98,4.87-.89,2.46.74Z"/>
  <path class="cls-1" d="M54.61,52.54c-.73.64.33,2.09,1.31,1.5.84,1.51,1.15-3.67-1.31-1.5ZM55.23,53.63c-1.04-.74.9-1.51.88-.3-.24.05-.3.72-.88.3Z"/>
  <path class="cls-1" d="M55.09,59.6c.54.09,1.24-.32,1.3-.88.33-4.04-5.74,1.31-1.3.88ZM55.84,58.76c-.25.42-1.04.31-1.13.48-2.73-.45,2.29-2.51,1.13-.48Z"/>
  <path class="cls-1" d="M53.22,53.87c-1.2-2.66-4.67-1.37-3.9.96.36,1.1,1.57,2.55,2.88,2.15,1.81-.56,1.66-3.45,1.02-3.11ZM50.07,55.04c-.8-1.73.63-2.24,1.34-2.07,3.34.82.51,6.07-1.34,2.07Z"/>
  <path class="cls-1" d="M51.93,58.66c-.85-1.28-2.46-.98-2.5-.09-.11.04-.19.14-.11.27,1.39,2.78,3.66,1.43,2.61-.18ZM49.95,58.81c-.14-.83,1.27-.55,1.6.3.19.49.25,1.47-1.6-.3Z"/>
  <path class="cls-1" d="M60.61,60.32c-2.17-1.56-2.96,3.19-.28,1.79.82-.05.83-1.36.28-1.79ZM59.74,61.8c-.94-.08-.86-.75-.4-.97,1.42-.67,1.41,1.08.4.97Z"/>
  <path class="cls-1" d="M64.16,55.75c.37-1.74-2.06-1.98-2.1.47-.04,1.71,2.49,1.49,2.1-.47ZM63.52,56.64c-.37.53-.98.17-.98-.4.02-1.49,1.23-1.69,1.22-.8,0,0-.27,1.14-.24,1.2Z"/>
  <path class="cls-1" d="M67.53,21.21c-.06.03-.13.04-.18.06.39.24.73.45,1.03.69.2-.06.43-.14.65-.17-.5-.2-.99-.39-1.5-.58ZM101.27,20.12c-2.92-2.01-5.95-2.45-10.45.96.6-1.3,1.24-2.67,1.56-4.06,1.52-6.35-8.36-5.62-10.14-5.81-5.84-.65-11.24,3.3-5.86,10.67-1.49-.82-2.87-1.33-4.1-1.57-1.08-.19-2.08-.18-2.97,0-.74.15-1.43.44-2.06.79h-.02c-.33.22-.63.45-.94.72-2.49,2.18-3.51,6.13-3.13,9.42.04.35.1.68.15,1,.7,3.17,2.83,5.35,6.39,4.02-.49.66-.68,1.44-.89,2.22-1.17,4.08,8.39,13.27,13.9,5.55-.87,8.68,10.9,3.87,11.43,3.55,2.57-1.41,3.41-3.24,3.39-5.12-.05-3.43-3.02-7.01-4.08-8.62.78.28,1.56.42,2.33.45,1.23.06,2.46-.19,3.69-.66.49-.18.97-.38,1.43-.64.12-.05,1.3-.63,2.52-1.62,2.56-2.13,5.27-6.17-2.15-11.25ZM102.27,31.08c-.21.16-.4.33-.57.46-.67.56-1.79.95-2.87,1.23-.69.18-1.34.31-1.85.42-3.32.69-6.61-1.09-4.41.22,1.2,2.66,9.88,12.26-2.49,14.48-7.02,1.27-6.29-5.2-6.27-5.52.52-5.65-.44.58-2.82,2.3-4.82,3.46-11.36-1.32-11.36-5.63,0-3.72,6.94-6.74,6.94-6.88-.02-.14-7.41,3.38-8.54,3.51-1.73.21-3.03-1.41-3.63-3.61-.08-.32-.14-.64-.2-.98-.5-3.15.34-7.03,3.19-8.67.31-.17.64-.32.99-.45.2-.06.43-.14.65-.17.6-.14,1.27-.19,2.01-.14.18.01.37.02.55.05.3.02.59.08.91.16.26.03.54.1.84.2.09,0,.16.03.25.06.2.06.42.14.64.22.25.08.5.18.77.28,1.07.44,2.24,1.01,3.49,1.77.09.06.21.07.3.02.08,0,.16-.06.2-.13.01-.02.02-.04.02-.07s0-.06-.03-.09c0-.06,0-.15-.07-.21,0-.02-.02-.04-.04-.05-.02,0-.03-.03-.04-.05-.04-.03-.06-.06-.09-.1-.21-.3-.4-.56-.59-.83-3.3-4.83-1.7-3.33-3.11-5.6-.56-2.03,2.14-5.4,5.86-5.18,5.93.36,13.01-.82,9.86,7.13-1.61,4.09-1.89,3.45-2.79,5.34-2.04,4.31,6.01-8.91,12.76-3.64,7.28,5.66,3.62,8.55,1.54,10.15ZM67.53,21.21c-.06.03-.13.04-.18.06.39.24.73.45,1.03.69.2-.06.43-.14.65-.17-.5-.2-.99-.39-1.5-.58Z"/>
  <path class="cls-1" d="M84.07,19.48c-3.18-.6-4.1,2.56-1.41,2.83.72.07,2.89-.02,2.53-1.16.54-.73-.4-1.52-1.12-1.67ZM82.38,21.55c-1.51-.57.36-1.78,1.65-1.35.84.27.3.92.62,1.17-.29.44-1.94.27-2.27.18Z"/>
  <path class="cls-1" d="M85.08,22.86c-1.69.18-.99,2.73-.28,2.95,0,.15.09.3.25.29,1.8.06,1.97-3.46.03-3.24ZM85.2,25.35c-.6,0-.73-2.32.16-1.73.53.36.64,1.07-.16,1.73Z"/>
  <path class="cls-1" d="M83.02,24.05c.18-1.15-3.14-1.85-3.12-.14.04,2.4,4.48,1.52,3.12.14ZM81.42,24.73c-1.83-.7-.34-1.9,1.02-.84-.19.23.46,1.39-1.02.84Z"/>
  <path class="cls-1" d="M79.5,26.8c-.89,1.67,2.25,2.9,3.35,1.74,2.25.15-1.94-4.38-3.35-1.74ZM80.91,28.22c-2.44-1.07,1.25-2.39,1.67-.03-.39.32-1.34.15-1.67.03Z"/>
  <path class="cls-1" d="M85.96,27.37c-.7.75-.18,2.06.72,1.69,1.44,1.36,1.03-3.51-.72-1.69ZM86.89,28.26c-.12.15-.34.33-.53.26-.75-.31.82-1.32.53-.26Z"/>
  <path class="cls-1" d="M84.07,29.71c-2.24.31-2.15,3.57.17,2.89,1.95.15,1.97-3.19-.17-2.89ZM84.85,31.38c-.22.5-.96.36-1.09.77-.99-.1-.58-1.64.46-1.62.43,0,.82.38.63.85Z"/>
  <path class="cls-1" d="M88.59,27.91c-.44,1.53,1.78,4.38,3.06,2.46,2.37-1.81-1.96-6.23-3.06-2.46ZM91.28,29.94c-1.16,1.54-3.07-2.41-1.01-2.61.6-.05,1.43.67,1.01,2.61Z"/>
  <path class="cls-1" d="M75.55,25.29c-1.09,1.19.25,3.08,1.42,2.52,2.09.89.58-4.65-1.42-2.52ZM76.89,27.29c-.77.33-1.35-1.1-.78-1.48.35-.27,1.52-.16.78,1.48Z"/>
  <path class="cls-1" d="M77.31,29.87c-.88,1.36,2.21,2.4,2.49,1.24,1.08-1.1-1.57-2.72-2.49-1.24ZM79.1,31.03c-2.35-.01-.36-2.02.14-.55.1.25-.13.33-.14.55Z"/>
  <path class="cls-1" d="M90.05,33.01c.04-.07.04-.16.02-.25-.31-.85-1.69-1.91-2.62-1.41-.88.46-.47,1.54,0,2.18.45.6,1.61,1.71,2.44,1.21.79-.47.59-1.15.16-1.73ZM89.11,34.13c-.46-.28-.92-.7-1.18-1.17-.19-.36-.52-1.23.3-.93.53.21.81.82,1.3,1.05.12.16.24.33.31.52.22.54-.28.8-.73.53Z"/>
  <path class="cls-1" d="M80.79,31.79c-2.05-.55-1.44,2.6-.1,1.9,1.08.28,1.21-1.6.1-1.9ZM80.53,33.15c-.21-.03-.47-.23-.39-.45.21-.49,1.24.03.39.45Z"/>
  <path class="cls-1" d="M84.85,34.21c-2.14-.78-4.25,1.45-2.3,2.59,1.24.7,2.81-.22,2.86-.62.73-.5.2-1.7-.56-1.97ZM82.73,35.31c.25-.24,1.64-1.18,2.05.78-1.54.68-2.63-.27-2.05-.78Z"/>
  <path class="cls-1" d="M72.76.01c-2.43.29-2.85,5.77-1.19,7.47,4.15,4.32,5.3-7.95,1.19-7.47ZM71.4,4.8c-.37-5.56,3.3-4.67,3.38-.91-.27,1-.21,2.05-.67,2.98-1.05,2.2-2.62-.88-2.71-2.07Z"/>
  <path class="cls-1" d="M63.61,10.64c-1.5.82-.99,2.22,0,3.28,2.6,2.76,5.68,1.77,5.12,1.21,2.02-1.37-2.24-6.06-5.12-4.49ZM67.9,15.2c-5.05.55-5.97-7.38-.61-3.18,2.39,1.87.43,2.85.61,3.18Z"/>
  <path class="cls-1" d="M43.65,34.08c-.34,1.21,1.82,3.23,3.17,2.21.09.11.28.14.38.05,2.16-1.7-2.71-5.18-3.55-2.26ZM44.42,34.15c1.21-.86,2.29-.24,2.4,1.15-.48,1.84-3.08-.68-2.4-1.15Z"/>
  <path class="cls-1" d="M31.58,42.88s.02.06.02.07h.01c.03.16.11.35.23.55.74,1.27,1.49,1.86,2.55,2.47.29.17.62.34.97.52,1.08.59,2.21,1.06,3.33,1.53.31.14.62.25.91.39.28-.31.58-.61.9-.87.36-.3.74-.54,1.13-.75-.35-.15-.71-.3-1.07-.46-1.44-.62-2.9-1.25-4.28-2.03-1.15-.67-2.16-1.28-3.38-1.69h-.01c-.27-.1-.53-.16-.81-.23-.44-.11-.59.13-.51.51Z"/>
  <path class="cls-1" d="M42.33,66.58c-.27.11-.56.22-.85.31-7.32,2.78-16.74,4.78-25.47,4.55-2.1-2.05-5.55-3.17-8.38-3.31-2.47-.13-6.82.56-7.56,3.42-.69,2.67,3.87,3.85,5.59,4.18,3.46.61,6.78-.3,9.78-2.04,9.03.36,13.58-.55,22.01-2.55,1.89-.66,3.63-1.35,5.46-2.26.26-.12.52-.24.76-.38-.56-.58-1.03-1.23-1.34-1.92ZM7.01,75.09c-1.23-.17-7.83-1.58-5.75-4.03,1.86-2.22,5.57-2.39,8.17-1.76,1.78.44,3.26,1.07,4.68,2-2.09-.18-2.29,1.71.15,2.24-2.37.91-4.55,1.85-7.25,1.55Z"/>
  <path class="cls-1" d="M32.9,42.59h0c6.99-1.92,4.14-8.83.03-8.33-1.33.15-2.78.85-4.46,1.82,9.05-15.4-19.68-11.15-10.65-1.51-9.66-4.02-11.77,8.67-2.65,8.81-5.16,4.63,6.32,9.8,9.07,2.98-.17,7.57,11.31,4.12,10.14-.4-.23-.99-1.1-2.02-2.78-3.02h0s-.07-.04-.1-.05c.03,0,.05,0,.08-.02.48-.07.91-.17,1.32-.28ZM29.27,42.97c3.35.21,7.22,5.17.84,6.73-4.96,1.22-5.22-1.79-4.46-5.72.08-.37-1.78,2.46-3.03,3.56-3.89,3.48-12.35-1.35-4.91-4.36.38-.04,1.09-.81-1.4-.56-5.67.54-6.84-3.86-5.43-6.11,2.2-3.51,5.17-1.12,8.93-.38.44-.87-5.04-4.45-2.01-7.2,2.51-2.27,17.34-5.51,8.94,8.4-1.13,1.06,7.42-4.33,9.31-.77,2.58,6.11-6.66,5.08-6.84,5.94-.21.09-.21.44.06.47Z"/>
  <path class="cls-1" d="M21.94,34.47c.44,3.28,3.05,3.39,2.9,1.43,1.43-3.38-3.3-4.4-2.9-1.43ZM24.11,36.55c-.98.46-2.18-2.64-1.08-3.06,1.72-.62.85,2.9,1.08,3.06Z"/>
  <path class="cls-1" d="M20.23,36.62c-.9,2.09,1.6,2.34,1.9.96.84-1.42-1.27-2.45-1.9-.96ZM21.33,37.91c-.56.42-.91-.38-.53-1.01.08-.16.25-.4.47-.38.88.14-.06,1.14.06,1.39Z"/>
  <path class="cls-1" d="M28.25,38.42c-1.11-1.97-4.16,1.67-1.51,2.22.51.11,1.23-.46,1.18-.63.43-.39.64-1.07.33-1.59ZM27.08,40.01c-.06.06-.07.13-.04.21-.22.03-.45-.02-.62-.24-.81-1.08,1.1-1.95,1.36-1.24.25.62-.3.93-.7,1.27Z"/>
  <path class="cls-1" d="M22.63,38.48c-.24,1.3,2.38,1.61,2.11.58.65-1.43-1.85-1.89-2.11-.58ZM23.98,38.29c.48.18.2.68.31.94-1.53.21-1.34-1.34-.31-.94Z"/>
  <path class="cls-1" d="M26.36,43.72c.62.29,1.44-.09,1.44-.82,1.03-3-5.09-.78-1.44.82ZM26.02,42.15c1.58-.84,1.27.64,1.39.9-.33.91-2.11-.52-1.39-.9Z"/>
  <path class="cls-1" d="M24.21,41.99c.32-2.01-2.5-1.33-2.33.24.36,3.36,3.06.56,2.33-.24ZM23.32,41.32c.55.06.36.77.6.89-.74,3.36-2.74-1.1-.6-.89Z"/>
  <path class="cls-1" d="M16.85,38.99c-.29,1.46,2.55,2.11,3.26.94,1.92-.87-2.93-2.88-3.26-.94ZM17.53,39.03c.71-.31,2.04-.38,2.28.71-.97,1.05-3-.42-2.28-.71Z"/>
  <path class="cls-1" d="M20.17,40.71c-.46-.13-1.11.33-1.08.82.08,2.2,3.26-.28,1.08-.82ZM19.74,41.91c-.12-.07-.21-.18-.18-.35.1-.83,1.71-.02.18.35Z"/>
  <path class="cls-1" d="M96.94,40.99c.15.2.27.4.39.6-.06.09-.1.22-.04.37.08.17.15.33.23.5,1.2,2.67,2.63,5.41,4.32,7.88.18.3.39.59.59.88.89-1.26,2.16-2.32,3.35-2.83-.2-.27-.38-.56-.54-.85-.79-1.25-1.5-2.49-2.21-3.61-1.77-2.86-3.79-5.47-5.84-8.12-.47-.6-.92-1.1-1.41-1.52-.53-.43-1.11-.75-1.84-.95-.38-.11-.62.13-.71.44,1.64,2.15,2.85,4.6,3.71,7.21Z"/>
  <path class="cls-1" d="M63.25,60.81c.23.56.56,1.14.98,1.7.65,1.55,1.01,2.92,1.16,4.1.28,0,.56-.01.83-.03,2.1-.08,4.17-.34,6.21-.84,5.24-1.28,10.32-3.05,15.49-4.49,2.51-.68,5.07-1.5,7.69-1.67,2-.13,4.02.17,6.01.39.02.01.04.01.06.01.41.08.8.17,1.21.22.79-.63,1.7-1.02,2.56-.96.54.03,3.78.62,4.49-.08-1.49.05-3.76-.51-5.06-1.27-2.91-.9-3.75-2.51-3.49-4.21-.32-.04-.64-.07-.96-.1-1.12-.08-2.28-.05-3.44.09-5.12.03-10.17,1.78-15.07,3.14-2.26.62-4.51,1.09-6.76,1.45-.33.05-.67.12-1,.15-1.08,4.97-4.81,8.68-10.16,1.99-.29-.37-.94-.05-.73.41Z"/>
  <g>
    <path class="cls-1" d="M126.59,96.2c-.31-.05-.63-.1-.95-.15.61,1.68,1.11.9,1.07.67-.03-.19-.08-.36-.12-.52Z"/>
    <path class="cls-1" d="M121.87,97.55c-1.03-.49-2.14-.74-3.3-.74-.86-.64-1.63-1.2-2.3-1.7-.66-.03-1.32-.04-1.97-.05-.83-.01-1.59-.02-2.3,0v2.5h9.87Z"/>
    <g>
      <path class="cls-1" d="M114.3,70.05c-.31.07-.6.15-.89.23-.1.02-.19.05-.29.07-.38.1-.76.21-1.12.32v-.75c.7-.64.95-1.53,1.09-2.52-.1-.97-.21-1.69-.34-2.25.22-.11.45-.22.69-.34.2.95.4,2.19.59,3.81.06.48.14.96.27,1.43Z"/>
      <path class="cls-1" d="M136.43,48.97c.47.22.94.44,1.4.68.12.03.25.04.35.07,1.4,1,2,1.1,4.56,2.88,2.58,1.81,4.92,3.94,7.08,6.21,1.12,1.17,2.18,2.43,2.97,3.84.02.03.03.04.05.07,1.52,2.07,2.94,4.19,4.31,6.38,1.53,2.41,3.24,4.93,4.36,7.6-1.58-1.52-3.88-2.52-5.82-3.4-11.07-5-30.16-12.56-30.41-12.63-.23-.06-.47-.11-.69-.14-.6-.11-1.18-.13-1.74-.09-.98.06-1.92.31-2.84.73-.47.21-.94.47-1.41.76-.06.04-.12.08-.18.11.49.1,1.03.15,1.6.15,4.2,3.1,6.27,4.21,4.24,6.87.4,0,.81.05,1.22.09,1.33.13,2.67.37,3.98.73,2.79.75,21.81,9.27,22.06,9.39,4.3,1.97,8.59,4.03,12.6,6.58-.03.48-.1.93-.1,1.41-.33.62-.26,1.44.58,1.76,1.21.45,2.46.51,3.68.88,1.22.35,2.41.77,3.62,1.13,2.86.82,5.68,1.68,8.48,2.62,0,0,5.02,1.59,12.05,3.9h.96v-6.53c-4.16-1.73-12.31-5.37-14.71-6.59-4.73-2.39-6.94-4.43-6.94-4.43-.11-.1-21.93-31.62-22.39-32.43-.59-.42-1.2-.79-1.86-1.1-.18.04-.44.07-.61.08h0c-1.88.65-2.24,2.29-3.05,1.92-1.64-.75-3.29-2.13-5.12-2.46-1.73-.86-3.65-1.63-5.69-2.31-1.46-.5-2.99-.95-4.55-1.34-3.86-1.01-7.94-1.75-11.83-2.24-.37-.06-.73-.1-1.09-.14l-3.55,2.24v.34c.35.03.69.07,1.04.11,11.14,1.16,21.48,4.7,23.39,6.3Z"/>
    </g>
    <path class="cls-1" d="M193.39,75.69v-1.07c-1.21.22-2.41.02-3.21-.62-.41-.32-2.71-2.69-3.68-2.52,1.23.81,2.75,2.59,3.37,3.97,4.69,6.17-4.38,8.49-7.3,6.79-3.37-1.97-.6-4.99-.39-6.98.27-2.76-.15-3.2-.26-2.49-1.65,10.02-10.93,3.34-6.73-.62,2.15-1.74,3.63-1.7,3.39-1.75-3.1-.53-5.88,3.86-5.77-3.78,0-.74.09-3.02.7-3.53,2.28-.74,8.16-.65,9.25,6.84.31,2.18,1.97-3.54-2.68-6.81-2.33-7.2-3.47-8.39,7.85-8.84.24.14,2.33.22,1.92,3.72-.13,1.2-.57,2.34-1.14,3.39-4.08,7.36-2.09,6.68-1.93,6.36.61-1.33.25-1.84,1.97-4.83.83-.85,1.68-1.49,2.9-1.43.66.02,1.23.15,1.74.33v-1.11c-.69-.27-1.41-.41-2.14-.37-.38.03-.8.14-1.2.32,1.84-3.8-.02-7.13-1.69-7.04-.24-.06-8.46.09-9.64,1.05-2.13,1.74-.9,6.31-.25,7.61-2.85-1.08-5.47-.09-5.62.33-.73.55-2.05,8.9,1.18,9.6-2.09,3.11,1.49,10,6.43,5.41-2.2,7.2,6.55,6.9,8.62,5.09,3.09-1.3,4.06-3.73,2.03-7.12.65.11,1.45.17,2.28.1Z"/>
    <path class="cls-1" d="M185.88,64.07c.23-.56-.91-1.94-2.36-1.85-3.98.25,2.9,5.14,2.36,1.85ZM183.87,62.81c.9.16,1.16.68,1.66,1.28-.1,2.01-4.43-1.73-1.66-1.28Z"/>
    <path class="cls-1" d="M181.1,66.86c-.52-.4-1.44-.43-1.57.38-.51,3.4,4,1.52,1.57-.38ZM181.04,68.62c-.37.4-1.11-.76-.94-1.32.12-.4,1.08-.14.94,1.32Z"/>
    <path class="cls-1" d="M186.36,72.79c-2.52-1.46-3.94,3.6-1.04,2.61,1.94-.68,1.86-2.13,1.04-2.61ZM186.4,73.94c-.11.54-.84.62-.91.85-3.43,1.72.6-4.01.93-1.04-.05.08-.03.12-.02.19Z"/>
    <path class="cls-1" d="M187.87,67.14c-1.86,1.63,2.2,5.61,2.2,2.27.5-1.61-1.17-3.16-2.2-2.27ZM189.38,70.17c-1.12.99-2.02-4.37-.27-2.52.9.95.17,2.52.27,2.52Z"/>
    <path class="cls-1" d="M185.24,69.36c-.59.98.35,2.01,1.09,1.17,1.3-.67-.28-2.52-1.09-1.17ZM186.17,69.98c-.11.18-.39.19-.49.33-.64-.68,1.09-1.19.49-.33Z"/>
    <path class="cls-1" d="M184.05,66.03c-1.36,1.1.76,3.27.96,2.2,1.08-1.91-.3-2.74-.96-2.2ZM184.71,67.9c-.47-.24-.75-1.05-.31-1.44.31-.27.74.29.31,1.44Z"/>
    <path class="cls-1" d="M179.64,70.04c-.73.53-.11,1.9.9,1.77,1.12,1.25,1.27-3.34-.9-1.77ZM180.67,71.39c-.24.09-.58-.06-.73-.28-.74-1.15,1.76-.81.73.28Z"/>
    <path class="cls-1" d="M184.3,71.07c-.46-2.36-3.64,1.82-.51,1.36,1.05-.17.76-1.14.51-1.36ZM182.98,71.48c.3-1.13.77-.06,1.03.15-.02.46-1.11.2-1.03-.15Z"/>
    <path class="cls-1" d="M170.92,50.82c-4.22-3.39-5.7.49-3.46,3.46-1.08-.41-4.26-.56-5.68-.12-2.6-.09,4.79,10.09,9.52,7.45.14-.02.21-.1.27-.2.07-.05.11-.09.11-.24.18-.48.11-1.11-.04-1.69,1.14-.1,5.42-3.72-.72-8.66ZM171,60.96c-1.43.64-6.07-.38-8.49-5.91,2.06-.11,4.47-.6,6.06.91,1.18,1.12,2.67,3.21,2.43,5ZM171.42,58.77c-.03-.07-.05-.13-.08-.18-.44-1.1-1.08-2.18-1.93-3.01-.15-.13-.3-.25-.45-.38.09-.11.12-.24,0-.4-.53-.76-1.3-1.46-1.55-2.38-.13-.51-.29-2.07.62-2.09,3.54-.11,7.62,7.53,3.38,8.44Z"/>
    <path class="cls-1" d="M177.11,47.65c-2.41-1.24-3.81,1.86-1.13,3,2.16,1.94,4.52-1.25,1.13-3ZM177.89,50.14c-.28.46-1.47-.3-1.84-.19-1.48-1.17-.43-2.4.92-1.38.34.26,1.25,1.04.92,1.57Z"/>
    <g>
      <path class="cls-1" d="M160.22,97.55c2.18-1.66,4.89-2.7,7.72-.95.52.32.99.64,1.42.95h1.8c-.75-.6-1.66-1.21-2.79-1.81-3.05-1.64-6.02-1.76-9.96,1.81h1.81Z"/>
      <path class="cls-1" d="M143.04,97.55c-.26-.51-.22-.7-1.06-1.77-.75-1.95,1.54-5.61,5.26-5.79,5.96-.28,12.86-2.23,10.59,6.02-.17.61-.32,1.11-.45,1.54h.8c.41-1.27.85-2.6,1.01-3.92.82-6.46-8.91-4.66-10.72-4.66-5.06,0-9.41,3.35-6.6,8.58h1.17Z"/>
    </g>
    <path class="cls-1" d="M152.35,97.55c-.28-.31-.75-.53-1.15-.56-.98-.08-1.72.18-2.19.56h3.34Z"/>
    <path class="cls-1" d="M116.77,97.06c-.49.12-.91.29-1.31.49h6.4c-.65-.31-1.32-.53-2.03-.64-.2-.03-.4-.05-.6-.07-.22,0-.44-.02-.66-.02-.11-.08-.22-.16-.32-.24-.1-.08-.2-.15-.31-.23-.41-.3-.79-.58-1.15-.85-.18-.13-.35-.26-.52-.38h0c-4.01-3.05-4.08-4.12,3.59-10.06.28-.04,2.03-1.17,3.72,1.93.58,1.05.9,2.24,1.02,3.42.34,3,.71,4.69,1.05,5.64.07.2.14.37.21.51.07.14.14.24.2.32.2.25.37.25.48.18.04-.03.07-.06.1-.09.06-.09.09-.2.08-.26-.04-.19-.09-.35-.12-.51h0c-.3-1.03-.79-1.6-1.06-4.57.17-1.16.5-2.17,1.52-2.85,3.81-2.48,7.15.76,7.36.9,3.71,2.53,3.71,5.74,2.41,7.87h1.4c.72-1.28.93-2.9-.05-4.85-.86-1.7-2.46-3.05-3.76-4.23-1.21-1.13-2.42-1.38-4.07-1.5-1.49-.11-3.09.19-4.28,1.12-.29.24-.57.58-.79.96-.7-4.17-4.13-5.81-5.45-4.78-.23.1-6.85,4.97-7.25,6.44-.42,1.49.56,3.11,1.73,4.35.89.96,1.9,1.71,2.47,2Z"/>
    <path class="cls-1" d="M137.83,78.87c-2.38.55-2.19,6.06-.39,7.56,4.61,3.84,4.42-8.5.39-7.56ZM139.92,85.54c-.81,2.3-2.7-.58-2.91-1.77-.97-5.48,2.77-4.99,3.26-1.25-.16,1.01,0,2.04-.35,3.02Z"/>
    <path class="cls-1" d="M127.02,78.12c-1.41.98-.75,2.33.35,3.27,2.88,2.44,5.83,1.14,5.21.63,1.85-1.58-2.89-5.76-5.56-3.9ZM131.76,82.18c-4.96,1.1-6.74-6.69-.94-3.08,2.56,1.59.73,2.78.94,3.08Z"/>
  </g>
</svg>