<?xml version="1.0" encoding="UTF-8"?>
<svg id="Capa_1" data-name="Capa 1" xmlns="http://www.w3.org/2000/svg" viewBox="0 0 2572.33 2154.56">
  <defs>
    <style>
      .cls-1 {
        stroke-linecap: round;
        stroke-linejoin: round;
        stroke-width: 3.87px;
      }

      .cls-1, .cls-2, .cls-3 {
        fill: #910f0f;
      }

      .cls-1, .cls-3 {
        stroke: #dfc298;
      }

      .cls-3 {
        stroke-miterlimit: 10;
        stroke-width: 2.9px;
      }
    </style>
  </defs>
  <g>
    <g>
      <g>
        <circle class="cls-3" cx="328.93" cy="18.5" r="210.98"/>
        <circle class="cls-3" cx="326.67" cy="20.77" r="179.22" transform="translate(80.99 237.07) rotate(-45)"/>
        <circle class="cls-3" cx="326.67" cy="20.77" r="147.46" transform="translate(80.99 237.07) rotate(-45)"/>
        <circle class="cls-3" cx="326.67" cy="20.77" r="111.16" transform="translate(80.99 237.07) rotate(-45)"/>
        <circle class="cls-3" cx="326.67" cy="20.77" r="79.4" transform="translate(80.99 237.07) rotate(-45)"/>
        <circle class="cls-3" cx="326.67" cy="20.77" r="43.1" transform="translate(80.99 237.07) rotate(-45)"/>
      </g>
      <g>
        <circle class="cls-3" cx="750.9" cy="18.5" r="210.98"/>
        <circle class="cls-3" cx="748.63" cy="20.77" r="179.22" transform="translate(204.58 535.44) rotate(-45)"/>
        <circle class="cls-3" cx="748.63" cy="20.77" r="147.46" transform="translate(204.58 535.44) rotate(-45)"/>
        <circle class="cls-3" cx="748.63" cy="20.77" r="111.16" transform="translate(204.58 535.44) rotate(-45)"/>
        <circle class="cls-3" cx="748.63" cy="20.77" r="79.4" transform="translate(204.58 535.44) rotate(-45)"/>
        <circle class="cls-3" cx="748.63" cy="20.77" r="43.1" transform="translate(2.17 81.34) rotate(-6.23)"/>
      </g>
      <g>
        <circle class="cls-3" cx="1172.86" cy="18.5" r="210.98"/>
        <circle class="cls-3" cx="1170.6" cy="20.77" r="179.22" transform="translate(328.17 833.82) rotate(-45)"/>
        <circle class="cls-3" cx="1170.6" cy="20.77" r="147.46" transform="translate(328.17 833.82) rotate(-45)"/>
        <circle class="cls-3" cx="1170.6" cy="20.77" r="111.16" transform="translate(328.17 833.82) rotate(-45)"/>
        <circle class="cls-3" cx="1170.6" cy="20.77" r="79.4" transform="translate(328.17 833.82) rotate(-45)"/>
        <circle class="cls-3" cx="1170.6" cy="20.77" r="43.1" transform="translate(6.32 144) rotate(-7.06)"/>
      </g>
      <g>
        <circle class="cls-3" cx="1594.83" cy="18.5" r="210.98"/>
        <circle class="cls-3" cx="1592.56" cy="20.77" r="179.22" transform="translate(451.7649 1132.1927) rotate(-45)"/>
        <circle class="cls-3" cx="1592.56" cy="20.77" r="147.46" transform="translate(451.7649 1132.1927) rotate(-45)"/>
        <circle class="cls-3" cx="1592.56" cy="20.77" r="111.16" transform="translate(451.7648 1132.1927) rotate(-45)"/>
        <circle class="cls-3" cx="1592.56" cy="20.77" r="79.4" transform="translate(451.7648 1132.1927) rotate(-45)"/>
        <circle class="cls-3" cx="1592.56" cy="20.77" r="43.1" transform="translate(13.09 225.63) rotate(-8.14)"/>
      </g>
      <g>
        <circle class="cls-3" cx="2016.79" cy="18.5" r="210.98"/>
        <circle class="cls-3" cx="2014.52" cy="20.77" r="179.22" transform="translate(575.3554 1430.5667) rotate(-45)"/>
        <circle class="cls-3" cx="2014.52" cy="20.77" r="147.46" transform="translate(575.3554 1430.5667) rotate(-45)"/>
        <circle class="cls-3" cx="2014.52" cy="20.77" r="111.16" transform="translate(575.3553 1430.5666) rotate(-45)"/>
        <circle class="cls-3" cx="2014.52" cy="20.77" r="79.4" transform="translate(144.45 770.14) rotate(-22.43)"/>
        <circle class="cls-3" cx="2014.52" cy="20.77" r="43.1" transform="translate(24.69 335.92) rotate(-9.59)"/>
      </g>
      <g>
        <circle class="cls-3" cx="2438.76" cy="18.5" r="210.98"/>
        <circle class="cls-3" cx="2436.49" cy="20.77" r="179.22" transform="translate(698.946 1728.9406) rotate(-45)"/>
        <circle class="cls-3" cx="2436.49" cy="20.77" r="147.46" transform="translate(698.946 1728.9406) rotate(-45)"/>
        <circle class="cls-3" cx="2436.49" cy="20.77" r="111.16" transform="translate(698.9459 1728.9406) rotate(-45)"/>
        <circle class="cls-3" cx="2436.49" cy="20.77" r="79.4" transform="translate(157.04 881.6) rotate(-21.18)"/>
        <circle class="cls-3" cx="2436.49" cy="20.77" r="43.1" transform="translate(45.92 492.06) rotate(-11.64)"/>
      </g>
    </g>
    <g>
      <g>
        <circle class="cls-3" cx="116.02" cy="142.38" r="210.98"/>
        <circle class="cls-3" cx="113.75" cy="144.65" r="179.22"/>
        <circle class="cls-3" cx="113.75" cy="144.65" r="147.46"/>
        <circle class="cls-3" cx="113.75" cy="144.65" r="111.16" transform="translate(-68.97 122.8) rotate(-45)"/>
        <circle class="cls-3" cx="113.75" cy="144.65" r="79.4" transform="translate(-68.97 122.8) rotate(-45)"/>
        <circle class="cls-3" cx="113.75" cy="144.65" r="43.1"/>
      </g>
      <g>
        <circle class="cls-3" cx="537.98" cy="142.38" r="210.98"/>
        <circle class="cls-3" cx="535.71" cy="144.65" r="179.22"/>
        <circle class="cls-3" cx="535.71" cy="144.65" r="147.46"/>
        <circle class="cls-3" cx="535.71" cy="144.65" r="111.16" transform="translate(54.63 421.17) rotate(-45)"/>
        <circle class="cls-3" cx="535.71" cy="144.65" r="79.4" transform="translate(54.63 421.17) rotate(-45)"/>
        <circle class="cls-3" cx="535.71" cy="144.65" r="43.1"/>
      </g>
      <g>
        <circle class="cls-3" cx="959.95" cy="142.38" r="210.98"/>
        <circle class="cls-3" cx="957.68" cy="144.65" r="179.22"/>
        <circle class="cls-3" cx="957.68" cy="144.65" r="147.46"/>
        <circle class="cls-3" cx="957.68" cy="144.65" r="111.16" transform="translate(178.22 719.55) rotate(-45)"/>
        <circle class="cls-3" cx="957.68" cy="144.65" r="79.4" transform="translate(178.22 719.55) rotate(-45)"/>
        <circle class="cls-3" cx="957.68" cy="144.65" r="43.1"/>
      </g>
      <g>
        <circle class="cls-3" cx="1381.91" cy="142.38" r="210.98"/>
        <circle class="cls-3" cx="1379.64" cy="144.65" r="179.22"/>
        <circle class="cls-3" cx="1379.64" cy="144.65" r="147.46"/>
        <circle class="cls-3" cx="1379.64" cy="144.65" r="111.16" transform="translate(301.8066 1017.9204) rotate(-45)"/>
        <circle class="cls-3" cx="1379.64" cy="144.65" r="79.4" transform="translate(301.8066 1017.9204) rotate(-45)"/>
        <circle class="cls-3" cx="1379.64" cy="144.65" r="43.1"/>
      </g>
      <g>
        <circle class="cls-3" cx="1803.88" cy="142.38" r="210.98"/>
        <circle class="cls-3" cx="1801.61" cy="144.65" r="179.22"/>
        <circle class="cls-3" cx="1801.61" cy="144.65" r="147.46"/>
        <circle class="cls-3" cx="1801.61" cy="144.65" r="111.16" transform="translate(425.3972 1316.2944) rotate(-45)"/>
        <circle class="cls-3" cx="1801.61" cy="144.65" r="79.4" transform="translate(425.3971 1316.2944) rotate(-45)"/>
        <circle class="cls-3" cx="1801.61" cy="144.65" r="43.1"/>
      </g>
      <g>
        <circle class="cls-3" cx="2225.84" cy="142.38" r="210.98"/>
        <circle class="cls-3" cx="2223.57" cy="144.65" r="179.22"/>
        <circle class="cls-3" cx="2223.57" cy="144.65" r="147.46"/>
        <circle class="cls-3" cx="2223.57" cy="144.65" r="111.16" transform="translate(548.9877 1614.6684) rotate(-45)"/>
        <circle class="cls-3" cx="2223.57" cy="144.65" r="79.4" transform="translate(548.9877 1614.6684) rotate(-45)"/>
        <circle class="cls-3" cx="2223.57" cy="144.65" r="43.1"/>
      </g>
    </g>
    <g>
      <g>
        <circle class="cls-3" cx="328.93" cy="262.39" r="210.98"/>
        <circle class="cls-3" cx="326.67" cy="264.66" r="179.22" transform="translate(-91.46 308.5) rotate(-45)"/>
        <circle class="cls-3" cx="326.67" cy="264.66" r="147.46"/>
        <circle class="cls-3" cx="326.67" cy="264.66" r="111.16" transform="translate(-91.46 308.5) rotate(-45)"/>
        <circle class="cls-3" cx="326.67" cy="264.66" r="79.4" transform="translate(-91.46 308.5) rotate(-45)"/>
        <circle class="cls-3" cx="326.67" cy="264.66" r="43.1"/>
      </g>
      <g>
        <circle class="cls-3" cx="750.9" cy="262.39" r="210.98"/>
        <circle class="cls-3" cx="748.63" cy="264.66" r="179.22" transform="translate(32.13 606.88) rotate(-45)"/>
        <circle class="cls-3" cx="748.63" cy="264.66" r="147.46"/>
        <circle class="cls-3" cx="748.63" cy="264.66" r="111.16" transform="translate(32.13 606.88) rotate(-45)"/>
        <circle class="cls-3" cx="748.63" cy="264.66" r="79.4" transform="translate(32.13 606.88) rotate(-45)"/>
        <circle class="cls-3" cx="748.63" cy="264.66" r="43.1"/>
      </g>
      <g>
        <circle class="cls-3" cx="1172.86" cy="262.39" r="210.98"/>
        <circle class="cls-3" cx="1170.6" cy="264.66" r="179.22" transform="translate(155.72 905.25) rotate(-45)"/>
        <circle class="cls-3" cx="1170.6" cy="264.66" r="147.46"/>
        <circle class="cls-3" cx="1170.6" cy="264.66" r="111.16" transform="translate(155.72 905.25) rotate(-45)"/>
        <circle class="cls-3" cx="1170.6" cy="264.66" r="79.4" transform="translate(155.72 905.25) rotate(-45)"/>
        <circle class="cls-3" cx="1170.6" cy="264.66" r="43.1"/>
      </g>
      <g>
        <circle class="cls-3" cx="1594.83" cy="262.39" r="210.98"/>
        <circle class="cls-3" cx="1592.56" cy="264.66" r="179.22" transform="translate(279.3102 1203.6258) rotate(-45)"/>
        <circle class="cls-3" cx="1592.56" cy="264.66" r="147.46"/>
        <circle class="cls-3" cx="1592.56" cy="264.66" r="111.16" transform="translate(279.3101 1203.6257) rotate(-45)"/>
        <circle class="cls-3" cx="1592.56" cy="264.66" r="79.4" transform="translate(279.3101 1203.6257) rotate(-45)"/>
        <circle class="cls-3" cx="1592.56" cy="264.66" r="43.1"/>
      </g>
      <g>
        <circle class="cls-3" cx="2016.79" cy="262.39" r="210.98"/>
        <circle class="cls-3" cx="2014.52" cy="264.66" r="179.22" transform="translate(402.9008 1501.9997) rotate(-45)"/>
        <circle class="cls-3" cx="2014.52" cy="264.66" r="147.46"/>
        <circle class="cls-3" cx="2014.52" cy="264.66" r="111.16" transform="translate(402.9007 1501.9997) rotate(-45)"/>
        <circle class="cls-3" cx="2014.52" cy="264.66" r="79.4" transform="translate(402.9007 1501.9997) rotate(-45)"/>
        <circle class="cls-3" cx="2014.52" cy="264.66" r="43.1"/>
      </g>
      <g>
        <circle class="cls-3" cx="2438.76" cy="262.39" r="210.98"/>
        <circle class="cls-3" cx="2436.49" cy="264.66" r="179.22" transform="translate(526.4913 1800.3737) rotate(-45)"/>
        <circle class="cls-3" cx="2436.49" cy="264.66" r="147.46"/>
        <circle class="cls-3" cx="2436.49" cy="264.66" r="111.16" transform="translate(526.4912 1800.3736) rotate(-45)"/>
        <circle class="cls-3" cx="2436.49" cy="264.66" r="79.4" transform="translate(526.4912 1800.3736) rotate(-45)"/>
        <circle class="cls-3" cx="2436.49" cy="264.66" r="43.1"/>
      </g>
    </g>
    <g>
      <g>
        <circle class="cls-3" cx="116.02" cy="386.27" r="210.98"/>
        <circle class="cls-3" cx="113.75" cy="388.54" r="179.22"/>
        <circle class="cls-3" cx="113.75" cy="388.54" r="147.46"/>
        <circle class="cls-3" cx="113.75" cy="388.54" r="111.16" transform="translate(-241.42 194.23) rotate(-45)"/>
        <circle class="cls-3" cx="113.75" cy="388.54" r="79.4" transform="translate(-241.42 194.23) rotate(-45)"/>
        <circle class="cls-3" cx="113.75" cy="388.54" r="43.1"/>
      </g>
      <g>
        <circle class="cls-3" cx="537.98" cy="386.27" r="210.98"/>
        <circle class="cls-3" cx="535.71" cy="388.54" r="179.22"/>
        <circle class="cls-3" cx="535.71" cy="388.54" r="147.46"/>
        <circle class="cls-3" cx="535.71" cy="388.54" r="111.16" transform="translate(-117.83 492.61) rotate(-45)"/>
        <circle class="cls-3" cx="535.71" cy="388.54" r="79.4" transform="translate(-117.83 492.61) rotate(-45)"/>
        <circle class="cls-3" cx="535.71" cy="388.54" r="43.1"/>
      </g>
      <g>
        <circle class="cls-3" cx="959.95" cy="386.27" r="210.98"/>
        <circle class="cls-3" cx="957.68" cy="388.54" r="179.22"/>
        <circle class="cls-3" cx="957.68" cy="388.54" r="147.46"/>
        <circle class="cls-3" cx="957.68" cy="388.54" r="111.16" transform="translate(5.76 790.98) rotate(-45)"/>
        <circle class="cls-3" cx="957.68" cy="388.54" r="79.4" transform="translate(5.76 790.98) rotate(-45)"/>
        <circle class="cls-3" cx="957.68" cy="388.54" r="43.1"/>
      </g>
      <g>
        <circle class="cls-3" cx="1381.91" cy="386.27" r="210.98"/>
        <circle class="cls-3" cx="1379.64" cy="388.54" r="179.22"/>
        <circle class="cls-3" cx="1379.64" cy="388.54" r="147.46"/>
        <circle class="cls-3" cx="1379.64" cy="388.54" r="111.16" transform="translate(129.3519 1089.3535) rotate(-45)"/>
        <circle class="cls-3" cx="1379.64" cy="388.54" r="79.4" transform="translate(129.3519 1089.3535) rotate(-45)"/>
        <circle class="cls-3" cx="1379.64" cy="388.54" r="43.1"/>
      </g>
      <g>
        <circle class="cls-3" cx="1803.88" cy="386.27" r="210.98"/>
        <circle class="cls-3" cx="1801.61" cy="388.54" r="179.22"/>
        <circle class="cls-3" cx="1801.61" cy="388.54" r="147.46"/>
        <circle class="cls-3" cx="1801.61" cy="388.54" r="111.16" transform="translate(252.9425 1387.7275) rotate(-45)"/>
        <circle class="cls-3" cx="1801.61" cy="388.54" r="79.4" transform="translate(252.9424 1387.7275) rotate(-45)"/>
        <circle class="cls-3" cx="1801.61" cy="388.54" r="43.1"/>
      </g>
      <g>
        <circle class="cls-3" cx="2225.84" cy="386.27" r="210.98"/>
        <circle class="cls-3" cx="2223.57" cy="388.54" r="179.22"/>
        <circle class="cls-3" cx="2223.57" cy="388.54" r="147.46"/>
        <circle class="cls-3" cx="2223.57" cy="388.54" r="111.16" transform="translate(376.533 1686.1014) rotate(-45)"/>
        <circle class="cls-3" cx="2223.57" cy="388.54" r="79.4" transform="translate(376.533 1686.1014) rotate(-45)"/>
        <circle class="cls-3" cx="2223.57" cy="388.54" r="43.1"/>
      </g>
    </g>
    <g>
      <g>
        <circle class="cls-3" cx="328.93" cy="506.27" r="210.98"/>
        <circle class="cls-3" cx="326.67" cy="508.54" r="179.22"/>
        <circle class="cls-3" cx="326.67" cy="508.54" r="147.46"/>
        <circle class="cls-3" cx="326.67" cy="508.54" r="111.16" transform="translate(-263.92 379.94) rotate(-45)"/>
        <circle class="cls-3" cx="326.67" cy="508.54" r="79.4" transform="translate(-263.92 379.94) rotate(-45)"/>
        <circle class="cls-3" cx="326.67" cy="508.54" r="43.1"/>
      </g>
      <g>
        <circle class="cls-3" cx="750.9" cy="506.27" r="210.98"/>
        <circle class="cls-3" cx="748.63" cy="508.54" r="179.22"/>
        <circle class="cls-3" cx="748.63" cy="508.54" r="147.46"/>
        <circle class="cls-3" cx="748.63" cy="508.54" r="111.16" transform="translate(-140.33 678.31) rotate(-45)"/>
        <circle class="cls-3" cx="748.63" cy="508.54" r="79.4" transform="translate(-140.33 678.31) rotate(-45)"/>
        <circle class="cls-3" cx="748.63" cy="508.54" r="43.1"/>
      </g>
      <g>
        <circle class="cls-3" cx="1172.86" cy="506.27" r="210.98"/>
        <circle class="cls-3" cx="1170.6" cy="508.54" r="179.22"/>
        <circle class="cls-3" cx="1170.6" cy="508.54" r="147.46"/>
        <circle class="cls-3" cx="1170.6" cy="508.54" r="111.16" transform="translate(-16.74 976.68) rotate(-45)"/>
        <circle class="cls-3" cx="1170.6" cy="508.54" r="79.4" transform="translate(-16.74 976.68) rotate(-45)"/>
        <circle class="cls-3" cx="1170.6" cy="508.54" r="43.1"/>
      </g>
      <g>
        <circle class="cls-3" cx="1594.83" cy="506.27" r="210.98"/>
        <circle class="cls-3" cx="1592.56" cy="508.54" r="179.22"/>
        <circle class="cls-3" cx="1592.56" cy="508.54" r="147.46"/>
        <circle class="cls-3" cx="1592.56" cy="508.54" r="111.16" transform="translate(106.8555 1275.0588) rotate(-45)"/>
        <circle class="cls-3" cx="1592.56" cy="508.54" r="79.4" transform="translate(106.8555 1275.0588) rotate(-45)"/>
        <circle class="cls-3" cx="1592.56" cy="508.54" r="43.1"/>
      </g>
      <g>
        <circle class="cls-3" cx="2016.79" cy="506.27" r="210.98"/>
        <circle class="cls-3" cx="2014.52" cy="508.54" r="179.22"/>
        <circle class="cls-3" cx="2014.52" cy="508.54" r="147.46"/>
        <circle class="cls-3" cx="2014.52" cy="508.54" r="111.16" transform="translate(230.446 1573.4327) rotate(-45)"/>
        <circle class="cls-3" cx="2014.52" cy="508.54" r="79.4" transform="translate(230.446 1573.4327) rotate(-45)"/>
        <circle class="cls-3" cx="2014.52" cy="508.54" r="43.1"/>
      </g>
      <g>
        <circle class="cls-3" cx="2438.76" cy="506.27" r="210.98"/>
        <circle class="cls-3" cx="2436.49" cy="508.54" r="179.22"/>
        <circle class="cls-3" cx="2436.49" cy="508.54" r="147.46"/>
        <circle class="cls-3" cx="2436.49" cy="508.54" r="111.16" transform="translate(354.0365 1871.8067) rotate(-45)"/>
        <circle class="cls-3" cx="2436.49" cy="508.54" r="79.4" transform="translate(354.0365 1871.8067) rotate(-45)"/>
        <circle class="cls-3" cx="2436.49" cy="508.54" r="43.1"/>
      </g>
    </g>
    <g>
      <g>
        <circle class="cls-3" cx="116.02" cy="630.15" r="210.98"/>
        <circle class="cls-3" cx="113.75" cy="632.42" r="179.22"/>
        <circle class="cls-3" cx="113.75" cy="632.42" r="147.46"/>
        <circle class="cls-3" cx="113.75" cy="632.42" r="111.16" transform="translate(-413.87 265.66) rotate(-45)"/>
        <circle class="cls-3" cx="113.75" cy="632.42" r="79.4" transform="translate(-413.87 265.66) rotate(-45)"/>
        <circle class="cls-3" cx="113.75" cy="632.42" r="43.1"/>
      </g>
      <g>
        <circle class="cls-3" cx="537.98" cy="630.15" r="210.98"/>
        <circle class="cls-3" cx="535.71" cy="632.42" r="179.22"/>
        <circle class="cls-3" cx="535.71" cy="632.42" r="147.46"/>
        <circle class="cls-3" cx="535.71" cy="632.42" r="111.16" transform="translate(-290.28 564.04) rotate(-45)"/>
        <circle class="cls-3" cx="535.71" cy="632.42" r="79.4" transform="translate(-290.28 564.04) rotate(-45)"/>
        <circle class="cls-3" cx="535.71" cy="632.42" r="43.1"/>
      </g>
      <g>
        <circle class="cls-3" cx="959.95" cy="630.15" r="210.98"/>
        <circle class="cls-3" cx="957.68" cy="632.42" r="179.22"/>
        <circle class="cls-3" cx="957.68" cy="632.42" r="147.46"/>
        <circle class="cls-3" cx="957.68" cy="632.42" r="111.16" transform="translate(-166.69 862.41) rotate(-45)"/>
        <circle class="cls-3" cx="957.68" cy="632.42" r="79.4" transform="translate(-166.69 862.41) rotate(-45)"/>
        <circle class="cls-3" cx="957.68" cy="632.42" r="43.1"/>
      </g>
      <g>
        <circle class="cls-3" cx="1381.91" cy="630.15" r="210.98"/>
        <circle class="cls-3" cx="1379.64" cy="632.42" r="179.22"/>
        <circle class="cls-3" cx="1379.64" cy="632.42" r="147.46"/>
        <circle class="cls-3" cx="1379.64" cy="632.42" r="111.16" transform="translate(-43.1028 1160.7866) rotate(-45)"/>
        <circle class="cls-3" cx="1379.64" cy="632.42" r="79.4" transform="translate(-43.1028 1160.7866) rotate(-45)"/>
        <circle class="cls-3" cx="1379.64" cy="632.42" r="43.1"/>
      </g>
      <g>
        <circle class="cls-3" cx="1803.88" cy="630.15" r="210.98"/>
        <circle class="cls-3" cx="1801.61" cy="632.42" r="179.22"/>
        <circle class="cls-3" cx="1801.61" cy="632.42" r="147.46"/>
        <circle class="cls-3" cx="1801.61" cy="632.42" r="111.16" transform="translate(80.4878 1459.1605) rotate(-45)"/>
        <circle class="cls-3" cx="1801.61" cy="632.42" r="79.4" transform="translate(80.4878 1459.1605) rotate(-45)"/>
        <circle class="cls-3" cx="1801.61" cy="632.42" r="43.1"/>
      </g>
      <g>
        <circle class="cls-3" cx="2225.84" cy="630.15" r="210.98"/>
        <circle class="cls-3" cx="2223.57" cy="632.42" r="179.22"/>
        <circle class="cls-3" cx="2223.57" cy="632.42" r="147.46"/>
        <circle class="cls-3" cx="2223.57" cy="632.42" r="111.16" transform="translate(204.0783 1757.5345) rotate(-45)"/>
        <circle class="cls-3" cx="2223.57" cy="632.42" r="79.4" transform="translate(204.0783 1757.5345) rotate(-45)"/>
        <circle class="cls-3" cx="2223.57" cy="632.42" r="43.1"/>
      </g>
    </g>
    <g>
      <g>
        <circle class="cls-3" cx="328.93" cy="750.16" r="210.98"/>
        <circle class="cls-3" cx="326.67" cy="752.43" r="179.22"/>
        <circle class="cls-3" cx="326.67" cy="752.43" r="147.46"/>
        <circle class="cls-3" cx="326.67" cy="752.43" r="111.16" transform="translate(-436.37 451.37) rotate(-45)"/>
        <circle class="cls-3" cx="326.67" cy="752.43" r="79.4" transform="translate(-436.37 451.37) rotate(-45)"/>
        <circle class="cls-3" cx="326.67" cy="752.43" r="43.1"/>
      </g>
      <g>
        <circle class="cls-3" cx="750.9" cy="750.16" r="210.98"/>
        <circle class="cls-3" cx="748.63" cy="752.43" r="179.22"/>
        <circle class="cls-3" cx="748.63" cy="752.43" r="147.46"/>
        <circle class="cls-3" cx="748.63" cy="752.43" r="111.16" transform="translate(-312.78 749.74) rotate(-45)"/>
        <circle class="cls-3" cx="748.63" cy="752.43" r="79.4" transform="translate(-312.78 749.74) rotate(-45)"/>
        <circle class="cls-3" cx="748.63" cy="752.43" r="43.1"/>
      </g>
      <g>
        <circle class="cls-3" cx="1172.86" cy="750.16" r="210.98"/>
        <circle class="cls-3" cx="1170.6" cy="752.43" r="179.22"/>
        <circle class="cls-3" cx="1170.6" cy="752.43" r="147.46"/>
        <circle class="cls-3" cx="1170.6" cy="752.43" r="111.16" transform="translate(-189.1898 1048.1179) rotate(-45)"/>
        <circle class="cls-3" cx="1170.6" cy="752.43" r="79.4" transform="translate(-189.1898 1048.1179) rotate(-45)"/>
        <circle class="cls-3" cx="1170.6" cy="752.43" r="43.1"/>
      </g>
      <g>
        <circle class="cls-3" cx="1594.83" cy="750.16" r="210.98"/>
        <circle class="cls-3" cx="1592.56" cy="752.43" r="179.22"/>
        <circle class="cls-3" cx="1592.56" cy="752.43" r="147.46"/>
        <circle class="cls-3" cx="1592.56" cy="752.43" r="111.16" transform="translate(-65.5992 1346.4918) rotate(-45)"/>
        <circle class="cls-3" cx="1592.56" cy="752.43" r="79.4" transform="translate(-65.5992 1346.4918) rotate(-45)"/>
        <circle class="cls-3" cx="1592.56" cy="752.43" r="43.1"/>
      </g>
      <g>
        <circle class="cls-3" cx="2016.79" cy="750.16" r="210.98"/>
        <circle class="cls-3" cx="2014.52" cy="752.43" r="179.22"/>
        <circle class="cls-3" cx="2014.52" cy="752.43" r="147.46"/>
        <circle class="cls-3" cx="2014.52" cy="752.43" r="111.16" transform="translate(57.9913 1644.8658) rotate(-45)"/>
        <circle class="cls-3" cx="2014.52" cy="752.43" r="79.4" transform="translate(57.9913 1644.8658) rotate(-45)"/>
        <circle class="cls-3" cx="2014.52" cy="752.43" r="43.1"/>
      </g>
      <g>
        <circle class="cls-3" cx="2438.76" cy="750.16" r="210.98"/>
        <circle class="cls-3" cx="2436.49" cy="752.43" r="179.22"/>
        <circle class="cls-3" cx="2436.49" cy="752.43" r="147.46"/>
        <circle class="cls-3" cx="2436.49" cy="752.43" r="111.16" transform="translate(181.5819 1943.2398) rotate(-45)"/>
        <circle class="cls-3" cx="2436.49" cy="752.43" r="79.4" transform="translate(181.5819 1943.2398) rotate(-45)"/>
        <circle class="cls-3" cx="2436.49" cy="752.43" r="43.1"/>
      </g>
    </g>
    <g>
      <g>
        <circle class="cls-3" cx="116.02" cy="874.04" r="210.98"/>
        <circle class="cls-3" cx="113.75" cy="876.31" r="179.22"/>
        <circle class="cls-3" cx="113.75" cy="876.31" r="147.46"/>
        <circle class="cls-3" cx="113.75" cy="876.31" r="111.16" transform="translate(-586.33 337.1) rotate(-45)"/>
        <circle class="cls-3" cx="113.75" cy="876.31" r="79.4" transform="translate(-586.33 337.1) rotate(-45)"/>
        <circle class="cls-3" cx="113.75" cy="876.31" r="43.1"/>
      </g>
      <g>
        <circle class="cls-3" cx="537.98" cy="874.04" r="210.98"/>
        <circle class="cls-3" cx="535.71" cy="876.31" r="179.22"/>
        <circle class="cls-3" cx="535.71" cy="876.31" r="147.46"/>
        <circle class="cls-3" cx="535.71" cy="876.31" r="111.16" transform="translate(-462.74 635.47) rotate(-45)"/>
        <circle class="cls-3" cx="535.71" cy="876.31" r="79.4" transform="translate(-462.74 635.47) rotate(-45)"/>
        <circle class="cls-3" cx="535.71" cy="876.31" r="43.1"/>
      </g>
      <g>
        <circle class="cls-3" cx="959.95" cy="874.04" r="210.98"/>
        <circle class="cls-3" cx="957.68" cy="876.31" r="179.22"/>
        <circle class="cls-3" cx="957.68" cy="876.31" r="147.46"/>
        <circle class="cls-3" cx="957.68" cy="876.31" r="111.16" transform="translate(-339.15 933.85) rotate(-45)"/>
        <circle class="cls-3" cx="957.68" cy="876.31" r="79.4" transform="translate(-339.15 933.85) rotate(-45)"/>
        <circle class="cls-3" cx="957.68" cy="876.31" r="43.1"/>
      </g>
      <g>
        <circle class="cls-3" cx="1381.91" cy="874.04" r="210.98"/>
        <circle class="cls-3" cx="1379.64" cy="876.31" r="179.22"/>
        <circle class="cls-3" cx="1379.64" cy="876.31" r="147.46"/>
        <circle class="cls-3" cx="1379.64" cy="876.31" r="111.16" transform="translate(-215.5574 1232.2196) rotate(-45)"/>
        <circle class="cls-3" cx="1379.64" cy="876.31" r="79.4" transform="translate(-215.5574 1232.2196) rotate(-45)"/>
        <circle class="cls-3" cx="1379.64" cy="876.31" r="43.1"/>
      </g>
      <g>
        <circle class="cls-3" cx="1803.88" cy="874.04" r="210.98"/>
        <circle class="cls-3" cx="1801.61" cy="876.31" r="179.22"/>
        <circle class="cls-3" cx="1801.61" cy="876.31" r="147.46"/>
        <circle class="cls-3" cx="1801.61" cy="876.31" r="111.16" transform="translate(-91.9669 1530.5936) rotate(-45)"/>
        <circle class="cls-3" cx="1801.61" cy="876.31" r="79.4" transform="translate(-91.9669 1530.5936) rotate(-45)"/>
        <circle class="cls-3" cx="1801.61" cy="876.31" r="43.1"/>
      </g>
      <g>
        <circle class="cls-3" cx="2225.84" cy="874.04" r="210.98"/>
        <circle class="cls-3" cx="2223.57" cy="876.31" r="179.22"/>
        <circle class="cls-3" cx="2223.57" cy="876.31" r="147.46"/>
        <circle class="cls-3" cx="2223.57" cy="876.31" r="111.16" transform="translate(31.6236 1828.9676) rotate(-45)"/>
        <circle class="cls-3" cx="2223.57" cy="876.31" r="79.4" transform="translate(31.6236 1828.9676) rotate(-45)"/>
        <circle class="cls-3" cx="2223.57" cy="876.31" r="43.1"/>
      </g>
    </g>
    <g>
      <g>
        <circle class="cls-3" cx="328.93" cy="994.05" r="210.98"/>
        <circle class="cls-3" cx="326.67" cy="996.32" r="179.22"/>
        <circle class="cls-3" cx="326.67" cy="996.32" r="147.46"/>
        <circle class="cls-3" cx="326.67" cy="996.32" r="111.16" transform="translate(-608.83 522.8) rotate(-45)"/>
        <circle class="cls-3" cx="326.67" cy="996.32" r="79.4" transform="translate(-608.83 522.8) rotate(-45)"/>
        <circle class="cls-3" cx="326.67" cy="996.32" r="43.1"/>
      </g>
      <g>
        <circle class="cls-3" cx="750.9" cy="994.05" r="210.98"/>
        <circle class="cls-3" cx="748.63" cy="996.32" r="179.22"/>
        <circle class="cls-3" cx="748.63" cy="996.32" r="147.46"/>
        <circle class="cls-3" cx="748.63" cy="996.32" r="111.16" transform="translate(-485.23 821.18) rotate(-45)"/>
        <circle class="cls-3" cx="748.63" cy="996.32" r="79.4" transform="translate(-485.23 821.18) rotate(-45)"/>
        <circle class="cls-3" cx="748.63" cy="996.32" r="43.1"/>
      </g>
      <g>
        <circle class="cls-3" cx="1172.86" cy="994.05" r="210.98"/>
        <circle class="cls-3" cx="1170.6" cy="996.32" r="179.22"/>
        <circle class="cls-3" cx="1170.6" cy="996.32" r="147.46"/>
        <circle class="cls-3" cx="1170.6" cy="996.32" r="111.16" transform="translate(-361.6444 1119.5509) rotate(-45)"/>
        <circle class="cls-3" cx="1170.6" cy="996.32" r="79.4" transform="translate(-361.6444 1119.5509) rotate(-45)"/>
        <circle class="cls-3" cx="1170.6" cy="996.32" r="43.1"/>
      </g>
      <g>
        <circle class="cls-3" cx="1594.83" cy="994.05" r="210.98"/>
        <circle class="cls-3" cx="1592.56" cy="996.32" r="179.22"/>
        <circle class="cls-3" cx="1592.56" cy="996.32" r="147.46"/>
        <circle class="cls-3" cx="1592.56" cy="996.32" r="111.16" transform="translate(-238.0539 1417.9249) rotate(-45)"/>
        <circle class="cls-3" cx="1592.56" cy="996.32" r="79.4" transform="translate(-238.0539 1417.9249) rotate(-45)"/>
        <circle class="cls-3" cx="1592.56" cy="996.32" r="43.1"/>
      </g>
      <g>
        <circle class="cls-3" cx="2016.79" cy="994.05" r="210.98"/>
        <circle class="cls-3" cx="2014.52" cy="996.32" r="179.22"/>
        <circle class="cls-3" cx="2014.52" cy="996.32" r="147.46"/>
        <circle class="cls-3" cx="2014.52" cy="996.32" r="111.16" transform="translate(-114.4634 1716.2989) rotate(-45)"/>
        <circle class="cls-3" cx="2014.52" cy="996.32" r="79.4" transform="translate(-114.4634 1716.2989) rotate(-45)"/>
        <circle class="cls-3" cx="2014.52" cy="996.32" r="43.1"/>
      </g>
      <g>
        <circle class="cls-3" cx="2438.76" cy="994.05" r="210.98"/>
        <circle class="cls-3" cx="2436.49" cy="996.32" r="179.22"/>
        <circle class="cls-3" cx="2436.49" cy="996.32" r="147.46"/>
        <circle class="cls-3" cx="2436.49" cy="996.32" r="111.16" transform="translate(9.1272 2014.6728) rotate(-45)"/>
        <circle class="cls-3" cx="2436.49" cy="996.32" r="79.4" transform="translate(9.1272 2014.6728) rotate(-45)"/>
        <circle class="cls-3" cx="2436.49" cy="996.32" r="43.1"/>
      </g>
    </g>
    <g>
      <g>
        <circle class="cls-3" cx="116.02" cy="1117.93" r="210.98"/>
        <circle class="cls-3" cx="113.75" cy="1120.2" r="179.22"/>
        <circle class="cls-3" cx="113.75" cy="1120.2" r="147.46"/>
        <circle class="cls-3" cx="113.75" cy="1120.2" r="111.16" transform="translate(-758.78 408.53) rotate(-45)"/>
        <circle class="cls-3" cx="113.75" cy="1120.2" r="79.4" transform="translate(-758.78 408.53) rotate(-45)"/>
        <circle class="cls-3" cx="113.75" cy="1120.2" r="43.1"/>
      </g>
      <g>
        <circle class="cls-3" cx="537.98" cy="1117.93" r="210.98"/>
        <circle class="cls-3" cx="535.71" cy="1120.2" r="179.22"/>
        <circle class="cls-3" cx="535.71" cy="1120.2" r="147.46"/>
        <circle class="cls-3" cx="535.71" cy="1120.2" r="111.16" transform="translate(-635.19 706.9) rotate(-45)"/>
        <circle class="cls-3" cx="535.71" cy="1120.2" r="79.4" transform="translate(-635.19 706.9) rotate(-45)"/>
        <circle class="cls-3" cx="535.71" cy="1120.2" r="43.1"/>
      </g>
      <g>
        <circle class="cls-3" cx="959.95" cy="1117.93" r="210.98"/>
        <circle class="cls-3" cx="957.68" cy="1120.2" r="179.22"/>
        <circle class="cls-3" cx="957.68" cy="1120.2" r="147.46"/>
        <circle class="cls-3" cx="957.68" cy="1120.2" r="111.16" transform="translate(-511.6027 1005.2787) rotate(-45)"/>
        <circle class="cls-3" cx="957.68" cy="1120.2" r="79.4" transform="translate(-511.6027 1005.2787) rotate(-45)"/>
        <circle class="cls-3" cx="957.68" cy="1120.2" r="43.1"/>
      </g>
      <g>
        <circle class="cls-3" cx="1381.91" cy="1117.93" r="210.98"/>
        <circle class="cls-3" cx="1379.64" cy="1120.2" r="179.22"/>
        <circle class="cls-3" cx="1379.64" cy="1120.2" r="147.46"/>
        <circle class="cls-3" cx="1379.64" cy="1120.2" r="111.16" transform="translate(-388.0121 1303.6527) rotate(-45)"/>
        <circle class="cls-3" cx="1379.64" cy="1120.2" r="79.4" transform="translate(-388.0121 1303.6527) rotate(-45)"/>
        <circle class="cls-3" cx="1379.64" cy="1120.2" r="43.1"/>
      </g>
      <g>
        <circle class="cls-3" cx="1803.88" cy="1117.93" r="210.98"/>
        <circle class="cls-3" cx="1801.61" cy="1120.2" r="179.22"/>
        <circle class="cls-3" cx="1801.61" cy="1120.2" r="147.46"/>
        <circle class="cls-3" cx="1801.61" cy="1120.2" r="111.16" transform="translate(-264.4216 1602.0267) rotate(-45)"/>
        <circle class="cls-3" cx="1801.61" cy="1120.2" r="79.4" transform="translate(-264.4216 1602.0267) rotate(-45)"/>
        <circle class="cls-3" cx="1801.61" cy="1120.2" r="43.1"/>
      </g>
      <g>
        <circle class="cls-3" cx="2225.84" cy="1117.93" r="210.98"/>
        <circle class="cls-3" cx="2223.57" cy="1120.2" r="179.22"/>
        <circle class="cls-3" cx="2223.57" cy="1120.2" r="147.46"/>
        <circle class="cls-3" cx="2223.57" cy="1120.2" r="111.16" transform="translate(-140.831 1900.4006) rotate(-45)"/>
        <circle class="cls-3" cx="2223.57" cy="1120.2" r="79.4" transform="translate(-140.831 1900.4006) rotate(-45)"/>
        <circle class="cls-3" cx="2223.57" cy="1120.2" r="43.1"/>
      </g>
    </g>
    <g>
      <g>
        <circle class="cls-3" cx="328.93" cy="1237.94" r="210.98"/>
        <circle class="cls-3" cx="326.67" cy="1240.21" r="179.22"/>
        <circle class="cls-3" cx="326.67" cy="1240.21" r="147.46"/>
        <circle class="cls-3" cx="326.67" cy="1240.21" r="111.16" transform="translate(-781.28 594.24) rotate(-45)"/>
        <circle class="cls-3" cx="326.67" cy="1240.21" r="79.4" transform="translate(-781.28 594.24) rotate(-45)"/>
        <circle class="cls-3" cx="326.67" cy="1240.21" r="43.1"/>
      </g>
      <g>
        <circle class="cls-3" cx="750.9" cy="1237.94" r="210.98"/>
        <circle class="cls-3" cx="748.63" cy="1240.21" r="179.22"/>
        <circle class="cls-3" cx="748.63" cy="1240.21" r="147.46"/>
        <circle class="cls-3" cx="748.63" cy="1240.21" r="111.16" transform="translate(-657.69 892.61) rotate(-45)"/>
        <circle class="cls-3" cx="748.63" cy="1240.21" r="79.4" transform="translate(-657.69 892.61) rotate(-45)"/>
        <circle class="cls-3" cx="748.63" cy="1240.21" r="43.1"/>
      </g>
      <g>
        <circle class="cls-3" cx="1172.86" cy="1237.94" r="210.98"/>
        <circle class="cls-3" cx="1170.6" cy="1240.21" r="179.22"/>
        <circle class="cls-3" cx="1170.6" cy="1240.21" r="147.46"/>
        <circle class="cls-3" cx="1170.6" cy="1240.21" r="111.16" transform="translate(-534.0991 1190.984) rotate(-45)"/>
        <circle class="cls-3" cx="1170.6" cy="1240.21" r="79.4" transform="translate(-534.0991 1190.984) rotate(-45)"/>
        <circle class="cls-3" cx="1170.6" cy="1240.21" r="43.1"/>
      </g>
      <g>
        <circle class="cls-3" cx="1594.83" cy="1237.94" r="210.98"/>
        <circle class="cls-3" cx="1592.56" cy="1240.21" r="179.22"/>
        <circle class="cls-3" cx="1592.56" cy="1240.21" r="147.46"/>
        <circle class="cls-3" cx="1592.56" cy="1240.21" r="111.16" transform="translate(-410.5086 1489.358) rotate(-45)"/>
        <circle class="cls-3" cx="1592.56" cy="1240.21" r="79.4" transform="translate(-410.5086 1489.358) rotate(-45)"/>
        <circle class="cls-3" cx="1592.56" cy="1240.21" r="43.1"/>
      </g>
      <g>
        <circle class="cls-3" cx="2016.79" cy="1237.94" r="210.98"/>
        <circle class="cls-3" cx="2014.52" cy="1240.21" r="179.22"/>
        <circle class="cls-3" cx="2014.52" cy="1240.21" r="147.46"/>
        <circle class="cls-3" cx="2014.52" cy="1240.21" r="111.16" transform="translate(-286.918 1787.7319) rotate(-45)"/>
        <circle class="cls-3" cx="2014.52" cy="1240.21" r="79.4" transform="translate(-286.918 1787.7319) rotate(-45)"/>
        <circle class="cls-3" cx="2014.52" cy="1240.21" r="43.1"/>
      </g>
      <g>
        <circle class="cls-3" cx="2438.76" cy="1237.94" r="210.98"/>
        <circle class="cls-3" cx="2436.49" cy="1240.21" r="179.22"/>
        <circle class="cls-3" cx="2436.49" cy="1240.21" r="147.46"/>
        <circle class="cls-3" cx="2436.49" cy="1240.21" r="111.16" transform="translate(-163.3275 2086.1059) rotate(-45)"/>
        <circle class="cls-3" cx="2436.49" cy="1240.21" r="79.4" transform="translate(-163.3275 2086.1059) rotate(-45)"/>
        <circle class="cls-3" cx="2436.49" cy="1240.21" r="43.1"/>
      </g>
    </g>
    <g>
      <g>
        <circle class="cls-3" cx="116.02" cy="1361.82" r="210.98"/>
        <circle class="cls-3" cx="113.75" cy="1364.09" r="179.22"/>
        <circle class="cls-3" cx="113.75" cy="1364.09" r="147.46"/>
        <circle class="cls-3" cx="113.75" cy="1364.09" r="111.16" transform="translate(-931.24 479.96) rotate(-45)"/>
        <circle class="cls-3" cx="113.75" cy="1364.09" r="79.4" transform="translate(-931.24 479.96) rotate(-45)"/>
        <circle class="cls-3" cx="113.75" cy="1364.09" r="43.1"/>
      </g>
      <g>
        <circle class="cls-3" cx="537.98" cy="1361.82" r="210.98"/>
        <circle class="cls-3" cx="535.71" cy="1364.09" r="179.22"/>
        <circle class="cls-3" cx="535.71" cy="1364.09" r="147.46"/>
        <circle class="cls-3" cx="535.71" cy="1364.09" r="111.16" transform="translate(-807.65 778.34) rotate(-45)"/>
        <circle class="cls-3" cx="535.71" cy="1364.09" r="79.4" transform="translate(-807.65 778.34) rotate(-45)"/>
        <circle class="cls-3" cx="535.71" cy="1364.09" r="43.1"/>
      </g>
      <g>
        <circle class="cls-3" cx="959.95" cy="1361.82" r="210.98"/>
        <circle class="cls-3" cx="957.68" cy="1364.09" r="179.22"/>
        <circle class="cls-3" cx="957.68" cy="1364.09" r="147.46"/>
        <circle class="cls-3" cx="957.68" cy="1364.09" r="111.16" transform="translate(-684.0573 1076.7118) rotate(-45)"/>
        <circle class="cls-3" cx="957.68" cy="1364.09" r="79.4" transform="translate(-684.0573 1076.7118) rotate(-45)"/>
        <circle class="cls-3" cx="957.68" cy="1364.09" r="43.1"/>
      </g>
      <g>
        <circle class="cls-3" cx="1381.91" cy="1361.82" r="210.98"/>
        <circle class="cls-3" cx="1379.64" cy="1364.09" r="179.22"/>
        <circle class="cls-3" cx="1379.64" cy="1364.09" r="147.46"/>
        <circle class="cls-3" cx="1379.64" cy="1364.09" r="111.16" transform="translate(-560.4668 1375.0858) rotate(-45)"/>
        <circle class="cls-3" cx="1379.64" cy="1364.09" r="79.4" transform="translate(-560.4668 1375.0858) rotate(-45)"/>
        <circle class="cls-3" cx="1379.64" cy="1364.09" r="43.1"/>
      </g>
      <g>
        <circle class="cls-3" cx="1803.88" cy="1361.82" r="210.98"/>
        <circle class="cls-3" cx="1801.61" cy="1364.09" r="179.22"/>
        <circle class="cls-3" cx="1801.61" cy="1364.09" r="147.46"/>
        <circle class="cls-3" cx="1801.61" cy="1364.09" r="111.16" transform="translate(-436.8763 1673.4597) rotate(-45)"/>
        <circle class="cls-3" cx="1801.61" cy="1364.09" r="79.4" transform="translate(-436.8763 1673.4597) rotate(-45)"/>
        <circle class="cls-3" cx="1801.61" cy="1364.09" r="43.1"/>
      </g>
      <g>
        <circle class="cls-3" cx="2225.84" cy="1361.82" r="210.98"/>
        <circle class="cls-3" cx="2223.57" cy="1364.09" r="179.22"/>
        <circle class="cls-3" cx="2223.57" cy="1364.09" r="147.46"/>
        <circle class="cls-3" cx="2223.57" cy="1364.09" r="111.16" transform="translate(-313.2857 1971.8337) rotate(-45)"/>
        <circle class="cls-3" cx="2223.57" cy="1364.09" r="79.4" transform="translate(-313.2857 1971.8337) rotate(-45)"/>
        <circle class="cls-3" cx="2223.57" cy="1364.09" r="43.1"/>
      </g>
    </g>
    <g>
      <g>
        <circle class="cls-3" cx="328.93" cy="1481.83" r="210.98"/>
        <circle class="cls-3" cx="326.67" cy="1484.09" r="179.22"/>
        <circle class="cls-3" cx="326.67" cy="1484.09" r="147.46"/>
        <circle class="cls-3" cx="326.67" cy="1484.09" r="111.16" transform="translate(-953.73 665.67) rotate(-45)"/>
        <circle class="cls-3" cx="326.67" cy="1484.09" r="79.4" transform="translate(-953.73 665.67) rotate(-45)"/>
        <circle class="cls-3" cx="326.67" cy="1484.09" r="43.1"/>
      </g>
      <g>
        <circle class="cls-3" cx="750.9" cy="1481.83" r="210.98"/>
        <circle class="cls-3" cx="748.63" cy="1484.09" r="179.22"/>
        <circle class="cls-3" cx="748.63" cy="1484.09" r="147.46"/>
        <circle class="cls-3" cx="748.63" cy="1484.09" r="111.16" transform="translate(-830.14 964.04) rotate(-45)"/>
        <circle class="cls-3" cx="748.63" cy="1484.09" r="79.4" transform="translate(-830.14 964.04) rotate(-45)"/>
        <circle class="cls-3" cx="748.63" cy="1484.09" r="43.1"/>
      </g>
      <g>
        <circle class="cls-3" cx="1172.86" cy="1481.83" r="210.98"/>
        <circle class="cls-3" cx="1170.6" cy="1484.09" r="179.22"/>
        <circle class="cls-3" cx="1170.6" cy="1484.09" r="147.46"/>
        <circle class="cls-3" cx="1170.6" cy="1484.09" r="111.16" transform="translate(-706.5538 1262.4171) rotate(-45)"/>
        <circle class="cls-3" cx="1170.6" cy="1484.09" r="79.4" transform="translate(-706.5538 1262.4171) rotate(-45)"/>
        <circle class="cls-3" cx="1170.6" cy="1484.09" r="43.1"/>
      </g>
      <g>
        <circle class="cls-3" cx="1594.83" cy="1481.83" r="210.98"/>
        <circle class="cls-3" cx="1592.56" cy="1484.09" r="179.22"/>
        <circle class="cls-3" cx="1592.56" cy="1484.09" r="147.46"/>
        <circle class="cls-3" cx="1592.56" cy="1484.09" r="111.16" transform="translate(-582.9633 1560.791) rotate(-45)"/>
        <circle class="cls-3" cx="1592.56" cy="1484.09" r="79.4" transform="translate(-582.9633 1560.791) rotate(-45)"/>
        <circle class="cls-3" cx="1592.56" cy="1484.09" r="43.1"/>
      </g>
      <g>
        <circle class="cls-3" cx="2016.79" cy="1481.83" r="210.98"/>
        <circle class="cls-3" cx="2014.52" cy="1484.09" r="179.22"/>
        <circle class="cls-3" cx="2014.52" cy="1484.09" r="147.46"/>
        <circle class="cls-3" cx="2014.52" cy="1484.09" r="111.16" transform="translate(-459.3727 1859.165) rotate(-45)"/>
        <circle class="cls-3" cx="2014.52" cy="1484.09" r="79.4" transform="translate(-459.3727 1859.165) rotate(-45)"/>
        <circle class="cls-3" cx="2014.52" cy="1484.09" r="43.1"/>
      </g>
      <g>
        <circle class="cls-3" cx="2438.76" cy="1481.83" r="210.98"/>
        <circle class="cls-3" cx="2436.49" cy="1484.09" r="179.22"/>
        <circle class="cls-3" cx="2436.49" cy="1484.09" r="147.46"/>
        <circle class="cls-3" cx="2436.49" cy="1484.09" r="111.16" transform="translate(-335.7822 2157.539) rotate(-45)"/>
        <circle class="cls-3" cx="2436.49" cy="1484.09" r="79.4" transform="translate(-335.7822 2157.539) rotate(-45)"/>
        <circle class="cls-3" cx="2436.49" cy="1484.09" r="43.1"/>
      </g>
    </g>
    <g>
      <g>
        <circle class="cls-3" cx="116.02" cy="1605.71" r="210.98"/>
        <circle class="cls-3" cx="113.75" cy="1607.97" r="179.22"/>
        <circle class="cls-3" cx="113.75" cy="1607.97" r="147.46"/>
        <circle class="cls-3" cx="113.75" cy="1607.97" r="111.16" transform="translate(-1103.6931 551.3969) rotate(-45)"/>
        <circle class="cls-3" cx="113.75" cy="1607.97" r="79.4" transform="translate(-1103.6931 551.3969) rotate(-45)"/>
        <circle class="cls-3" cx="113.75" cy="1607.97" r="43.1"/>
      </g>
      <g>
        <circle class="cls-3" cx="537.98" cy="1605.71" r="210.98"/>
        <circle class="cls-3" cx="535.71" cy="1607.97" r="179.22"/>
        <circle class="cls-3" cx="535.71" cy="1607.97" r="147.46"/>
        <circle class="cls-3" cx="535.71" cy="1607.97" r="111.16" transform="translate(-980.1 849.77) rotate(-45)"/>
        <circle class="cls-3" cx="535.71" cy="1607.97" r="79.4" transform="translate(-980.1 849.77) rotate(-45)"/>
        <circle class="cls-3" cx="535.71" cy="1607.97" r="43.1"/>
      </g>
      <g>
        <circle class="cls-3" cx="959.95" cy="1605.71" r="210.98"/>
        <circle class="cls-3" cx="957.68" cy="1607.97" r="179.22"/>
        <circle class="cls-3" cx="957.68" cy="1607.97" r="147.46"/>
        <circle class="cls-3" cx="957.68" cy="1607.97" r="111.16" transform="translate(-856.512 1148.1449) rotate(-45)"/>
        <circle class="cls-3" cx="957.68" cy="1607.97" r="79.4" transform="translate(-856.512 1148.1449) rotate(-45)"/>
        <circle class="cls-3" cx="957.68" cy="1607.97" r="43.1"/>
      </g>
      <g>
        <circle class="cls-3" cx="1381.91" cy="1605.71" r="210.98"/>
        <circle class="cls-3" cx="1379.64" cy="1607.97" r="179.22"/>
        <circle class="cls-3" cx="1379.64" cy="1607.97" r="147.46"/>
        <circle class="cls-3" cx="1379.64" cy="1607.97" r="111.16" transform="translate(-732.9215 1446.5188) rotate(-45)"/>
        <circle class="cls-3" cx="1379.64" cy="1607.97" r="79.4" transform="translate(-732.9215 1446.5188) rotate(-45)"/>
        <circle class="cls-3" cx="1379.64" cy="1607.97" r="43.1"/>
      </g>
      <g>
        <circle class="cls-3" cx="1803.88" cy="1605.71" r="210.98"/>
        <circle class="cls-3" cx="1801.61" cy="1607.97" r="179.22"/>
        <circle class="cls-3" cx="1801.61" cy="1607.97" r="147.46"/>
        <circle class="cls-3" cx="1801.61" cy="1607.97" r="111.16" transform="translate(-609.3309 1744.8928) rotate(-45)"/>
        <circle class="cls-3" cx="1801.61" cy="1607.97" r="79.4" transform="translate(-609.3309 1744.8928) rotate(-45)"/>
        <circle class="cls-3" cx="1801.61" cy="1607.97" r="43.1"/>
      </g>
      <g>
        <circle class="cls-3" cx="2225.84" cy="1605.71" r="210.98"/>
        <circle class="cls-3" cx="2223.57" cy="1607.97" r="179.22"/>
        <circle class="cls-3" cx="2223.57" cy="1607.97" r="147.46"/>
        <circle class="cls-3" cx="2223.57" cy="1607.97" r="111.16" transform="translate(-485.7404 2043.2668) rotate(-45)"/>
        <circle class="cls-3" cx="2223.57" cy="1607.97" r="79.4" transform="translate(-485.7404 2043.2668) rotate(-45)"/>
        <circle class="cls-3" cx="2223.57" cy="1607.97" r="43.1"/>
      </g>
    </g>
    <g>
      <g>
        <circle class="cls-3" cx="328.93" cy="1725.71" r="210.98"/>
        <circle class="cls-3" cx="326.67" cy="1727.98" r="179.22"/>
        <circle class="cls-3" cx="326.67" cy="1727.98" r="147.46"/>
        <circle class="cls-3" cx="326.67" cy="1727.98" r="111.16" transform="translate(-1126.1896 737.1022) rotate(-45)"/>
        <circle class="cls-3" cx="326.67" cy="1727.98" r="79.4" transform="translate(-1126.1896 737.1022) rotate(-45)"/>
        <circle class="cls-3" cx="326.67" cy="1727.98" r="43.1"/>
      </g>
      <g>
        <circle class="cls-3" cx="750.9" cy="1725.71" r="210.98"/>
        <circle class="cls-3" cx="748.63" cy="1727.98" r="179.22"/>
        <circle class="cls-3" cx="748.63" cy="1727.98" r="147.46"/>
        <circle class="cls-3" cx="748.63" cy="1727.98" r="111.16" transform="translate(-1002.599 1035.4762) rotate(-45)"/>
        <circle class="cls-3" cx="748.63" cy="1727.98" r="79.4" transform="translate(-1002.599 1035.4762) rotate(-45)"/>
        <circle class="cls-3" cx="748.63" cy="1727.98" r="43.1"/>
      </g>
      <g>
        <circle class="cls-3" cx="1172.86" cy="1725.71" r="210.98"/>
        <circle class="cls-3" cx="1170.6" cy="1727.98" r="179.22"/>
        <circle class="cls-3" cx="1170.6" cy="1727.98" r="147.46"/>
        <circle class="cls-3" cx="1170.6" cy="1727.98" r="111.16" transform="translate(-879.0085 1333.8501) rotate(-45)"/>
        <circle class="cls-3" cx="1170.6" cy="1727.98" r="79.4" transform="translate(-879.0085 1333.8501) rotate(-45)"/>
        <circle class="cls-3" cx="1170.6" cy="1727.98" r="43.1"/>
      </g>
      <g>
        <circle class="cls-3" cx="1594.83" cy="1725.71" r="210.98"/>
        <circle class="cls-3" cx="1592.56" cy="1727.98" r="179.22"/>
        <circle class="cls-3" cx="1592.56" cy="1727.98" r="147.46"/>
        <circle class="cls-3" cx="1592.56" cy="1727.98" r="111.16" transform="translate(-755.4179 1632.2241) rotate(-45)"/>
        <circle class="cls-3" cx="1592.56" cy="1727.98" r="79.4" transform="translate(-755.4179 1632.2241) rotate(-45)"/>
        <circle class="cls-3" cx="1592.56" cy="1727.98" r="43.1"/>
      </g>
      <g>
        <circle class="cls-3" cx="2016.79" cy="1725.71" r="210.98"/>
        <circle class="cls-3" cx="2014.52" cy="1727.98" r="179.22"/>
        <circle class="cls-3" cx="2014.52" cy="1727.98" r="147.46"/>
        <circle class="cls-3" cx="2014.52" cy="1727.98" r="111.16" transform="translate(-631.8274 1930.5981) rotate(-45)"/>
        <circle class="cls-3" cx="2014.52" cy="1727.98" r="79.4" transform="translate(-631.8274 1930.5981) rotate(-45)"/>
        <circle class="cls-3" cx="2014.52" cy="1727.98" r="43.1"/>
      </g>
      <g>
        <circle class="cls-3" cx="2438.76" cy="1725.71" r="210.98"/>
        <circle class="cls-3" cx="2436.49" cy="1727.98" r="179.22"/>
        <circle class="cls-3" cx="2436.49" cy="1727.98" r="147.46"/>
        <circle class="cls-3" cx="2436.49" cy="1727.98" r="111.16" transform="translate(-508.2368 2228.972) rotate(-45)"/>
        <circle class="cls-3" cx="2436.49" cy="1727.98" r="79.4" transform="translate(-508.2368 2228.972) rotate(-45)"/>
        <circle class="cls-3" cx="2436.49" cy="1727.98" r="43.1"/>
      </g>
    </g>
    <g>
      <g>
        <circle class="cls-3" cx="116.02" cy="1849.59" r="210.98"/>
        <circle class="cls-3" cx="113.75" cy="1851.86" r="179.22"/>
        <circle class="cls-3" cx="113.75" cy="1851.86" r="147.46"/>
        <circle class="cls-3" cx="113.75" cy="1851.86" r="111.16" transform="translate(-1276.1478 622.83) rotate(-45)"/>
        <circle class="cls-3" cx="113.75" cy="1851.86" r="79.4" transform="translate(-1276.1478 622.83) rotate(-45)"/>
        <circle class="cls-3" cx="113.75" cy="1851.86" r="43.1"/>
      </g>
      <g>
        <circle class="cls-3" cx="537.98" cy="1849.59" r="210.98"/>
        <circle class="cls-3" cx="535.71" cy="1851.86" r="179.22"/>
        <circle class="cls-3" cx="535.71" cy="1851.86" r="147.46"/>
        <circle class="cls-3" cx="535.71" cy="1851.86" r="111.16" transform="translate(-1152.5572 921.204) rotate(-45)"/>
        <circle class="cls-3" cx="535.71" cy="1851.86" r="79.4" transform="translate(-1152.5572 921.204) rotate(-45)"/>
        <circle class="cls-3" cx="535.71" cy="1851.86" r="43.1"/>
      </g>
      <g>
        <circle class="cls-3" cx="959.95" cy="1849.59" r="210.98"/>
        <circle class="cls-3" cx="957.68" cy="1851.86" r="179.22"/>
        <circle class="cls-3" cx="957.68" cy="1851.86" r="147.46"/>
        <circle class="cls-3" cx="957.68" cy="1851.86" r="111.16" transform="translate(-1028.9667 1219.5779) rotate(-45)"/>
        <circle class="cls-3" cx="957.68" cy="1851.86" r="79.4" transform="translate(-1028.9667 1219.5779) rotate(-45)"/>
        <circle class="cls-3" cx="957.68" cy="1851.86" r="43.1"/>
      </g>
      <g>
        <circle class="cls-3" cx="1381.91" cy="1849.59" r="210.98"/>
        <circle class="cls-3" cx="1379.64" cy="1851.86" r="179.22"/>
        <circle class="cls-3" cx="1379.64" cy="1851.86" r="147.46"/>
        <circle class="cls-3" cx="1379.64" cy="1851.86" r="111.16" transform="translate(-905.3762 1517.9519) rotate(-45)"/>
        <circle class="cls-3" cx="1379.64" cy="1851.86" r="79.4" transform="translate(-905.3762 1517.9519) rotate(-45)"/>
        <circle class="cls-3" cx="1379.64" cy="1851.86" r="43.1"/>
      </g>
      <g>
        <circle class="cls-3" cx="1803.88" cy="1849.59" r="210.98"/>
        <circle class="cls-3" cx="1801.61" cy="1851.86" r="179.22"/>
        <circle class="cls-3" cx="1801.61" cy="1851.86" r="147.46"/>
        <circle class="cls-3" cx="1801.61" cy="1851.86" r="111.16" transform="translate(-781.7856 1816.3259) rotate(-45)"/>
        <circle class="cls-3" cx="1801.61" cy="1851.86" r="79.4" transform="translate(-781.7856 1816.3259) rotate(-45)"/>
        <circle class="cls-3" cx="1801.61" cy="1851.86" r="43.1"/>
      </g>
      <g>
        <circle class="cls-3" cx="2225.84" cy="1849.59" r="210.98"/>
        <circle class="cls-3" cx="2223.57" cy="1851.86" r="179.22"/>
        <circle class="cls-3" cx="2223.57" cy="1851.86" r="147.46"/>
        <circle class="cls-3" cx="2223.57" cy="1851.86" r="111.16" transform="translate(-658.1951 2114.6998) rotate(-45)"/>
        <circle class="cls-3" cx="2223.57" cy="1851.86" r="79.4" transform="translate(-658.1951 2114.6998) rotate(-45)"/>
        <circle class="cls-3" cx="2223.57" cy="1851.86" r="43.1"/>
      </g>
    </g>
    <g>
      <g>
        <circle class="cls-3" cx="328.93" cy="1969.6" r="210.98"/>
        <circle class="cls-3" cx="326.67" cy="1971.87" r="179.22"/>
        <circle class="cls-3" cx="326.67" cy="1971.87" r="147.46"/>
        <circle class="cls-3" cx="326.67" cy="1971.87" r="111.16" transform="translate(-1298.6442 808.5353) rotate(-45)"/>
        <circle class="cls-3" cx="326.67" cy="1971.87" r="79.4" transform="translate(-1298.6442 808.5353) rotate(-45)"/>
        <circle class="cls-3" cx="326.67" cy="1971.87" r="43.1"/>
      </g>
      <g>
        <circle class="cls-3" cx="750.9" cy="1969.6" r="210.98"/>
        <circle class="cls-3" cx="748.63" cy="1971.87" r="179.22"/>
        <circle class="cls-3" cx="748.63" cy="1971.87" r="147.46"/>
        <circle class="cls-3" cx="748.63" cy="1971.87" r="111.16" transform="translate(-1175.0537 1106.9093) rotate(-45)"/>
        <circle class="cls-3" cx="748.63" cy="1971.87" r="79.4" transform="translate(-1175.0537 1106.9093) rotate(-45)"/>
        <circle class="cls-3" cx="748.63" cy="1971.87" r="43.1"/>
      </g>
      <g>
        <circle class="cls-3" cx="1172.86" cy="1969.6" r="210.98"/>
        <circle class="cls-3" cx="1170.6" cy="1971.87" r="179.22"/>
        <circle class="cls-3" cx="1170.6" cy="1971.87" r="147.46"/>
        <circle class="cls-3" cx="1170.6" cy="1971.87" r="111.16" transform="translate(-1051.4632 1405.2832) rotate(-45)"/>
        <circle class="cls-3" cx="1170.6" cy="1971.87" r="79.4" transform="translate(-1051.4632 1405.2832) rotate(-45)"/>
        <circle class="cls-3" cx="1170.6" cy="1971.87" r="43.1"/>
      </g>
      <g>
        <circle class="cls-3" cx="1594.83" cy="1969.6" r="210.98"/>
        <circle class="cls-3" cx="1592.56" cy="1971.87" r="179.22"/>
        <circle class="cls-3" cx="1592.56" cy="1971.87" r="147.46"/>
        <circle class="cls-3" cx="1592.56" cy="1971.87" r="111.16" transform="translate(-927.8726 1703.6572) rotate(-45)"/>
        <circle class="cls-3" cx="1592.56" cy="1971.87" r="79.4" transform="translate(-927.8726 1703.6572) rotate(-45)"/>
        <circle class="cls-3" cx="1592.56" cy="1971.87" r="43.1"/>
      </g>
      <g>
        <circle class="cls-3" cx="2016.79" cy="1969.6" r="210.98"/>
        <circle class="cls-3" cx="2014.52" cy="1971.87" r="179.22"/>
        <circle class="cls-3" cx="2014.52" cy="1971.87" r="147.46"/>
        <circle class="cls-3" cx="2014.52" cy="1971.87" r="111.16" transform="translate(-804.2821 2002.0311) rotate(-45)"/>
        <circle class="cls-3" cx="2014.52" cy="1971.87" r="79.4" transform="translate(-804.2821 2002.0311) rotate(-45)"/>
        <circle class="cls-3" cx="2014.52" cy="1971.87" r="43.1"/>
      </g>
      <g>
        <circle class="cls-3" cx="2438.76" cy="1969.6" r="210.98"/>
        <circle class="cls-3" cx="2436.49" cy="1971.87" r="179.22"/>
        <circle class="cls-3" cx="2436.49" cy="1971.87" r="147.46"/>
        <circle class="cls-3" cx="2436.49" cy="1971.87" r="111.16" transform="translate(-680.6915 2300.4051) rotate(-45)"/>
        <circle class="cls-3" cx="2436.49" cy="1971.87" r="79.4" transform="translate(-680.6915 2300.4051) rotate(-45)"/>
        <circle class="cls-3" cx="2436.49" cy="1971.87" r="43.1"/>
      </g>
    </g>
    <g>
      <g>
        <circle class="cls-3" cx="116.02" cy="2093.48" r="210.98"/>
        <circle class="cls-3" cx="113.75" cy="2095.75" r="179.22"/>
        <circle class="cls-3" cx="113.75" cy="2095.75" r="147.46"/>
        <circle class="cls-3" cx="113.75" cy="2095.75" r="111.16" transform="translate(-1448.6025 694.2631) rotate(-45)"/>
        <circle class="cls-3" cx="113.75" cy="2095.75" r="79.4" transform="translate(-1448.6025 694.2631) rotate(-45)"/>
        <circle class="cls-3" cx="113.75" cy="2095.75" r="43.1"/>
      </g>
      <g>
        <circle class="cls-3" cx="537.98" cy="2093.48" r="210.98"/>
        <circle class="cls-3" cx="535.71" cy="2095.75" r="179.22"/>
        <circle class="cls-3" cx="535.71" cy="2095.75" r="147.46"/>
        <circle class="cls-3" cx="535.71" cy="2095.75" r="111.16" transform="translate(-1325.0119 992.637) rotate(-45)"/>
        <circle class="cls-3" cx="535.71" cy="2095.75" r="79.4" transform="translate(-1325.0119 992.637) rotate(-45)"/>
        <circle class="cls-3" cx="535.71" cy="2095.75" r="43.1"/>
      </g>
      <g>
        <circle class="cls-3" cx="959.95" cy="2093.48" r="210.98"/>
        <circle class="cls-3" cx="957.68" cy="2095.75" r="179.22"/>
        <circle class="cls-3" cx="957.68" cy="2095.75" r="147.46"/>
        <circle class="cls-3" cx="957.68" cy="2095.75" r="111.16" transform="translate(-1201.4214 1291.011) rotate(-45)"/>
        <circle class="cls-3" cx="957.68" cy="2095.75" r="79.4" transform="translate(-1201.4214 1291.011) rotate(-45)"/>
        <circle class="cls-3" cx="957.68" cy="2095.75" r="43.1"/>
      </g>
      <g>
        <circle class="cls-3" cx="1381.91" cy="2093.48" r="210.98"/>
        <circle class="cls-3" cx="1379.64" cy="2095.75" r="179.22"/>
        <circle class="cls-3" cx="1379.64" cy="2095.75" r="147.46"/>
        <circle class="cls-3" cx="1379.64" cy="2095.75" r="111.16" transform="translate(-1077.8308 1589.385) rotate(-45)"/>
        <circle class="cls-3" cx="1379.64" cy="2095.75" r="79.4" transform="translate(-1077.8308 1589.385) rotate(-45)"/>
        <circle class="cls-3" cx="1379.64" cy="2095.75" r="43.1"/>
      </g>
      <g>
        <circle class="cls-3" cx="1803.88" cy="2093.48" r="210.98"/>
        <circle class="cls-3" cx="1801.61" cy="2095.75" r="179.22"/>
        <circle class="cls-3" cx="1801.61" cy="2095.75" r="147.46"/>
        <circle class="cls-3" cx="1801.61" cy="2095.75" r="111.16" transform="translate(-954.2403 1887.7589) rotate(-45)"/>
        <circle class="cls-3" cx="1801.61" cy="2095.75" r="79.4" transform="translate(-954.2403 1887.7589) rotate(-45)"/>
        <circle class="cls-3" cx="1801.61" cy="2095.75" r="43.1"/>
      </g>
      <g>
        <circle class="cls-3" cx="2225.84" cy="2093.48" r="210.98"/>
        <circle class="cls-3" cx="2223.57" cy="2095.75" r="179.22"/>
        <circle class="cls-3" cx="2223.57" cy="2095.75" r="147.46"/>
        <circle class="cls-3" cx="2223.57" cy="2095.75" r="111.16" transform="translate(-830.6498 2186.1329) rotate(-45)"/>
        <circle class="cls-3" cx="2223.57" cy="2095.75" r="79.4" transform="translate(-830.6498 2186.1329) rotate(-45)"/>
        <circle class="cls-3" cx="2223.57" cy="2095.75" r="43.1"/>
      </g>
    </g>
  </g>
  <g>
    <path class="cls-3" d="M2194.66,215.08s-65.86-52.69-144.89-52.69-158.06,52.69-144.89,158.06c0,0-105.37-52.69-144.89,39.51,0,0-64.83-26.57-105.37,26.34-1.47,1.91,0,0,0,0,0,0-131.71-52.69-171.23,26.34-39.51,79.03,52.69,118.54,52.69,118.54,0,0-65.86-105.37,26.34-92.2,92.2,13.17,65.86,79.03,197.57,105.37,131.71,26.34,171.23-52.69,171.23-52.69,0,0,52.69,65.86,118.54,52.69,65.86-13.17,92.2-52.69,92.2-52.69,0,0,39.51,52.69,118.54,39.51,79.03-13.17,105.37-65.86,105.37-65.86,0,0,52.69,26.34,118.54,26.34s118.54-26.34,118.54-92.2c0,0-46.1,72.44-98.79,32.93-52.69-39.51-52.69-65.86-118.54-52.69,0,0-13.17-65.86-65.86-65.86,0,0-13.17-131.71-125.13-98.79Z"/>
    <path class="cls-1" d="M1996.5,270.22c20.56-61.68,118.21-20.56,87.37,56.54-30.84,77.09-121.28,54.56-151.62,28.27-38.55-33.41-53.97-136.2,52.44-179.93,106.41-43.74,212.25,43.73,212.25,43.73,0,0,44.45-25.37,87.76,14.3s33.03,80.79,33.03,80.79c0,0-10.28,77.09-97.65,41.12-87.37-35.98,10.28-128.49,35.98-66.82"/>
    <path class="cls-1" d="M2319.79,313.87s49.33-5.1,64.75,66.85c0,0,43.37-21.45,88.5,25.25,45.13,46.7,81.11,51.84,127.36-4.69,0,0,22.28,147.34-230.42,65.96,0,0-97.73,116.2-208.59,40.8-16.34-11.11-26.85-29.5-26.33-49.25.36-13.67,5.71-28.14,23.33-36.95,41.12-20.56,82.23-5.14,87.37,35.98,5.14,41.12-66.82,41.12-66.82,0"/>
    <path class="cls-1" d="M1906.56,324.19s-50.68-36.21-105-10.39c0,0-33.77,15.53-44.05,46.37,0,0-61.68-25.7-102.79,25.7,0,0-135.27-48.25-172.04,28.04-14.07,29.19-7.74,64.11,13.95,88.19,9.39,10.42,22.3,20.65,39.87,27.68,0,0-54.94-91.29,11.08-91.9,66.02-.61,107.19,74.74,166.27,93.6,59.08,18.86,161.87,39.42,218.41-37.68,0,0,5.14-46.26-41.12-56.54-46.26-10.28-71.96,25.7-56.54,56.54,15.42,30.84,56.54,20.56,56.54-5.14"/>
    <path class="cls-1" d="M2144.31,494.46s-55.33,52.55-113.13,51.64c-57.8-.91-98.92-52.31-98.92-52.31"/>
    <path class="cls-1" d="M1654.72,385.86s-5.14,30.84,41.12,35.98c46.26,5.14,25.7-46.26,5.14-41.12-20.56,5.14-15.42,20.56-10.28,25.7"/>
  </g>
  <g>
    <path class="cls-3" d="M779.82,147.35s-64.95-51.96-142.9-51.96-155.89,51.96-142.9,155.89c0,0-103.93-51.96-142.9,38.97,0,0-64.95-25.98-103.93,25.98-38.97,51.96,0,0,0,0,0,0-129.91-51.96-168.88,25.98-38.97,77.95,51.96,116.92,51.96,116.92,0,0-64.95-103.93,25.98-90.94,90.94,12.99,64.95,77.95,194.86,103.93,129.91,25.98,168.88-51.96,168.88-51.96,0,0,51.96,64.95,116.92,51.96,64.95-12.99,90.94-51.96,90.94-51.96,0,0,38.97,51.96,116.92,38.97,77.95-12.99,103.93-64.95,103.93-64.95,0,0,51.96,25.98,116.92,25.98s116.92-25.98,116.92-90.94c0,0-45.47,71.45-97.43,32.48-51.96-38.97-51.96-64.95-116.92-51.96,0,0-12.99-64.95-64.95-64.95,0,0-12.99-129.91-123.41-97.43Z"/>
    <path class="cls-1" d="M584.38,201.73c20.28-60.83,116.59-20.28,86.18,55.76-30.41,76.04-119.62,53.81-149.54,27.88-38.02-32.95-53.23-134.33,51.72-177.47,104.95-43.14,209.34,43.14,209.34,43.14,0,0,43.84-25.02,86.55,14.1,42.71,39.12,32.57,79.68,32.57,79.68,0,0-10.14,76.04-96.31,40.55-86.18-35.48,10.14-126.73,35.48-65.9"/>
    <path class="cls-1" d="M903.24,244.78s48.66-5.03,63.86,65.94c0,0,42.77-21.16,87.29,24.91,44.51,46.06,80,51.13,125.62-4.63,0,0,21.97,145.32-227.27,65.06,0,0-96.39,114.61-205.73,40.24-16.11-10.96-26.48-29.09-25.97-48.58.35-13.48,5.63-27.75,23.01-36.44,40.55-20.28,81.11-5.07,86.18,35.48,5.07,40.55-65.9,40.55-65.9,0"/>
    <path class="cls-1" d="M495.67,254.96s-49.98-35.71-103.56-10.25c0,0-33.3,15.32-43.44,45.74,0,0-60.83-25.35-101.38,25.35,0,0-179.93-64.17-178.67,74.37,0,0,11.39,47.29,62.08,67.57,0,0-54.19-90.04,10.93-90.64,65.11-.6,105.72,73.72,163.99,92.32,58.27,18.6,159.65,38.88,215.41-37.16,0,0,5.07-45.62-40.55-55.76-45.62-10.14-70.97,25.35-55.76,55.76,15.21,30.42,55.76,20.28,55.76-5.07"/>
    <path class="cls-1" d="M730.16,422.9s-54.57,51.83-111.58,50.93c-57.01-.9-97.56-51.59-97.56-51.59"/>
    <path class="cls-1" d="M247.28,315.78s-5.07,30.42,40.55,35.48c45.62,5.07,25.35-45.62,5.07-40.55-20.28,5.07-15.21,20.28-10.14,25.35"/>
  </g>
  <g>
    <path class="cls-3" d="M1704.64,1515.26s49.6,39.68,109.13,39.68,119.05-39.68,109.13-119.05c0,0,79.37,39.68,109.13-29.76,0,0,49.6,19.84,79.37-19.84,29.76-39.68,0,0,0,0,0,0,99.21,39.68,128.97-19.84,29.76-59.53-39.68-89.29-39.68-89.29,0,0,49.6,79.37-19.84,69.45-69.45-9.92-49.6-59.53-148.81-79.37-99.21-19.84-128.97,39.68-128.97,39.68,0,0-39.68-49.6-89.29-39.68-49.6,9.92-69.45,39.68-69.45,39.68,0,0-29.76-39.68-89.29-29.76-59.53,9.92-79.37,49.6-79.37,49.6,0,0-39.68-19.84-89.29-19.84s-89.29,19.84-89.29,69.45c0,0,34.72-54.57,74.41-24.8,39.68,29.76,39.68,49.6,89.29,39.68,0,0,9.92,49.6,49.6,49.6,0,0,9.92,99.21,94.25,74.41Z"/>
    <path class="cls-1" d="M1853.9,1473.73c-15.48,46.45-89.04,15.48-65.81-42.58,23.23-58.07,91.35-41.09,114.2-21.29,29.03,25.16,40.65,102.59-39.5,135.53-80.15,32.94-159.87-32.94-159.87-32.94,0,0-33.48,19.11-66.1-10.77-32.62-29.88-24.88-60.85-24.88-60.85,0,0,7.74-58.07,73.55-30.97s-7.74,96.78-27.1,50.33"/>
    <path class="cls-1" d="M1610.39,1440.85s-37.16,3.84-48.77-50.35c0,0-32.67,16.16-66.66-19.02-33.99-35.18-61.09-39.05-95.93,3.53,0,0-16.78-110.98,173.56-49.68,0,0,73.61-87.52,157.11-30.73,12.31,8.37,20.22,22.22,19.83,37.1-.27,10.29-4.3,21.2-17.57,27.83-30.97,15.48-61.94,3.87-65.81-27.1-3.87-30.97,50.33-30.97,50.33,0"/>
    <path class="cls-1" d="M1921.64,1433.08s38.17,27.27,79.09,7.83c0,0,25.43-11.7,33.18-34.93,0,0,46.45,19.36,77.42-19.36,0,0,137.41,49.01,136.45-56.79,0,0-8.7-36.12-47.41-51.6,0,0,41.38,68.76-8.34,69.22-49.73.46-80.73-56.3-125.23-70.5-44.5-14.2-121.92-29.69-164.51,28.38,0,0-3.87,34.84,30.97,42.58,34.84,7.74,54.2-19.36,42.58-42.58-11.61-23.23-42.58-15.48-42.58,3.87"/>
    <path class="cls-1" d="M1742.57,1304.82s41.67-39.58,85.21-38.89c43.54.69,74.51,39.4,74.51,39.4"/>
    <path class="cls-1" d="M2111.33,1386.63s3.87-23.23-30.97-27.1c-34.84-3.87-19.36,34.84-3.87,30.97,15.48-3.87,11.61-15.48,7.74-19.36"/>
  </g>
  <g>
    <path class="cls-3" d="M495.96,1699.3s49.6,39.68,109.13,39.68,119.05-39.68,109.13-119.05c0,0,79.37,39.68,109.13-29.76,0,0,51.23,17.63,79.37-19.84.97-1.29,0,0,0,0,0,0,99.21,39.68,128.97-19.84,29.76-59.53-39.68-89.29-39.68-89.29,0,0,49.6,79.37-19.84,69.45-69.45-9.92-49.6-59.53-148.81-79.37-99.21-19.84-128.97,39.68-128.97,39.68,0,0-39.68-49.6-89.29-39.68-49.6,9.92-69.45,39.68-69.45,39.68,0,0-29.76-39.68-89.29-29.76-59.53,9.92-79.37,49.6-79.37,49.6,0,0-39.68-19.84-89.29-19.84s-89.29,19.84-89.29,69.45c0,0,34.72-54.57,74.41-24.8,39.68,29.76,39.68,49.6,89.29,39.68,0,0,9.92,49.6,49.6,49.6,0,0,9.92,99.21,94.25,74.41Z"/>
    <path class="cls-1" d="M645.22,1657.78c-15.48,46.45-89.04,15.48-65.81-42.58,23.23-58.07,91.35-41.09,114.2-21.29,29.03,25.16,40.65,102.59-39.5,135.53-80.15,32.94-159.87-32.94-159.87-32.94,0,0-33.48,19.11-66.1-10.77-32.62-29.88-24.88-60.85-24.88-60.85,0,0,7.74-58.07,73.55-30.97,65.81,27.1-7.74,96.78-27.1,50.33"/>
    <path class="cls-1" d="M401.71,1624.9s-37.16,3.84-48.77-50.35c0,0-32.67,16.16-66.66-19.02-33.99-35.18-61.09-39.05-95.93,3.53,0,0-16.78-110.98,173.56-49.68,0,0,73.61-87.52,157.11-30.73,12.31,8.37,20.22,22.22,19.83,37.1-.27,10.29-4.3,21.2-17.57,27.83-30.97,15.48-61.94,3.87-65.81-27.1-3.87-30.97,50.33-30.97,50.33,0"/>
    <path class="cls-1" d="M712.96,1617.13s38.17,27.27,79.09,7.83c0,0,25.43-11.7,33.18-34.93,0,0,46.45,19.36,77.42-19.36,0,0,137.41,49.01,136.45-56.79,0,0-8.7-36.12-47.41-51.6,0,0,41.38,68.76-8.34,69.22-49.73.46-80.73-56.3-125.23-70.5-44.5-14.2-121.92-29.69-164.51,28.38,0,0-3.87,34.84,30.97,42.58,34.84,7.74,54.2-19.36,42.58-42.58-11.61-23.23-42.58-15.48-42.58,3.87"/>
    <path class="cls-1" d="M533.88,1488.87s41.67-39.58,85.21-38.89c43.54.69,74.51,39.4,74.51,39.4"/>
    <path class="cls-1" d="M902.65,1570.67s3.87-23.23-30.97-27.1c-34.84-3.87-19.36,34.84-3.87,30.97,15.48-3.87,11.61-15.48,7.74-19.36"/>
  </g>
  <g>
    <g>
      <path class="cls-3" d="M858.7,763.07c-7.38-17.52-27.57-25.74-45.09-18.37-.94.4-1.84.85-2.73,1.32.01-.4.06-.79.06-1.19,0-19.01-15.41-34.42-34.42-34.42s-34.42,15.41-34.42,34.42c0,1.59.15,3.14.35,4.68-.84-.33-1.68-.65-2.55-.91-18.2-5.49-37.41,4.81-42.9,23.01-5.49,18.2,4.81,37.41,23.01,42.9,1.98.6,3.97.97,5.96,1.21-1.38,1.45-2.67,3.01-3.82,4.73-10.52,15.84-6.2,37.2,9.64,47.72,15.84,10.52,37.2,6.2,47.72-9.64,1.14-1.72,2.08-3.52,2.88-5.35.99,1.74,2.11,3.43,3.42,5.02,12.13,14.64,33.83,16.68,48.47,4.56,14.64-12.13,16.68-33.83,4.56-48.47-1.32-1.59-2.77-3.01-4.29-4.3,1.95-.44,3.89-1.03,5.8-1.83,17.52-7.38,25.74-27.57,18.37-45.09Z"/>
      <g>
        <path class="cls-2" d="M795.94,795.04c0,8.79-7.12,15.91-15.91,15.91s-15.91-7.12-15.91-15.91,7.12-15.91,15.91-15.91,15.91,7.12,15.91,15.91Z"/>
        <g>
          <path class="cls-2" d="M786,757.26c0,3.3-2.67,5.97-5.97,5.97s-5.97-2.67-5.97-5.97,2.67-5.97,5.97-5.97,5.97,2.67,5.97,5.97Z"/>
          <rect class="cls-2" x="778.04" y="759.25" width="3.98" height="23.86"/>
        </g>
        <g>
          <path class="cls-2" d="M810.49,772.6c-2.3,2.36-6.08,2.41-8.44.11-2.36-2.3-2.41-6.08-.11-8.44,2.3-2.36,6.08-2.41,8.44-.11,2.36,2.3,2.41,6.08.11,8.44Z"/>
          <rect class="cls-2" x="794.51" y="766.48" width="3.98" height="23.86" transform="translate(769.15 -334.96) rotate(44.25)"/>
        </g>
        <g>
          <path class="cls-2" d="M817.32,800.68c-3.29.09-6.03-2.51-6.12-5.81-.09-3.29,2.51-6.03,5.81-6.12,3.29-.09,6.03,2.51,6.12,5.81.09,3.29-2.51,6.03-5.81,6.12Z"/>
          <rect class="cls-2" x="801.26" y="783.15" width="3.98" height="23.86" transform="translate(1577.102 -28.6286) rotate(88.5052)"/>
        </g>
        <g>
          <path class="cls-2" d="M802.61,825.56c-2.42-2.24-2.57-6.01-.33-8.43,2.24-2.42,6.01-2.57,8.43-.33,2.42,2.24,2.57,6.01.33,8.43-2.24,2.42-6.01,2.57-8.43.33Z"/>
          <rect class="cls-2" x="794.45" y="799.8" width="3.98" height="23.86" transform="translate(1933.1467 778.1594) rotate(132.7636)"/>
        </g>
        <g>
          <path class="cls-2" d="M774.72,833.12c-.17-3.29,2.36-6.1,5.65-6.27,3.29-.17,6.1,2.36,6.27,5.65.17,3.29-2.36,6.1-5.65,6.27-3.29.17-6.1-2.36-6.27-5.65Z"/>
          <rect class="cls-2" x="777.96" y="806.98" width="3.98" height="23.86" transform="translate(1601.485 1596.0955) rotate(177.0153)"/>
        </g>
        <g>
          <path class="cls-2" d="M749.47,819.07c2.17-2.48,5.94-2.72,8.42-.55,2.48,2.17,2.72,5.94.55,8.42-2.17,2.48-5.94,2.72-8.42.55-2.48-2.17-2.72-5.94-.55-8.42Z"/>
          <rect class="cls-2" x="761.14" y="800.61" width="3.98" height="23.86" transform="translate(800.8128 1926.6239) rotate(-138.7333)"/>
        </g>
        <g>
          <path class="cls-2" d="M741.18,791.39c3.29-.26,6.16,2.2,6.41,5.48.26,3.28-2.2,6.16-5.48,6.41-3.28.26-6.16-2.2-6.41-5.48-.26-3.29,2.2-6.16,5.48-6.41Z"/>
          <rect class="cls-2" x="753.54" y="784.31" width="3.98" height="23.86" transform="translate(20.6127 1611.5552) rotate(-94.4719)"/>
        </g>
        <g>
          <path class="cls-2" d="M754.57,765.77c2.53,2.11,2.88,5.87.77,8.4-2.11,2.53-5.87,2.88-8.4.77-2.53-2.11-2.88-5.87-.77-8.4,2.11-2.53,5.87-2.88,8.4-.77Z"/>
          <rect class="cls-2" x="759.46" y="767.33" width="3.98" height="23.86" transform="translate(-324.62 865.91) rotate(-50.22)"/>
        </g>
      </g>
    </g>
    <g>
      <path class="cls-3" d="M1858.84,1020.3c-6.69-15.89-24.99-23.34-40.88-16.65-.85.36-1.67.77-2.48,1.19.01-.36.05-.71.05-1.08,0-17.24-13.97-31.21-31.21-31.21s-31.21,13.97-31.21,31.21c0,1.44.13,2.85.32,4.24-.76-.29-1.52-.59-2.31-.83-16.5-4.98-33.92,4.36-38.9,20.86-4.98,16.5,4.36,33.92,20.86,38.9,1.8.54,3.6.88,5.4,1.1-1.25,1.31-2.42,2.73-3.46,4.29-9.53,14.36-5.62,33.73,8.74,43.27,14.36,9.53,33.73,5.62,43.27-8.74,1.04-1.56,1.89-3.19,2.61-4.85.89,1.58,1.91,3.11,3.11,4.55,10.99,13.28,30.67,15.13,43.95,4.13,13.28-10.99,15.13-30.67,4.13-43.95-1.2-1.44-2.51-2.73-3.89-3.9,1.77-.4,3.53-.93,5.26-1.66,15.89-6.69,23.34-24.99,16.65-40.88Z"/>
      <g>
        <path class="cls-2" d="M1801.95,1049.28c0,7.97-6.46,14.42-14.42,14.42s-14.43-6.46-14.43-14.42,6.46-14.42,14.43-14.42,14.42,6.46,14.42,14.42Z"/>
        <g>
          <path class="cls-2" d="M1792.93,1015.03c0,2.99-2.42,5.41-5.41,5.41s-5.41-2.42-5.41-5.41,2.42-5.41,5.41-5.41,5.41,2.42,5.41,5.41Z"/>
          <rect class="cls-2" x="1785.72" y="1016.83" width="3.61" height="21.64"/>
        </g>
        <g>
          <path class="cls-2" d="M1815.13,1028.94c-2.08,2.14-5.51,2.18-7.65.1-2.14-2.08-2.18-5.51-.1-7.65,2.08-2.14,5.51-2.18,7.65-.1,2.14,2.08,2.18,5.51.1,7.65Z"/>
          <rect class="cls-2" x="1800.65" y="1023.39" width="3.61" height="21.64" transform="translate(1232.9217 -964.3047) rotate(44.2475)"/>
        </g>
        <g>
          <path class="cls-2" d="M1821.32,1054.4c-2.99.08-5.47-2.28-5.55-5.27-.08-2.99,2.28-5.47,5.27-5.55,2.99-.08,5.47,2.28,5.55,5.27.08,2.99-2.28,5.47-5.27,5.55Z"/>
          <rect class="cls-2" x="1806.76" y="1038.5" width="3.61" height="21.64" transform="translate(2810.3499 -786.0022) rotate(88.5052)"/>
        </g>
        <g>
          <path class="cls-2" d="M1807.99,1076.95c-2.19-2.03-2.33-5.45-.3-7.64,2.03-2.19,5.45-2.33,7.64-.3,2.19,2.03,2.33,5.45.3,7.64-2.03,2.19-5.45,2.33-7.64.3Z"/>
          <rect class="cls-2" x="1800.59" y="1053.6" width="3.61" height="21.64" transform="translate(3807.5899 463.7296) rotate(132.7595)"/>
        </g>
        <g>
          <path class="cls-2" d="M1782.7,1083.81c-.16-2.98,2.14-5.53,5.12-5.68,2.98-.16,5.53,2.14,5.68,5.12.16,2.98-2.14,5.53-5.12,5.68-2.98.16-5.53-2.14-5.68-5.12Z"/>
          <rect class="cls-2" x="1785.64" y="1060.1" width="3.61" height="21.64" transform="translate(3628.3309 2047.1354) rotate(177.0095)"/>
        </g>
        <g>
          <path class="cls-2" d="M1759.81,1071.07c1.97-2.25,5.39-2.47,7.63-.5,2.25,1.97,2.47,5.39.5,7.63-1.97,2.25-5.39,2.47-7.63.5-2.25-1.97-2.47-5.39-.5-7.63Z"/>
          <rect class="cls-2" x="1770.39" y="1054.33" width="3.61" height="21.64" transform="translate(2401.6217 3034.6829) rotate(-138.7302)"/>
        </g>
        <g>
          <path class="cls-2" d="M1752.3,1045.97c2.98-.23,5.58,1.99,5.81,4.97.23,2.98-1.99,5.58-4.97,5.82-2.98.23-5.58-1.99-5.81-4.97-.23-2.98,1.99-5.58,4.97-5.82Z"/>
          <rect class="cls-2" x="1763.5" y="1039.56" width="3.61" height="21.64" transform="translate(855.9151 2892.2749) rotate(-94.4765)"/>
        </g>
        <g>
          <path class="cls-2" d="M1764.43,1022.75c2.3,1.91,2.61,5.32.7,7.62-1.91,2.3-5.32,2.61-7.62.7-2.3-1.91-2.61-5.32-.7-7.62,1.91-2.3,5.32-2.61,7.62-.7Z"/>
          <rect class="cls-2" x="1768.87" y="1024.16" width="3.61" height="21.64" transform="translate(-157.5935 1733.7319) rotate(-50.2259)"/>
        </g>
      </g>
    </g>
    <g>
      <path class="cls-3" d="M1065.36,1716.51c-5.5-13.07-20.56-19.2-33.62-13.7-.7.3-1.38.63-2.04.98.01-.3.04-.59.04-.88,0-14.18-11.49-25.67-25.67-25.67s-25.67,11.49-25.67,25.67c0,1.19.11,2.34.26,3.49-.62-.24-1.25-.48-1.9-.68-13.57-4.1-27.9,3.59-31.99,17.16-4.1,13.57,3.59,27.9,17.16,31.99,1.48.45,2.96.73,4.44.9-1.03,1.08-1.99,2.24-2.85,3.53-7.84,11.81-4.62,27.74,7.19,35.59,11.81,7.84,27.74,4.62,35.59-7.19.85-1.28,1.55-2.63,2.15-3.99.74,1.3,1.57,2.56,2.55,3.74,9.04,10.92,25.23,12.44,36.15,3.4,10.92-9.04,12.44-25.23,3.4-36.15-.98-1.19-2.07-2.24-3.2-3.21,1.45-.33,2.9-.77,4.32-1.36,13.07-5.5,19.2-20.56,13.7-33.62Z"/>
      <g>
        <path class="cls-2" d="M1018.56,1740.35c0,6.55-5.31,11.86-11.86,11.86s-11.86-5.31-11.86-11.86,5.31-11.86,11.86-11.86,11.86,5.31,11.86,11.86Z"/>
        <g>
          <path class="cls-2" d="M1011.14,1712.18c0,2.46-1.99,4.45-4.45,4.45s-4.45-1.99-4.45-4.45,1.99-4.45,4.45-4.45,4.45,1.99,4.45,4.45Z"/>
          <rect class="cls-2" x="1005.21" y="1713.66" width="2.97" height="17.8"/>
        </g>
        <g>
          <path class="cls-2" d="M1029.41,1723.62c-1.71,1.76-4.53,1.8-6.29.08-1.76-1.71-1.8-4.53-.08-6.29,1.71-1.76,4.53-1.8,6.29-.08,1.76,1.71,1.8,4.53.08,6.29Z"/>
          <rect class="cls-2" x="1017.49" y="1719.05" width="2.97" height="17.8" transform="translate(1494.7932 -220.8228) rotate(44.2489)"/>
        </g>
        <g>
          <path class="cls-2" d="M1034.5,1744.56c-2.46.06-4.5-1.88-4.56-4.33-.06-2.46,1.88-4.5,4.33-4.56,2.46-.06,4.5,1.88,4.56,4.33.06,2.46-1.88,4.5-4.33,4.56Z"/>
          <rect class="cls-2" x="1022.52" y="1731.49" width="2.97" height="17.8" transform="translate(2737.0649 671.2972) rotate(88.5042)"/>
        </g>
        <g>
          <path class="cls-2" d="M1023.53,1763.11c-1.8-1.67-1.91-4.48-.25-6.29,1.67-1.8,4.48-1.91,6.29-.25,1.8,1.67,1.91,4.48.25,6.29-1.67,1.8-4.48,1.91-6.29.25Z"/>
          <rect class="cls-2" x="1017.45" y="1743.9" width="2.97" height="17.8" transform="translate(2997.6061 2194.812) rotate(132.7626)"/>
        </g>
        <g>
          <path class="cls-2" d="M1002.73,1768.75c-.13-2.45,1.76-4.55,4.21-4.67,2.45-.13,4.55,1.76,4.67,4.21.13,2.45-1.76,4.55-4.21,4.68-2.45.13-4.55-1.76-4.68-4.21Z"/>
          <rect class="cls-2" x="1005.15" y="1749.25" width="2.97" height="17.8" transform="translate(2103.4563 3461.5) rotate(177.0151)"/>
        </g>
        <g>
          <path class="cls-2" d="M983.9,1758.27c1.62-1.85,4.43-2.03,6.28-.41,1.85,1.62,2.03,4.43.41,6.28-1.62,1.85-4.43,2.03-6.28.41-1.85-1.62-2.03-4.43-.41-6.28Z"/>
          <rect class="cls-2" x="992.61" y="1744.51" width="2.97" height="17.8" transform="translate(584.7378 3726.9994) rotate(-138.7311)"/>
        </g>
        <g>
          <path class="cls-2" d="M977.72,1737.63c2.45-.19,4.59,1.64,4.78,4.09.19,2.45-1.64,4.59-4.09,4.78-2.45.19-4.59-1.64-4.78-4.09-.19-2.45,1.64-4.59,4.09-4.78Z"/>
          <rect class="cls-2" x="986.94" y="1732.35" width="2.97" height="17.8" transform="translate(-670.3842 2862.5443) rotate(-94.4759)"/>
        </g>
        <g>
          <path class="cls-2" d="M987.71,1718.53c1.89,1.57,2.15,4.38.57,6.27-1.57,1.89-4.38,2.15-6.27.57-1.89-1.57-2.15-4.38-.57-6.27,1.57-1.89,4.38-2.15,6.27-.57Z"/>
          <rect class="cls-2" x="991.36" y="1719.69" width="2.97" height="17.8" transform="translate(-970.8888 1385.7765) rotate(-50.226)"/>
        </g>
      </g>
    </g>
    <g>
      <path class="cls-3" d="M1433.71,157.2c-8.86-21.03-33.09-30.9-54.12-22.04-1.13.48-2.21,1.02-3.28,1.58.02-.48.07-.94.07-1.42,0-22.82-18.5-41.32-41.32-41.32s-41.32,18.5-41.32,41.32c0,1.91.17,3.77.43,5.61-1-.39-2.01-.78-3.06-1.1-21.85-6.59-44.91,5.77-51.5,27.62-6.59,21.85,5.77,44.9,27.62,51.5,2.38.72,4.77,1.17,7.15,1.45-1.66,1.74-3.21,3.61-4.58,5.68-12.62,19.01-7.44,44.66,11.57,57.28,19.01,12.62,44.66,7.44,57.28-11.57,1.37-2.07,2.5-4.23,3.45-6.43,1.18,2.09,2.53,4.11,4.11,6.03,14.56,17.58,40.6,20.03,58.18,5.47,17.58-14.56,20.03-40.6,5.47-58.18-1.58-1.91-3.33-3.61-5.16-5.16,2.34-.53,4.67-1.23,6.96-2.2,21.03-8.86,30.9-33.09,22.04-54.12Z"/>
      <g>
        <path class="cls-2" d="M1358.38,195.58c0,10.55-8.55,19.1-19.1,19.1s-19.1-8.55-19.1-19.1,8.55-19.1,19.1-19.1,19.1,8.55,19.1,19.1Z"/>
        <g>
          <circle class="cls-2" cx="1339.28" cy="150.22" r="7.16"/>
          <rect class="cls-2" x="1336.9" y="152.61" width="4.77" height="28.65"/>
        </g>
        <g>
          <path class="cls-2" d="M1375.84,168.64c-2.76,2.83-7.29,2.89-10.13.13-2.83-2.76-2.89-7.29-.13-10.13,2.76-2.83,7.29-2.89,10.13-.13,2.83,2.76,2.89,7.29.13,10.13Z"/>
          <rect class="cls-2" x="1356.66" y="161.29" width="4.77" height="28.65" transform="translate(508.12 -898.52) rotate(44.25)"/>
        </g>
        <g>
          <path class="cls-2" d="M1384.04,202.35c-3.95.1-7.24-3.02-7.35-6.97-.1-3.95,3.02-7.24,6.97-7.35,3.95-.1,7.24,3.02,7.35,6.97.1,3.95-3.02,7.24-6.97,7.35Z"/>
          <rect class="cls-2" x="1364.76" y="181.3" width="4.77" height="28.65" transform="translate(1527.0081 -1176.1615) rotate(88.5038)"/>
        </g>
        <g>
          <path class="cls-2" d="M1366.39,232.21c-2.9-2.69-3.08-7.22-.4-10.12,2.69-2.9,7.22-3.08,10.12-.4,2.9,2.69,3.08,7.22.4,10.12-2.69,2.9-7.22,3.08-10.12.4Z"/>
          <rect class="cls-2" x="1356.59" y="201.29" width="4.77" height="28.65" transform="translate(2439.9655 -635.7344) rotate(132.7622)"/>
        </g>
        <g>
          <path class="cls-2" d="M1332.91,241.29c-.21-3.95,2.83-7.32,6.78-7.53,3.95-.21,7.32,2.83,7.53,6.78.21,3.95-2.83,7.32-6.78,7.53-3.95.21-7.32-2.83-7.53-6.78Z"/>
          <rect class="cls-2" x="1336.8" y="209.9" width="4.77" height="28.65" transform="translate(2688.2423 378.3305) rotate(177.0116)"/>
        </g>
        <g>
          <path class="cls-2" d="M1302.59,224.42c2.61-2.97,7.13-3.27,10.11-.66,2.97,2.61,3.27,7.13.66,10.11-2.61,2.97-7.13,3.27-10.11.66-2.97-2.61-3.27-7.13-.66-10.11Z"/>
          <rect class="cls-2" x="1316.61" y="202.26" width="4.77" height="28.65" transform="translate(2167.533 1249.371) rotate(-138.7315)"/>
        </g>
        <g>
          <path class="cls-2" d="M1292.65,191.19c3.94-.31,7.39,2.64,7.7,6.58.31,3.94-2.64,7.39-6.58,7.7-3.94.31-7.39-2.64-7.7-6.58-.31-3.94,2.64-7.39,6.58-7.7Z"/>
          <rect class="cls-2" x="1307.48" y="182.7" width="4.77" height="28.65" transform="translate(1215.6388 1518.2688) rotate(-94.4746)"/>
        </g>
        <g>
          <path class="cls-2" d="M1308.72,160.45c3.04,2.53,3.45,7.05.92,10.09-2.53,3.04-7.05,3.45-10.09.92-3.04-2.53-3.45-7.05-.92-10.09,2.53-3.04,7.05-3.45,10.09-.92Z"/>
          <rect class="cls-2" x="1314.59" y="162.32" width="4.77" height="28.65" transform="translate(338.573 1075.7269) rotate(-50.22)"/>
        </g>
      </g>
    </g>
  </g>
</svg>