<?xml version="1.0" encoding="UTF-8"?>
<svg id="Variantes_Negro_y_Negativo" data-name="Variantes Negro y Negativo" xmlns="http://www.w3.org/2000/svg" xmlns:xlink="http://www.w3.org/1999/xlink" viewBox="0 0 144 144">
  <defs>
    <style>
      .cls-1, .cls-2 {
        fill: none;
      }

      .cls-3 {
        fill: #fff;
      }

      .cls-4 {
        fill: #910f0f;
      }

      .cls-2 {
        stroke: #fff;
        stroke-miterlimit: 10;
        stroke-width: 1.97px;
      }

      .cls-5 {
        clip-path: url(#clippath);
      }
    </style>
    <clipPath id="clippath">
      <circle class="cls-1" cx="72.01" cy="69.87" r="43.39"/>
    </clipPath>
  </defs>
  <circle class="cls-4" cx="72.38" cy="72" r="71.62"/>
  <g>
    <path class="cls-3" d="M47.04,119.59c-.58-.42-1.02-1.06-1.24-1.82-.29-1.03-.07-2.09.51-2.89.39-.54.94-.95,1.61-1.17-.34-.96-.7-1.6-1.31-2.04-.56-.41-1.83-.72-2.82-.6-1.31.18-4.85.93-5.91,1.32-.46.17-.83.46-1.09.82-.32.43-.49,1-.42,1.67.1.78.37,1.34.82,1.67.3.22.7.35,1.16.36,0,0,1.49.02,4.97-.74,1.72,6.58,2.19,7.6,2.19,7.6.26.5.52.87.84,1.1.51.37,1.11.37,1.89.09.59-.19.95-.46,1.2-.79.64-.87.38-2.19.05-3.96-.89.13-1.78-.12-2.45-.62Z"/>
    <path class="cls-3" d="M50.57,114.79c-.64-.46-1.46-.65-2.26-.43-.59.17-1.06.51-1.4.97-.45.62-.63,1.43-.42,2.24.17.59.52,1.07,1,1.42.61.44,1.42.64,2.22.4.6-.16,1.1-.5,1.44-.97.45-.61.62-1.45.4-2.24-.18-.57-.52-1.07-.97-1.4ZM50.12,117.68c-.44.6-1.29.73-1.89.29-.6-.44-.73-1.29-.29-1.89.44-.6,1.29-.73,1.89-.29.59.43.73,1.29.29,1.89Z"/>
    <path class="cls-3" d="M67.05,119.32c-.7-.29-3.61-1.03-6.04-1.59-1.38-.32-2.58-.57-3.09-.62-.92-.07-1.66.44-1.97,1.79-.34,1.48.17,2.79,1.44,3.1l6.49,1.62c-.25.59-.46,1.36-.63,2.08-.12.51-.2.96-.25,1.34-1.93-.55-3.28-.9-4.2-1.11-1.24-.28-1.7-.33-1.7-.33-1.61-.19-2.29.41-2.64,1.94-.33,1.45.7,2.16,1.62,2.46.75.25,2.35.65,3.97,1.02,1.85.42,3.76.81,4.58.91,1.87.26,2.35-1.29,2.66-2.49.27-1.08.64-2.37.94-3.69.33-1.43.59-2.89.67-4.1.06-1.16-.93-1.97-1.84-2.31Z"/>
    <path class="cls-3" d="M82.26,124.22c.54.29,1.13.37,1.72.27.74-.13,1.44-.57,1.83-1.31.3-.54.4-1.14.31-1.71-.13-.74-.61-1.46-1.34-1.84-.54-.27-1.14-.37-1.68-.28-.78.13-1.48.6-1.88,1.32-.29.54-.37,1.12-.27,1.68.13.76.59,1.44,1.32,1.86ZM83.3,120.6c.73-.12,1.43.37,1.55,1.1.12.73-.37,1.43-1.1,1.55-.73.12-1.43-.37-1.55-1.1-.12-.73.37-1.43,1.1-1.55Z"/>
    <path class="cls-3" d="M86.24,123.91c-.53.73-1.32,1.19-2.15,1.33-.71.12-1.47,0-2.17-.37-.94-.51-1.55-1.41-1.72-2.38-.11-.65-.03-1.34.28-1.98-.93-.42-1.64-.61-2.37-.48-.69.12-1.79.82-2.4,1.61-.78,1.06-2.71,4.14-3.17,5.16-.19.45-.24.91-.17,1.36.09.53.38,1.04.91,1.46.63.48,1.22.66,1.77.57.37-.06.74-.25,1.06-.58,0,0,1.05-1.05,2.93-4.09,5.92,3.35,6.98,3.71,6.98,3.71.54.16.98.23,1.37.16.62-.11,1.04-.54,1.38-1.29.27-.56.34-1,.27-1.41-.18-1.06-1.31-1.79-2.81-2.79Z"/>
    <path class="cls-3" d="M103.3,114.3c-.8-1.23-1.66-2.44-2.48-3.34-.79-.86-2.06-.72-2.94-.29-.7.3-3.26,1.87-5.35,3.22-1.19.77-2.22,1.45-2.6,1.79-.69.62-.84,1.5-.09,2.66.83,1.28,2.12,1.83,3.23,1.13l5.69-3.53c.25.58.66,1.28,1.06,1.9.28.44.55.82.78,1.11-1.74,1-2.93,1.72-3.73,2.24-1.07.69-1.43.99-1.43.99-1.25,1.02-1.31,1.93-.45,3.26.8,1.25,2.03,1.01,2.89.56.7-.37,2.1-1.23,3.5-2.13,1.59-1.03,3.2-2.13,3.85-2.66,1.49-1.16.71-2.59.07-3.65-.59-.94-1.25-2.11-1.99-3.25Z"/>
    <path class="cls-3" d="M28.96,47.77c.51-.02,1-.31,1.48-.86.94-1.08.85-2.1-.26-3.06l-6.47-5.6c-.27-.24-.3-.65-.07-.92l1.08-1.25c.59-.68,1.17-.76,1.76-.26.24.23.36.46.36.69,0,.23-.04.46-.14.7-.1.23-.22.47-.37.71-.15.24-.26.48-.33.74-.07.26-.08.51-.02.77.06.26.25.52.56.79.87.76,1.73.65,2.58-.33l.46-.53c.47-.55.79-1.13.94-1.74.15-.61.18-1.21.09-1.8-.09-.59-.29-1.16-.61-1.69-.31-.53-.7-1-1.17-1.41-.47-.41-1-.72-1.59-.95-.59-.23-1.21-.33-1.85-.3-.64.03-1.29.2-1.95.53-.66.33-1.3.85-1.91,1.55l-2.85,3.29c-.9,1.04-.81,2.03.27,2.97l8.45,7.32c.52.45,1.04.67,1.55.64Z"/>
    <path class="cls-3" d="M35.24,37.81c.82,1.1,1.77,1.25,2.85.44l5.56-4.13c.52-.38.8-.85.85-1.39.05-.54-.09-1.04-.43-1.49-.33-.45-.77-.73-1.3-.84-.53-.11-1.06.03-1.57.41l-3.44,2.55c-.27.2-.66.15-.86-.13-.2-.27-.15-.66.13-.87l2.64-1.96c.52-.38.8-.85.85-1.39.05-.54-.09-1.04-.43-1.49-.33-.45-.77-.73-1.3-.84s-1.06.03-1.57.41l-2.64,1.96c-.27.2-.66.15-.87-.13h0c-.2-.27-.15-.66.13-.87l3.44-2.56c.52-.38.8-.85.85-1.39.05-.54-.09-1.04-.43-1.49-.33-.45-.77-.73-1.3-.84-.53-.11-1.06.03-1.57.41l-5.56,4.13c-1.09.81-1.22,1.76-.4,2.86l6.38,8.58Z"/>
    <path class="cls-3" d="M45.19,30.59c.27.6.66.98,1.17,1.14s1.02.12,1.53-.11c.5-.22.86-.57,1.09-1.05.23-.48.21-1.02-.06-1.63l-.98-2.21c-.12-.28.18-.55.45-.4l4.1,2.41c.61.31,1.2.34,1.77.08.24-.11.46-.26.64-.47.19-.21.33-.44.44-.68.11-.25.17-.51.18-.78.01-.28-.04-.54-.15-.8-.19-.44-.52-.76-.97-.98l-4.46-2.08c-.29-.14-.44-.47-.34-.78l1.49-4.63c.14-.46.11-.91-.08-1.35-.11-.24-.26-.46-.47-.64-.21-.19-.44-.32-.7-.41-.25-.09-.52-.13-.8-.13-.28,0-.55.06-.81.17-.3.13-.54.31-.71.53-.17.22-.31.49-.43.81l-.93,4.69c-.06.3-.47.35-.6.07l-.97-2.19c-.27-.6-.66-.98-1.17-1.14-.51-.15-1.01-.12-1.51.1-.51.23-.88.58-1.11,1.06-.23.48-.21,1.02.06,1.63l4.32,9.78Z"/>
    <path class="cls-3" d="M56.02,23.18c.55.85,1.21,1.54,1.99,2.1.78.56,1.66.95,2.64,1.19.98.24,1.98.27,3,.09s1.96-.53,2.81-1.08c.85-.54,1.55-1.21,2.11-1.99.56-.78.96-1.66,1.2-2.64.24-.98.27-1.98.09-3-.17-1.03-.53-1.96-1.08-2.81s-1.21-1.55-2-2.11c-.79-.56-1.67-.96-2.65-1.2-.98-.24-1.98-.27-3-.09-1.02.17-1.96.53-2.81,1.08-.85.54-1.54,1.21-2.1,2s-.95,1.67-1.18,2.65-.27,1.98-.09,3c.17,1.03.53,1.96,1.08,2.81ZM59.08,18.35c.1-.44.28-.84.54-1.2.26-.35.58-.65.95-.9.38-.25.8-.41,1.27-.49.47-.08.93-.06,1.38.04.45.11.84.29,1.2.54.35.25.65.57.9.95.25.39.41.81.49,1.29.08.47.06.93-.05,1.36-.11.44-.29.83-.54,1.19-.25.36-.57.66-.95.9-.39.24-.82.4-1.29.48-.47.08-.93.07-1.36-.03-.44-.1-.83-.28-1.2-.54-.36-.26-.66-.57-.9-.95s-.4-.8-.48-1.27c-.08-.47-.07-.93.03-1.37Z"/>
    <path class="cls-3" d="M78.05,26.3c1.42.24,2.26-.37,2.5-1.83l1.44-8.52c.06-.35.39-.58.74-.52l1.66.28c.89.15,1.27.61,1.14,1.38-.07.32-.21.55-.4.67-.2.13-.42.21-.68.24-.25.04-.52.05-.8.05-.28,0-.55.03-.81.1-.26.07-.48.2-.67.39-.19.19-.32.49-.39.9-.19,1.15.35,1.83,1.64,2.05l.69.12c.72.12,1.38.09,1.99-.1.61-.19,1.14-.48,1.6-.87.46-.39.84-.86,1.14-1.41.3-.55.5-1.13.6-1.75.1-.62.1-1.24-.02-1.87-.11-.63-.35-1.21-.71-1.75-.36-.54-.85-1-1.48-1.4-.63-.4-1.41-.67-2.33-.83l-4.32-.73c-1.37-.23-2.18.36-2.42,1.79l-1.88,11.11c-.12.69-.03,1.24.26,1.67.29.43.79.7,1.51.83Z"/>
    <path class="cls-3" d="M89.53,28.34l6.41,2.63c.6.24,1.14.25,1.63.01.49-.24.84-.61,1.05-1.13s.23-1.03.04-1.55c-.18-.51-.57-.89-1.17-1.13l-3.96-1.62c-.32-.13-.47-.49-.34-.81.13-.32.49-.47.81-.34l3.05,1.25c.6.24,1.14.25,1.63.01.49-.24.84-.61,1.05-1.13.21-.52.23-1.03.04-1.55-.18-.51-.57-.89-1.17-1.13l-3.05-1.25c-.32-.13-.47-.49-.34-.81h0c.13-.32.49-.47.81-.34l3.96,1.62c.6.24,1.14.25,1.63.01.49-.24.84-.61,1.05-1.13.21-.52.23-1.03.04-1.55s-.57-.89-1.17-1.13l-6.41-2.63c-1.25-.51-2.14-.13-2.66,1.13l-4.05,9.9c-.52,1.27-.15,2.16,1.1,2.67Z"/>
    <path class="cls-3" d="M99.35,32.03c.13.51.43.93.89,1.26.45.31.93.44,1.46.39.53-.05.98-.35,1.36-.89l1.39-1.98c.18-.25.57-.13.57.18l.05,4.75c.05.68.33,1.2.84,1.56.22.15.46.25.74.31.28.05.55.06.81.03.26-.03.51-.11.74-.24.24-.13.46-.32.62-.54.28-.39.39-.84.34-1.35l-.53-4.87c-.04-.33.18-.64.51-.72l4.72-1.12c.46-.12.83-.37,1.11-.76.15-.22.25-.46.31-.74.05-.28.05-.54,0-.81-.06-.27-.16-.53-.31-.77-.14-.24-.34-.44-.56-.6-.27-.18-.53-.29-.81-.32-.28-.03-.58-.02-.91.06l-4.5,1.63c-.29.1-.54-.22-.36-.48l1.38-1.96c.38-.54.5-1.07.37-1.58-.13-.52-.42-.93-.87-1.24-.46-.32-.95-.46-1.48-.41-.53.05-.99.35-1.36.89l-6.14,8.76c-.38.54-.5,1.07-.37,1.58Z"/>
    <path class="cls-3" d="M125.66,36.87c-.31-.96-.8-1.83-1.48-2.61-.68-.79-1.47-1.4-2.38-1.84-.9-.44-1.84-.69-2.8-.75-.96-.06-1.92.06-2.88.36-.96.31-1.83.8-2.62,1.48-.79.68-1.4,1.47-1.84,2.38-.44.9-.69,1.83-.76,2.79-.07.96.05,1.91.35,2.87.31.96.8,1.83,1.48,2.62.68.79,1.47,1.4,2.38,1.84.9.44,1.84.7,2.8.77.96.07,1.92-.04,2.88-.35.96-.31,1.83-.8,2.62-1.48.79-.68,1.4-1.47,1.84-2.38.44-.9.69-1.84.76-2.81.07-.97-.05-1.93-.35-2.89ZM121.52,40.78c-.2.41-.48.78-.84,1.09-.36.31-.76.54-1.19.67-.43.13-.86.19-1.3.16-.44-.03-.86-.14-1.26-.35-.41-.21-.77-.49-1.08-.85-.31-.36-.54-.75-.68-1.18-.14-.42-.19-.86-.16-1.3s.15-.86.35-1.26c.2-.4.48-.76.84-1.07.36-.31.76-.54,1.19-.69.43-.14.87-.2,1.3-.16.44.04.86.15,1.27.35.41.19.77.47,1.08.83.31.36.54.76.68,1.2.14.44.19.87.16,1.3-.03.43-.15.85-.35,1.26Z"/>
  </g>
  <g class="cls-5">
    <path class="cls-2" d="M72.01,19.64c-28.94,0-52.41,23.46-52.41,52.4s23.47,52.41,52.41,52.41,52.4-23.47,52.4-52.41-23.46-52.4-52.4-52.4ZM89.93,98.07v2.85c0,6.25-12.52,6.92-17.92,6.92s-17.92-.68-17.92-6.94v-2.84c-11.13-5.86-18.01-16.73-18.01-28.54,0-.59.01-1.16.06-1.65,0-3.32,3.04-6,9.05-7.95.31-3.6,2.6-6.73,5.91-8.13.15-3.76,2.44-7.06,5.88-8.52.72-3.67,3.53-6.66,7.19-7.57,1.82-2.4,4.66-3.81,7.69-3.81s5.78,1.37,7.61,3.69c3.81.82,6.81,3.9,7.55,7.69,3.44,1.47,5.73,4.76,5.88,8.52,3.31,1.4,5.6,4.53,5.91,8.13,6.04,1.95,9.01,4.57,9.05,7.89.04.57.06,1.13.06,1.71,0,11.82-6.88,22.68-18.01,28.54Z"/>
    <path class="cls-3" d="M100.4,65.59s-.01-.03-.02-.04c-1.15-1.59-3-2.65-5.11-2.7.06-.18.12-.36.17-.55.13-.49.2-1.01.2-1.53,0-3.53-2.81-6.38-6.31-6.49.22-.66.37-1.35.37-2.08,0-3.34-2.54-6.07-5.78-6.44.02-.22.06-.42.06-.65,0-3.54-2.84-6.43-6.38-6.5-1.09-2.07-3.23-3.49-5.73-3.49s-4.68,1.44-5.76,3.53c-3.39.23-6.07,3.03-6.07,6.46,0,.23.04.43.06.65-3.24.37-5.78,3.1-5.78,6.44,0,.73.16,1.42.37,2.08-3.49.11-6.31,2.96-6.31,6.49,0,.53.07,1.04.2,1.53.05.19.11.37.17.55-2.11.06-3.96,1.11-5.11,2.7,0,.01-.01.03-.02.04-1.51.77-2.34,1.63-2.58,2.52-.04.14-.2.28-.2.42,0,.03.04.07.04.1.06.77.71,1.5,1.73,2.19,0,.03,0,.07.01.1.11.07.28.14.41.21.26.15.55.29.85.44.5.25,1.06.48,1.68.71.36.13.7.27,1.09.39.8.26,1.69.5,2.63.73.29.07.54.15.85.22,1.27.29,2.65.55,4.11.78.05,0,.11.01.16.02.41.07.85.12,1.27.18,1.09.16,2.21.3,3.38.42.59.06,1.19.12,1.8.17,1.2.11,2.43.19,3.7.26.45.03.89.05,1.35.08.13,0,.26.02.39.02,1.86.08,3.76.13,5.72.13s3.86-.05,5.72-.13c.12,0,.23-.01.34-.02.47-.02.93-.05,1.4-.08,1.26-.07,2.5-.16,3.69-.26.46-.04.91-.09,1.36-.13.15-.01.3-.03.44-.04,1.18-.12,2.3-.27,3.39-.42.16-.02.32-.04.47-.07.32-.04.64-.08.94-.13,1.46-.24,2.85-.49,4.11-.78.17-.04.31-.09.48-.12.12-.03.24-.07.37-.1.94-.23,1.83-.48,2.63-.73.39-.13.74-.26,1.1-.39.62-.23,1.18-.47,1.68-.71.44-.21.91-.43,1.25-.65,0-.03,0-.07.01-.1,1.01-.69,1.66-1.42,1.73-2.18,0-.04.04-.07.04-.11,0-.15-.17-.3-.21-.45-.25-.88-1.07-1.72-2.57-2.49ZM64.24,60.19c-.16.59-.75.94-1.37.78-1.58-.44-3.24-.23-4.67.58-1.42.81-2.45,2.13-2.89,3.71-.14.49-.58.82-1.07.82-.1,0-.2-.01-.29-.04-.59-.16-.94-.77-.78-1.37.59-2.16,1.99-3.95,3.94-5.06,1.95-1.11,4.21-1.38,6.36-.79.59.16.94.78.78,1.37ZM66.87,50.59c-.1,0-.2-.01-.29-.04-.59-.16-.94-.77-.78-1.37.59-2.16,1.99-3.95,3.94-5.06,1.94-1.11,4.2-1.38,6.36-.79.59.16.94.77.78,1.37-.16.59-.75.94-1.37.78-1.58-.43-3.24-.23-4.67.58-1.42.81-2.45,2.13-2.89,3.72-.14.49-.58.82-1.07.82ZM79.13,67.76c-.16.59-.77.95-1.37.78-1.58-.43-3.24-.23-4.67.58-1.42.81-2.45,2.13-2.89,3.72-.14.49-.58.82-1.07.82-.1,0-.2-.01-.29-.04-.59-.16-.94-.77-.78-1.37.59-2.16,1.99-3.95,3.94-5.06,1.94-1.11,4.21-1.38,6.36-.79.59.16.94.77.78,1.37ZM86.48,54.85c-.16.59-.75.94-1.37.78-3.26-.9-6.66,1.03-7.57,4.29-.14.49-.59.82-1.07.82-.1,0-.2-.01-.29-.04-.59-.16-.94-.78-.78-1.37,1.23-4.44,5.85-7.07,10.3-5.85.59.16.94.77.78,1.37Z"/>
    <circle class="cls-1" cx="72.01" cy="69.87" r="43.39"/>
  </g>
</svg>