<?xml version="1.0" encoding="UTF-8"?>
<svg id="Variantes_Negro_y_Negativo" data-name="Variantes Negro y Negativo" xmlns="http://www.w3.org/2000/svg" xmlns:xlink="http://www.w3.org/1999/xlink" viewBox="0 0 144 144">
  <defs>
    <style>
      .cls-1, .cls-2 {
        fill: none;
      }

      .cls-3 {
        fill: #fff;
      }

      .cls-4 {
        fill: #910f0f;
      }

      .cls-5 {
        clip-path: url(#clippath);
      }

      .cls-2 {
        stroke: #fff;
        stroke-miterlimit: 10;
        stroke-width: 2.21px;
      }
    </style>
    <clipPath id="clippath">
      <circle class="cls-1" cx="72.01" cy="69.68" r="48.83"/>
    </clipPath>
  </defs>
  <rect class="cls-4" x="-20.06" y="-31.49" width="184.13" height="206.99"/>
  <g>
    <path class="cls-3" d="M43.91,125.63c-.65-.48-1.15-1.19-1.4-2.05-.33-1.16-.08-2.35.58-3.25.44-.6,1.06-1.07,1.82-1.32-.39-1.08-.79-1.8-1.47-2.3-.63-.46-2.06-.8-3.18-.68-1.47.2-5.46,1.05-6.65,1.48-.52.2-.93.52-1.23.93-.36.49-.55,1.12-.47,1.88.11.88.42,1.51.93,1.88.34.25.78.4,1.3.41,0,0,1.68.03,5.6-.83,1.93,7.4,2.47,8.55,2.47,8.55.29.56.58.98.94,1.24.57.42,1.25.41,2.12.1.66-.22,1.07-.51,1.35-.89.72-.98.43-2.46.06-4.45-1,.14-2-.14-2.76-.7Z"/>
    <path class="cls-3" d="M47.88,120.23c-.72-.52-1.64-.73-2.54-.49-.67.19-1.2.58-1.58,1.1-.51.7-.7,1.61-.47,2.53.19.66.59,1.21,1.13,1.6.68.5,1.6.72,2.49.45.68-.18,1.24-.57,1.62-1.09.5-.68.7-1.64.44-2.52-.2-.65-.59-1.21-1.09-1.57ZM47.37,123.48c-.49.67-1.45.82-2.12.33-.67-.49-.82-1.45-.33-2.12.49-.67,1.45-.82,2.12-.33.67.49.82,1.45.33,2.12Z"/>
    <path class="cls-3" d="M66.43,125.33c-.79-.33-4.07-1.16-6.8-1.79-1.55-.36-2.91-.65-3.47-.69-1.04-.07-1.87.5-2.22,2.01-.38,1.67.19,3.14,1.62,3.49l7.31,1.82c-.28.66-.52,1.53-.7,2.34-.13.57-.23,1.08-.28,1.5-2.17-.62-3.69-1.01-4.73-1.25-1.39-.32-1.92-.38-1.92-.38-1.81-.21-2.58.46-2.98,2.19-.37,1.63.78,2.43,1.82,2.77.84.28,2.64.73,4.47,1.15,2.08.48,4.23.91,5.15,1.02,2.1.3,2.65-1.46,3-2.8.3-1.21.72-2.67,1.06-4.16.37-1.61.67-3.25.75-4.62.07-1.3-1.04-2.22-2.07-2.6Z"/>
    <path class="cls-3" d="M83.54,130.84c.61.33,1.28.42,1.93.3.83-.14,1.63-.65,2.06-1.48.34-.61.45-1.28.35-1.92-.14-.84-.69-1.64-1.5-2.07-.61-.31-1.28-.42-1.89-.31-.88.15-1.67.68-2.12,1.49-.33.61-.42,1.26-.31,1.89.15.85.67,1.62,1.49,2.1ZM84.71,126.77c.82-.14,1.61.42,1.75,1.24.14.82-.42,1.61-1.24,1.75-.82.14-1.61-.42-1.75-1.24-.14-.82.42-1.61,1.24-1.75Z"/>
    <path class="cls-3" d="M88.02,130.49c-.6.82-1.49,1.34-2.42,1.5-.8.14-1.66,0-2.45-.42-1.06-.58-1.75-1.58-1.93-2.68-.12-.74-.03-1.51.32-2.22-1.05-.48-1.84-.69-2.67-.55-.78.13-2.01.92-2.7,1.81-.88,1.19-3.05,4.66-3.57,5.81-.22.51-.27,1.03-.19,1.53.1.6.43,1.18,1.02,1.65.7.54,1.37.75,1.99.64.42-.07.83-.28,1.2-.65,0,0,1.19-1.19,3.3-4.6,6.66,3.77,7.86,4.18,7.86,4.18.61.18,1.11.26,1.54.18.7-.12,1.16-.61,1.55-1.45.3-.63.38-1.13.3-1.59-.2-1.19-1.47-2.02-3.16-3.14Z"/>
    <path class="cls-3" d="M107.21,119.67c-.9-1.39-1.87-2.75-2.79-3.76-.89-.96-2.32-.8-3.31-.33-.79.34-3.67,2.11-6.02,3.63-1.34.86-2.49,1.64-2.92,2.01-.77.69-.95,1.69-.1,2.99.93,1.44,2.38,2.06,3.63,1.27l6.4-3.97c.28.66.74,1.44,1.19,2.13.32.49.62.92.88,1.25-1.96,1.12-3.3,1.94-4.2,2.52-1.2.78-1.61,1.11-1.61,1.11-1.41,1.15-1.47,2.17-.51,3.66.91,1.4,2.29,1.13,3.26.63.79-.41,2.37-1.39,3.94-2.4,1.79-1.16,3.61-2.4,4.33-2.99,1.68-1.3.8-2.92.08-4.11-.66-1.06-1.41-2.37-2.24-3.66Z"/>
    <path class="cls-3" d="M23.56,44.81c.58-.03,1.13-.35,1.66-.97,1.05-1.22.96-2.37-.29-3.45l-7.28-6.3c-.31-.27-.34-.73-.07-1.04l1.21-1.4c.66-.76,1.32-.86,1.98-.29.27.26.4.51.41.78,0,.26-.05.52-.16.78-.11.26-.25.53-.42.79-.17.27-.29.54-.37.83-.08.29-.09.58-.02.87.07.29.28.59.63.89.98.85,1.95.73,2.9-.37l.51-.6c.53-.62.89-1.27,1.06-1.95.17-.69.21-1.36.1-2.03-.1-.67-.33-1.3-.68-1.9-.35-.6-.79-1.13-1.32-1.59-.53-.46-1.13-.81-1.79-1.07-.67-.26-1.36-.37-2.08-.34-.72.03-1.45.23-2.2.6-.74.37-1.46.95-2.15,1.74l-3.2,3.7c-1.02,1.18-.92,2.29.3,3.34l9.51,8.23c.59.51,1.17.75,1.74.72Z"/>
    <path class="cls-3" d="M30.63,33.6c.92,1.24,1.99,1.4,3.21.49l6.26-4.65c.58-.43.9-.95.96-1.56.06-.61-.1-1.17-.48-1.67-.38-.51-.86-.82-1.46-.94-.6-.12-1.19.03-1.77.47l-3.87,2.87c-.31.23-.74.16-.97-.14-.23-.31-.17-.74.14-.97l2.97-2.21c.58-.43.9-.95.96-1.56.06-.61-.1-1.17-.48-1.67-.38-.51-.86-.82-1.46-.94s-1.19.03-1.77.47l-2.97,2.21c-.31.23-.74.16-.97-.14h0c-.23-.31-.17-.74.14-.97l3.87-2.88c.58-.43.9-.95.96-1.56.06-.61-.1-1.17-.48-1.67-.38-.51-.86-.82-1.46-.94-.6-.12-1.19.03-1.77.46l-6.26,4.65c-1.22.91-1.37,1.98-.45,3.22l7.18,9.66Z"/>
    <path class="cls-3" d="M41.82,25.48c.3.68.74,1.1,1.31,1.28s1.15.13,1.73-.13c.56-.25.97-.64,1.23-1.18.26-.54.24-1.15-.06-1.83l-1.1-2.49c-.14-.31.21-.62.5-.45l4.61,2.71c.68.35,1.35.38,1.99.09.27-.12.51-.3.72-.53.21-.24.38-.49.5-.77.12-.28.19-.57.2-.88.02-.31-.04-.61-.17-.9-.22-.49-.58-.86-1.1-1.1l-5.02-2.34c-.33-.15-.5-.53-.38-.88l1.68-5.21c.16-.52.13-1.02-.09-1.51-.12-.27-.3-.51-.53-.72-.23-.21-.5-.36-.78-.46-.29-.1-.59-.15-.9-.15-.31,0-.62.06-.91.19-.34.15-.61.35-.8.6-.19.25-.35.55-.48.91l-1.05,5.28c-.07.34-.53.39-.67.07l-1.09-2.47c-.3-.68-.74-1.1-1.31-1.28-.57-.17-1.14-.14-1.7.11-.58.26-.99.65-1.25,1.19-.26.54-.24,1.15.06,1.83l4.87,11.01Z"/>
    <path class="cls-3" d="M54.01,17.13c.61.95,1.36,1.74,2.24,2.36.88.62,1.87,1.07,2.97,1.34,1.1.26,2.23.3,3.38.11s2.21-.6,3.16-1.21c.95-.61,1.74-1.36,2.38-2.24.63-.88,1.08-1.87,1.35-2.97.27-1.1.3-2.23.11-3.38-.19-1.16-.6-2.21-1.21-3.16s-1.36-1.74-2.25-2.37c-.89-.63-1.88-1.08-2.98-1.35-1.1-.27-2.23-.3-3.38-.11-1.15.19-2.21.6-3.16,1.21-.95.61-1.74,1.36-2.36,2.25s-1.07,1.88-1.33,2.98-.3,2.23-.11,3.38c.2,1.15.6,2.21,1.21,3.16ZM57.46,11.7c.11-.5.31-.95.61-1.35.29-.4.65-.73,1.07-1.01.42-.28.9-.46,1.43-.55.53-.09,1.05-.07,1.55.05.5.12.95.33,1.35.61.4.28.73.64,1.01,1.07.28.43.47.91.56,1.45.09.53.07,1.04-.05,1.53-.12.49-.33.94-.61,1.34-.28.41-.64.74-1.07,1.02-.43.27-.92.45-1.45.54-.53.09-1.04.08-1.53-.04-.49-.11-.94-.32-1.35-.61-.41-.29-.75-.65-1.01-1.07s-.45-.9-.54-1.43c-.09-.53-.08-1.05.04-1.55Z"/>
    <path class="cls-3" d="M78.8,20.65c1.6.27,2.54-.41,2.82-2.05l1.63-9.59c.07-.39.44-.66.83-.59l1.87.32c1,.17,1.43.69,1.29,1.56-.08.36-.23.61-.46.75-.22.14-.48.23-.76.27-.29.04-.59.06-.9.06-.32,0-.62.03-.91.11-.29.08-.54.23-.76.44-.21.21-.36.55-.44,1.01-.22,1.29.4,2.06,1.84,2.31l.78.13c.81.14,1.56.1,2.24-.11.68-.21,1.28-.54,1.8-.98.52-.44.95-.97,1.28-1.58.33-.62.56-1.28.68-1.97.12-.7.11-1.4-.02-2.1-.13-.71-.39-1.36-.8-1.97-.4-.6-.96-1.13-1.67-1.58-.71-.45-1.58-.76-2.63-.94l-4.86-.82c-1.54-.26-2.45.41-2.72,2.01l-2.12,12.5c-.13.77-.03,1.4.29,1.88.32.48.89.79,1.7.93Z"/>
    <path class="cls-3" d="M91.72,22.95l7.22,2.96c.67.27,1.28.28,1.83.01.55-.27.94-.69,1.18-1.28s.26-1.16.05-1.74c-.21-.58-.64-1-1.31-1.28l-4.46-1.83c-.36-.15-.53-.55-.38-.91.15-.36.55-.53.91-.38l3.43,1.4c.67.27,1.28.28,1.83.01.55-.27.94-.69,1.18-1.28.24-.58.26-1.16.05-1.74-.21-.58-.64-1-1.31-1.28l-3.43-1.4c-.36-.15-.53-.55-.38-.91h0c.15-.36.55-.53.91-.38l4.46,1.83c.67.27,1.28.28,1.83.01.55-.27.95-.69,1.18-1.28.24-.58.26-1.16.05-1.74s-.64-1-1.31-1.28l-7.22-2.96c-1.41-.58-2.41-.15-2.99,1.28l-4.56,11.14c-.58,1.43-.17,2.43,1.24,3.01Z"/>
    <path class="cls-3" d="M102.77,27.1c.15.58.48,1.05,1,1.41.5.35,1.05.5,1.65.44.6-.06,1.11-.39,1.53-1l1.56-2.23c.2-.28.64-.14.64.2l.06,5.35c.05.76.37,1.35.95,1.75.24.17.52.29.83.34.31.06.62.07.92.03.29-.04.57-.13.84-.27.28-.15.52-.36.7-.61.31-.44.44-.95.38-1.51l-.59-5.48c-.04-.38.21-.72.57-.81l5.31-1.26c.52-.13.94-.42,1.25-.86.17-.24.29-.52.34-.83.06-.31.06-.61,0-.91-.07-.3-.18-.59-.35-.87-.16-.26-.38-.5-.64-.67-.3-.21-.6-.32-.91-.36-.31-.04-.66-.02-1.03.06l-5.06,1.83c-.32.12-.61-.25-.41-.54l1.55-2.21c.42-.61.56-1.2.42-1.78-.15-.58-.47-1.05-.98-1.4-.51-.36-1.07-.51-1.67-.46-.6.06-1.11.39-1.54,1l-6.91,9.86c-.43.61-.56,1.2-.41,1.78Z"/>
    <path class="cls-3" d="M132.37,32.55c-.34-1.08-.9-2.06-1.66-2.94-.77-.89-1.66-1.57-2.68-2.07-1.02-.49-2.07-.78-3.15-.85-1.08-.07-2.16.06-3.24.41-1.08.34-2.06.9-2.94,1.66-.88.77-1.57,1.66-2.07,2.68-.49,1.02-.78,2.06-.86,3.14-.08,1.07.06,2.15.4,3.23.34,1.08.9,2.06,1.67,2.94.77.88,1.66,1.57,2.67,2.07,1.02.49,2.07.78,3.15.87,1.08.08,2.16-.05,3.24-.39,1.08-.34,2.06-.9,2.94-1.66.89-.77,1.57-1.66,2.07-2.68.49-1.02.78-2.07.86-3.16.08-1.09-.05-2.17-.4-3.25ZM127.72,36.94c-.22.46-.54.87-.95,1.23-.41.35-.85.6-1.34.75-.48.15-.97.21-1.46.18-.49-.03-.97-.16-1.42-.39-.46-.23-.86-.55-1.22-.96-.35-.41-.61-.85-.76-1.33-.16-.48-.22-.97-.18-1.46s.16-.97.39-1.42c.22-.45.54-.85.95-1.21.41-.35.85-.61,1.34-.77.49-.16.97-.22,1.47-.18.49.04.97.17,1.42.39.46.22.86.53,1.22.94.35.41.61.86.76,1.35.15.49.22.98.18,1.46-.04.49-.16.96-.39,1.42Z"/>
  </g>
  <g class="cls-5">
    <path class="cls-2" d="M72.01,13.15c-32.57,0-58.98,26.4-58.98,58.96s26.41,58.98,58.98,58.98,58.96-26.41,58.96-58.98S104.57,13.15,72.01,13.15ZM92.17,101.41v3.21c0,7.03-14.09,7.79-20.16,7.79s-20.16-.76-20.16-7.81l.02-3.19c-12.54-6.6-20.28-18.82-20.28-32.12,0-.66.02-1.31.07-1.85,0-3.74,3.42-6.75,10.19-8.95.35-4.05,2.93-7.58,6.65-9.15.17-4.23,2.75-7.94,6.62-9.59.81-4.13,3.97-7.49,8.09-8.52,2.05-2.7,5.24-4.28,8.65-4.28s6.5,1.54,8.57,4.15c4.28.93,7.66,4.38,8.5,8.65,3.87,1.65,6.45,5.36,6.62,9.59,3.72,1.57,6.3,5.09,6.65,9.15,6.8,2.2,10.14,5.14,10.19,8.88.05.65.07,1.27.07,1.92,0,13.3-7.74,25.52-20.26,32.12Z"/>
    <path class="cls-3" d="M103.95,64.86s-.01-.03-.02-.05c-1.29-1.79-3.38-2.98-5.75-3.04.07-.2.13-.4.19-.62.15-.55.23-1.13.23-1.72,0-3.97-3.16-7.18-7.1-7.3.24-.74.42-1.52.42-2.34,0-3.76-2.86-6.83-6.51-7.25.03-.24.07-.47.07-.73,0-3.99-3.19-7.23-7.18-7.31-1.23-2.33-3.64-3.93-6.45-3.93s-5.27,1.62-6.48,3.97c-3.81.26-6.83,3.41-6.83,7.27,0,.26.04.48.07.73-3.65.42-6.51,3.49-6.51,7.25,0,.82.18,1.6.42,2.34-3.93.12-7.1,3.33-7.1,7.3,0,.59.08,1.17.23,1.72.05.22.12.42.19.62-2.37.07-4.46,1.25-5.75,3.04-.01.01-.01.03-.02.05-1.7.87-2.63,1.83-2.9,2.83-.04.16-.22.31-.22.47,0,.04.04.08.04.12.07.86.8,1.69,1.95,2.47,0,.04,0,.08.01.11.13.08.32.16.46.24.29.17.62.33.95.49.57.28,1.2.54,1.89.8.4.15.79.3,1.23.44.9.29,1.9.56,2.96.83.33.08.61.17.96.25,1.43.32,2.98.62,4.63.88.06,0,.12.02.18.02.46.07.96.13,1.43.2,1.23.17,2.49.34,3.81.48.66.07,1.34.13,2.02.19,1.35.12,2.74.22,4.16.3.5.03,1,.06,1.51.08.15,0,.29.02.44.02,2.09.09,4.23.15,6.44.15s4.35-.06,6.44-.15c.13,0,.25-.02.38-.02.53-.02,1.05-.06,1.57-.09,1.42-.08,2.81-.18,4.16-.3.52-.05,1.02-.1,1.53-.15.16-.02.33-.03.5-.05,1.33-.14,2.59-.3,3.82-.48.18-.03.36-.05.53-.07.36-.05.72-.09,1.06-.15,1.65-.26,3.2-.56,4.63-.88.19-.04.35-.1.54-.14.13-.04.27-.07.42-.11,1.06-.26,2.06-.53,2.96-.83.44-.14.83-.29,1.23-.44.69-.26,1.32-.53,1.89-.8.49-.24,1.02-.48,1.41-.73,0-.04,0-.08.01-.11,1.14-.78,1.87-1.59,1.94-2.45,0-.04.05-.08.05-.13,0-.17-.19-.33-.24-.5-.28-.99-1.2-1.94-2.89-2.8ZM63.26,58.78c-.19.66-.85,1.06-1.54.88-1.78-.5-3.64-.26-5.26.65-1.6.91-2.76,2.39-3.25,4.18-.16.56-.66.92-1.21.92-.11,0-.22-.01-.33-.04-.67-.19-1.06-.87-.88-1.54.67-2.43,2.24-4.45,4.43-5.69,2.19-1.25,4.74-1.55,7.16-.89.67.19,1.06.88.88,1.54ZM66.22,47.98c-.11,0-.22-.01-.33-.04-.67-.19-1.06-.87-.88-1.54.67-2.43,2.24-4.45,4.43-5.69,2.19-1.25,4.73-1.56,7.16-.89.67.19,1.06.87.87,1.54-.19.66-.84,1.06-1.54.88-1.78-.49-3.64-.26-5.26.65-1.6.91-2.76,2.4-3.25,4.18-.16.56-.66.92-1.21.92ZM80.02,67.3c-.19.66-.86,1.06-1.54.88-1.78-.48-3.64-.26-5.26.65-1.6.91-2.76,2.4-3.25,4.18-.16.56-.66.92-1.21.92-.11,0-.22-.01-.33-.04-.67-.19-1.06-.87-.87-1.54.67-2.43,2.24-4.45,4.43-5.69,2.18-1.25,4.73-1.56,7.16-.89.67.19,1.06.87.88,1.54ZM88.29,52.78c-.19.66-.84,1.06-1.54.88-3.66-1.01-7.5,1.16-8.51,4.83-.16.56-.66.92-1.21.92-.11,0-.22-.01-.33-.04-.67-.19-1.06-.88-.88-1.54,1.38-5,6.59-7.95,11.59-6.58.67.19,1.06.87.88,1.54Z"/>
    <circle class="cls-1" cx="72.01" cy="69.68" r="48.83"/>
  </g>
</svg>